<svg width="1116" height="565" viewBox="0 0 1116 565" fill="none" xmlns="http://www.w3.org/2000/svg">
<rect width="1116" height="565" fill="white"/>
<path d="M322.002 447.951C323.224 445.235 328.788 432.038 328.84 434.227C328.91 437.123 327.619 449.405 330.816 447.819C332.667 446.9 339.467 426.62 339.782 441.353C339.875 445.719 340.295 461.896 343.277 453.757C345.15 448.646 347.987 431.467 347.987 437.526C347.987 441.939 351.997 464.741 355.13 459.3C357.952 454.398 359.953 448.594 361.968 442.672C362.27 441.784 365.486 431.441 365.691 433.039C366.131 436.478 367.618 463.293 368.806 463.523C373.911 464.508 373.699 435.161 377.012 433.435C377.612 433.122 378.501 454.628 380.279 450.854C383.439 444.146 384.402 434.941 386.813 427.497C387.381 425.746 390.743 447.34 391.144 450.59C393.881 472.769 395.68 446.946 397.147 437.394C400.412 416.128 398.608 432.829 400.642 442.013C401.224 444.641 400.848 449.233 402.01 451.25C402.715 452.475 405.34 432.418 406.492 440.825C406.95 444.164 407.969 469.065 408.848 469.065C411.745 469.065 414.658 449.161 415.002 445.576" stroke="#93227E" stroke-width="16" stroke-linecap="round" stroke-linejoin="round"/>
<path d="M103.97 459.122C104.926 456.092 109.199 441.475 109.457 443.623C109.799 446.466 109.677 458.968 112.697 456.495C114.446 455.063 119.278 433.097 120.978 447.566C121.481 451.854 123.422 467.721 125.612 458.834C126.987 453.252 128.182 435.472 128.753 441.46C129.169 445.82 135.293 467.218 137.887 460.953C140.223 455.31 141.661 449.007 143.1 442.585C143.316 441.622 145.531 430.49 145.884 432.011C146.645 435.284 150.646 461.362 151.846 461.252C157 460.779 154.025 431.839 157.147 429.195C157.713 428.716 160.621 449.716 162.028 445.483C164.529 437.959 164.617 428.59 166.306 420.551C166.703 418.66 172.072 439.046 172.776 442.145C177.579 463.286 176.93 437.259 177.485 427.404C178.718 405.465 178.503 422.479 181.385 430.978C182.21 433.41 182.27 438.055 183.612 439.719C184.427 440.73 185.14 420.166 187.074 428.147C187.843 431.317 191.2 455.635 192.071 455.386C194.943 454.566 195.957 434.071 195.96 430.431" stroke="#93227E" stroke-width="16" stroke-linecap="round" stroke-linejoin="round"/>
<path d="M224.97 459.122C225.926 456.092 230.199 441.475 230.457 443.623C230.799 446.466 230.677 458.968 233.697 456.495C235.446 455.063 240.278 433.097 241.978 447.566C242.481 451.854 244.422 467.721 246.612 458.834C247.987 453.252 249.182 435.472 249.753 441.46C250.169 445.82 256.293 467.218 258.887 460.953C261.223 455.31 262.661 449.007 264.1 442.585C264.316 441.622 266.531 430.49 266.884 432.011C267.645 435.284 271.646 461.362 272.846 461.252C278 460.779 275.025 431.839 278.147 429.195C278.713 428.716 281.621 449.716 283.028 445.483C285.529 437.959 285.617 428.59 287.306 420.551C287.703 418.66 293.072 439.046 293.776 442.145C298.579 463.286 297.93 437.259 298.485 427.404C299.718 405.465 299.503 422.479 302.385 430.978C303.21 433.41 303.27 438.055 304.612 439.719C305.427 440.73 306.14 420.166 308.074 428.147C308.843 431.317 312.2 455.635 313.071 455.386C315.943 454.566 316.957 434.071 316.96 430.431" stroke="#93227E" stroke-width="16" stroke-linecap="round" stroke-linejoin="round"/>
<path d="M421.61 275.828C423.003 278.298 429.822 289.658 428.56 289.455C426.89 289.187 420.021 285.317 420.501 291.04C420.779 294.354 431.494 308.793 423.004 307.362C420.487 306.937 411.154 305.494 415.421 311.725C418.1 315.638 427.569 322.832 424.095 322.02C421.565 321.429 407.95 325.286 410.649 331.416C413.081 336.937 416.14 341.165 419.265 345.431C419.733 346.071 425.232 353.001 424.288 353.14C422.257 353.437 406.681 352.409 406.39 354.426C405.139 363.094 421.995 366.661 422.54 372.603C422.638 373.679 410.187 372.331 412.112 375.901C415.534 382.248 420.683 385.141 424.627 390.295C425.555 391.507 412.721 394.411 410.803 394.667C397.717 396.413 412.283 402.974 417.563 406.782C429.319 415.259 419.985 409.913 414.445 412.189C412.86 412.84 410.277 411.577 408.964 413.309C408.167 414.361 419.315 421.573 414.34 422.433C412.364 422.775 397.948 421.196 397.829 422.711C397.44 427.705 408.462 435.393 410.472 436.467" stroke="#93227E" stroke-width="16" stroke-linecap="round" stroke-linejoin="round"/>
<rect x="93.5022" y="257.5" width="329" height="204" rx="7.5" fill="#93227E" stroke="black" stroke-width="5"/>
<path d="M103.002 454C104.392 447.018 104.839 439.838 104.839 432.401C104.839 427.137 104.278 420.429 105.315 415.602C106.743 408.95 103.002 394.552 105.451 388.269C105.451 381.181 103.002 367.004 105.451 367.004C105.451 358.677 103.002 355.518 103.002 347.013C103.002 341.679 106.285 327.591 105.145 322.672C103.437 315.306 104.839 303.223 104.839 295.006C104.839 287.675 103.426 279.7 104.26 272.341C104.54 269.87 130.581 272.341 133.239 272.341C162.718 272.341 178.324 267.074 207.094 272.341C212.868 272.341 225.392 272.341 225.392 272.341C240.163 272.341 243.858 272.341 252.949 272.341C269.281 272.341 286.918 272.341 303.215 272.341C326.895 272.341 355.243 272.341 355.243 272.341C358.326 272.341 377.29 272.341 377.29 272.341L392.195 273.407C394.396 271.447 397.024 273.626 399.269 273.941C401.851 274.302 403.596 272.807 406.002 272.807" stroke="#721861" stroke-width="17" stroke-linecap="round" stroke-linejoin="round"/>
<g filter="url(#filter0_d)">
<rect x="140.002" y="285" width="50" height="38.0612" fill="#ED8B00"/>
<rect x="141.002" y="286" width="48" height="36.0612" stroke="black" stroke-width="2"/>
</g>
<path d="M147.002 290.329C145.274 299.341 146.31 309.306 146.31 318.494" stroke="#FFB200" stroke-width="7" stroke-linecap="round" stroke-linejoin="round"/>
<path d="M146.002 288.248C158.68 288.248 171.525 287.487 184.002 287.487" stroke="#FFB200" stroke-width="7" stroke-linecap="round" stroke-linejoin="round"/>
<g filter="url(#filter1_d)">
<rect x="143.002" y="373" width="50" height="38.0612" fill="#ED8B00"/>
<rect x="144.002" y="374" width="48" height="36.0612" stroke="black" stroke-width="2"/>
</g>
<path d="M150.002 378.329C148.274 387.341 149.31 397.306 149.31 406.494" stroke="#FFB200" stroke-width="7" stroke-linecap="round" stroke-linejoin="round"/>
<path d="M149.002 376.248C161.68 376.248 174.525 375.487 187.002 375.487" stroke="#FFB200" stroke-width="7" stroke-linecap="round" stroke-linejoin="round"/>
<g filter="url(#filter2_d)">
<rect x="235.002" y="285" width="50" height="38.0612" fill="#ED8B00"/>
<rect x="236.002" y="286" width="48" height="36.0612" stroke="black" stroke-width="2"/>
</g>
<path d="M242.002 290.329C240.274 299.341 241.31 309.306 241.31 318.494" stroke="#FFB200" stroke-width="7" stroke-linecap="round" stroke-linejoin="round"/>
<path d="M241.002 288.248C253.68 288.248 266.525 287.487 279.002 287.487" stroke="#FFB200" stroke-width="7" stroke-linecap="round" stroke-linejoin="round"/>
<g filter="url(#filter3_d)">
<rect x="235.002" y="374" width="50" height="38.0612" fill="#ED8B00"/>
<rect x="236.002" y="375" width="48" height="36.0612" stroke="black" stroke-width="2"/>
</g>
<path d="M242.002 379.329C240.274 388.341 241.31 398.306 241.31 407.494" stroke="#FFB200" stroke-width="7" stroke-linecap="round" stroke-linejoin="round"/>
<path d="M241.002 377.248C253.68 377.248 266.525 376.487 279.002 376.487" stroke="#FFB200" stroke-width="7" stroke-linecap="round" stroke-linejoin="round"/>
<g filter="url(#filter4_d)">
<rect x="331.002" y="282" width="50" height="82.5059" fill="#ED8B00"/>
<path d="M338.002 294.462C336.274 314.954 337.31 337.614 337.31 358.506" stroke="#FFB200" stroke-width="7" stroke-linecap="round" stroke-linejoin="round"/>
<path d="M337.002 289.731C349.68 289.731 362.525 288 375.002 288" stroke="#FFB200" stroke-width="7" stroke-linecap="round" stroke-linejoin="round"/>
<rect x="332.002" y="283" width="48" height="80.5059" stroke="black" stroke-width="2"/>
</g>
<path d="M141.369 461C143.873 466.748 153.894 482 146.066 482C142.5 482 137.511 490.753 136.002 496" stroke="white" stroke-width="2" stroke-linecap="round" stroke-linejoin="round"/>
<path d="M31.928 89.964C37.016 89.964 39.56 92.328 39.56 97.056V104.184C39.56 105.504 40.064 106.344 41.072 106.704C40.712 107.616 40.04 108.072 39.056 108.072C38.336 108.072 37.76 107.82 37.328 107.316C36.92 106.788 36.716 106.104 36.716 105.264C35.204 107.28 33.248 108.288 30.848 108.288C28.904 108.288 27.368 107.796 26.24 106.812C25.136 105.804 24.584 104.46 24.584 102.78C24.584 101.076 25.232 99.696 26.528 98.64C27.848 97.584 29.624 97.056 31.856 97.056C33.2 97.056 34.328 97.2 35.24 97.488C35.984 97.752 36.428 97.92 36.572 97.992V96.408C36.572 94.944 36.2 93.912 35.456 93.312C34.712 92.688 33.584 92.376 32.072 92.376C29.936 92.376 28.28 93.192 27.104 94.824C26.096 94.68 25.592 94.212 25.592 93.42C25.592 92.508 26.216 91.704 27.464 91.008C28.712 90.312 30.2 89.964 31.928 89.964ZM36.572 100.296C35.06 99.624 33.572 99.288 32.108 99.288C30.644 99.288 29.516 99.6 28.724 100.224C27.932 100.848 27.536 101.664 27.536 102.672C27.536 103.656 27.872 104.448 28.544 105.048C29.24 105.624 30.248 105.912 31.568 105.912C32.912 105.912 34.076 105.432 35.06 104.472C36.068 103.512 36.572 102.348 36.572 100.98V100.296ZM46.4425 82.764H46.6945C47.6065 82.764 48.0625 83.208 48.0625 84.096V106.632C48.0625 107.544 47.6065 108 46.6945 108H46.4425C45.9385 108 45.5785 107.892 45.3625 107.676C45.1705 107.46 45.0745 107.112 45.0745 106.632V84.096C45.0745 83.616 45.1705 83.28 45.3625 83.088C45.5785 82.872 45.9385 82.764 46.4425 82.764ZM55.5221 90.252H55.7381C56.6501 90.252 57.1061 90.696 57.1061 91.584V106.632C57.1061 107.544 56.6501 108 55.7381 108H55.5221C54.6101 108 54.1541 107.544 54.1541 106.632V91.584C54.1541 90.696 54.6101 90.252 55.5221 90.252ZM53.6501 85.176C53.6501 84.624 53.8421 84.156 54.2261 83.772C54.6101 83.364 55.0661 83.16 55.5941 83.16C56.1461 83.16 56.6141 83.364 56.9981 83.772C57.4061 84.156 57.6101 84.624 57.6101 85.176C57.6101 85.704 57.4181 86.172 57.0341 86.58C56.6501 86.964 56.1821 87.156 55.6301 87.156C55.0781 87.156 54.6101 86.964 54.2261 86.58C53.8421 86.196 53.6501 85.728 53.6501 85.176ZM69.3719 102.852L67.7519 102.78C67.1759 102.78 66.6839 102.936 66.2759 103.248C65.8679 103.536 65.6639 103.86 65.6639 104.22C65.6639 105.132 66.4319 105.588 67.9679 105.588H70.6319C75.7439 105.588 78.2999 107.16 78.2999 110.304C78.2999 111.96 77.4959 113.304 75.8879 114.336C74.3039 115.368 72.2639 115.932 69.7679 116.028H68.9039C66.8639 116.028 65.1239 115.62 63.6839 114.804C62.2439 113.988 61.5239 113.028 61.5239 111.924C61.5239 111.396 61.6439 110.976 61.8839 110.664C62.1479 110.352 62.4839 110.172 62.8919 110.124C63.3479 111.06 64.1519 111.84 65.3039 112.464C66.4559 113.088 67.8119 113.4 69.3719 113.4H69.6239C71.4239 113.4 72.8279 113.124 73.8359 112.572C74.8679 112.02 75.3839 111.324 75.3839 110.484C75.3839 109.668 74.9279 109.068 74.0159 108.684C73.1279 108.324 71.5799 108.144 69.3719 108.144C67.1879 108.144 65.5439 107.928 64.4399 107.496C63.3359 107.064 62.7839 106.224 62.7839 104.976C62.7839 103.728 63.6599 102.744 65.4119 102.024C63.3239 100.848 62.2799 98.976 62.2799 96.408C62.2799 94.368 62.9759 92.784 64.3679 91.656C65.7599 90.528 67.4759 89.964 69.5159 89.964C70.5479 89.964 71.4959 90.18 72.3599 90.612C73.2479 91.044 73.9199 91.512 74.3759 92.016C75.2879 91.416 75.7439 90.324 75.7439 88.74C76.3919 88.74 76.9679 88.944 77.4719 89.352C77.9759 89.736 78.2279 90.228 78.2279 90.828C78.2279 92.028 77.3399 92.892 75.5639 93.42C76.0919 94.14 76.3559 95.196 76.3559 96.588C76.3559 98.628 75.6839 100.188 74.3399 101.268C73.0199 102.324 71.3639 102.852 69.3719 102.852ZM72.3959 93.312C71.6039 92.616 70.5959 92.268 69.3719 92.268C68.1479 92.268 67.1279 92.616 66.3119 93.312C65.4959 93.984 65.0879 95.028 65.0879 96.444C65.0879 97.86 65.4959 98.916 66.3119 99.612C67.1279 100.284 68.1479 100.62 69.3719 100.62C70.5959 100.62 71.6039 100.284 72.3959 99.612C73.2119 98.916 73.6199 97.86 73.6199 96.444C73.6199 95.028 73.2119 93.984 72.3959 93.312ZM83.3515 90.252H83.6035C84.5155 90.252 84.9715 90.708 84.9715 91.62V93.384C85.4275 92.472 86.1475 91.668 87.1315 90.972C88.1155 90.276 89.2435 89.928 90.5155 89.928C92.4595 89.928 94.0435 90.516 95.2675 91.692C96.5155 92.844 97.1395 94.68 97.1395 97.2V106.632C97.1395 107.112 97.0315 107.46 96.8155 107.676C96.5995 107.892 96.2515 108 95.7715 108H95.4835C94.5955 108 94.1515 107.544 94.1515 106.632V97.308C94.1515 95.556 93.7795 94.308 93.0355 93.564C92.2915 92.82 91.2115 92.448 89.7955 92.448C88.3795 92.448 87.2275 93.024 86.3395 94.176C85.4515 95.328 85.0075 96.852 85.0075 98.748V106.632C85.0075 107.544 84.5395 108 83.6035 108H83.3515C82.8715 108 82.5235 107.892 82.3075 107.676C82.0915 107.46 81.9835 107.112 81.9835 106.632V91.62C81.9835 90.708 82.4395 90.252 83.3515 90.252ZM102.527 96.228H112.103C112.991 96.228 113.435 96.624 113.435 97.416C113.435 98.208 112.991 98.604 112.103 98.604H102.527C101.639 98.604 101.195 98.208 101.195 97.416C101.195 96.624 101.639 96.228 102.527 96.228ZM119.606 91.98C120.494 91.284 121.442 90.768 122.45 90.432C123.458 90.096 124.682 89.928 126.122 89.928C127.562 89.928 128.822 90.252 129.902 90.9C131.006 91.548 131.558 92.244 131.558 92.988C131.558 93.9 131.042 94.416 130.01 94.536C129.77 94.008 129.23 93.528 128.39 93.096C127.55 92.64 126.554 92.412 125.402 92.412C123.794 92.412 122.462 92.988 121.406 94.14C120.35 95.268 119.822 96.924 119.822 99.108C119.822 101.292 120.362 102.96 121.442 104.112C122.522 105.264 123.818 105.84 125.33 105.84C127.73 105.84 129.35 105.06 130.19 103.5C130.646 103.5 131.03 103.644 131.342 103.932C131.654 104.196 131.81 104.544 131.81 104.976C131.81 105.816 131.234 106.584 130.082 107.28C128.93 107.952 127.61 108.288 126.122 108.288C124.658 108.288 123.41 108.12 122.378 107.784C121.37 107.424 120.434 106.896 119.57 106.2C118.706 105.48 118.022 104.52 117.518 103.32C117.014 102.12 116.762 100.728 116.762 99.144C116.762 97.536 117.014 96.12 117.518 94.896C118.046 93.648 118.742 92.676 119.606 91.98ZM137.142 92.34C138.846 90.732 140.934 89.928 143.406 89.928C145.878 89.928 147.966 90.732 149.67 92.34C151.374 93.948 152.226 96.216 152.226 99.144C152.226 102.072 151.374 104.328 149.67 105.912C147.966 107.496 145.878 108.288 143.406 108.288C140.934 108.288 138.846 107.496 137.142 105.912C135.438 104.328 134.586 102.072 134.586 99.144C134.586 96.216 135.438 93.948 137.142 92.34ZM147.546 94.176C146.49 93 145.11 92.412 143.406 92.412C141.702 92.412 140.31 93 139.23 94.176C138.174 95.328 137.646 96.984 137.646 99.144C137.646 101.28 138.174 102.936 139.23 104.112C140.31 105.264 141.702 105.84 143.406 105.84C145.11 105.84 146.49 105.264 147.546 104.112C148.626 102.936 149.166 101.28 149.166 99.144C149.166 96.984 148.626 95.328 147.546 94.176ZM157.742 90.252H157.994C158.906 90.252 159.362 90.708 159.362 91.62V93.384C159.818 92.472 160.538 91.668 161.522 90.972C162.506 90.276 163.634 89.928 164.906 89.928C166.85 89.928 168.434 90.516 169.658 91.692C170.906 92.844 171.53 94.68 171.53 97.2V106.632C171.53 107.112 171.422 107.46 171.206 107.676C170.99 107.892 170.642 108 170.162 108H169.874C168.986 108 168.542 107.544 168.542 106.632V97.308C168.542 95.556 168.17 94.308 167.426 93.564C166.682 92.82 165.602 92.448 164.186 92.448C162.77 92.448 161.618 93.024 160.73 94.176C159.842 95.328 159.398 96.852 159.398 98.748V106.632C159.398 107.544 158.93 108 157.994 108H157.742C157.262 108 156.914 107.892 156.698 107.676C156.482 107.46 156.374 107.112 156.374 106.632V91.62C156.374 90.708 156.83 90.252 157.742 90.252ZM179.329 85.464H179.581C180.493 85.464 180.949 85.908 180.949 86.796V90.36H185.917C186.853 90.36 187.321 90.768 187.321 91.584C187.321 92.4 186.853 92.808 185.917 92.808H180.949V101.88C180.949 103.392 181.237 104.46 181.813 105.084C182.413 105.684 183.277 105.984 184.405 105.984C185.557 105.984 186.409 105.708 186.961 105.156C187.561 105.348 187.861 105.732 187.861 106.308C187.861 106.884 187.465 107.364 186.673 107.748C185.881 108.108 184.933 108.288 183.829 108.288C179.917 108.288 177.961 106.152 177.961 101.88V92.808H176.197C175.669 92.808 175.285 92.724 175.045 92.556C174.805 92.388 174.685 92.064 174.685 91.584C174.685 90.768 175.189 90.36 176.197 90.36H177.961V86.796C177.961 85.908 178.417 85.464 179.329 85.464ZM189.746 99.18C189.746 96.18 190.586 93.888 192.266 92.304C193.946 90.72 195.878 89.928 198.062 89.928C200.246 89.928 201.974 90.492 203.246 91.62C204.518 92.724 205.154 94.104 205.154 95.76C205.154 97.416 204.494 98.712 203.174 99.648C201.878 100.56 200.198 101.016 198.134 101.016C196.07 101.016 194.21 100.692 192.554 100.044C192.554 101.796 193.154 103.212 194.354 104.292C195.554 105.348 197.018 105.876 198.746 105.876C201.434 105.876 203.114 105.048 203.786 103.392C204.194 103.392 204.542 103.512 204.83 103.752C205.118 103.968 205.262 104.292 205.262 104.724C205.262 105.564 204.638 106.368 203.39 107.136C202.166 107.904 200.606 108.288 198.71 108.288C196.166 108.288 194.03 107.52 192.302 105.984C190.598 104.448 189.746 102.18 189.746 99.18ZM202.418 95.652C202.418 94.716 202.01 93.924 201.194 93.276C200.402 92.628 199.298 92.304 197.882 92.304C196.49 92.304 195.266 92.868 194.21 93.996C193.154 95.124 192.614 96.396 192.59 97.812C194.318 98.388 196.034 98.676 197.738 98.676C200.858 98.676 202.418 97.668 202.418 95.652ZM210.758 90.252H211.01C211.922 90.252 212.378 90.708 212.378 91.62V93.384C212.834 92.472 213.554 91.668 214.538 90.972C215.522 90.276 216.65 89.928 217.922 89.928C219.866 89.928 221.45 90.516 222.674 91.692C223.922 92.844 224.546 94.68 224.546 97.2V106.632C224.546 107.112 224.438 107.46 224.222 107.676C224.006 107.892 223.658 108 223.178 108H222.89C222.002 108 221.558 107.544 221.558 106.632V97.308C221.558 95.556 221.186 94.308 220.442 93.564C219.698 92.82 218.618 92.448 217.202 92.448C215.786 92.448 214.634 93.024 213.746 94.176C212.858 95.328 212.414 96.852 212.414 98.748V106.632C212.414 107.544 211.946 108 211.01 108H210.758C210.278 108 209.93 107.892 209.714 107.676C209.498 107.46 209.39 107.112 209.39 106.632V91.62C209.39 90.708 209.846 90.252 210.758 90.252ZM232.345 85.464H232.597C233.509 85.464 233.965 85.908 233.965 86.796V90.36H238.933C239.869 90.36 240.337 90.768 240.337 91.584C240.337 92.4 239.869 92.808 238.933 92.808H233.965V101.88C233.965 103.392 234.253 104.46 234.829 105.084C235.429 105.684 236.293 105.984 237.421 105.984C238.573 105.984 239.425 105.708 239.977 105.156C240.577 105.348 240.877 105.732 240.877 106.308C240.877 106.884 240.481 107.364 239.689 107.748C238.897 108.108 237.949 108.288 236.845 108.288C232.933 108.288 230.977 106.152 230.977 101.88V92.808H229.213C228.685 92.808 228.301 92.724 228.061 92.556C227.821 92.388 227.701 92.064 227.701 91.584C227.701 90.768 228.205 90.36 229.213 90.36H230.977V86.796C230.977 85.908 231.433 85.464 232.345 85.464Z" fill="black"/>
<path d="M102.242 214.64C102.856 214.64 103.362 214.78 103.762 215.06C104.176 215.34 104.382 215.693 104.382 216.12C104.382 216.533 104.169 216.813 103.742 216.96C103.409 216.4 102.876 216.12 102.142 216.12C100.756 216.12 100.062 217.08 100.062 219V219.2H102.522C103.029 219.2 103.282 219.427 103.282 219.88C103.282 220.32 103.029 220.54 102.522 220.54H100.062V228.34C100.062 228.607 100.002 228.8 99.8822 228.92C99.7622 229.027 99.5689 229.08 99.3022 229.08H99.2022C98.9222 229.08 98.7222 229.027 98.6022 228.92C98.4822 228.8 98.4222 228.607 98.4222 228.34V220.54H97.3822C97.1022 220.54 96.9022 220.5 96.7822 220.42C96.6755 220.327 96.6222 220.147 96.6222 219.88C96.6222 219.613 96.6822 219.433 96.8022 219.34C96.9222 219.247 97.1155 219.2 97.3822 219.2H98.4222V218.56C98.4222 217.32 98.7622 216.36 99.4422 215.68C100.122 214.987 101.056 214.64 102.242 214.64ZM105.823 214.98H105.963C106.469 214.98 106.723 215.227 106.723 215.72V228.24C106.723 228.747 106.469 229 105.963 229H105.823C105.543 229 105.343 228.94 105.223 228.82C105.116 228.7 105.063 228.507 105.063 228.24V215.72C105.063 215.453 105.116 215.267 105.223 215.16C105.343 215.04 105.543 214.98 105.823 214.98ZM109.147 224.1C109.147 222.433 109.614 221.16 110.547 220.28C111.48 219.4 112.554 218.96 113.767 218.96C114.98 218.96 115.94 219.273 116.647 219.9C117.354 220.513 117.707 221.28 117.707 222.2C117.707 223.12 117.34 223.84 116.607 224.36C115.887 224.867 114.954 225.12 113.807 225.12C112.66 225.12 111.627 224.94 110.707 224.58C110.707 225.553 111.04 226.34 111.707 226.94C112.374 227.527 113.187 227.82 114.147 227.82C115.64 227.82 116.574 227.36 116.947 226.44C117.174 226.44 117.367 226.507 117.527 226.64C117.687 226.76 117.767 226.94 117.767 227.18C117.767 227.647 117.42 228.093 116.727 228.52C116.047 228.947 115.18 229.16 114.127 229.16C112.714 229.16 111.527 228.733 110.567 227.88C109.62 227.027 109.147 225.767 109.147 224.1ZM116.187 222.14C116.187 221.62 115.96 221.18 115.507 220.82C115.067 220.46 114.454 220.28 113.667 220.28C112.894 220.28 112.214 220.593 111.627 221.22C111.04 221.847 110.74 222.553 110.727 223.34C111.687 223.66 112.64 223.82 113.587 223.82C115.32 223.82 116.187 223.26 116.187 222.14ZM120.26 219.14H120.88C121.213 219.14 121.487 219.3 121.7 219.62L123.96 223.08C124.533 222.373 125.3 221.22 126.26 219.62C126.46 219.3 126.72 219.14 127.04 219.14H127.4C127.787 219.14 127.98 219.293 127.98 219.6C127.98 219.707 127.953 219.807 127.9 219.9C127.14 221.193 126.127 222.58 124.86 224.06L128 228.24C128.107 228.387 128.16 228.52 128.16 228.64C128.16 228.88 128.02 229 127.74 229H126.96C126.627 229 126.327 228.813 126.06 228.44L123.8 225.18C123.587 225.393 123.34 225.707 123.06 226.12C122.78 226.533 122.573 226.833 122.44 227.02C122.04 227.62 121.72 228.12 121.48 228.52C121.267 228.84 120.993 229 120.66 229H120.3C120.14 229 120.007 228.947 119.9 228.84C119.793 228.733 119.74 228.62 119.74 228.5C119.74 228.367 119.78 228.24 119.86 228.12C120.767 226.787 121.8 225.473 122.96 224.18L119.84 219.9C119.76 219.807 119.72 219.7 119.72 219.58C119.72 219.46 119.767 219.36 119.86 219.28C119.967 219.187 120.1 219.14 120.26 219.14ZM130.906 222.46H136.226C136.72 222.46 136.966 222.68 136.966 223.12C136.966 223.56 136.72 223.78 136.226 223.78H130.906C130.413 223.78 130.166 223.56 130.166 223.12C130.166 222.68 130.413 222.46 130.906 222.46ZM139.035 221.88C139.035 220.973 139.422 220.26 140.195 219.74C140.982 219.207 141.855 218.94 142.815 218.94C143.775 218.94 144.515 219.08 145.035 219.36C145.568 219.627 145.835 219.947 145.835 220.32C145.835 220.693 145.575 220.967 145.055 221.14C144.962 220.927 144.702 220.727 144.275 220.54C143.862 220.353 143.348 220.26 142.735 220.26C142.122 220.26 141.615 220.38 141.215 220.62C140.828 220.847 140.635 221.173 140.635 221.6C140.635 222.013 140.782 222.333 141.075 222.56C141.368 222.787 142.055 223.027 143.135 223.28C144.228 223.52 145.062 223.873 145.635 224.34C146.208 224.807 146.495 225.46 146.495 226.3C146.495 227.14 146.108 227.827 145.335 228.36C144.562 228.88 143.608 229.14 142.475 229.14C141.355 229.14 140.455 229 139.775 228.72C139.108 228.427 138.775 228.047 138.775 227.58C138.775 227.113 138.995 226.773 139.435 226.56C139.622 226.92 139.982 227.227 140.515 227.48C141.048 227.733 141.715 227.86 142.515 227.86C143.315 227.86 143.922 227.713 144.335 227.42C144.762 227.127 144.975 226.767 144.975 226.34C144.975 225.9 144.782 225.56 144.395 225.32C144.022 225.067 143.282 224.82 142.175 224.58C141.082 224.34 140.282 224 139.775 223.56C139.282 223.107 139.035 222.547 139.035 221.88ZM150.313 216.48H150.453C150.959 216.48 151.213 216.727 151.213 217.22V219.2H153.973C154.493 219.2 154.753 219.427 154.753 219.88C154.753 220.333 154.493 220.56 153.973 220.56H151.213V225.6C151.213 226.44 151.373 227.033 151.693 227.38C152.026 227.713 152.506 227.88 153.133 227.88C153.773 227.88 154.246 227.727 154.553 227.42C154.886 227.527 155.053 227.74 155.053 228.06C155.053 228.38 154.833 228.647 154.393 228.86C153.953 229.06 153.426 229.16 152.813 229.16C150.639 229.16 149.553 227.973 149.553 225.6V220.56H148.573C148.279 220.56 148.066 220.513 147.933 220.42C147.799 220.327 147.733 220.147 147.733 219.88C147.733 219.427 148.013 219.2 148.573 219.2H149.553V217.22C149.553 216.727 149.806 216.48 150.313 216.48ZM160.22 218.98C163.047 218.98 164.46 220.293 164.46 222.92V226.88C164.46 227.613 164.74 228.08 165.3 228.28C165.1 228.787 164.727 229.04 164.18 229.04C163.78 229.04 163.46 228.9 163.22 228.62C162.993 228.327 162.88 227.947 162.88 227.48C162.04 228.6 160.953 229.16 159.62 229.16C158.54 229.16 157.687 228.887 157.06 228.34C156.447 227.78 156.14 227.033 156.14 226.1C156.14 225.153 156.5 224.387 157.22 223.8C157.953 223.213 158.94 222.92 160.18 222.92C160.927 222.92 161.553 223 162.06 223.16C162.473 223.307 162.72 223.4 162.8 223.44V222.56C162.8 221.747 162.593 221.173 162.18 220.84C161.767 220.493 161.14 220.32 160.3 220.32C159.113 220.32 158.193 220.773 157.54 221.68C156.98 221.6 156.7 221.34 156.7 220.9C156.7 220.393 157.047 219.947 157.74 219.56C158.433 219.173 159.26 218.98 160.22 218.98ZM162.8 224.72C161.96 224.347 161.133 224.16 160.32 224.16C159.507 224.16 158.88 224.333 158.44 224.68C158 225.027 157.78 225.48 157.78 226.04C157.78 226.587 157.967 227.027 158.34 227.36C158.727 227.68 159.287 227.84 160.02 227.84C160.767 227.84 161.413 227.573 161.96 227.04C162.52 226.507 162.8 225.86 162.8 225.1V224.72ZM168.164 219.14H168.284C168.79 219.14 169.044 219.387 169.044 219.88V220.96C169.27 220.453 169.63 220 170.124 219.6C170.63 219.2 171.17 219 171.744 219C172.317 219 172.75 219.113 173.044 219.34C173.35 219.567 173.504 219.847 173.504 220.18C173.504 220.5 173.364 220.753 173.084 220.94C172.67 220.593 172.23 220.42 171.764 220.42C170.937 220.42 170.284 220.76 169.804 221.44C169.324 222.107 169.084 222.947 169.084 223.96V228.24C169.084 228.507 169.024 228.7 168.904 228.82C168.784 228.94 168.59 229 168.324 229H168.164C167.897 229 167.704 228.94 167.584 228.82C167.464 228.7 167.404 228.507 167.404 228.24V219.88C167.404 219.387 167.657 219.14 168.164 219.14ZM177.149 216.48H177.289C177.795 216.48 178.049 216.727 178.049 217.22V219.2H180.809C181.329 219.2 181.589 219.427 181.589 219.88C181.589 220.333 181.329 220.56 180.809 220.56H178.049V225.6C178.049 226.44 178.209 227.033 178.529 227.38C178.862 227.713 179.342 227.88 179.969 227.88C180.609 227.88 181.082 227.727 181.389 227.42C181.722 227.527 181.889 227.74 181.889 228.06C181.889 228.38 181.669 228.647 181.229 228.86C180.789 229.06 180.262 229.16 179.649 229.16C177.475 229.16 176.389 227.973 176.389 225.6V220.56H175.409C175.115 220.56 174.902 220.513 174.769 220.42C174.635 220.327 174.569 220.147 174.569 219.88C174.569 219.427 174.849 219.2 175.409 219.2H176.389V217.22C176.389 216.727 176.642 216.48 177.149 216.48Z" fill="black"/>
<line x1="26" y1="367" x2="475.004" y2="367" stroke="#333F48" stroke-width="4" stroke-dasharray="10 4"/>
<path d="M919.002 453.951C920.224 451.235 925.788 438.038 925.84 440.227C925.91 443.123 924.619 455.405 927.816 453.819C929.667 452.9 936.467 432.62 936.782 447.353C936.875 451.719 937.295 467.896 940.277 459.757C942.15 454.646 944.987 437.467 944.987 443.526C944.987 447.939 948.997 470.741 952.13 465.3C954.952 460.398 956.953 454.594 958.968 448.672C959.27 447.784 962.486 437.441 962.691 439.039C963.131 442.478 964.618 469.293 965.806 469.523C970.911 470.508 970.699 441.161 974.012 439.435C974.612 439.122 975.501 460.628 977.279 456.854C980.439 450.146 981.402 440.941 983.813 433.497C984.381 431.746 987.743 453.34 988.144 456.59C990.881 478.769 992.68 452.946 994.147 443.394C997.412 422.128 995.608 438.829 997.642 448.013C998.224 450.641 997.848 455.233 999.01 457.25C999.715 458.475 1002.34 438.418 1003.49 446.825C1003.95 450.164 1004.97 475.065 1005.85 475.065C1008.74 475.065 1011.66 455.161 1012 451.576" stroke="#93227E" stroke-width="16" stroke-linecap="round" stroke-linejoin="round"/>
<path d="M700.97 465.122C701.926 462.092 706.199 447.475 706.457 449.623C706.799 452.466 706.677 464.968 709.697 462.495C711.446 461.063 716.278 439.097 717.978 453.566C718.481 457.854 720.422 473.721 722.612 464.834C723.987 459.252 725.182 441.472 725.753 447.46C726.169 451.82 732.293 473.218 734.887 466.953C737.223 461.31 738.661 455.007 740.1 448.585C740.316 447.622 742.531 436.49 742.884 438.011C743.645 441.284 747.646 467.362 748.846 467.252C754 466.779 751.025 437.839 754.147 435.195C754.713 434.716 757.621 455.716 759.028 451.483C761.529 443.959 761.617 434.59 763.306 426.551C763.703 424.66 769.072 445.046 769.776 448.145C774.579 469.286 773.93 443.259 774.485 433.404C775.718 411.465 775.503 428.479 778.385 436.978C779.21 439.41 779.27 444.055 780.612 445.719C781.427 446.73 782.14 426.166 784.074 434.147C784.843 437.317 788.2 461.635 789.071 461.386C791.943 460.566 792.957 440.071 792.96 436.431" stroke="#93227E" stroke-width="16" stroke-linecap="round" stroke-linejoin="round"/>
<path d="M821.97 465.122C822.926 462.092 827.199 447.475 827.457 449.623C827.799 452.466 827.677 464.968 830.697 462.495C832.446 461.063 837.278 439.097 838.978 453.566C839.481 457.854 841.422 473.721 843.612 464.834C844.987 459.252 846.182 441.472 846.753 447.46C847.169 451.82 853.293 473.218 855.887 466.953C858.223 461.31 859.661 455.007 861.1 448.585C861.316 447.622 863.531 436.49 863.884 438.011C864.645 441.284 868.646 467.362 869.846 467.252C875 466.779 872.025 437.839 875.147 435.195C875.713 434.716 878.621 455.716 880.028 451.483C882.529 443.959 882.617 434.59 884.306 426.551C884.703 424.66 890.072 445.046 890.776 448.145C895.579 469.286 894.93 443.259 895.485 433.404C896.718 411.465 896.503 428.479 899.385 436.978C900.21 439.41 900.27 444.055 901.612 445.719C902.427 446.73 903.14 426.166 905.074 434.147C905.843 437.317 909.2 461.635 910.071 461.386C912.943 460.566 913.957 440.071 913.96 436.431" stroke="#93227E" stroke-width="16" stroke-linecap="round" stroke-linejoin="round"/>
<path d="M1018.61 281.828C1020 284.298 1026.82 295.658 1025.56 295.455C1023.89 295.187 1017.02 291.317 1017.5 297.04C1017.78 300.354 1028.49 314.793 1020 313.362C1017.49 312.937 1008.15 311.494 1012.42 317.725C1015.1 321.638 1024.57 328.832 1021.1 328.02C1018.56 327.429 1004.95 331.286 1007.65 337.416C1010.08 342.937 1013.14 347.165 1016.26 351.431C1016.73 352.071 1022.23 359.001 1021.29 359.14C1019.26 359.437 1003.68 358.409 1003.39 360.426C1002.14 369.094 1019 372.661 1019.54 378.603C1019.64 379.679 1007.19 378.331 1009.11 381.901C1012.53 388.248 1017.68 391.141 1021.63 396.295C1022.56 397.507 1009.72 400.411 1007.8 400.667C994.717 402.413 1009.28 408.974 1014.56 412.782C1026.32 421.259 1016.98 415.913 1011.44 418.189C1009.86 418.84 1007.28 417.577 1005.96 419.309C1005.17 420.361 1016.32 427.573 1011.34 428.433C1009.36 428.775 994.948 427.196 994.829 428.711C994.44 433.705 1005.46 441.393 1007.47 442.467" stroke="#93227E" stroke-width="16" stroke-linecap="round" stroke-linejoin="round"/>
<rect x="690.502" y="263.5" width="329" height="204" rx="7.5" fill="#93227E" stroke="black" stroke-width="5"/>
<path d="M700.002 460C701.392 453.018 701.839 445.838 701.839 438.401C701.839 433.137 701.278 426.429 702.315 421.602C703.743 414.95 700.002 400.552 702.451 394.269C702.451 387.181 700.002 373.004 702.451 373.004C702.451 364.677 700.002 361.518 700.002 353.013C700.002 347.679 703.285 333.591 702.145 328.672C700.437 321.306 701.839 309.223 701.839 301.006C701.839 293.675 700.426 285.7 701.26 278.341C701.54 275.87 727.581 278.341 730.239 278.341C759.718 278.341 775.324 273.074 804.094 278.341C809.868 278.341 822.392 278.341 822.392 278.341C837.163 278.341 840.858 278.341 849.949 278.341C866.281 278.341 883.918 278.341 900.215 278.341C923.895 278.341 952.243 278.341 952.243 278.341C955.326 278.341 974.29 278.341 974.29 278.341L989.195 279.407C991.396 277.447 994.024 279.626 996.269 279.941C998.851 280.302 1000.6 278.807 1003 278.807" stroke="#721861" stroke-width="17" stroke-linecap="round" stroke-linejoin="round"/>
<g filter="url(#filter5_d)">
<rect x="737.002" y="291" width="50" height="38.0612" fill="#ED8B00"/>
<rect x="738.002" y="292" width="48" height="36.0612" stroke="black" stroke-width="2"/>
</g>
<path d="M744.002 296.329C742.274 305.341 743.31 315.306 743.31 324.494" stroke="#FFB200" stroke-width="7" stroke-linecap="round" stroke-linejoin="round"/>
<path d="M743.002 294.248C755.68 294.248 768.525 293.487 781.002 293.487" stroke="#FFB200" stroke-width="7" stroke-linecap="round" stroke-linejoin="round"/>
<g filter="url(#filter6_d)">
<rect x="740" y="399" width="50" height="38.0612" fill="#ED8B00"/>
<rect x="741" y="400" width="48" height="36.0612" stroke="black" stroke-width="2"/>
</g>
<path d="M747 404.329C745.272 413.341 746.308 423.306 746.308 432.494" stroke="#FFB200" stroke-width="7" stroke-linecap="round" stroke-linejoin="round"/>
<path d="M746 402.248C758.677 402.248 771.523 401.487 784 401.487" stroke="#FFB200" stroke-width="7" stroke-linecap="round" stroke-linejoin="round"/>
<g filter="url(#filter7_d)">
<rect x="832.002" y="291" width="50" height="38.0612" fill="#ED8B00"/>
<rect x="833.002" y="292" width="48" height="36.0612" stroke="black" stroke-width="2"/>
</g>
<path d="M839.002 296.329C837.274 305.341 838.31 315.306 838.31 324.494" stroke="#FFB200" stroke-width="7" stroke-linecap="round" stroke-linejoin="round"/>
<path d="M838.002 294.248C850.68 294.248 863.525 293.487 876.002 293.487" stroke="#FFB200" stroke-width="7" stroke-linecap="round" stroke-linejoin="round"/>
<g filter="url(#filter8_d)">
<rect x="832" y="399" width="50" height="38.0612" fill="#ED8B00"/>
<rect x="833" y="400" width="48" height="36.0612" stroke="black" stroke-width="2"/>
</g>
<path d="M839 404.329C837.272 413.341 838.308 423.306 838.308 432.494" stroke="#FFB200" stroke-width="7" stroke-linecap="round" stroke-linejoin="round"/>
<path d="M838 402.248C850.677 402.248 863.523 401.487 876 401.487" stroke="#FFB200" stroke-width="7" stroke-linecap="round" stroke-linejoin="round"/>
<g filter="url(#filter9_d)">
<rect x="928.002" y="288" width="50" height="82.5059" fill="#ED8B00"/>
<path d="M935.002 300.462C933.274 320.954 934.31 343.614 934.31 364.506" stroke="#FFB200" stroke-width="7" stroke-linecap="round" stroke-linejoin="round"/>
<path d="M934.002 295.731C946.68 295.731 959.525 294 972.002 294" stroke="#FFB200" stroke-width="7" stroke-linecap="round" stroke-linejoin="round"/>
<rect x="929.002" y="289" width="48" height="80.5059" stroke="black" stroke-width="2"/>
</g>
<path d="M738.369 467C740.873 472.748 750.894 488 743.066 488C739.5 488 734.511 496.753 733.002 502" stroke="white" stroke-width="2" stroke-linecap="round" stroke-linejoin="round"/>
<path d="M694.062 227.88C694.062 226.973 694.449 226.26 695.222 225.74C696.009 225.207 696.882 224.94 697.842 224.94C698.802 224.94 699.542 225.08 700.062 225.36C700.596 225.627 700.862 225.947 700.862 226.32C700.862 226.693 700.602 226.967 700.082 227.14C699.989 226.927 699.729 226.727 699.302 226.54C698.889 226.353 698.376 226.26 697.762 226.26C697.149 226.26 696.642 226.38 696.242 226.62C695.856 226.847 695.662 227.173 695.662 227.6C695.662 228.013 695.809 228.333 696.102 228.56C696.396 228.787 697.082 229.027 698.162 229.28C699.256 229.52 700.089 229.873 700.662 230.34C701.236 230.807 701.522 231.46 701.522 232.3C701.522 233.14 701.136 233.827 700.362 234.36C699.589 234.88 698.636 235.14 697.502 235.14C696.382 235.14 695.482 235 694.802 234.72C694.136 234.427 693.802 234.047 693.802 233.58C693.802 233.113 694.022 232.773 694.462 232.56C694.649 232.92 695.009 233.227 695.542 233.48C696.076 233.733 696.742 233.86 697.542 233.86C698.342 233.86 698.949 233.713 699.362 233.42C699.789 233.127 700.002 232.767 700.002 232.34C700.002 231.9 699.809 231.56 699.422 231.32C699.049 231.067 698.309 230.82 697.202 230.58C696.109 230.34 695.309 230 694.802 229.56C694.309 229.107 694.062 228.547 694.062 227.88ZM705.34 222.48H705.48C705.987 222.48 706.24 222.727 706.24 223.22V225.2H709C709.52 225.2 709.78 225.427 709.78 225.88C709.78 226.333 709.52 226.56 709 226.56H706.24V231.6C706.24 232.44 706.4 233.033 706.72 233.38C707.053 233.713 707.533 233.88 708.16 233.88C708.8 233.88 709.273 233.727 709.58 233.42C709.913 233.527 710.08 233.74 710.08 234.06C710.08 234.38 709.86 234.647 709.42 234.86C708.98 235.06 708.453 235.16 707.84 235.16C705.667 235.16 704.58 233.973 704.58 231.6V226.56H703.6C703.307 226.56 703.093 226.513 702.96 226.42C702.827 226.327 702.76 226.147 702.76 225.88C702.76 225.427 703.04 225.2 703.6 225.2H704.58V223.22C704.58 222.727 704.833 222.48 705.34 222.48ZM712.507 225.14H712.627C713.134 225.14 713.387 225.387 713.387 225.88V226.96C713.614 226.453 713.974 226 714.467 225.6C714.974 225.2 715.514 225 716.087 225C716.661 225 717.094 225.113 717.387 225.34C717.694 225.567 717.847 225.847 717.847 226.18C717.847 226.5 717.707 226.753 717.427 226.94C717.014 226.593 716.574 226.42 716.107 226.42C715.281 226.42 714.627 226.76 714.147 227.44C713.667 228.107 713.427 228.947 713.427 229.96V234.24C713.427 234.507 713.367 234.7 713.247 234.82C713.127 234.94 712.934 235 712.667 235H712.507C712.241 235 712.047 234.94 711.927 234.82C711.807 234.7 711.747 234.507 711.747 234.24V225.88C711.747 225.387 712.001 225.14 712.507 225.14ZM719.057 230.1C719.057 228.433 719.524 227.16 720.457 226.28C721.39 225.4 722.464 224.96 723.677 224.96C724.89 224.96 725.85 225.273 726.557 225.9C727.264 226.513 727.617 227.28 727.617 228.2C727.617 229.12 727.25 229.84 726.517 230.36C725.797 230.867 724.864 231.12 723.717 231.12C722.57 231.12 721.537 230.94 720.617 230.58C720.617 231.553 720.95 232.34 721.617 232.94C722.284 233.527 723.097 233.82 724.057 233.82C725.55 233.82 726.484 233.36 726.857 232.44C727.084 232.44 727.277 232.507 727.437 232.64C727.597 232.76 727.677 232.94 727.677 233.18C727.677 233.647 727.33 234.093 726.637 234.52C725.957 234.947 725.09 235.16 724.037 235.16C722.624 235.16 721.437 234.733 720.477 233.88C719.53 233.027 719.057 231.767 719.057 230.1ZM726.097 228.14C726.097 227.62 725.87 227.18 725.417 226.82C724.977 226.46 724.364 226.28 723.577 226.28C722.804 226.28 722.124 226.593 721.537 227.22C720.95 227.847 720.65 228.553 720.637 229.34C721.597 229.66 722.55 229.82 723.497 229.82C725.23 229.82 726.097 229.26 726.097 228.14ZM731.59 222.48H731.73C732.237 222.48 732.49 222.727 732.49 223.22V225.2H735.25C735.77 225.2 736.03 225.427 736.03 225.88C736.03 226.333 735.77 226.56 735.25 226.56H732.49V231.6C732.49 232.44 732.65 233.033 732.97 233.38C733.303 233.713 733.783 233.88 734.41 233.88C735.05 233.88 735.523 233.727 735.83 233.42C736.163 233.527 736.33 233.74 736.33 234.06C736.33 234.38 736.11 234.647 735.67 234.86C735.23 235.06 734.703 235.16 734.09 235.16C731.917 235.16 730.83 233.973 730.83 231.6V226.56H729.85C729.557 226.56 729.343 226.513 729.21 226.42C729.077 226.327 729.01 226.147 729.01 225.88C729.01 225.427 729.29 225.2 729.85 225.2H730.83V223.22C730.83 222.727 731.083 222.48 731.59 222.48ZM738.957 226.1C739.451 225.713 739.977 225.427 740.537 225.24C741.097 225.053 741.777 224.96 742.577 224.96C743.377 224.96 744.077 225.14 744.677 225.5C745.291 225.86 745.597 226.247 745.597 226.66C745.597 227.167 745.311 227.453 744.737 227.52C744.604 227.227 744.304 226.96 743.837 226.72C743.371 226.467 742.817 226.34 742.177 226.34C741.284 226.34 740.544 226.66 739.957 227.3C739.371 227.927 739.077 228.847 739.077 230.06C739.077 231.273 739.377 232.2 739.977 232.84C740.577 233.48 741.297 233.8 742.137 233.8C743.471 233.8 744.371 233.367 744.837 232.5C745.091 232.5 745.304 232.58 745.477 232.74C745.651 232.887 745.737 233.08 745.737 233.32C745.737 233.787 745.417 234.213 744.777 234.6C744.137 234.973 743.404 235.16 742.577 235.16C741.764 235.16 741.071 235.067 740.497 234.88C739.937 234.68 739.417 234.387 738.937 234C738.457 233.6 738.077 233.067 737.797 232.4C737.517 231.733 737.377 230.96 737.377 230.08C737.377 229.187 737.517 228.4 737.797 227.72C738.091 227.027 738.477 226.487 738.957 226.1ZM748.66 220.98H748.8C749.306 220.98 749.56 221.233 749.56 221.74V227.14C749.786 226.553 750.173 226.053 750.72 225.64C751.266 225.227 751.906 225.02 752.64 225.02C753.76 225.02 754.653 225.34 755.32 225.98C755.986 226.607 756.32 227.627 756.32 229.04V234.24C756.32 234.507 756.26 234.7 756.14 234.82C756.02 234.94 755.826 235 755.56 235H755.4C754.906 235 754.66 234.747 754.66 234.24V229.14C754.66 227.287 753.86 226.36 752.26 226.36C751.42 226.36 750.76 226.707 750.28 227.4C749.813 228.093 749.58 228.967 749.58 230.02V234.24C749.58 234.747 749.32 235 748.8 235H748.66C748.393 235 748.2 234.94 748.08 234.82C747.96 234.7 747.9 234.507 747.9 234.24V221.74C747.9 221.233 748.153 220.98 748.66 220.98Z" fill="black"/>
<line x1="627" y1="396" x2="1076" y2="396" stroke="#333F48" stroke-width="4" stroke-dasharray="10 4"/>
<defs>
<filter id="filter0_d" x="136.002" y="285" width="58" height="46.0612" filterUnits="userSpaceOnUse" color-interpolation-filters="sRGB">
<feFlood flood-opacity="0" result="BackgroundImageFix"/>
<feColorMatrix in="SourceAlpha" type="matrix" values="0 0 0 0 0 0 0 0 0 0 0 0 0 0 0 0 0 0 127 0"/>
<feOffset dy="4"/>
<feGaussianBlur stdDeviation="2"/>
<feColorMatrix type="matrix" values="0 0 0 0 0 0 0 0 0 0 0 0 0 0 0 0 0 0 0.25 0"/>
<feBlend mode="normal" in2="BackgroundImageFix" result="effect1_dropShadow"/>
<feBlend mode="normal" in="SourceGraphic" in2="effect1_dropShadow" result="shape"/>
</filter>
<filter id="filter1_d" x="139.002" y="373" width="58" height="46.0612" filterUnits="userSpaceOnUse" color-interpolation-filters="sRGB">
<feFlood flood-opacity="0" result="BackgroundImageFix"/>
<feColorMatrix in="SourceAlpha" type="matrix" values="0 0 0 0 0 0 0 0 0 0 0 0 0 0 0 0 0 0 127 0"/>
<feOffset dy="4"/>
<feGaussianBlur stdDeviation="2"/>
<feColorMatrix type="matrix" values="0 0 0 0 0 0 0 0 0 0 0 0 0 0 0 0 0 0 0.25 0"/>
<feBlend mode="normal" in2="BackgroundImageFix" result="effect1_dropShadow"/>
<feBlend mode="normal" in="SourceGraphic" in2="effect1_dropShadow" result="shape"/>
</filter>
<filter id="filter2_d" x="231.002" y="285" width="58" height="46.0612" filterUnits="userSpaceOnUse" color-interpolation-filters="sRGB">
<feFlood flood-opacity="0" result="BackgroundImageFix"/>
<feColorMatrix in="SourceAlpha" type="matrix" values="0 0 0 0 0 0 0 0 0 0 0 0 0 0 0 0 0 0 127 0"/>
<feOffset dy="4"/>
<feGaussianBlur stdDeviation="2"/>
<feColorMatrix type="matrix" values="0 0 0 0 0 0 0 0 0 0 0 0 0 0 0 0 0 0 0.25 0"/>
<feBlend mode="normal" in2="BackgroundImageFix" result="effect1_dropShadow"/>
<feBlend mode="normal" in="SourceGraphic" in2="effect1_dropShadow" result="shape"/>
</filter>
<filter id="filter3_d" x="231.002" y="374" width="58" height="46.0612" filterUnits="userSpaceOnUse" color-interpolation-filters="sRGB">
<feFlood flood-opacity="0" result="BackgroundImageFix"/>
<feColorMatrix in="SourceAlpha" type="matrix" values="0 0 0 0 0 0 0 0 0 0 0 0 0 0 0 0 0 0 127 0"/>
<feOffset dy="4"/>
<feGaussianBlur stdDeviation="2"/>
<feColorMatrix type="matrix" values="0 0 0 0 0 0 0 0 0 0 0 0 0 0 0 0 0 0 0.25 0"/>
<feBlend mode="normal" in2="BackgroundImageFix" result="effect1_dropShadow"/>
<feBlend mode="normal" in="SourceGraphic" in2="effect1_dropShadow" result="shape"/>
</filter>
<filter id="filter4_d" x="327.002" y="282" width="58" height="90.5059" filterUnits="userSpaceOnUse" color-interpolation-filters="sRGB">
<feFlood flood-opacity="0" result="BackgroundImageFix"/>
<feColorMatrix in="SourceAlpha" type="matrix" values="0 0 0 0 0 0 0 0 0 0 0 0 0 0 0 0 0 0 127 0"/>
<feOffset dy="4"/>
<feGaussianBlur stdDeviation="2"/>
<feColorMatrix type="matrix" values="0 0 0 0 0 0 0 0 0 0 0 0 0 0 0 0 0 0 0.25 0"/>
<feBlend mode="normal" in2="BackgroundImageFix" result="effect1_dropShadow"/>
<feBlend mode="normal" in="SourceGraphic" in2="effect1_dropShadow" result="shape"/>
</filter>
<filter id="filter5_d" x="733.002" y="291" width="58" height="46.0612" filterUnits="userSpaceOnUse" color-interpolation-filters="sRGB">
<feFlood flood-opacity="0" result="BackgroundImageFix"/>
<feColorMatrix in="SourceAlpha" type="matrix" values="0 0 0 0 0 0 0 0 0 0 0 0 0 0 0 0 0 0 127 0"/>
<feOffset dy="4"/>
<feGaussianBlur stdDeviation="2"/>
<feColorMatrix type="matrix" values="0 0 0 0 0 0 0 0 0 0 0 0 0 0 0 0 0 0 0.25 0"/>
<feBlend mode="normal" in2="BackgroundImageFix" result="effect1_dropShadow"/>
<feBlend mode="normal" in="SourceGraphic" in2="effect1_dropShadow" result="shape"/>
</filter>
<filter id="filter6_d" x="736" y="399" width="58" height="46.0612" filterUnits="userSpaceOnUse" color-interpolation-filters="sRGB">
<feFlood flood-opacity="0" result="BackgroundImageFix"/>
<feColorMatrix in="SourceAlpha" type="matrix" values="0 0 0 0 0 0 0 0 0 0 0 0 0 0 0 0 0 0 127 0"/>
<feOffset dy="4"/>
<feGaussianBlur stdDeviation="2"/>
<feColorMatrix type="matrix" values="0 0 0 0 0 0 0 0 0 0 0 0 0 0 0 0 0 0 0.25 0"/>
<feBlend mode="normal" in2="BackgroundImageFix" result="effect1_dropShadow"/>
<feBlend mode="normal" in="SourceGraphic" in2="effect1_dropShadow" result="shape"/>
</filter>
<filter id="filter7_d" x="828.002" y="291" width="58" height="46.0612" filterUnits="userSpaceOnUse" color-interpolation-filters="sRGB">
<feFlood flood-opacity="0" result="BackgroundImageFix"/>
<feColorMatrix in="SourceAlpha" type="matrix" values="0 0 0 0 0 0 0 0 0 0 0 0 0 0 0 0 0 0 127 0"/>
<feOffset dy="4"/>
<feGaussianBlur stdDeviation="2"/>
<feColorMatrix type="matrix" values="0 0 0 0 0 0 0 0 0 0 0 0 0 0 0 0 0 0 0.25 0"/>
<feBlend mode="normal" in2="BackgroundImageFix" result="effect1_dropShadow"/>
<feBlend mode="normal" in="SourceGraphic" in2="effect1_dropShadow" result="shape"/>
</filter>
<filter id="filter8_d" x="828" y="399" width="58" height="46.0612" filterUnits="userSpaceOnUse" color-interpolation-filters="sRGB">
<feFlood flood-opacity="0" result="BackgroundImageFix"/>
<feColorMatrix in="SourceAlpha" type="matrix" values="0 0 0 0 0 0 0 0 0 0 0 0 0 0 0 0 0 0 127 0"/>
<feOffset dy="4"/>
<feGaussianBlur stdDeviation="2"/>
<feColorMatrix type="matrix" values="0 0 0 0 0 0 0 0 0 0 0 0 0 0 0 0 0 0 0.25 0"/>
<feBlend mode="normal" in2="BackgroundImageFix" result="effect1_dropShadow"/>
<feBlend mode="normal" in="SourceGraphic" in2="effect1_dropShadow" result="shape"/>
</filter>
<filter id="filter9_d" x="924.002" y="288" width="58" height="90.5059" filterUnits="userSpaceOnUse" color-interpolation-filters="sRGB">
<feFlood flood-opacity="0" result="BackgroundImageFix"/>
<feColorMatrix in="SourceAlpha" type="matrix" values="0 0 0 0 0 0 0 0 0 0 0 0 0 0 0 0 0 0 127 0"/>
<feOffset dy="4"/>
<feGaussianBlur stdDeviation="2"/>
<feColorMatrix type="matrix" values="0 0 0 0 0 0 0 0 0 0 0 0 0 0 0 0 0 0 0.25 0"/>
<feBlend mode="normal" in2="BackgroundImageFix" result="effect1_dropShadow"/>
<feBlend mode="normal" in="SourceGraphic" in2="effect1_dropShadow" result="shape"/>
</filter>
</defs>
</svg>
