<svg width="406" height="356" viewBox="0 0 406 356" fill="none" xmlns="http://www.w3.org/2000/svg">
<rect width="406" height="356" fill="white"/>
<path d="M251 238.085C252.228 236.513 257.819 228.878 257.872 230.144C257.942 231.82 256.645 238.927 259.857 238.009C261.718 237.477 268.552 225.743 268.868 234.267C268.961 236.793 269.383 246.154 272.38 241.445C274.262 238.487 277.114 228.547 277.114 232.053C277.114 234.606 281.143 247.8 284.292 244.652C287.128 241.816 289.139 238.457 291.164 235.031C291.468 234.517 294.7 228.532 294.905 229.457C295.347 231.446 296.842 246.963 298.036 247.095C303.166 247.665 302.954 230.684 306.282 229.686C306.886 229.505 307.779 241.949 309.566 239.765C312.742 235.883 313.71 230.557 316.133 226.25C316.702 225.237 320.082 237.731 320.485 239.612C323.235 252.445 325.043 237.504 326.517 231.977C329.798 219.672 327.986 229.335 330.03 234.649C330.614 236.17 330.237 238.827 331.404 239.994C332.113 240.703 334.751 229.097 335.909 233.962C336.369 235.894 337.393 250.302 338.276 250.302C341.188 250.302 344.115 238.785 344.461 236.711" stroke="#93227E" stroke-width="16" stroke-linecap="round" stroke-linejoin="round"/>
<path d="M67.968 243.143C68.9235 241.393 73.1969 232.948 73.4552 234.189C73.797 235.831 73.6746 243.054 76.6947 241.626C78.444 240.798 83.2756 228.108 84.9753 236.467C85.479 238.944 87.4197 248.111 89.6097 242.977C90.9851 239.752 92.1803 229.48 92.7512 232.939C93.167 235.458 99.2908 247.82 101.885 244.201C104.221 240.941 105.659 237.3 107.098 233.589C107.314 233.033 109.529 226.601 109.882 227.48C110.642 229.371 114.644 244.437 115.843 244.374C120.998 244.101 118.023 227.381 121.145 225.854C121.711 225.577 124.618 237.709 126.026 235.264C128.527 230.917 128.615 225.504 130.304 220.86C130.701 219.767 136.07 231.545 136.774 233.335C141.577 245.549 140.928 230.512 141.482 224.819C142.716 212.144 142.501 221.973 145.383 226.884C146.208 228.289 146.268 230.972 147.61 231.933C148.425 232.518 149.137 220.637 151.072 225.248C151.841 227.079 155.197 241.129 156.069 240.985C158.941 240.511 159.954 228.671 159.958 226.568" stroke="#93227E" stroke-width="16" stroke-linecap="round" stroke-linejoin="round"/>
<path d="M188.968 243.143C189.924 241.393 194.197 232.948 194.455 234.189C194.797 235.831 194.675 243.054 197.695 241.626C199.444 240.798 204.276 228.108 205.975 236.467C206.479 238.944 208.42 248.111 210.61 242.977C211.985 239.752 213.18 229.48 213.751 232.939C214.167 235.458 220.291 247.82 222.885 244.201C225.221 240.941 226.659 237.3 228.098 233.589C228.314 233.033 230.529 226.601 230.882 227.48C231.642 229.371 235.644 244.437 236.843 244.374C241.998 244.101 239.023 227.381 242.145 225.854C242.711 225.577 245.618 237.709 247.026 235.264C249.527 230.917 249.615 225.504 251.304 220.86C251.701 219.767 257.07 231.545 257.774 233.335C262.577 245.549 261.928 230.512 262.482 224.819C263.716 212.144 263.501 221.973 266.383 226.884C267.208 228.289 267.268 230.972 268.61 231.933C269.425 232.518 270.137 220.637 272.072 225.248C272.841 227.079 276.197 241.129 277.069 240.985C279.941 240.511 280.954 228.671 280.958 226.568" stroke="#93227E" stroke-width="16" stroke-linecap="round" stroke-linejoin="round"/>
<path d="M350.607 138.634C352.001 140.061 358.82 146.624 357.558 146.506C355.888 146.352 349.019 144.116 349.499 147.422C349.776 149.337 360.491 157.679 352.001 156.852C349.485 156.606 340.152 155.773 344.418 159.373C347.098 161.633 356.567 165.789 353.093 165.32C350.562 164.979 336.948 167.207 339.647 170.748C342.078 173.938 345.138 176.381 348.263 178.845C348.731 179.215 354.23 183.219 353.286 183.299C351.255 183.471 335.679 182.877 335.387 184.042C334.136 189.05 350.993 191.111 351.537 194.543C351.636 195.165 339.185 194.386 341.11 196.449C344.532 200.115 349.68 201.787 353.625 204.764C354.553 205.465 341.719 207.142 339.801 207.29C326.715 208.299 341.281 212.09 346.561 214.29C358.316 219.187 348.982 216.098 343.443 217.413C341.857 217.789 339.274 217.06 337.962 218.06C337.164 218.668 348.313 222.834 343.337 223.332C341.361 223.529 326.945 222.617 326.827 223.492C326.438 226.377 337.46 230.819 339.469 231.439" stroke="#93227E" stroke-width="16" stroke-linecap="round" stroke-linejoin="round"/>
<rect x="57.5" y="127.5" width="295" height="116" rx="7.5" fill="#93227E" stroke="black" stroke-width="5"/>
<path d="M66 231C67.2523 227.433 67.6545 223.765 67.6545 219.966C67.6545 217.277 67.1492 213.85 68.0835 211.383C69.3708 207.985 66 200.63 68.2061 197.42C68.2061 193.799 66 186.556 68.2061 186.556C68.2061 182.302 66 180.688 66 176.344C66 173.619 68.958 166.422 67.9303 163.909C66.3914 160.145 67.6545 153.973 67.6545 149.775C67.6545 146.029 66.382 141.956 67.1337 138.196C67.386 136.934 90.8484 138.196 93.2431 138.196C119.803 138.196 133.864 135.505 159.785 138.196C164.988 138.196 176.272 138.196 176.272 138.196C189.58 138.196 192.91 138.196 201.101 138.196C215.815 138.196 231.707 138.196 246.389 138.196C267.725 138.196 293.267 138.196 293.267 138.196C296.044 138.196 313.13 138.196 313.13 138.196L326.56 138.741C328.543 137.739 330.911 138.853 332.933 139.013C335.26 139.198 336.832 138.434 339 138.434" stroke="#721861" stroke-width="17" stroke-linecap="round" stroke-linejoin="round"/>
<g filter="url(#filter0_d)">
<rect x="196" y="165" width="80" height="50" fill="#ED8B00"/>
<rect x="197" y="166" width="78" height="48" stroke="black" stroke-width="2"/>
</g>
<path d="M205.6 172C202.835 183.839 204.493 196.93 204.493 209" stroke="#FFB200" stroke-width="7" stroke-linecap="round" stroke-linejoin="round"/>
<path d="M205.6 171C225.884 171 246.436 170 266.4 170" stroke="#FFB200" stroke-width="7" stroke-linecap="round" stroke-linejoin="round"/>
<g filter="url(#filter1_d)">
<rect x="273" y="165" width="80" height="50" fill="#DB5B93"/>
<rect x="274" y="166" width="78" height="48" stroke="black" stroke-width="2"/>
</g>
<path d="M282.6 172C279.835 183.839 281.493 196.93 281.493 209" stroke="#F187B6" stroke-width="7" stroke-linecap="round" stroke-linejoin="round"/>
<path d="M282.6 171C302.884 171 323.436 170 343.4 170" stroke="#F187B6" stroke-width="7" stroke-linecap="round" stroke-linejoin="round"/>
<g filter="url(#filter2_d)">
<rect x="117" y="165" width="80" height="50" fill="#008744"/>
<rect x="118" y="166" width="78" height="48" stroke="black" stroke-width="2"/>
</g>
<path d="M126.6 172C123.835 183.839 125.493 196.93 125.493 209" stroke="#229F61" stroke-width="7" stroke-linecap="round" stroke-linejoin="round"/>
<path d="M126.6 171C146.884 171 167.436 170 187.4 170" stroke="#229F61" stroke-width="7" stroke-linecap="round" stroke-linejoin="round"/>
<g filter="url(#filter3_d)">
<rect x="57" y="165" width="60" height="50" fill="#0761B4"/>
<rect x="58" y="166" width="58" height="48" stroke="black" stroke-width="2"/>
</g>
<path d="M64.2 172C62.1264 183.839 63.3697 196.93 63.3697 209" stroke="#0084FF" stroke-width="7" stroke-linecap="round" stroke-linejoin="round"/>
<path d="M64.2 171C79.4128 171 94.827 170 109.8 170" stroke="#0084FF" stroke-width="7" stroke-linecap="round" stroke-linejoin="round"/>
<path d="M83.4977 253C86.0627 256.386 96.3268 265.37 88.3082 265.37C84.6561 265.37 79.5455 270.525 78 273.616" stroke="white" stroke-width="2" stroke-linecap="round" stroke-linejoin="round"/>
<line x1="58.5" y1="69" x2="58.5" y2="310" stroke="black" stroke-width="3" stroke-dasharray="10 4"/>
<line x1="356.5" y1="64" x2="356.5" y2="305" stroke="black" stroke-width="3" stroke-dasharray="10 4"/>
<path d="M355.707 91.7071C356.098 91.3166 356.098 90.6834 355.707 90.2929L349.343 83.9289C348.953 83.5384 348.319 83.5384 347.929 83.9289C347.538 84.3195 347.538 84.9526 347.929 85.3432L353.586 91L347.929 96.6569C347.538 97.0474 347.538 97.6806 347.929 98.0711C348.319 98.4616 348.953 98.4616 349.343 98.0711L355.707 91.7071ZM271 92L276 92L276 90L271 90L271 92ZM280 92L290 92L290 90L280 90L280 92ZM294 92L304 92L304 90L294 90L294 92ZM308 92L318 92L318 90L308 90L308 92ZM322 92L332 92L332 90L322 90L322 92ZM336 92L346 92L346 90L336 90L336 92ZM350 92L355 92L355 90L350 90L350 92ZM356.414 92.4142C357.195 91.6332 357.195 90.3668 356.414 89.5858L343.686 76.8579C342.905 76.0768 341.639 76.0768 340.858 76.8579C340.077 77.6389 340.077 78.9052 340.858 79.6863L352.172 91L340.858 102.314C340.077 103.095 340.077 104.361 340.858 105.142C341.639 105.923 342.905 105.923 343.686 105.142L356.414 92.4142ZM271 93L276 93L276 89L271 89L271 93ZM280 93L290 93L290 89L280 89L280 93ZM294 93L304 93L304 89L294 89L294 93ZM308 93L318 93L318 89L308 89L308 93ZM322 93L332 93L332 89L322 89L322 93ZM336 93L346 93L346 89L336 89L336 93ZM350 93L355 93L355 89L350 89L350 93Z" fill="black"/>
<path d="M62.2918 90.4099C61.9019 90.801 61.903 91.4342 62.2942 91.8241L68.6688 98.1773C69.06 98.5672 69.6932 98.5662 70.083 98.175C70.4729 97.7838 70.4718 97.1506 70.0807 96.7608L64.4143 91.1134L70.0617 85.4471C70.4515 85.0559 70.4505 84.4227 70.0593 84.0329C69.6681 83.643 69.035 83.6441 68.6451 84.0352L62.2918 90.4099ZM131.998 90L127.07 90.0083L127.073 92.0083L132.002 92L131.998 90ZM123.127 90.0149L113.27 90.0314L113.273 92.0314L123.13 92.0149L123.127 90.0149ZM109.327 90.038L99.4698 90.0546L99.4732 92.0546L109.33 92.038L109.327 90.038ZM95.527 90.0612L85.6698 90.0777L85.6732 92.0777L95.5303 92.0612L95.527 90.0612ZM81.727 90.0844L71.8698 90.1009L71.8732 92.1009L81.7303 92.0844L81.727 90.0844ZM67.927 90.1075L62.9984 90.1158L63.0018 92.1158L67.9304 92.1075L67.927 90.1075ZM61.5835 89.7039C60.8038 90.4863 60.8059 91.7526 61.5883 92.5324L74.3375 105.239C75.1199 106.019 76.3862 106.017 77.1659 105.234C77.9457 104.452 77.9436 103.185 77.1612 102.406L65.8285 91.111L77.1232 79.7784C77.903 78.996 77.9008 77.7297 77.1185 76.9499C76.3361 76.1702 75.0698 76.1723 74.2901 76.9547L61.5835 89.7039ZM131.997 89L127.068 89.0083L127.075 93.0083L132.003 93L131.997 89ZM123.125 89.0149L113.268 89.0314L113.275 93.0314L123.132 93.0149L123.125 89.0149ZM109.325 89.038L99.4681 89.0546L99.4748 93.0546L109.332 93.038L109.325 89.038ZM95.5253 89.0612L85.6681 89.0777L85.6749 93.0777L95.532 93.0612L95.5253 89.0612ZM81.7253 89.0844L71.8682 89.1009L71.8749 93.1009L81.732 93.0844L81.7253 89.0844ZM67.9253 89.1075L62.9967 89.1158L63.0035 93.1158L67.932 93.1075L67.9253 89.1075Z" fill="black"/>
<path d="M172.4 85.86C172.4 85.2733 172.747 84.6933 173.44 84.12C174.133 83.5333 175.207 83.24 176.66 83.24C178.113 83.24 179.187 83.58 179.88 84.26C180.573 84.94 180.92 85.6933 180.92 86.52C180.92 87.3467 180.7 88.0467 180.26 88.62C179.833 89.18 179.287 89.5533 178.62 89.74C179.447 89.9133 180.153 90.2733 180.74 90.82C181.327 91.3667 181.62 92.0933 181.62 93C181.62 94.2267 181.093 95.2267 180.04 96C179 96.7733 177.767 97.16 176.34 97.16C174.927 97.16 173.813 96.9733 173 96.6C172.2 96.2267 171.8 95.7667 171.8 95.22C171.8 94.6733 172.1 94.3133 172.7 94.14C173.087 95.1533 174.24 95.66 176.16 95.66C177.16 95.66 178.04 95.4333 178.8 94.98C179.56 94.5267 179.94 93.9067 179.94 93.12C179.94 92.32 179.587 91.7267 178.88 91.34C178.173 90.94 177.327 90.74 176.34 90.74H175.5C174.9 90.74 174.6 90.5 174.6 90.02C174.6 89.5 174.9 89.24 175.5 89.24H176.34C177.167 89.24 177.853 89.0333 178.4 88.62C178.96 88.1933 179.24 87.66 179.24 87.02C179.24 86.3667 179.007 85.8267 178.54 85.4C178.087 84.96 177.427 84.74 176.56 84.74C175.707 84.74 175.02 84.92 174.5 85.28C173.993 85.64 173.647 86.1267 173.46 86.74C172.753 86.74 172.4 86.4467 172.4 85.86ZM185.324 85.04C186.404 83.84 187.771 83.24 189.424 83.24C191.077 83.24 192.437 83.84 193.504 85.04C194.571 86.2267 195.104 87.9333 195.104 90.16C195.104 92.3733 194.564 94.0933 193.484 95.32C192.417 96.5467 191.064 97.16 189.424 97.16C187.784 97.16 186.417 96.5467 185.324 95.32C184.244 94.0933 183.704 92.3733 183.704 90.16C183.704 87.9467 184.244 86.24 185.324 85.04ZM193.224 90.22C193.224 88.5133 192.857 87.1867 192.124 86.24C191.404 85.28 190.497 84.8 189.404 84.8C188.311 84.8 187.404 85.28 186.684 86.24C185.977 87.1867 185.624 88.5133 185.624 90.22C185.624 91.9133 185.957 93.24 186.624 94.2C187.291 95.1467 188.217 95.62 189.404 95.62C190.604 95.62 191.537 95.1467 192.204 94.2C192.884 93.24 193.224 91.9133 193.224 90.22ZM199.133 85.04C200.213 83.84 201.579 83.24 203.233 83.24C204.886 83.24 206.246 83.84 207.313 85.04C208.379 86.2267 208.913 87.9333 208.913 90.16C208.913 92.3733 208.373 94.0933 207.293 95.32C206.226 96.5467 204.873 97.16 203.233 97.16C201.593 97.16 200.226 96.5467 199.133 95.32C198.053 94.0933 197.513 92.3733 197.513 90.16C197.513 87.9467 198.053 86.24 199.133 85.04ZM207.033 90.22C207.033 88.5133 206.666 87.1867 205.933 86.24C205.213 85.28 204.306 84.8 203.213 84.8C202.119 84.8 201.213 85.28 200.493 86.24C199.786 87.1867 199.433 88.5133 199.433 90.22C199.433 91.9133 199.766 93.24 200.433 94.2C201.099 95.1467 202.026 95.62 203.213 95.62C204.413 95.62 205.346 95.1467 206.013 94.2C206.693 93.24 207.033 91.9133 207.033 90.22ZM212.321 87.14H212.461C212.968 87.14 213.221 87.3733 213.221 87.84V88.62C213.501 88.1533 213.921 87.76 214.481 87.44C215.041 87.12 215.648 86.96 216.301 86.96C217.541 86.96 218.541 87.38 219.301 88.22C220.074 89.0467 220.461 90.3133 220.461 92.02C220.461 93.7133 220.008 94.9933 219.101 95.86C218.208 96.7267 217.108 97.16 215.801 97.16C214.908 97.16 214.048 96.9333 213.221 96.48V100.78C213.221 101.273 212.968 101.52 212.461 101.52H212.321C211.814 101.52 211.561 101.273 211.561 100.78V87.88C211.561 87.3867 211.814 87.14 212.321 87.14ZM218.801 92C218.801 90.7333 218.534 89.8133 218.001 89.24C217.468 88.6533 216.748 88.36 215.841 88.36C214.934 88.36 214.268 88.76 213.841 89.56C213.428 90.36 213.221 91.4 213.221 92.68V95.18C213.354 95.2733 213.681 95.4 214.201 95.56C214.734 95.7067 215.268 95.78 215.801 95.78C216.694 95.78 217.414 95.4667 217.961 94.84C218.521 94.2133 218.801 93.2667 218.801 92ZM223.187 87.14H223.807C224.141 87.14 224.414 87.3 224.627 87.62L226.887 91.08C227.461 90.3733 228.227 89.22 229.187 87.62C229.387 87.3 229.647 87.14 229.967 87.14H230.327C230.714 87.14 230.907 87.2933 230.907 87.6C230.907 87.7067 230.881 87.8067 230.827 87.9C230.067 89.1933 229.054 90.58 227.787 92.06L230.927 96.24C231.034 96.3867 231.087 96.52 231.087 96.64C231.087 96.88 230.947 97 230.667 97H229.887C229.554 97 229.254 96.8133 228.987 96.44L226.727 93.18C226.514 93.3933 226.267 93.7067 225.987 94.12C225.707 94.5333 225.501 94.8333 225.367 95.02C224.967 95.62 224.647 96.12 224.407 96.52C224.194 96.84 223.921 97 223.587 97H223.227C223.067 97 222.934 96.9467 222.827 96.84C222.721 96.7333 222.667 96.62 222.667 96.5C222.667 96.3667 222.707 96.24 222.787 96.12C223.694 94.7867 224.727 93.4733 225.887 92.18L222.767 87.9C222.687 87.8067 222.647 87.7 222.647 87.58C222.647 87.46 222.694 87.36 222.787 87.28C222.894 87.1867 223.027 87.14 223.187 87.14Z" fill="black"/>
<path d="M75.232 186.902C75.616 186.206 76.168 185.654 76.888 185.246C77.608 184.826 78.466 184.616 79.462 184.616C80.458 184.616 81.25 184.826 81.838 185.246C82.438 185.654 82.738 186.062 82.738 186.47C82.738 186.878 82.48 187.148 81.964 187.28C81.544 186.62 81.04 186.206 80.452 186.038C80.14 185.954 79.72 185.912 79.192 185.912C78.664 185.912 78.142 186.068 77.626 186.38C77.122 186.692 76.726 187.1 76.438 187.604C75.862 188.612 75.574 189.716 75.574 190.916C75.922 190.424 76.42 190.016 77.068 189.692C77.728 189.368 78.424 189.206 79.156 189.206C80.56 189.206 81.586 189.554 82.234 190.25C82.894 190.946 83.224 191.864 83.224 193.004C83.224 194.132 82.846 195.104 82.09 195.92C81.346 196.736 80.218 197.144 78.706 197.144C77.194 197.144 76.042 196.646 75.25 195.65C74.47 194.654 74.08 193.28 74.08 191.528C74.08 189.8 74.464 188.258 75.232 186.902ZM78.778 190.484C77.914 190.484 77.188 190.718 76.6 191.186C76.024 191.654 75.736 192.212 75.736 192.86C75.736 193.496 75.964 194.126 76.42 194.75C76.648 195.062 76.966 195.32 77.374 195.524C77.794 195.716 78.262 195.812 78.778 195.812C79.81 195.812 80.56 195.554 81.028 195.038C81.496 194.51 81.73 193.838 81.73 193.022C81.73 191.33 80.746 190.484 78.778 190.484ZM86.8407 186.236C87.8127 185.156 89.0427 184.616 90.5307 184.616C92.0187 184.616 93.2427 185.156 94.2027 186.236C95.1627 187.304 95.6427 188.84 95.6427 190.844C95.6427 192.836 95.1567 194.384 94.1847 195.488C93.2247 196.592 92.0067 197.144 90.5307 197.144C89.0547 197.144 87.8247 196.592 86.8407 195.488C85.8687 194.384 85.3827 192.836 85.3827 190.844C85.3827 188.852 85.8687 187.316 86.8407 186.236ZM93.9507 190.898C93.9507 189.362 93.6207 188.168 92.9607 187.316C92.3127 186.452 91.4967 186.02 90.5127 186.02C89.5287 186.02 88.7127 186.452 88.0647 187.316C87.4287 188.168 87.1107 189.362 87.1107 190.898C87.1107 192.422 87.4107 193.616 88.0107 194.48C88.6107 195.332 89.4447 195.758 90.5127 195.758C91.5927 195.758 92.4327 195.332 93.0327 194.48C93.6447 193.616 93.9507 192.422 93.9507 190.898Z" fill="black"/>
<path d="M148.332 186.982C148.332 186.034 148.728 185.254 149.52 184.642C150.324 184.018 151.308 183.706 152.472 183.706C153.648 183.706 154.62 184.018 155.388 184.642C156.156 185.254 156.54 186.034 156.54 186.982C156.54 188.218 155.856 189.082 154.488 189.574C155.184 189.814 155.778 190.186 156.27 190.69C156.762 191.194 157.008 191.842 157.008 192.634C157.008 193.678 156.6 194.53 155.784 195.19C154.968 195.838 153.864 196.162 152.472 196.162C151.092 196.162 149.982 195.838 149.142 195.19C148.314 194.53 147.9 193.678 147.9 192.634C147.9 191.842 148.14 191.194 148.62 190.69C149.1 190.174 149.682 189.802 150.366 189.574C149.01 189.07 148.332 188.206 148.332 186.982ZM154.938 187.072C154.938 186.46 154.71 185.962 154.254 185.578C153.798 185.182 153.21 184.984 152.49 184.984C151.782 184.984 151.188 185.182 150.708 185.578C150.228 185.962 149.988 186.466 149.988 187.09C149.988 187.702 150.198 188.188 150.618 188.548C151.05 188.908 151.668 189.088 152.472 189.088C153.276 189.088 153.888 188.908 154.308 188.548C154.728 188.176 154.938 187.684 154.938 187.072ZM155.37 192.598C155.37 191.89 155.1 191.326 154.56 190.906C154.032 190.474 153.336 190.258 152.472 190.258C151.62 190.258 150.918 190.474 150.366 190.906C149.814 191.326 149.538 191.89 149.538 192.598C149.538 193.294 149.808 193.852 150.348 194.272C150.9 194.692 151.608 194.902 152.472 194.902C153.336 194.902 154.032 194.692 154.56 194.272C155.1 193.852 155.37 193.294 155.37 192.598ZM160.454 185.236C161.426 184.156 162.656 183.616 164.144 183.616C165.632 183.616 166.856 184.156 167.816 185.236C168.776 186.304 169.256 187.84 169.256 189.844C169.256 191.836 168.77 193.384 167.798 194.488C166.838 195.592 165.62 196.144 164.144 196.144C162.668 196.144 161.438 195.592 160.454 194.488C159.482 193.384 158.996 191.836 158.996 189.844C158.996 187.852 159.482 186.316 160.454 185.236ZM167.564 189.898C167.564 188.362 167.234 187.168 166.574 186.316C165.926 185.452 165.11 185.02 164.126 185.02C163.142 185.02 162.326 185.452 161.678 186.316C161.042 187.168 160.724 188.362 160.724 189.898C160.724 191.422 161.024 192.616 161.624 193.48C162.224 194.332 163.058 194.758 164.126 194.758C165.206 194.758 166.046 194.332 166.646 193.48C167.258 192.616 167.564 191.422 167.564 189.898Z" fill="black"/>
<path d="M228.332 186.982C228.332 186.034 228.728 185.254 229.52 184.642C230.324 184.018 231.308 183.706 232.472 183.706C233.648 183.706 234.62 184.018 235.388 184.642C236.156 185.254 236.54 186.034 236.54 186.982C236.54 188.218 235.856 189.082 234.488 189.574C235.184 189.814 235.778 190.186 236.27 190.69C236.762 191.194 237.008 191.842 237.008 192.634C237.008 193.678 236.6 194.53 235.784 195.19C234.968 195.838 233.864 196.162 232.472 196.162C231.092 196.162 229.982 195.838 229.142 195.19C228.314 194.53 227.9 193.678 227.9 192.634C227.9 191.842 228.14 191.194 228.62 190.69C229.1 190.174 229.682 189.802 230.366 189.574C229.01 189.07 228.332 188.206 228.332 186.982ZM234.938 187.072C234.938 186.46 234.71 185.962 234.254 185.578C233.798 185.182 233.21 184.984 232.49 184.984C231.782 184.984 231.188 185.182 230.708 185.578C230.228 185.962 229.988 186.466 229.988 187.09C229.988 187.702 230.198 188.188 230.618 188.548C231.05 188.908 231.668 189.088 232.472 189.088C233.276 189.088 233.888 188.908 234.308 188.548C234.728 188.176 234.938 187.684 234.938 187.072ZM235.37 192.598C235.37 191.89 235.1 191.326 234.56 190.906C234.032 190.474 233.336 190.258 232.472 190.258C231.62 190.258 230.918 190.474 230.366 190.906C229.814 191.326 229.538 191.89 229.538 192.598C229.538 193.294 229.808 193.852 230.348 194.272C230.9 194.692 231.608 194.902 232.472 194.902C233.336 194.902 234.032 194.692 234.56 194.272C235.1 193.852 235.37 193.294 235.37 192.598ZM240.454 185.236C241.426 184.156 242.656 183.616 244.144 183.616C245.632 183.616 246.856 184.156 247.816 185.236C248.776 186.304 249.256 187.84 249.256 189.844C249.256 191.836 248.77 193.384 247.798 194.488C246.838 195.592 245.62 196.144 244.144 196.144C242.668 196.144 241.438 195.592 240.454 194.488C239.482 193.384 238.996 191.836 238.996 189.844C238.996 187.852 239.482 186.316 240.454 185.236ZM247.564 189.898C247.564 188.362 247.234 187.168 246.574 186.316C245.926 185.452 245.11 185.02 244.126 185.02C243.142 185.02 242.326 185.452 241.678 186.316C241.042 187.168 240.724 188.362 240.724 189.898C240.724 191.422 241.024 192.616 241.624 193.48C242.224 194.332 243.058 194.758 244.126 194.758C245.206 194.758 246.046 194.332 246.646 193.48C247.258 192.616 247.564 191.422 247.564 189.898Z" fill="black"/>
<path d="M308.332 187.982C308.332 187.034 308.728 186.254 309.52 185.642C310.324 185.018 311.308 184.706 312.472 184.706C313.648 184.706 314.62 185.018 315.388 185.642C316.156 186.254 316.54 187.034 316.54 187.982C316.54 189.218 315.856 190.082 314.488 190.574C315.184 190.814 315.778 191.186 316.27 191.69C316.762 192.194 317.008 192.842 317.008 193.634C317.008 194.678 316.6 195.53 315.784 196.19C314.968 196.838 313.864 197.162 312.472 197.162C311.092 197.162 309.982 196.838 309.142 196.19C308.314 195.53 307.9 194.678 307.9 193.634C307.9 192.842 308.14 192.194 308.62 191.69C309.1 191.174 309.682 190.802 310.366 190.574C309.01 190.07 308.332 189.206 308.332 187.982ZM314.938 188.072C314.938 187.46 314.71 186.962 314.254 186.578C313.798 186.182 313.21 185.984 312.49 185.984C311.782 185.984 311.188 186.182 310.708 186.578C310.228 186.962 309.988 187.466 309.988 188.09C309.988 188.702 310.198 189.188 310.618 189.548C311.05 189.908 311.668 190.088 312.472 190.088C313.276 190.088 313.888 189.908 314.308 189.548C314.728 189.176 314.938 188.684 314.938 188.072ZM315.37 193.598C315.37 192.89 315.1 192.326 314.56 191.906C314.032 191.474 313.336 191.258 312.472 191.258C311.62 191.258 310.918 191.474 310.366 191.906C309.814 192.326 309.538 192.89 309.538 193.598C309.538 194.294 309.808 194.852 310.348 195.272C310.9 195.692 311.608 195.902 312.472 195.902C313.336 195.902 314.032 195.692 314.56 195.272C315.1 194.852 315.37 194.294 315.37 193.598ZM320.454 186.236C321.426 185.156 322.656 184.616 324.144 184.616C325.632 184.616 326.856 185.156 327.816 186.236C328.776 187.304 329.256 188.84 329.256 190.844C329.256 192.836 328.77 194.384 327.798 195.488C326.838 196.592 325.62 197.144 324.144 197.144C322.668 197.144 321.438 196.592 320.454 195.488C319.482 194.384 318.996 192.836 318.996 190.844C318.996 188.852 319.482 187.316 320.454 186.236ZM327.564 190.898C327.564 189.362 327.234 188.168 326.574 187.316C325.926 186.452 325.11 186.02 324.126 186.02C323.142 186.02 322.326 186.452 321.678 187.316C321.042 188.168 320.724 189.362 320.724 190.898C320.724 192.422 321.024 193.616 321.624 194.48C322.224 195.332 323.058 195.758 324.126 195.758C325.206 195.758 326.046 195.332 326.646 194.48C327.258 193.616 327.564 192.422 327.564 190.898Z" fill="black"/>
<path d="M115.998 276.778H117.852C118.356 276.778 118.608 276.994 118.608 277.426V288.316C118.608 288.772 118.356 289 117.852 289H117.726C117.222 289 116.97 288.772 116.97 288.316V278.128H115.998C115.506 278.128 115.26 277.906 115.26 277.462C115.26 277.006 115.506 276.778 115.998 276.778ZM122.409 278.236C123.381 277.156 124.611 276.616 126.099 276.616C127.587 276.616 128.811 277.156 129.771 278.236C130.731 279.304 131.211 280.84 131.211 282.844C131.211 284.836 130.725 286.384 129.753 287.488C128.793 288.592 127.575 289.144 126.099 289.144C124.623 289.144 123.393 288.592 122.409 287.488C121.437 286.384 120.951 284.836 120.951 282.844C120.951 280.852 121.437 279.316 122.409 278.236ZM129.519 282.898C129.519 281.362 129.189 280.168 128.529 279.316C127.881 278.452 127.065 278.02 126.081 278.02C125.097 278.02 124.281 278.452 123.633 279.316C122.997 280.168 122.679 281.362 122.679 282.898C122.679 284.422 122.979 285.616 123.579 286.48C124.179 287.332 125.013 287.758 126.081 287.758C127.161 287.758 128.001 287.332 128.601 286.48C129.213 285.616 129.519 284.422 129.519 282.898ZM134.837 278.236C135.809 277.156 137.039 276.616 138.527 276.616C140.015 276.616 141.239 277.156 142.199 278.236C143.159 279.304 143.639 280.84 143.639 282.844C143.639 284.836 143.153 286.384 142.181 287.488C141.221 288.592 140.003 289.144 138.527 289.144C137.051 289.144 135.821 288.592 134.837 287.488C133.865 286.384 133.379 284.836 133.379 282.844C133.379 280.852 133.865 279.316 134.837 278.236ZM141.947 282.898C141.947 281.362 141.617 280.168 140.957 279.316C140.309 278.452 139.493 278.02 138.509 278.02C137.525 278.02 136.709 278.452 136.061 279.316C135.425 280.168 135.107 281.362 135.107 282.898C135.107 284.422 135.407 285.616 136.007 286.48C136.607 287.332 137.441 287.758 138.509 287.758C139.589 287.758 140.429 287.332 141.029 286.48C141.641 285.616 141.947 284.422 141.947 282.898ZM146.707 280.126H146.833C147.289 280.126 147.517 280.336 147.517 280.756V281.458C147.769 281.038 148.147 280.684 148.651 280.396C149.155 280.108 149.701 279.964 150.289 279.964C151.405 279.964 152.305 280.342 152.989 281.098C153.685 281.842 154.033 282.982 154.033 284.518C154.033 286.042 153.625 287.194 152.809 287.974C152.005 288.754 151.015 289.144 149.839 289.144C149.035 289.144 148.261 288.94 147.517 288.532V292.402C147.517 292.846 147.289 293.068 146.833 293.068H146.707C146.251 293.068 146.023 292.846 146.023 292.402V280.792C146.023 280.348 146.251 280.126 146.707 280.126ZM152.539 284.5C152.539 283.36 152.299 282.532 151.819 282.016C151.339 281.488 150.691 281.224 149.875 281.224C149.059 281.224 148.459 281.584 148.075 282.304C147.703 283.024 147.517 283.96 147.517 285.112V287.362C147.637 287.446 147.931 287.56 148.399 287.704C148.879 287.836 149.359 287.902 149.839 287.902C150.643 287.902 151.291 287.62 151.783 287.056C152.287 286.492 152.539 285.64 152.539 284.5ZM156.486 280.126H157.044C157.344 280.126 157.59 280.27 157.782 280.558L159.816 283.672C160.332 283.036 161.022 281.998 161.886 280.558C162.066 280.27 162.3 280.126 162.588 280.126H162.912C163.26 280.126 163.434 280.264 163.434 280.54C163.434 280.636 163.41 280.726 163.362 280.81C162.678 281.974 161.766 283.222 160.626 284.554L163.452 288.316C163.548 288.448 163.596 288.568 163.596 288.676C163.596 288.892 163.47 289 163.218 289H162.516C162.216 289 161.946 288.832 161.706 288.496L159.672 285.562C159.48 285.754 159.258 286.036 159.006 286.408C158.754 286.78 158.568 287.05 158.448 287.218C158.088 287.758 157.8 288.208 157.584 288.568C157.392 288.856 157.146 289 156.846 289H156.522C156.378 289 156.258 288.952 156.162 288.856C156.066 288.76 156.018 288.658 156.018 288.55C156.018 288.43 156.054 288.316 156.126 288.208C156.942 287.008 157.872 285.826 158.916 284.662L156.108 280.81C156.036 280.726 156 280.63 156 280.522C156 280.414 156.042 280.324 156.126 280.252C156.222 280.168 156.342 280.126 156.486 280.126ZM171.798 283.114H176.586C177.03 283.114 177.252 283.312 177.252 283.708C177.252 284.104 177.03 284.302 176.586 284.302H171.798C171.354 284.302 171.132 284.104 171.132 283.708C171.132 283.312 171.354 283.114 171.798 283.114ZM185.043 279.37C185.043 278.638 185.385 277.996 186.069 277.444C186.753 276.892 187.695 276.616 188.895 276.616C190.095 276.616 191.025 276.934 191.685 277.57C192.345 278.194 192.675 278.968 192.675 279.892C192.675 280.816 192.369 281.674 191.757 282.466C191.145 283.246 189.777 284.668 187.653 286.732C187.245 287.128 186.933 287.434 186.717 287.65H192.207C192.711 287.65 192.963 287.878 192.963 288.334C192.963 288.778 192.711 289 192.207 289H185.529C185.037 289 184.791 288.742 184.791 288.226C184.791 287.794 184.983 287.434 185.367 287.146C187.743 284.89 189.309 283.324 190.065 282.448C190.821 281.56 191.199 280.792 191.199 280.144C191.199 279.484 190.971 278.962 190.515 278.578C190.071 278.182 189.453 277.984 188.661 277.984C187.881 277.984 187.269 278.224 186.825 278.704C186.381 279.184 186.123 279.694 186.051 280.234C185.379 280.234 185.043 279.946 185.043 279.37ZM195.369 280.126H195.927C196.227 280.126 196.473 280.27 196.665 280.558L198.699 283.672C199.215 283.036 199.905 281.998 200.769 280.558C200.949 280.27 201.183 280.126 201.471 280.126H201.795C202.143 280.126 202.317 280.264 202.317 280.54C202.317 280.636 202.293 280.726 202.245 280.81C201.561 281.974 200.649 283.222 199.509 284.554L202.335 288.316C202.431 288.448 202.479 288.568 202.479 288.676C202.479 288.892 202.353 289 202.101 289H201.399C201.099 289 200.829 288.832 200.589 288.496L198.555 285.562C198.363 285.754 198.141 286.036 197.889 286.408C197.637 286.78 197.451 287.05 197.331 287.218C196.971 287.758 196.683 288.208 196.467 288.568C196.275 288.856 196.029 289 195.729 289H195.405C195.261 289 195.141 288.952 195.045 288.856C194.949 288.76 194.901 288.658 194.901 288.55C194.901 288.43 194.937 288.316 195.009 288.208C195.825 287.008 196.755 285.826 197.799 284.662L194.991 280.81C194.919 280.726 194.883 280.63 194.883 280.522C194.883 280.414 194.925 280.324 195.009 280.252C195.105 280.168 195.225 280.126 195.369 280.126ZM204.537 279.37C204.537 278.638 204.879 277.996 205.563 277.444C206.247 276.892 207.189 276.616 208.389 276.616C209.589 276.616 210.519 276.934 211.179 277.57C211.839 278.194 212.169 278.968 212.169 279.892C212.169 280.816 211.863 281.674 211.251 282.466C210.639 283.246 209.271 284.668 207.147 286.732C206.739 287.128 206.427 287.434 206.211 287.65H211.701C212.205 287.65 212.457 287.878 212.457 288.334C212.457 288.778 212.205 289 211.701 289H205.023C204.531 289 204.285 288.742 204.285 288.226C204.285 287.794 204.477 287.434 204.861 287.146C207.237 284.89 208.803 283.324 209.559 282.448C210.315 281.56 210.693 280.792 210.693 280.144C210.693 279.484 210.465 278.962 210.009 278.578C209.565 278.182 208.947 277.984 208.155 277.984C207.375 277.984 206.763 278.224 206.319 278.704C205.875 279.184 205.617 279.694 205.545 280.234C204.873 280.234 204.537 279.946 204.537 279.37ZM215.907 278.236C216.879 277.156 218.109 276.616 219.597 276.616C221.085 276.616 222.309 277.156 223.269 278.236C224.229 279.304 224.709 280.84 224.709 282.844C224.709 284.836 224.223 286.384 223.251 287.488C222.291 288.592 221.073 289.144 219.597 289.144C218.121 289.144 216.891 288.592 215.907 287.488C214.935 286.384 214.449 284.836 214.449 282.844C214.449 280.852 214.935 279.316 215.907 278.236ZM223.017 282.898C223.017 281.362 222.687 280.168 222.027 279.316C221.379 278.452 220.563 278.02 219.579 278.02C218.595 278.02 217.779 278.452 217.131 279.316C216.495 280.168 216.177 281.362 216.177 282.898C216.177 284.422 216.477 285.616 217.077 286.48C217.677 287.332 218.511 287.758 219.579 287.758C220.659 287.758 221.499 287.332 222.099 286.48C222.711 285.616 223.017 284.422 223.017 282.898ZM227.777 280.126H227.903C228.359 280.126 228.587 280.336 228.587 280.756V281.458C228.839 281.038 229.217 280.684 229.721 280.396C230.225 280.108 230.771 279.964 231.359 279.964C232.475 279.964 233.375 280.342 234.059 281.098C234.755 281.842 235.103 282.982 235.103 284.518C235.103 286.042 234.695 287.194 233.879 287.974C233.075 288.754 232.085 289.144 230.909 289.144C230.105 289.144 229.331 288.94 228.587 288.532V292.402C228.587 292.846 228.359 293.068 227.903 293.068H227.777C227.321 293.068 227.093 292.846 227.093 292.402V280.792C227.093 280.348 227.321 280.126 227.777 280.126ZM233.609 284.5C233.609 283.36 233.369 282.532 232.889 282.016C232.409 281.488 231.761 281.224 230.945 281.224C230.129 281.224 229.529 281.584 229.145 282.304C228.773 283.024 228.587 283.96 228.587 285.112V287.362C228.707 287.446 229.001 287.56 229.469 287.704C229.949 287.836 230.429 287.902 230.909 287.902C231.713 287.902 232.361 287.62 232.853 287.056C233.357 286.492 233.609 285.64 233.609 284.5ZM237.557 280.126H238.115C238.415 280.126 238.661 280.27 238.853 280.558L240.887 283.672C241.403 283.036 242.093 281.998 242.957 280.558C243.137 280.27 243.371 280.126 243.659 280.126H243.983C244.331 280.126 244.505 280.264 244.505 280.54C244.505 280.636 244.481 280.726 244.433 280.81C243.749 281.974 242.837 283.222 241.697 284.554L244.523 288.316C244.619 288.448 244.667 288.568 244.667 288.676C244.667 288.892 244.541 289 244.289 289H243.587C243.287 289 243.017 288.832 242.777 288.496L240.743 285.562C240.551 285.754 240.329 286.036 240.077 286.408C239.825 286.78 239.639 287.05 239.519 287.218C239.159 287.758 238.871 288.208 238.655 288.568C238.463 288.856 238.217 289 237.917 289H237.593C237.449 289 237.329 288.952 237.233 288.856C237.137 288.76 237.089 288.658 237.089 288.55C237.089 288.43 237.125 288.316 237.197 288.208C238.013 287.008 238.943 285.826 239.987 284.662L237.179 280.81C237.107 280.726 237.071 280.63 237.071 280.522C237.071 280.414 237.113 280.324 237.197 280.252C237.293 280.168 237.413 280.126 237.557 280.126ZM252.869 281.962H259.223C259.667 281.962 259.889 282.16 259.889 282.556C259.889 282.952 259.667 283.15 259.223 283.15H252.869C252.425 283.15 252.203 282.952 252.203 282.556C252.203 282.16 252.425 281.962 252.869 281.962ZM252.869 285.148H259.223C259.667 285.148 259.889 285.346 259.889 285.742C259.889 286.138 259.667 286.336 259.223 286.336H252.869C252.425 286.336 252.203 286.138 252.203 285.742C252.203 285.346 252.425 285.148 252.869 285.148ZM268.757 278.902C269.141 278.206 269.693 277.654 270.413 277.246C271.133 276.826 271.991 276.616 272.987 276.616C273.983 276.616 274.775 276.826 275.363 277.246C275.963 277.654 276.263 278.062 276.263 278.47C276.263 278.878 276.005 279.148 275.489 279.28C275.069 278.62 274.565 278.206 273.977 278.038C273.665 277.954 273.245 277.912 272.717 277.912C272.189 277.912 271.667 278.068 271.151 278.38C270.647 278.692 270.251 279.1 269.963 279.604C269.387 280.612 269.099 281.716 269.099 282.916C269.447 282.424 269.945 282.016 270.593 281.692C271.253 281.368 271.949 281.206 272.681 281.206C274.085 281.206 275.111 281.554 275.759 282.25C276.419 282.946 276.749 283.864 276.749 285.004C276.749 286.132 276.371 287.104 275.615 287.92C274.871 288.736 273.743 289.144 272.231 289.144C270.719 289.144 269.567 288.646 268.775 287.65C267.995 286.654 267.605 285.28 267.605 283.528C267.605 281.8 267.989 280.258 268.757 278.902ZM272.303 282.484C271.439 282.484 270.713 282.718 270.125 283.186C269.549 283.654 269.261 284.212 269.261 284.86C269.261 285.496 269.489 286.126 269.945 286.75C270.173 287.062 270.491 287.32 270.899 287.524C271.319 287.716 271.787 287.812 272.303 287.812C273.335 287.812 274.085 287.554 274.553 287.038C275.021 286.51 275.255 285.838 275.255 285.022C275.255 283.33 274.271 282.484 272.303 282.484ZM280.366 278.236C281.338 277.156 282.568 276.616 284.056 276.616C285.544 276.616 286.768 277.156 287.728 278.236C288.688 279.304 289.168 280.84 289.168 282.844C289.168 284.836 288.682 286.384 287.71 287.488C286.75 288.592 285.532 289.144 284.056 289.144C282.58 289.144 281.35 288.592 280.366 287.488C279.394 286.384 278.908 284.836 278.908 282.844C278.908 280.852 279.394 279.316 280.366 278.236ZM287.476 282.898C287.476 281.362 287.146 280.168 286.486 279.316C285.838 278.452 285.022 278.02 284.038 278.02C283.054 278.02 282.238 278.452 281.59 279.316C280.954 280.168 280.636 281.362 280.636 282.898C280.636 284.422 280.936 285.616 281.536 286.48C282.136 287.332 282.97 287.758 284.038 287.758C285.118 287.758 285.958 287.332 286.558 286.48C287.17 285.616 287.476 284.422 287.476 282.898ZM292.236 280.126H292.362C292.818 280.126 293.046 280.336 293.046 280.756V281.458C293.298 281.038 293.676 280.684 294.18 280.396C294.684 280.108 295.23 279.964 295.818 279.964C296.934 279.964 297.834 280.342 298.518 281.098C299.214 281.842 299.562 282.982 299.562 284.518C299.562 286.042 299.154 287.194 298.338 287.974C297.534 288.754 296.544 289.144 295.368 289.144C294.564 289.144 293.79 288.94 293.046 288.532V292.402C293.046 292.846 292.818 293.068 292.362 293.068H292.236C291.78 293.068 291.552 292.846 291.552 292.402V280.792C291.552 280.348 291.78 280.126 292.236 280.126ZM298.068 284.5C298.068 283.36 297.828 282.532 297.348 282.016C296.868 281.488 296.22 281.224 295.404 281.224C294.588 281.224 293.988 281.584 293.604 282.304C293.232 283.024 293.046 283.96 293.046 285.112V287.362C293.166 287.446 293.46 287.56 293.928 287.704C294.408 287.836 294.888 287.902 295.368 287.902C296.172 287.902 296.82 287.62 297.312 287.056C297.816 286.492 298.068 285.64 298.068 284.5ZM302.015 280.126H302.573C302.873 280.126 303.119 280.27 303.311 280.558L305.345 283.672C305.861 283.036 306.551 281.998 307.415 280.558C307.595 280.27 307.829 280.126 308.117 280.126H308.441C308.789 280.126 308.963 280.264 308.963 280.54C308.963 280.636 308.939 280.726 308.891 280.81C308.207 281.974 307.295 283.222 306.155 284.554L308.981 288.316C309.077 288.448 309.125 288.568 309.125 288.676C309.125 288.892 308.999 289 308.747 289H308.045C307.745 289 307.475 288.832 307.235 288.496L305.201 285.562C305.009 285.754 304.787 286.036 304.535 286.408C304.283 286.78 304.097 287.05 303.977 287.218C303.617 287.758 303.329 288.208 303.113 288.568C302.921 288.856 302.675 289 302.375 289H302.051C301.907 289 301.787 288.952 301.691 288.856C301.595 288.76 301.547 288.658 301.547 288.55C301.547 288.43 301.583 288.316 301.655 288.208C302.471 287.008 303.401 285.826 304.445 284.662L301.637 280.81C301.565 280.726 301.529 280.63 301.529 280.522C301.529 280.414 301.571 280.324 301.655 280.252C301.751 280.168 301.871 280.126 302.015 280.126ZM115.998 297.778H117.852C118.356 297.778 118.608 297.994 118.608 298.426V309.316C118.608 309.772 118.356 310 117.852 310H117.726C117.222 310 116.97 309.772 116.97 309.316V299.128H115.998C115.506 299.128 115.26 298.906 115.26 298.462C115.26 298.006 115.506 297.778 115.998 297.778ZM122.409 299.236C123.381 298.156 124.611 297.616 126.099 297.616C127.587 297.616 128.811 298.156 129.771 299.236C130.731 300.304 131.211 301.84 131.211 303.844C131.211 305.836 130.725 307.384 129.753 308.488C128.793 309.592 127.575 310.144 126.099 310.144C124.623 310.144 123.393 309.592 122.409 308.488C121.437 307.384 120.951 305.836 120.951 303.844C120.951 301.852 121.437 300.316 122.409 299.236ZM129.519 303.898C129.519 302.362 129.189 301.168 128.529 300.316C127.881 299.452 127.065 299.02 126.081 299.02C125.097 299.02 124.281 299.452 123.633 300.316C122.997 301.168 122.679 302.362 122.679 303.898C122.679 305.422 122.979 306.616 123.579 307.48C124.179 308.332 125.013 308.758 126.081 308.758C127.161 308.758 128.001 308.332 128.601 307.48C129.213 306.616 129.519 305.422 129.519 303.898ZM134.837 299.236C135.809 298.156 137.039 297.616 138.527 297.616C140.015 297.616 141.239 298.156 142.199 299.236C143.159 300.304 143.639 301.84 143.639 303.844C143.639 305.836 143.153 307.384 142.181 308.488C141.221 309.592 140.003 310.144 138.527 310.144C137.051 310.144 135.821 309.592 134.837 308.488C133.865 307.384 133.379 305.836 133.379 303.844C133.379 301.852 133.865 300.316 134.837 299.236ZM141.947 303.898C141.947 302.362 141.617 301.168 140.957 300.316C140.309 299.452 139.493 299.02 138.509 299.02C137.525 299.02 136.709 299.452 136.061 300.316C135.425 301.168 135.107 302.362 135.107 303.898C135.107 305.422 135.407 306.616 136.007 307.48C136.607 308.332 137.441 308.758 138.509 308.758C139.589 308.758 140.429 308.332 141.029 307.48C141.641 306.616 141.947 305.422 141.947 303.898ZM146.707 301.126H146.833C147.289 301.126 147.517 301.336 147.517 301.756V302.458C147.769 302.038 148.147 301.684 148.651 301.396C149.155 301.108 149.701 300.964 150.289 300.964C151.405 300.964 152.305 301.342 152.989 302.098C153.685 302.842 154.033 303.982 154.033 305.518C154.033 307.042 153.625 308.194 152.809 308.974C152.005 309.754 151.015 310.144 149.839 310.144C149.035 310.144 148.261 309.94 147.517 309.532V313.402C147.517 313.846 147.289 314.068 146.833 314.068H146.707C146.251 314.068 146.023 313.846 146.023 313.402V301.792C146.023 301.348 146.251 301.126 146.707 301.126ZM152.539 305.5C152.539 304.36 152.299 303.532 151.819 303.016C151.339 302.488 150.691 302.224 149.875 302.224C149.059 302.224 148.459 302.584 148.075 303.304C147.703 304.024 147.517 304.96 147.517 306.112V308.362C147.637 308.446 147.931 308.56 148.399 308.704C148.879 308.836 149.359 308.902 149.839 308.902C150.643 308.902 151.291 308.62 151.783 308.056C152.287 307.492 152.539 306.64 152.539 305.5ZM156.486 301.126H157.044C157.344 301.126 157.59 301.27 157.782 301.558L159.816 304.672C160.332 304.036 161.022 302.998 161.886 301.558C162.066 301.27 162.3 301.126 162.588 301.126H162.912C163.26 301.126 163.434 301.264 163.434 301.54C163.434 301.636 163.41 301.726 163.362 301.81C162.678 302.974 161.766 304.222 160.626 305.554L163.452 309.316C163.548 309.448 163.596 309.568 163.596 309.676C163.596 309.892 163.47 310 163.218 310H162.516C162.216 310 161.946 309.832 161.706 309.496L159.672 306.562C159.48 306.754 159.258 307.036 159.006 307.408C158.754 307.78 158.568 308.05 158.448 308.218C158.088 308.758 157.8 309.208 157.584 309.568C157.392 309.856 157.146 310 156.846 310H156.522C156.378 310 156.258 309.952 156.162 309.856C156.066 309.76 156.018 309.658 156.018 309.55C156.018 309.43 156.054 309.316 156.126 309.208C156.942 308.008 157.872 306.826 158.916 305.662L156.108 301.81C156.036 301.726 156 301.63 156 301.522C156 301.414 156.042 301.324 156.126 301.252C156.222 301.168 156.342 301.126 156.486 301.126ZM171.798 304.114H176.586C177.03 304.114 177.252 304.312 177.252 304.708C177.252 305.104 177.03 305.302 176.586 305.302H171.798C171.354 305.302 171.132 305.104 171.132 304.708C171.132 304.312 171.354 304.114 171.798 304.114ZM185.889 297.778H187.743C188.247 297.778 188.499 297.994 188.499 298.426V309.316C188.499 309.772 188.247 310 187.743 310H187.617C187.113 310 186.861 309.772 186.861 309.316V299.128H185.889C185.397 299.128 185.151 298.906 185.151 298.462C185.151 298.006 185.397 297.778 185.889 297.778ZM191.256 301.126H191.814C192.114 301.126 192.36 301.27 192.552 301.558L194.586 304.672C195.102 304.036 195.792 302.998 196.656 301.558C196.836 301.27 197.07 301.126 197.358 301.126H197.682C198.03 301.126 198.204 301.264 198.204 301.54C198.204 301.636 198.18 301.726 198.132 301.81C197.448 302.974 196.536 304.222 195.396 305.554L198.222 309.316C198.318 309.448 198.366 309.568 198.366 309.676C198.366 309.892 198.24 310 197.988 310H197.286C196.986 310 196.716 309.832 196.476 309.496L194.442 306.562C194.25 306.754 194.028 307.036 193.776 307.408C193.524 307.78 193.338 308.05 193.218 308.218C192.858 308.758 192.57 309.208 192.354 309.568C192.162 309.856 191.916 310 191.616 310H191.292C191.148 310 191.028 309.952 190.932 309.856C190.836 309.76 190.788 309.658 190.788 309.55C190.788 309.43 190.824 309.316 190.896 309.208C191.712 308.008 192.642 306.826 193.686 305.662L190.878 301.81C190.806 301.726 190.77 301.63 190.77 301.522C190.77 301.414 190.812 301.324 190.896 301.252C190.992 301.168 191.112 301.126 191.256 301.126ZM200.423 300.37C200.423 299.638 200.765 298.996 201.449 298.444C202.133 297.892 203.075 297.616 204.275 297.616C205.475 297.616 206.405 297.934 207.065 298.57C207.725 299.194 208.055 299.968 208.055 300.892C208.055 301.816 207.749 302.674 207.137 303.466C206.525 304.246 205.157 305.668 203.033 307.732C202.625 308.128 202.313 308.434 202.097 308.65H207.587C208.091 308.65 208.343 308.878 208.343 309.334C208.343 309.778 208.091 310 207.587 310H200.909C200.417 310 200.171 309.742 200.171 309.226C200.171 308.794 200.363 308.434 200.747 308.146C203.123 305.89 204.689 304.324 205.445 303.448C206.201 302.56 206.579 301.792 206.579 301.144C206.579 300.484 206.351 299.962 205.895 299.578C205.451 299.182 204.833 298.984 204.041 298.984C203.261 298.984 202.649 299.224 202.205 299.704C201.761 300.184 201.503 300.694 201.431 301.234C200.759 301.234 200.423 300.946 200.423 300.37ZM211.794 299.236C212.766 298.156 213.996 297.616 215.484 297.616C216.972 297.616 218.196 298.156 219.156 299.236C220.116 300.304 220.596 301.84 220.596 303.844C220.596 305.836 220.11 307.384 219.138 308.488C218.178 309.592 216.96 310.144 215.484 310.144C214.008 310.144 212.778 309.592 211.794 308.488C210.822 307.384 210.336 305.836 210.336 303.844C210.336 301.852 210.822 300.316 211.794 299.236ZM218.904 303.898C218.904 302.362 218.574 301.168 217.914 300.316C217.266 299.452 216.45 299.02 215.466 299.02C214.482 299.02 213.666 299.452 213.018 300.316C212.382 301.168 212.064 302.362 212.064 303.898C212.064 305.422 212.364 306.616 212.964 307.48C213.564 308.332 214.398 308.758 215.466 308.758C216.546 308.758 217.386 308.332 217.986 307.48C218.598 306.616 218.904 305.422 218.904 303.898ZM223.664 301.126H223.79C224.246 301.126 224.474 301.336 224.474 301.756V302.458C224.726 302.038 225.104 301.684 225.608 301.396C226.112 301.108 226.658 300.964 227.246 300.964C228.362 300.964 229.262 301.342 229.946 302.098C230.642 302.842 230.99 303.982 230.99 305.518C230.99 307.042 230.582 308.194 229.766 308.974C228.962 309.754 227.972 310.144 226.796 310.144C225.992 310.144 225.218 309.94 224.474 309.532V313.402C224.474 313.846 224.246 314.068 223.79 314.068H223.664C223.208 314.068 222.98 313.846 222.98 313.402V301.792C222.98 301.348 223.208 301.126 223.664 301.126ZM229.496 305.5C229.496 304.36 229.256 303.532 228.776 303.016C228.296 302.488 227.648 302.224 226.832 302.224C226.016 302.224 225.416 302.584 225.032 303.304C224.66 304.024 224.474 304.96 224.474 306.112V308.362C224.594 308.446 224.888 308.56 225.356 308.704C225.836 308.836 226.316 308.902 226.796 308.902C227.6 308.902 228.248 308.62 228.74 308.056C229.244 307.492 229.496 306.64 229.496 305.5ZM233.443 301.126H234.001C234.301 301.126 234.547 301.27 234.739 301.558L236.773 304.672C237.289 304.036 237.979 302.998 238.843 301.558C239.023 301.27 239.257 301.126 239.545 301.126H239.869C240.217 301.126 240.391 301.264 240.391 301.54C240.391 301.636 240.367 301.726 240.319 301.81C239.635 302.974 238.723 304.222 237.583 305.554L240.409 309.316C240.505 309.448 240.553 309.568 240.553 309.676C240.553 309.892 240.427 310 240.175 310H239.473C239.173 310 238.903 309.832 238.663 309.496L236.629 306.562C236.437 306.754 236.215 307.036 235.963 307.408C235.711 307.78 235.525 308.05 235.405 308.218C235.045 308.758 234.757 309.208 234.541 309.568C234.349 309.856 234.103 310 233.803 310H233.479C233.335 310 233.215 309.952 233.119 309.856C233.023 309.76 232.975 309.658 232.975 309.55C232.975 309.43 233.011 309.316 233.083 309.208C233.899 308.008 234.829 306.826 235.873 305.662L233.065 301.81C232.993 301.726 232.957 301.63 232.957 301.522C232.957 301.414 232.999 301.324 233.083 301.252C233.179 301.168 233.299 301.126 233.443 301.126ZM248.755 302.962H255.109C255.553 302.962 255.775 303.16 255.775 303.556C255.775 303.952 255.553 304.15 255.109 304.15H248.755C248.311 304.15 248.089 303.952 248.089 303.556C248.089 303.16 248.311 302.962 248.755 302.962ZM248.755 306.148H255.109C255.553 306.148 255.775 306.346 255.775 306.742C255.775 307.138 255.553 307.336 255.109 307.336H248.755C248.311 307.336 248.089 307.138 248.089 306.742C248.089 306.346 248.311 306.148 248.755 306.148ZM263.744 300.982C263.744 300.034 264.14 299.254 264.932 298.642C265.736 298.018 266.72 297.706 267.884 297.706C269.06 297.706 270.032 298.018 270.8 298.642C271.568 299.254 271.952 300.034 271.952 300.982C271.952 302.218 271.268 303.082 269.9 303.574C270.596 303.814 271.19 304.186 271.682 304.69C272.174 305.194 272.42 305.842 272.42 306.634C272.42 307.678 272.012 308.53 271.196 309.19C270.38 309.838 269.276 310.162 267.884 310.162C266.504 310.162 265.394 309.838 264.554 309.19C263.726 308.53 263.312 307.678 263.312 306.634C263.312 305.842 263.552 305.194 264.032 304.69C264.512 304.174 265.094 303.802 265.778 303.574C264.422 303.07 263.744 302.206 263.744 300.982ZM270.35 301.072C270.35 300.46 270.122 299.962 269.666 299.578C269.21 299.182 268.622 298.984 267.902 298.984C267.194 298.984 266.6 299.182 266.12 299.578C265.64 299.962 265.4 300.466 265.4 301.09C265.4 301.702 265.61 302.188 266.03 302.548C266.462 302.908 267.08 303.088 267.884 303.088C268.688 303.088 269.3 302.908 269.72 302.548C270.14 302.176 270.35 301.684 270.35 301.072ZM270.782 306.598C270.782 305.89 270.512 305.326 269.972 304.906C269.444 304.474 268.748 304.258 267.884 304.258C267.032 304.258 266.33 304.474 265.778 304.906C265.226 305.326 264.95 305.89 264.95 306.598C264.95 307.294 265.22 307.852 265.76 308.272C266.312 308.692 267.02 308.902 267.884 308.902C268.748 308.902 269.444 308.692 269.972 308.272C270.512 307.852 270.782 307.294 270.782 306.598ZM275.866 299.236C276.838 298.156 278.068 297.616 279.556 297.616C281.044 297.616 282.268 298.156 283.228 299.236C284.188 300.304 284.668 301.84 284.668 303.844C284.668 305.836 284.182 307.384 283.21 308.488C282.25 309.592 281.032 310.144 279.556 310.144C278.08 310.144 276.85 309.592 275.866 308.488C274.894 307.384 274.408 305.836 274.408 303.844C274.408 301.852 274.894 300.316 275.866 299.236ZM282.976 303.898C282.976 302.362 282.646 301.168 281.986 300.316C281.338 299.452 280.522 299.02 279.538 299.02C278.554 299.02 277.738 299.452 277.09 300.316C276.454 301.168 276.136 302.362 276.136 303.898C276.136 305.422 276.436 306.616 277.036 307.48C277.636 308.332 278.47 308.758 279.538 308.758C280.618 308.758 281.458 308.332 282.058 307.48C282.67 306.616 282.976 305.422 282.976 303.898ZM287.736 301.126H287.862C288.318 301.126 288.546 301.336 288.546 301.756V302.458C288.798 302.038 289.176 301.684 289.68 301.396C290.184 301.108 290.73 300.964 291.318 300.964C292.434 300.964 293.334 301.342 294.018 302.098C294.714 302.842 295.062 303.982 295.062 305.518C295.062 307.042 294.654 308.194 293.838 308.974C293.034 309.754 292.044 310.144 290.868 310.144C290.064 310.144 289.29 309.94 288.546 309.532V313.402C288.546 313.846 288.318 314.068 287.862 314.068H287.736C287.28 314.068 287.052 313.846 287.052 313.402V301.792C287.052 301.348 287.28 301.126 287.736 301.126ZM293.568 305.5C293.568 304.36 293.328 303.532 292.848 303.016C292.368 302.488 291.72 302.224 290.904 302.224C290.088 302.224 289.488 302.584 289.104 303.304C288.732 304.024 288.546 304.96 288.546 306.112V308.362C288.666 308.446 288.96 308.56 289.428 308.704C289.908 308.836 290.388 308.902 290.868 308.902C291.672 308.902 292.32 308.62 292.812 308.056C293.316 307.492 293.568 306.64 293.568 305.5ZM297.515 301.126H298.073C298.373 301.126 298.619 301.27 298.811 301.558L300.845 304.672C301.361 304.036 302.051 302.998 302.915 301.558C303.095 301.27 303.329 301.126 303.617 301.126H303.941C304.289 301.126 304.463 301.264 304.463 301.54C304.463 301.636 304.439 301.726 304.391 301.81C303.707 302.974 302.795 304.222 301.655 305.554L304.481 309.316C304.577 309.448 304.625 309.568 304.625 309.676C304.625 309.892 304.499 310 304.247 310H303.545C303.245 310 302.975 309.832 302.735 309.496L300.701 306.562C300.509 306.754 300.287 307.036 300.035 307.408C299.783 307.78 299.597 308.05 299.477 308.218C299.117 308.758 298.829 309.208 298.613 309.568C298.421 309.856 298.175 310 297.875 310H297.551C297.407 310 297.287 309.952 297.191 309.856C297.095 309.76 297.047 309.658 297.047 309.55C297.047 309.43 297.083 309.316 297.155 309.208C297.971 308.008 298.901 306.826 299.945 305.662L297.137 301.81C297.065 301.726 297.029 301.63 297.029 301.522C297.029 301.414 297.071 301.324 297.155 301.252C297.251 301.168 297.371 301.126 297.515 301.126Z" fill="black"/>
<defs>
<filter id="filter0_d" x="192" y="165" width="88" height="58" filterUnits="userSpaceOnUse" color-interpolation-filters="sRGB">
<feFlood flood-opacity="0" result="BackgroundImageFix"/>
<feColorMatrix in="SourceAlpha" type="matrix" values="0 0 0 0 0 0 0 0 0 0 0 0 0 0 0 0 0 0 127 0"/>
<feOffset dy="4"/>
<feGaussianBlur stdDeviation="2"/>
<feColorMatrix type="matrix" values="0 0 0 0 0 0 0 0 0 0 0 0 0 0 0 0 0 0 0.25 0"/>
<feBlend mode="normal" in2="BackgroundImageFix" result="effect1_dropShadow"/>
<feBlend mode="normal" in="SourceGraphic" in2="effect1_dropShadow" result="shape"/>
</filter>
<filter id="filter1_d" x="269" y="165" width="88" height="58" filterUnits="userSpaceOnUse" color-interpolation-filters="sRGB">
<feFlood flood-opacity="0" result="BackgroundImageFix"/>
<feColorMatrix in="SourceAlpha" type="matrix" values="0 0 0 0 0 0 0 0 0 0 0 0 0 0 0 0 0 0 127 0"/>
<feOffset dy="4"/>
<feGaussianBlur stdDeviation="2"/>
<feColorMatrix type="matrix" values="0 0 0 0 0 0 0 0 0 0 0 0 0 0 0 0 0 0 0.25 0"/>
<feBlend mode="normal" in2="BackgroundImageFix" result="effect1_dropShadow"/>
<feBlend mode="normal" in="SourceGraphic" in2="effect1_dropShadow" result="shape"/>
</filter>
<filter id="filter2_d" x="113" y="165" width="88" height="58" filterUnits="userSpaceOnUse" color-interpolation-filters="sRGB">
<feFlood flood-opacity="0" result="BackgroundImageFix"/>
<feColorMatrix in="SourceAlpha" type="matrix" values="0 0 0 0 0 0 0 0 0 0 0 0 0 0 0 0 0 0 127 0"/>
<feOffset dy="4"/>
<feGaussianBlur stdDeviation="2"/>
<feColorMatrix type="matrix" values="0 0 0 0 0 0 0 0 0 0 0 0 0 0 0 0 0 0 0.25 0"/>
<feBlend mode="normal" in2="BackgroundImageFix" result="effect1_dropShadow"/>
<feBlend mode="normal" in="SourceGraphic" in2="effect1_dropShadow" result="shape"/>
</filter>
<filter id="filter3_d" x="53" y="165" width="68" height="58" filterUnits="userSpaceOnUse" color-interpolation-filters="sRGB">
<feFlood flood-opacity="0" result="BackgroundImageFix"/>
<feColorMatrix in="SourceAlpha" type="matrix" values="0 0 0 0 0 0 0 0 0 0 0 0 0 0 0 0 0 0 127 0"/>
<feOffset dy="4"/>
<feGaussianBlur stdDeviation="2"/>
<feColorMatrix type="matrix" values="0 0 0 0 0 0 0 0 0 0 0 0 0 0 0 0 0 0 0.25 0"/>
<feBlend mode="normal" in2="BackgroundImageFix" result="effect1_dropShadow"/>
<feBlend mode="normal" in="SourceGraphic" in2="effect1_dropShadow" result="shape"/>
</filter>
</defs>
</svg>
