<svg width="373" height="356" viewBox="0 0 373 356" fill="none" xmlns="http://www.w3.org/2000/svg">
<rect width="373" height="356" fill="white"/>
<path d="M229 247.085C230.228 245.513 235.819 237.878 235.872 239.144C235.942 240.82 234.645 247.927 237.857 247.009C239.718 246.477 246.552 234.743 246.868 243.267C246.961 245.793 247.383 255.154 250.38 250.445C252.262 247.487 255.114 237.547 255.114 241.053C255.114 243.606 259.143 256.8 262.292 253.652C265.128 250.816 267.139 247.457 269.164 244.031C269.468 243.517 272.7 237.532 272.905 238.457C273.347 240.446 274.842 255.963 276.036 256.095C281.166 256.665 280.954 239.684 284.282 238.686C284.886 238.505 285.779 250.949 287.566 248.765C290.742 244.883 291.71 239.557 294.133 235.25C294.702 234.237 298.082 246.731 298.485 248.612C301.235 261.445 303.043 246.504 304.517 240.977C307.798 228.672 305.986 238.335 308.03 243.649C308.614 245.17 308.237 247.827 309.404 248.994C310.113 249.703 312.751 238.097 313.909 242.962C314.369 244.894 315.393 259.302 316.276 259.302C319.188 259.302 322.115 247.785 322.461 245.711" stroke="#93227E" stroke-width="16" stroke-linecap="round" stroke-linejoin="round"/>
<path d="M45.968 252.143C46.9235 250.393 51.1969 241.948 51.4552 243.189C51.797 244.831 51.6746 252.054 54.6947 250.626C56.444 249.798 61.2756 237.108 62.9753 245.467C63.479 247.944 65.4197 257.111 67.6097 251.977C68.9851 248.752 70.1803 238.48 70.7512 241.939C71.167 244.458 77.2908 256.82 79.8846 253.201C82.221 249.941 83.6587 246.3 85.0983 242.589C85.3143 242.033 87.5288 235.601 87.8822 236.48C88.6424 238.371 92.6439 253.437 93.8433 253.374C98.9976 253.101 96.0229 236.381 99.1448 234.854C99.7106 234.577 102.618 246.709 104.026 244.264C106.527 239.917 106.615 234.504 108.304 229.86C108.701 228.767 114.07 240.545 114.774 242.335C119.577 254.549 118.928 239.512 119.482 233.819C120.716 221.144 120.501 230.973 123.383 235.884C124.208 237.289 124.268 239.972 125.61 240.933C126.425 241.518 127.137 229.637 129.072 234.248C129.841 236.079 133.197 250.129 134.069 249.985C136.941 249.511 137.954 237.671 137.958 235.568" stroke="#93227E" stroke-width="16" stroke-linecap="round" stroke-linejoin="round"/>
<path d="M166.968 252.143C167.924 250.393 172.197 241.948 172.455 243.189C172.797 244.831 172.675 252.054 175.695 250.626C177.444 249.798 182.276 237.108 183.975 245.467C184.479 247.944 186.42 257.111 188.61 251.977C189.985 248.752 191.18 238.48 191.751 241.939C192.167 244.458 198.291 256.82 200.885 253.201C203.221 249.941 204.659 246.3 206.098 242.589C206.314 242.033 208.529 235.601 208.882 236.48C209.642 238.371 213.644 253.437 214.843 253.374C219.998 253.101 217.023 236.381 220.145 234.854C220.711 234.577 223.618 246.709 225.026 244.264C227.527 239.917 227.615 234.504 229.304 229.86C229.701 228.767 235.07 240.545 235.774 242.335C240.577 254.549 239.928 239.512 240.482 233.819C241.716 221.144 241.501 230.973 244.383 235.884C245.208 237.289 245.268 239.972 246.61 240.933C247.425 241.518 248.137 229.637 250.072 234.248C250.841 236.079 254.197 250.129 255.069 249.985C257.941 249.511 258.954 237.671 258.958 235.568" stroke="#93227E" stroke-width="16" stroke-linecap="round" stroke-linejoin="round"/>
<path d="M328.607 147.634C330.001 149.061 336.82 155.624 335.558 155.506C333.888 155.352 327.019 153.116 327.499 156.422C327.776 158.337 338.491 166.679 330.001 165.852C327.485 165.606 318.152 164.773 322.418 168.373C325.098 170.633 334.567 174.789 331.093 174.32C328.562 173.979 314.948 176.207 317.647 179.748C320.078 182.938 323.138 185.381 326.263 187.845C326.731 188.215 332.23 192.219 331.286 192.299C329.255 192.471 313.679 191.877 313.387 193.042C312.136 198.05 328.993 200.111 329.537 203.543C329.636 204.165 317.185 203.386 319.11 205.449C322.532 209.115 327.68 210.787 331.625 213.764C332.553 214.465 319.719 216.142 317.801 216.29C304.715 217.299 319.281 221.09 324.561 223.29C336.316 228.187 326.982 225.098 321.443 226.413C319.857 226.789 317.274 226.06 315.962 227.06C315.164 227.668 326.313 231.834 321.337 232.332C319.361 232.529 304.945 231.617 304.827 232.492C304.438 235.377 315.46 239.819 317.469 240.439" stroke="#93227E" stroke-width="16" stroke-linecap="round" stroke-linejoin="round"/>
<rect x="35.5" y="136.5" width="295" height="116" rx="7.5" fill="#93227E" stroke="black" stroke-width="5"/>
<path d="M44 240C45.2523 236.433 45.6545 232.765 45.6545 228.966C45.6545 226.277 45.1492 222.85 46.0835 220.383C47.3708 216.985 44 209.63 46.2061 206.42C46.2061 202.799 44 195.556 46.2061 195.556C46.2061 191.302 44 189.688 44 185.344C44 182.619 46.958 175.422 45.9303 172.909C44.3914 169.145 45.6545 162.973 45.6545 158.775C45.6545 155.029 44.382 150.956 45.1337 147.196C45.386 145.934 68.8484 147.196 71.2431 147.196C97.8029 147.196 111.864 144.505 137.785 147.196C142.988 147.196 154.272 147.196 154.272 147.196C167.58 147.196 170.91 147.196 179.101 147.196C193.815 147.196 209.707 147.196 224.389 147.196C245.725 147.196 271.267 147.196 271.267 147.196C274.044 147.196 291.13 147.196 291.13 147.196L304.56 147.741C306.543 146.739 308.911 147.853 310.933 148.013C313.26 148.198 314.832 147.434 317 147.434" stroke="#721861" stroke-width="17" stroke-linecap="round" stroke-linejoin="round"/>
<g filter="url(#filter0_d)">
<rect x="183" y="174" width="50" height="50" fill="#ED8B00"/>
<rect x="184" y="175" width="48" height="48" stroke="black" stroke-width="2"/>
</g>
<path d="M189 181C187.272 192.839 188.308 205.93 188.308 218" stroke="#FFB200" stroke-width="7" stroke-linecap="round" stroke-linejoin="round"/>
<path d="M189 180C201.677 180 214.523 179 227 179" stroke="#FFB200" stroke-width="7" stroke-linecap="round" stroke-linejoin="round"/>
<g filter="url(#filter1_d)">
<rect x="258" y="174" width="50" height="50" fill="#DB5B93"/>
<rect x="259" y="175" width="48" height="48" stroke="black" stroke-width="2"/>
</g>
<path d="M264 181C262.272 192.839 263.308 205.93 263.308 218" stroke="#F187B6" stroke-width="7" stroke-linecap="round" stroke-linejoin="round"/>
<path d="M264 180C276.677 180 289.523 179 302 179" stroke="#F187B6" stroke-width="7" stroke-linecap="round" stroke-linejoin="round"/>
<g filter="url(#filter2_d)">
<rect x="108" y="174" width="50" height="50" fill="#008744"/>
<rect x="109" y="175" width="48" height="48" stroke="black" stroke-width="2"/>
</g>
<path d="M114 181C112.272 192.839 113.308 205.93 113.308 218" stroke="#229F61" stroke-width="7" stroke-linecap="round" stroke-linejoin="round"/>
<path d="M114 180C126.677 180 139.523 179 152 179" stroke="#229F61" stroke-width="7" stroke-linecap="round" stroke-linejoin="round"/>
<g filter="url(#filter3_d)">
<rect x="35" y="174" width="50" height="50" fill="#0761B4"/>
<rect x="36" y="175" width="48" height="48" stroke="black" stroke-width="2"/>
</g>
<path d="M41 181C39.272 192.839 40.3081 205.93 40.3081 218" stroke="#0084FF" stroke-width="7" stroke-linecap="round" stroke-linejoin="round"/>
<path d="M41 180C53.6773 180 66.5225 179 79 179" stroke="#0084FF" stroke-width="7" stroke-linecap="round" stroke-linejoin="round"/>
<path d="M83.4977 253C86.0627 256.386 96.3268 265.37 88.3082 265.37C84.6561 265.37 79.5455 270.525 78 273.616" stroke="white" stroke-width="2" stroke-linecap="round" stroke-linejoin="round"/>
<line x1="36.5" y1="78" x2="36.5" y2="319" stroke="black" stroke-width="3" stroke-dasharray="10 4"/>
<line x1="334.5" y1="73" x2="334.5" y2="314" stroke="black" stroke-width="3" stroke-dasharray="10 4"/>
<path d="M333.707 100.707C334.098 100.317 334.098 99.6834 333.707 99.2929L327.343 92.9289C326.953 92.5384 326.319 92.5384 325.929 92.9289C325.538 93.3195 325.538 93.9526 325.929 94.3432L331.586 100L325.929 105.657C325.538 106.047 325.538 106.681 325.929 107.071C326.319 107.462 326.953 107.462 327.343 107.071L333.707 100.707ZM249 101L254 101L254 99L249 99L249 101ZM258 101L268 101L268 99L258 99L258 101ZM272 101L282 101L282 99L272 99L272 101ZM286 101L296 101L296 99L286 99L286 101ZM300 101L310 101L310 99L300 99L300 101ZM314 101L324 101L324 99L314 99L314 101ZM328 101L333 101L333 99L328 99L328 101ZM334.414 101.414C335.195 100.633 335.195 99.3668 334.414 98.5858L321.686 85.8579C320.905 85.0768 319.639 85.0768 318.858 85.8579C318.077 86.6389 318.077 87.9052 318.858 88.6863L330.172 100L318.858 111.314C318.077 112.095 318.077 113.361 318.858 114.142C319.639 114.923 320.905 114.923 321.686 114.142L334.414 101.414ZM249 102L254 102L254 98L249 98L249 102ZM258 102L268 102L268 98L258 98L258 102ZM272 102L282 102L282 98L272 98L272 102ZM286 102L296 102L296 98L286 98L286 102ZM300 102L310 102L310 98L300 98L300 102ZM314 102L324 102L324 98L314 98L314 102ZM328 102L333 102L333 98L328 98L328 102Z" fill="black"/>
<path d="M40.2918 99.4099C39.9019 99.801 39.903 100.434 40.2942 100.824L46.6688 107.177C47.06 107.567 47.6932 107.566 48.083 107.175C48.4729 106.784 48.4718 106.151 48.0807 105.761L42.4143 100.113L48.0617 94.4471C48.4515 94.0559 48.4505 93.4227 48.0593 93.0329C47.6681 92.643 47.035 92.6441 46.6451 93.0352L40.2918 99.4099ZM109.998 99L105.07 99.0083L105.073 101.008L110.002 101L109.998 99ZM101.127 99.0149L91.2698 99.0314L91.2731 101.031L101.13 101.015L101.127 99.0149ZM87.3269 99.038L77.4698 99.0546L77.4732 101.055L87.3303 101.038L87.3269 99.038ZM73.527 99.0612L63.6698 99.0777L63.6732 101.078L73.5303 101.061L73.527 99.0612ZM59.727 99.0844L49.8698 99.1009L49.8732 101.101L59.7303 101.084L59.727 99.0844ZM45.927 99.1075L40.9984 99.1158L41.0018 101.116L45.9304 101.108L45.927 99.1075ZM39.5835 98.7039C38.8038 99.4863 38.8059 100.753 39.5883 101.532L52.3375 114.239C53.1199 115.019 54.3862 115.017 55.1659 114.234C55.9457 113.452 55.9436 112.185 55.1612 111.406L43.8285 100.111L55.1232 88.7784C55.903 87.996 55.9008 86.7297 55.1185 85.9499C54.3361 85.1702 53.0698 85.1723 52.2901 85.9547L39.5835 98.7039ZM109.997 98L105.068 98.0083L105.075 102.008L110.003 102L109.997 98ZM101.125 98.0149L91.2681 98.0314L91.2748 102.031L101.132 102.015L101.125 98.0149ZM87.3253 98.038L77.4681 98.0546L77.4748 102.055L87.332 102.038L87.3253 98.038ZM73.5253 98.0612L63.6681 98.0777L63.6749 102.078L73.532 102.061L73.5253 98.0612ZM59.7253 98.0844L49.8682 98.1009L49.8749 102.101L59.732 102.084L59.7253 98.0844ZM45.9253 98.1075L40.9967 98.1158L41.0035 102.116L45.932 102.108L45.9253 98.1075Z" fill="black"/>
<path d="M150.4 94.86C150.4 94.2733 150.747 93.6933 151.44 93.12C152.133 92.5333 153.207 92.24 154.66 92.24C156.113 92.24 157.187 92.58 157.88 93.26C158.573 93.94 158.92 94.6933 158.92 95.52C158.92 96.3467 158.7 97.0467 158.26 97.62C157.833 98.18 157.287 98.5533 156.62 98.74C157.447 98.9133 158.153 99.2733 158.74 99.82C159.327 100.367 159.62 101.093 159.62 102C159.62 103.227 159.093 104.227 158.04 105C157 105.773 155.767 106.16 154.34 106.16C152.927 106.16 151.813 105.973 151 105.6C150.2 105.227 149.8 104.767 149.8 104.22C149.8 103.673 150.1 103.313 150.7 103.14C151.087 104.153 152.24 104.66 154.16 104.66C155.16 104.66 156.04 104.433 156.8 103.98C157.56 103.527 157.94 102.907 157.94 102.12C157.94 101.32 157.587 100.727 156.88 100.34C156.173 99.94 155.327 99.74 154.34 99.74H153.5C152.9 99.74 152.6 99.5 152.6 99.02C152.6 98.5 152.9 98.24 153.5 98.24H154.34C155.167 98.24 155.853 98.0333 156.4 97.62C156.96 97.1933 157.24 96.66 157.24 96.02C157.24 95.3667 157.007 94.8267 156.54 94.4C156.087 93.96 155.427 93.74 154.56 93.74C153.707 93.74 153.02 93.92 152.5 94.28C151.993 94.64 151.647 95.1267 151.46 95.74C150.753 95.74 150.4 95.4467 150.4 94.86ZM163.324 94.04C164.404 92.84 165.771 92.24 167.424 92.24C169.077 92.24 170.437 92.84 171.504 94.04C172.571 95.2267 173.104 96.9333 173.104 99.16C173.104 101.373 172.564 103.093 171.484 104.32C170.417 105.547 169.064 106.16 167.424 106.16C165.784 106.16 164.417 105.547 163.324 104.32C162.244 103.093 161.704 101.373 161.704 99.16C161.704 96.9467 162.244 95.24 163.324 94.04ZM171.224 99.22C171.224 97.5133 170.857 96.1867 170.124 95.24C169.404 94.28 168.497 93.8 167.404 93.8C166.311 93.8 165.404 94.28 164.684 95.24C163.977 96.1867 163.624 97.5133 163.624 99.22C163.624 100.913 163.957 102.24 164.624 103.2C165.291 104.147 166.217 104.62 167.404 104.62C168.604 104.62 169.537 104.147 170.204 103.2C170.884 102.24 171.224 100.913 171.224 99.22ZM177.133 94.04C178.213 92.84 179.579 92.24 181.233 92.24C182.886 92.24 184.246 92.84 185.313 94.04C186.379 95.2267 186.913 96.9333 186.913 99.16C186.913 101.373 186.373 103.093 185.293 104.32C184.226 105.547 182.873 106.16 181.233 106.16C179.593 106.16 178.226 105.547 177.133 104.32C176.053 103.093 175.513 101.373 175.513 99.16C175.513 96.9467 176.053 95.24 177.133 94.04ZM185.033 99.22C185.033 97.5133 184.666 96.1867 183.933 95.24C183.213 94.28 182.306 93.8 181.213 93.8C180.119 93.8 179.213 94.28 178.493 95.24C177.786 96.1867 177.433 97.5133 177.433 99.22C177.433 100.913 177.766 102.24 178.433 103.2C179.099 104.147 180.026 104.62 181.213 104.62C182.413 104.62 183.346 104.147 184.013 103.2C184.693 102.24 185.033 100.913 185.033 99.22ZM190.321 96.14H190.461C190.968 96.14 191.221 96.3733 191.221 96.84V97.62C191.501 97.1533 191.921 96.76 192.481 96.44C193.041 96.12 193.648 95.96 194.301 95.96C195.541 95.96 196.541 96.38 197.301 97.22C198.074 98.0467 198.461 99.3133 198.461 101.02C198.461 102.713 198.008 103.993 197.101 104.86C196.208 105.727 195.108 106.16 193.801 106.16C192.908 106.16 192.048 105.933 191.221 105.48V109.78C191.221 110.273 190.968 110.52 190.461 110.52H190.321C189.814 110.52 189.561 110.273 189.561 109.78V96.88C189.561 96.3867 189.814 96.14 190.321 96.14ZM196.801 101C196.801 99.7333 196.534 98.8133 196.001 98.24C195.468 97.6533 194.748 97.36 193.841 97.36C192.934 97.36 192.268 97.76 191.841 98.56C191.428 99.36 191.221 100.4 191.221 101.68V104.18C191.354 104.273 191.681 104.4 192.201 104.56C192.734 104.707 193.268 104.78 193.801 104.78C194.694 104.78 195.414 104.467 195.961 103.84C196.521 103.213 196.801 102.267 196.801 101ZM201.187 96.14H201.807C202.141 96.14 202.414 96.3 202.627 96.62L204.887 100.08C205.461 99.3733 206.227 98.22 207.187 96.62C207.387 96.3 207.647 96.14 207.967 96.14H208.327C208.714 96.14 208.907 96.2933 208.907 96.6C208.907 96.7067 208.881 96.8067 208.827 96.9C208.067 98.1933 207.054 99.58 205.787 101.06L208.927 105.24C209.034 105.387 209.087 105.52 209.087 105.64C209.087 105.88 208.947 106 208.667 106H207.887C207.554 106 207.254 105.813 206.987 105.44L204.727 102.18C204.514 102.393 204.267 102.707 203.987 103.12C203.707 103.533 203.501 103.833 203.367 104.02C202.967 104.62 202.647 105.12 202.407 105.52C202.194 105.84 201.921 106 201.587 106H201.227C201.067 106 200.934 105.947 200.827 105.84C200.721 105.733 200.667 105.62 200.667 105.5C200.667 105.367 200.707 105.24 200.787 105.12C201.694 103.787 202.727 102.473 203.887 101.18L200.767 96.9C200.687 96.8067 200.647 96.7 200.647 96.58C200.647 96.46 200.694 96.36 200.787 96.28C200.894 96.1867 201.027 96.14 201.187 96.14Z" fill="black"/>
<path d="M42.844 191.778H48.352C48.832 191.778 49.072 192.006 49.072 192.462C49.072 192.918 48.832 193.146 48.352 193.146H43.384L43.114 196.728C43.69 196.56 44.41 196.476 45.274 196.476C46.474 196.476 47.458 196.782 48.226 197.394C48.994 198.006 49.378 198.906 49.378 200.094C49.378 201.282 48.928 202.254 48.028 203.01C47.128 203.766 46.036 204.144 44.752 204.144C43.48 204.144 42.502 203.988 41.818 203.676C41.134 203.352 40.792 202.902 40.792 202.326C40.792 201.894 41.044 201.594 41.548 201.426C41.704 201.894 42.076 202.242 42.664 202.47C43.264 202.686 43.984 202.794 44.824 202.794C45.676 202.794 46.414 202.56 47.038 202.092C47.662 201.624 47.974 200.988 47.974 200.184C47.974 199.368 47.698 198.768 47.146 198.384C46.606 198 45.964 197.808 45.22 197.808C44.476 197.808 43.678 197.934 42.826 198.186C42.718 198.222 42.58 198.24 42.412 198.24C42.256 198.24 42.1 198.168 41.944 198.024C41.788 197.868 41.71 197.67 41.71 197.43L42.106 192.444C42.13 192.204 42.19 192.036 42.286 191.94C42.394 191.832 42.58 191.778 42.844 191.778ZM52.6278 193.236C53.5998 192.156 54.8298 191.616 56.3178 191.616C57.8058 191.616 59.0298 192.156 59.9898 193.236C60.9498 194.304 61.4298 195.84 61.4298 197.844C61.4298 199.836 60.9438 201.384 59.9718 202.488C59.0118 203.592 57.7938 204.144 56.3178 204.144C54.8418 204.144 53.6118 203.592 52.6278 202.488C51.6558 201.384 51.1698 199.836 51.1698 197.844C51.1698 195.852 51.6558 194.316 52.6278 193.236ZM59.7378 197.898C59.7378 196.362 59.4078 195.168 58.7478 194.316C58.0998 193.452 57.2838 193.02 56.2998 193.02C55.3158 193.02 54.4998 193.452 53.8518 194.316C53.2158 195.168 52.8978 196.362 52.8978 197.898C52.8978 199.422 53.1978 200.616 53.7978 201.48C54.3978 202.332 55.2318 202.758 56.2998 202.758C57.3798 202.758 58.2198 202.332 58.8198 201.48C59.4318 200.616 59.7378 199.422 59.7378 197.898ZM64.4976 195.126H64.6236C65.0796 195.126 65.3076 195.336 65.3076 195.756V196.458C65.5596 196.038 65.9376 195.684 66.4416 195.396C66.9456 195.108 67.4916 194.964 68.0796 194.964C69.1956 194.964 70.0956 195.342 70.7796 196.098C71.4756 196.842 71.8236 197.982 71.8236 199.518C71.8236 201.042 71.4156 202.194 70.5996 202.974C69.7956 203.754 68.8056 204.144 67.6296 204.144C66.8256 204.144 66.0516 203.94 65.3076 203.532V207.402C65.3076 207.846 65.0796 208.068 64.6236 208.068H64.4976C64.0416 208.068 63.8136 207.846 63.8136 207.402V195.792C63.8136 195.348 64.0416 195.126 64.4976 195.126ZM70.3296 199.5C70.3296 198.36 70.0896 197.532 69.6096 197.016C69.1296 196.488 68.4816 196.224 67.6656 196.224C66.8496 196.224 66.2496 196.584 65.8656 197.304C65.4936 198.024 65.3076 198.96 65.3076 200.112V202.362C65.4276 202.446 65.7216 202.56 66.1896 202.704C66.6696 202.836 67.1496 202.902 67.6296 202.902C68.4336 202.902 69.0816 202.62 69.5736 202.056C70.0776 201.492 70.3296 200.64 70.3296 199.5ZM74.2772 195.126H74.8352C75.1352 195.126 75.3812 195.27 75.5732 195.558L77.6072 198.672C78.1232 198.036 78.8132 196.998 79.6772 195.558C79.8572 195.27 80.0912 195.126 80.3792 195.126H80.7032C81.0512 195.126 81.2252 195.264 81.2252 195.54C81.2252 195.636 81.2012 195.726 81.1532 195.81C80.4692 196.974 79.5572 198.222 78.4172 199.554L81.2432 203.316C81.3392 203.448 81.3872 203.568 81.3872 203.676C81.3872 203.892 81.2612 204 81.0092 204H80.3072C80.0072 204 79.7372 203.832 79.4972 203.496L77.4632 200.562C77.2712 200.754 77.0492 201.036 76.7972 201.408C76.5452 201.78 76.3592 202.05 76.2392 202.218C75.8792 202.758 75.5912 203.208 75.3752 203.568C75.1832 203.856 74.9372 204 74.6372 204H74.3132C74.1692 204 74.0492 203.952 73.9532 203.856C73.8572 203.76 73.8092 203.658 73.8092 203.55C73.8092 203.43 73.8452 203.316 73.9172 203.208C74.7332 202.008 75.6632 200.826 76.7072 199.662L73.8992 195.81C73.8272 195.726 73.7912 195.63 73.7912 195.522C73.7912 195.414 73.8332 195.324 73.9172 195.252C74.0132 195.168 74.1332 195.126 74.2772 195.126Z" fill="black"/>
<path d="M114.844 190.778H120.352C120.832 190.778 121.072 191.006 121.072 191.462C121.072 191.918 120.832 192.146 120.352 192.146H115.384L115.114 195.728C115.69 195.56 116.41 195.476 117.274 195.476C118.474 195.476 119.458 195.782 120.226 196.394C120.994 197.006 121.378 197.906 121.378 199.094C121.378 200.282 120.928 201.254 120.028 202.01C119.128 202.766 118.036 203.144 116.752 203.144C115.48 203.144 114.502 202.988 113.818 202.676C113.134 202.352 112.792 201.902 112.792 201.326C112.792 200.894 113.044 200.594 113.548 200.426C113.704 200.894 114.076 201.242 114.664 201.47C115.264 201.686 115.984 201.794 116.824 201.794C117.676 201.794 118.414 201.56 119.038 201.092C119.662 200.624 119.974 199.988 119.974 199.184C119.974 198.368 119.698 197.768 119.146 197.384C118.606 197 117.964 196.808 117.22 196.808C116.476 196.808 115.678 196.934 114.826 197.186C114.718 197.222 114.58 197.24 114.412 197.24C114.256 197.24 114.1 197.168 113.944 197.024C113.788 196.868 113.71 196.67 113.71 196.43L114.106 191.444C114.13 191.204 114.19 191.036 114.286 190.94C114.394 190.832 114.58 190.778 114.844 190.778ZM124.628 192.236C125.6 191.156 126.83 190.616 128.318 190.616C129.806 190.616 131.03 191.156 131.99 192.236C132.95 193.304 133.43 194.84 133.43 196.844C133.43 198.836 132.944 200.384 131.972 201.488C131.012 202.592 129.794 203.144 128.318 203.144C126.842 203.144 125.612 202.592 124.628 201.488C123.656 200.384 123.17 198.836 123.17 196.844C123.17 194.852 123.656 193.316 124.628 192.236ZM131.738 196.898C131.738 195.362 131.408 194.168 130.748 193.316C130.1 192.452 129.284 192.02 128.3 192.02C127.316 192.02 126.5 192.452 125.852 193.316C125.216 194.168 124.898 195.362 124.898 196.898C124.898 198.422 125.198 199.616 125.798 200.48C126.398 201.332 127.232 201.758 128.3 201.758C129.38 201.758 130.22 201.332 130.82 200.48C131.432 199.616 131.738 198.422 131.738 196.898ZM136.498 194.126H136.624C137.08 194.126 137.308 194.336 137.308 194.756V195.458C137.56 195.038 137.938 194.684 138.442 194.396C138.946 194.108 139.492 193.964 140.08 193.964C141.196 193.964 142.096 194.342 142.78 195.098C143.476 195.842 143.824 196.982 143.824 198.518C143.824 200.042 143.416 201.194 142.6 201.974C141.796 202.754 140.806 203.144 139.63 203.144C138.826 203.144 138.052 202.94 137.308 202.532V206.402C137.308 206.846 137.08 207.068 136.624 207.068H136.498C136.042 207.068 135.814 206.846 135.814 206.402V194.792C135.814 194.348 136.042 194.126 136.498 194.126ZM142.33 198.5C142.33 197.36 142.09 196.532 141.61 196.016C141.13 195.488 140.482 195.224 139.666 195.224C138.85 195.224 138.25 195.584 137.866 196.304C137.494 197.024 137.308 197.96 137.308 199.112V201.362C137.428 201.446 137.722 201.56 138.19 201.704C138.67 201.836 139.15 201.902 139.63 201.902C140.434 201.902 141.082 201.62 141.574 201.056C142.078 200.492 142.33 199.64 142.33 198.5ZM146.277 194.126H146.835C147.135 194.126 147.381 194.27 147.573 194.558L149.607 197.672C150.123 197.036 150.813 195.998 151.677 194.558C151.857 194.27 152.091 194.126 152.379 194.126H152.703C153.051 194.126 153.225 194.264 153.225 194.54C153.225 194.636 153.201 194.726 153.153 194.81C152.469 195.974 151.557 197.222 150.417 198.554L153.243 202.316C153.339 202.448 153.387 202.568 153.387 202.676C153.387 202.892 153.261 203 153.009 203H152.307C152.007 203 151.737 202.832 151.497 202.496L149.463 199.562C149.271 199.754 149.049 200.036 148.797 200.408C148.545 200.78 148.359 201.05 148.239 201.218C147.879 201.758 147.591 202.208 147.375 202.568C147.183 202.856 146.937 203 146.637 203H146.313C146.169 203 146.049 202.952 145.953 202.856C145.857 202.76 145.809 202.658 145.809 202.55C145.809 202.43 145.845 202.316 145.917 202.208C146.733 201.008 147.663 199.826 148.707 198.662L145.899 194.81C145.827 194.726 145.791 194.63 145.791 194.522C145.791 194.414 145.833 194.324 145.917 194.252C146.013 194.168 146.133 194.126 146.277 194.126Z" fill="black"/>
<path d="M190.844 190.778H196.352C196.832 190.778 197.072 191.006 197.072 191.462C197.072 191.918 196.832 192.146 196.352 192.146H191.384L191.114 195.728C191.69 195.56 192.41 195.476 193.274 195.476C194.474 195.476 195.458 195.782 196.226 196.394C196.994 197.006 197.378 197.906 197.378 199.094C197.378 200.282 196.928 201.254 196.028 202.01C195.128 202.766 194.036 203.144 192.752 203.144C191.48 203.144 190.502 202.988 189.818 202.676C189.134 202.352 188.792 201.902 188.792 201.326C188.792 200.894 189.044 200.594 189.548 200.426C189.704 200.894 190.076 201.242 190.664 201.47C191.264 201.686 191.984 201.794 192.824 201.794C193.676 201.794 194.414 201.56 195.038 201.092C195.662 200.624 195.974 199.988 195.974 199.184C195.974 198.368 195.698 197.768 195.146 197.384C194.606 197 193.964 196.808 193.22 196.808C192.476 196.808 191.678 196.934 190.826 197.186C190.718 197.222 190.58 197.24 190.412 197.24C190.256 197.24 190.1 197.168 189.944 197.024C189.788 196.868 189.71 196.67 189.71 196.43L190.106 191.444C190.13 191.204 190.19 191.036 190.286 190.94C190.394 190.832 190.58 190.778 190.844 190.778ZM200.628 192.236C201.6 191.156 202.83 190.616 204.318 190.616C205.806 190.616 207.03 191.156 207.99 192.236C208.95 193.304 209.43 194.84 209.43 196.844C209.43 198.836 208.944 200.384 207.972 201.488C207.012 202.592 205.794 203.144 204.318 203.144C202.842 203.144 201.612 202.592 200.628 201.488C199.656 200.384 199.17 198.836 199.17 196.844C199.17 194.852 199.656 193.316 200.628 192.236ZM207.738 196.898C207.738 195.362 207.408 194.168 206.748 193.316C206.1 192.452 205.284 192.02 204.3 192.02C203.316 192.02 202.5 192.452 201.852 193.316C201.216 194.168 200.898 195.362 200.898 196.898C200.898 198.422 201.198 199.616 201.798 200.48C202.398 201.332 203.232 201.758 204.3 201.758C205.38 201.758 206.22 201.332 206.82 200.48C207.432 199.616 207.738 198.422 207.738 196.898ZM212.498 194.126H212.624C213.08 194.126 213.308 194.336 213.308 194.756V195.458C213.56 195.038 213.938 194.684 214.442 194.396C214.946 194.108 215.492 193.964 216.08 193.964C217.196 193.964 218.096 194.342 218.78 195.098C219.476 195.842 219.824 196.982 219.824 198.518C219.824 200.042 219.416 201.194 218.6 201.974C217.796 202.754 216.806 203.144 215.63 203.144C214.826 203.144 214.052 202.94 213.308 202.532V206.402C213.308 206.846 213.08 207.068 212.624 207.068H212.498C212.042 207.068 211.814 206.846 211.814 206.402V194.792C211.814 194.348 212.042 194.126 212.498 194.126ZM218.33 198.5C218.33 197.36 218.09 196.532 217.61 196.016C217.13 195.488 216.482 195.224 215.666 195.224C214.85 195.224 214.25 195.584 213.866 196.304C213.494 197.024 213.308 197.96 213.308 199.112V201.362C213.428 201.446 213.722 201.56 214.19 201.704C214.67 201.836 215.15 201.902 215.63 201.902C216.434 201.902 217.082 201.62 217.574 201.056C218.078 200.492 218.33 199.64 218.33 198.5ZM222.277 194.126H222.835C223.135 194.126 223.381 194.27 223.573 194.558L225.607 197.672C226.123 197.036 226.813 195.998 227.677 194.558C227.857 194.27 228.091 194.126 228.379 194.126H228.703C229.051 194.126 229.225 194.264 229.225 194.54C229.225 194.636 229.201 194.726 229.153 194.81C228.469 195.974 227.557 197.222 226.417 198.554L229.243 202.316C229.339 202.448 229.387 202.568 229.387 202.676C229.387 202.892 229.261 203 229.009 203H228.307C228.007 203 227.737 202.832 227.497 202.496L225.463 199.562C225.271 199.754 225.049 200.036 224.797 200.408C224.545 200.78 224.359 201.05 224.239 201.218C223.879 201.758 223.591 202.208 223.375 202.568C223.183 202.856 222.937 203 222.637 203H222.313C222.169 203 222.049 202.952 221.953 202.856C221.857 202.76 221.809 202.658 221.809 202.55C221.809 202.43 221.845 202.316 221.917 202.208C222.733 201.008 223.663 199.826 224.707 198.662L221.899 194.81C221.827 194.726 221.791 194.63 221.791 194.522C221.791 194.414 221.833 194.324 221.917 194.252C222.013 194.168 222.133 194.126 222.277 194.126Z" fill="black"/>
<path d="M264.844 190.778H270.352C270.832 190.778 271.072 191.006 271.072 191.462C271.072 191.918 270.832 192.146 270.352 192.146H265.384L265.114 195.728C265.69 195.56 266.41 195.476 267.274 195.476C268.474 195.476 269.458 195.782 270.226 196.394C270.994 197.006 271.378 197.906 271.378 199.094C271.378 200.282 270.928 201.254 270.028 202.01C269.128 202.766 268.036 203.144 266.752 203.144C265.48 203.144 264.502 202.988 263.818 202.676C263.134 202.352 262.792 201.902 262.792 201.326C262.792 200.894 263.044 200.594 263.548 200.426C263.704 200.894 264.076 201.242 264.664 201.47C265.264 201.686 265.984 201.794 266.824 201.794C267.676 201.794 268.414 201.56 269.038 201.092C269.662 200.624 269.974 199.988 269.974 199.184C269.974 198.368 269.698 197.768 269.146 197.384C268.606 197 267.964 196.808 267.22 196.808C266.476 196.808 265.678 196.934 264.826 197.186C264.718 197.222 264.58 197.24 264.412 197.24C264.256 197.24 264.1 197.168 263.944 197.024C263.788 196.868 263.71 196.67 263.71 196.43L264.106 191.444C264.13 191.204 264.19 191.036 264.286 190.94C264.394 190.832 264.58 190.778 264.844 190.778ZM274.628 192.236C275.6 191.156 276.83 190.616 278.318 190.616C279.806 190.616 281.03 191.156 281.99 192.236C282.95 193.304 283.43 194.84 283.43 196.844C283.43 198.836 282.944 200.384 281.972 201.488C281.012 202.592 279.794 203.144 278.318 203.144C276.842 203.144 275.612 202.592 274.628 201.488C273.656 200.384 273.17 198.836 273.17 196.844C273.17 194.852 273.656 193.316 274.628 192.236ZM281.738 196.898C281.738 195.362 281.408 194.168 280.748 193.316C280.1 192.452 279.284 192.02 278.3 192.02C277.316 192.02 276.5 192.452 275.852 193.316C275.216 194.168 274.898 195.362 274.898 196.898C274.898 198.422 275.198 199.616 275.798 200.48C276.398 201.332 277.232 201.758 278.3 201.758C279.38 201.758 280.22 201.332 280.82 200.48C281.432 199.616 281.738 198.422 281.738 196.898ZM286.498 194.126H286.624C287.08 194.126 287.308 194.336 287.308 194.756V195.458C287.56 195.038 287.938 194.684 288.442 194.396C288.946 194.108 289.492 193.964 290.08 193.964C291.196 193.964 292.096 194.342 292.78 195.098C293.476 195.842 293.824 196.982 293.824 198.518C293.824 200.042 293.416 201.194 292.6 201.974C291.796 202.754 290.806 203.144 289.63 203.144C288.826 203.144 288.052 202.94 287.308 202.532V206.402C287.308 206.846 287.08 207.068 286.624 207.068H286.498C286.042 207.068 285.814 206.846 285.814 206.402V194.792C285.814 194.348 286.042 194.126 286.498 194.126ZM292.33 198.5C292.33 197.36 292.09 196.532 291.61 196.016C291.13 195.488 290.482 195.224 289.666 195.224C288.85 195.224 288.25 195.584 287.866 196.304C287.494 197.024 287.308 197.96 287.308 199.112V201.362C287.428 201.446 287.722 201.56 288.19 201.704C288.67 201.836 289.15 201.902 289.63 201.902C290.434 201.902 291.082 201.62 291.574 201.056C292.078 200.492 292.33 199.64 292.33 198.5ZM296.277 194.126H296.835C297.135 194.126 297.381 194.27 297.573 194.558L299.607 197.672C300.123 197.036 300.813 195.998 301.677 194.558C301.857 194.27 302.091 194.126 302.379 194.126H302.703C303.051 194.126 303.225 194.264 303.225 194.54C303.225 194.636 303.201 194.726 303.153 194.81C302.469 195.974 301.557 197.222 300.417 198.554L303.243 202.316C303.339 202.448 303.387 202.568 303.387 202.676C303.387 202.892 303.261 203 303.009 203H302.307C302.007 203 301.737 202.832 301.497 202.496L299.463 199.562C299.271 199.754 299.049 200.036 298.797 200.408C298.545 200.78 298.359 201.05 298.239 201.218C297.879 201.758 297.591 202.208 297.375 202.568C297.183 202.856 296.937 203 296.637 203H296.313C296.169 203 296.049 202.952 295.953 202.856C295.857 202.76 295.809 202.658 295.809 202.55C295.809 202.43 295.845 202.316 295.917 202.208C296.733 201.008 297.663 199.826 298.707 198.662L295.899 194.81C295.827 194.726 295.791 194.63 295.791 194.522C295.791 194.414 295.833 194.324 295.917 194.252C296.013 194.168 296.133 194.126 296.277 194.126Z" fill="black"/>
<defs>
<filter id="filter0_d" x="179" y="174" width="58" height="58" filterUnits="userSpaceOnUse" color-interpolation-filters="sRGB">
<feFlood flood-opacity="0" result="BackgroundImageFix"/>
<feColorMatrix in="SourceAlpha" type="matrix" values="0 0 0 0 0 0 0 0 0 0 0 0 0 0 0 0 0 0 127 0"/>
<feOffset dy="4"/>
<feGaussianBlur stdDeviation="2"/>
<feColorMatrix type="matrix" values="0 0 0 0 0 0 0 0 0 0 0 0 0 0 0 0 0 0 0.25 0"/>
<feBlend mode="normal" in2="BackgroundImageFix" result="effect1_dropShadow"/>
<feBlend mode="normal" in="SourceGraphic" in2="effect1_dropShadow" result="shape"/>
</filter>
<filter id="filter1_d" x="254" y="174" width="58" height="58" filterUnits="userSpaceOnUse" color-interpolation-filters="sRGB">
<feFlood flood-opacity="0" result="BackgroundImageFix"/>
<feColorMatrix in="SourceAlpha" type="matrix" values="0 0 0 0 0 0 0 0 0 0 0 0 0 0 0 0 0 0 127 0"/>
<feOffset dy="4"/>
<feGaussianBlur stdDeviation="2"/>
<feColorMatrix type="matrix" values="0 0 0 0 0 0 0 0 0 0 0 0 0 0 0 0 0 0 0.25 0"/>
<feBlend mode="normal" in2="BackgroundImageFix" result="effect1_dropShadow"/>
<feBlend mode="normal" in="SourceGraphic" in2="effect1_dropShadow" result="shape"/>
</filter>
<filter id="filter2_d" x="104" y="174" width="58" height="58" filterUnits="userSpaceOnUse" color-interpolation-filters="sRGB">
<feFlood flood-opacity="0" result="BackgroundImageFix"/>
<feColorMatrix in="SourceAlpha" type="matrix" values="0 0 0 0 0 0 0 0 0 0 0 0 0 0 0 0 0 0 127 0"/>
<feOffset dy="4"/>
<feGaussianBlur stdDeviation="2"/>
<feColorMatrix type="matrix" values="0 0 0 0 0 0 0 0 0 0 0 0 0 0 0 0 0 0 0.25 0"/>
<feBlend mode="normal" in2="BackgroundImageFix" result="effect1_dropShadow"/>
<feBlend mode="normal" in="SourceGraphic" in2="effect1_dropShadow" result="shape"/>
</filter>
<filter id="filter3_d" x="31" y="174" width="58" height="58" filterUnits="userSpaceOnUse" color-interpolation-filters="sRGB">
<feFlood flood-opacity="0" result="BackgroundImageFix"/>
<feColorMatrix in="SourceAlpha" type="matrix" values="0 0 0 0 0 0 0 0 0 0 0 0 0 0 0 0 0 0 127 0"/>
<feOffset dy="4"/>
<feGaussianBlur stdDeviation="2"/>
<feColorMatrix type="matrix" values="0 0 0 0 0 0 0 0 0 0 0 0 0 0 0 0 0 0 0.25 0"/>
<feBlend mode="normal" in2="BackgroundImageFix" result="effect1_dropShadow"/>
<feBlend mode="normal" in="SourceGraphic" in2="effect1_dropShadow" result="shape"/>
</filter>
</defs>
</svg>
