<svg width="865" height="356" viewBox="0 0 865 356" fill="none" xmlns="http://www.w3.org/2000/svg">
<rect width="865" height="356" fill="white"/>
<path d="M229 247.085C230.228 245.513 235.819 237.878 235.872 239.144C235.942 240.82 234.645 247.927 237.857 247.009C239.718 246.477 246.552 234.743 246.868 243.267C246.961 245.793 247.383 255.154 250.38 250.445C252.262 247.487 255.114 237.547 255.114 241.053C255.114 243.606 259.143 256.8 262.292 253.652C265.128 250.816 267.139 247.457 269.164 244.031C269.468 243.517 272.7 237.532 272.905 238.457C273.347 240.446 274.842 255.963 276.036 256.095C281.166 256.665 280.954 239.684 284.282 238.686C284.886 238.505 285.779 250.949 287.566 248.765C290.742 244.883 291.71 239.557 294.133 235.25C294.702 234.237 298.082 246.731 298.485 248.612C301.235 261.445 303.043 246.504 304.517 240.977C307.798 228.672 305.986 238.335 308.03 243.649C308.614 245.17 308.237 247.827 309.404 248.994C310.113 249.703 312.751 238.097 313.909 242.962C314.369 244.894 315.393 259.302 316.276 259.302C319.188 259.302 322.115 247.785 322.461 245.711" stroke="#93227E" stroke-width="16" stroke-linecap="round" stroke-linejoin="round"/>
<path d="M45.968 252.143C46.9235 250.393 51.1969 241.948 51.4552 243.189C51.797 244.831 51.6746 252.054 54.6947 250.626C56.444 249.798 61.2756 237.108 62.9753 245.467C63.479 247.944 65.4197 257.111 67.6097 251.977C68.9851 248.752 70.1803 238.48 70.7512 241.939C71.167 244.458 77.2908 256.82 79.8846 253.201C82.221 249.941 83.6587 246.3 85.0983 242.589C85.3143 242.033 87.5288 235.601 87.8822 236.48C88.6424 238.371 92.6439 253.437 93.8433 253.374C98.9976 253.101 96.0229 236.381 99.1448 234.854C99.7106 234.577 102.618 246.709 104.026 244.264C106.527 239.917 106.615 234.504 108.304 229.86C108.701 228.767 114.07 240.545 114.774 242.335C119.577 254.549 118.928 239.512 119.482 233.819C120.716 221.144 120.501 230.973 123.383 235.884C124.208 237.289 124.268 239.972 125.61 240.933C126.425 241.518 127.137 229.637 129.072 234.248C129.841 236.079 133.197 250.129 134.069 249.985C136.941 249.511 137.954 237.671 137.958 235.568" stroke="#93227E" stroke-width="16" stroke-linecap="round" stroke-linejoin="round"/>
<path d="M166.968 252.143C167.924 250.393 172.197 241.948 172.455 243.189C172.797 244.831 172.675 252.054 175.695 250.626C177.444 249.798 182.276 237.108 183.975 245.467C184.479 247.944 186.42 257.111 188.61 251.977C189.985 248.752 191.18 238.48 191.751 241.939C192.167 244.458 198.291 256.82 200.885 253.201C203.221 249.941 204.659 246.3 206.098 242.589C206.314 242.033 208.529 235.601 208.882 236.48C209.642 238.371 213.644 253.437 214.843 253.374C219.998 253.101 217.023 236.381 220.145 234.854C220.711 234.577 223.618 246.709 225.026 244.264C227.527 239.917 227.615 234.504 229.304 229.86C229.701 228.767 235.07 240.545 235.774 242.335C240.577 254.549 239.928 239.512 240.482 233.819C241.716 221.144 241.501 230.973 244.383 235.884C245.208 237.289 245.268 239.972 246.61 240.933C247.425 241.518 248.137 229.637 250.072 234.248C250.841 236.079 254.197 250.129 255.069 249.985C257.941 249.511 258.954 237.671 258.958 235.568" stroke="#93227E" stroke-width="16" stroke-linecap="round" stroke-linejoin="round"/>
<path d="M328.607 147.634C330.001 149.061 336.82 155.624 335.558 155.506C333.888 155.352 327.019 153.116 327.499 156.422C327.776 158.337 338.491 166.679 330.001 165.852C327.485 165.606 318.152 164.773 322.418 168.373C325.098 170.633 334.567 174.789 331.093 174.32C328.562 173.979 314.948 176.207 317.647 179.748C320.078 182.938 323.138 185.381 326.263 187.845C326.731 188.215 332.23 192.219 331.286 192.299C329.255 192.471 313.679 191.877 313.387 193.042C312.136 198.05 328.993 200.111 329.537 203.543C329.636 204.165 317.185 203.386 319.11 205.449C322.532 209.115 327.68 210.787 331.625 213.764C332.553 214.465 319.719 216.142 317.801 216.29C304.715 217.299 319.281 221.09 324.561 223.29C336.316 228.187 326.982 225.098 321.443 226.413C319.857 226.789 317.274 226.06 315.962 227.06C315.164 227.668 326.313 231.834 321.337 232.332C319.361 232.529 304.945 231.617 304.827 232.492C304.438 235.377 315.46 239.819 317.469 240.439" stroke="#93227E" stroke-width="16" stroke-linecap="round" stroke-linejoin="round"/>
<rect x="35.5" y="136.5" width="295" height="116" rx="7.5" fill="#93227E" stroke="black" stroke-width="5"/>
<path d="M44 240C45.2523 236.433 45.6545 232.765 45.6545 228.966C45.6545 226.277 45.1492 222.85 46.0835 220.383C47.3708 216.985 44 209.63 46.2061 206.42C46.2061 202.799 44 195.556 46.2061 195.556C46.2061 191.302 44 189.688 44 185.344C44 182.619 46.958 175.422 45.9303 172.909C44.3914 169.145 45.6545 162.973 45.6545 158.775C45.6545 155.029 44.382 150.956 45.1337 147.196C45.386 145.934 68.8484 147.196 71.2431 147.196C97.8029 147.196 111.864 144.505 137.785 147.196C142.988 147.196 154.272 147.196 154.272 147.196C167.58 147.196 170.91 147.196 179.101 147.196C193.815 147.196 209.707 147.196 224.389 147.196C245.725 147.196 271.267 147.196 271.267 147.196C274.044 147.196 291.13 147.196 291.13 147.196L304.56 147.741C306.543 146.739 308.911 147.853 310.933 148.013C313.26 148.198 314.832 147.434 317 147.434" stroke="#721861" stroke-width="17" stroke-linecap="round" stroke-linejoin="round"/>
<g filter="url(#filter0_d)">
<rect x="183" y="174" width="75" height="50" fill="#ED8B00"/>
<rect x="184" y="175" width="73" height="48" stroke="black" stroke-width="2"/>
</g>
<path d="M192 181C189.408 192.839 190.962 205.93 190.962 218" stroke="#FFB200" stroke-width="7" stroke-linecap="round" stroke-linejoin="round"/>
<path d="M192 180C211.016 180 230.284 179 249 179" stroke="#FFB200" stroke-width="7" stroke-linecap="round" stroke-linejoin="round"/>
<g filter="url(#filter1_d)">
<rect x="258" y="174" width="75" height="50" fill="#DB5B93"/>
<rect x="259" y="175" width="73" height="48" stroke="black" stroke-width="2"/>
</g>
<path d="M267 181C264.408 192.839 265.962 205.93 265.962 218" stroke="#F187B6" stroke-width="7" stroke-linecap="round" stroke-linejoin="round"/>
<path d="M267 180C286.016 180 305.284 179 324 179" stroke="#F187B6" stroke-width="7" stroke-linecap="round" stroke-linejoin="round"/>
<g filter="url(#filter2_d)">
<rect x="108" y="174" width="75" height="50" fill="#008744"/>
<rect x="109" y="175" width="73" height="48" stroke="black" stroke-width="2"/>
</g>
<path d="M117 181C114.408 192.839 115.962 205.93 115.962 218" stroke="#229F61" stroke-width="7" stroke-linecap="round" stroke-linejoin="round"/>
<path d="M117 180C136.016 180 155.284 179 174 179" stroke="#229F61" stroke-width="7" stroke-linecap="round" stroke-linejoin="round"/>
<g filter="url(#filter3_d)">
<rect x="35" y="174" width="75" height="50" fill="#0761B4"/>
<rect x="36" y="175" width="73" height="48" stroke="black" stroke-width="2"/>
</g>
<path d="M44 181C41.408 192.839 42.9621 205.93 42.9621 218" stroke="#0084FF" stroke-width="7" stroke-linecap="round" stroke-linejoin="round"/>
<path d="M44 180C63.016 180 82.2838 179 101 179" stroke="#0084FF" stroke-width="7" stroke-linecap="round" stroke-linejoin="round"/>
<path d="M83.4977 253C86.0627 256.386 96.3268 265.37 88.3082 265.37C84.6561 265.37 79.5455 270.525 78 273.616" stroke="white" stroke-width="2" stroke-linecap="round" stroke-linejoin="round"/>
<line x1="36.5" y1="78" x2="36.5" y2="319" stroke="black" stroke-width="3" stroke-dasharray="10 4"/>
<line x1="334.5" y1="73" x2="334.5" y2="314" stroke="black" stroke-width="3" stroke-dasharray="10 4"/>
<path d="M333.707 100.707C334.098 100.317 334.098 99.6834 333.707 99.2929L327.343 92.9289C326.953 92.5384 326.319 92.5384 325.929 92.9289C325.538 93.3195 325.538 93.9526 325.929 94.3432L331.586 100L325.929 105.657C325.538 106.047 325.538 106.681 325.929 107.071C326.319 107.462 326.953 107.462 327.343 107.071L333.707 100.707ZM249 101L254 101L254 99L249 99L249 101ZM258 101L268 101L268 99L258 99L258 101ZM272 101L282 101L282 99L272 99L272 101ZM286 101L296 101L296 99L286 99L286 101ZM300 101L310 101L310 99L300 99L300 101ZM314 101L324 101L324 99L314 99L314 101ZM328 101L333 101L333 99L328 99L328 101ZM334.414 101.414C335.195 100.633 335.195 99.3668 334.414 98.5858L321.686 85.8579C320.905 85.0768 319.639 85.0768 318.858 85.8579C318.077 86.6389 318.077 87.9052 318.858 88.6863L330.172 100L318.858 111.314C318.077 112.095 318.077 113.361 318.858 114.142C319.639 114.923 320.905 114.923 321.686 114.142L334.414 101.414ZM249 102L254 102L254 98L249 98L249 102ZM258 102L268 102L268 98L258 98L258 102ZM272 102L282 102L282 98L272 98L272 102ZM286 102L296 102L296 98L286 98L286 102ZM300 102L310 102L310 98L300 98L300 102ZM314 102L324 102L324 98L314 98L314 102ZM328 102L333 102L333 98L328 98L328 102Z" fill="black"/>
<path d="M40.2918 99.4099C39.9019 99.801 39.903 100.434 40.2942 100.824L46.6688 107.177C47.06 107.567 47.6932 107.566 48.083 107.175C48.4729 106.784 48.4718 106.151 48.0807 105.761L42.4143 100.113L48.0617 94.4471C48.4515 94.0559 48.4505 93.4227 48.0593 93.0329C47.6681 92.643 47.035 92.6441 46.6451 93.0352L40.2918 99.4099ZM109.998 99L105.07 99.0083L105.073 101.008L110.002 101L109.998 99ZM101.127 99.0149L91.2698 99.0314L91.2731 101.031L101.13 101.015L101.127 99.0149ZM87.3269 99.038L77.4698 99.0546L77.4732 101.055L87.3303 101.038L87.3269 99.038ZM73.527 99.0612L63.6698 99.0777L63.6732 101.078L73.5303 101.061L73.527 99.0612ZM59.727 99.0844L49.8698 99.1009L49.8732 101.101L59.7303 101.084L59.727 99.0844ZM45.927 99.1075L40.9984 99.1158L41.0018 101.116L45.9304 101.108L45.927 99.1075ZM39.5835 98.7039C38.8038 99.4863 38.8059 100.753 39.5883 101.532L52.3375 114.239C53.1199 115.019 54.3862 115.017 55.1659 114.234C55.9457 113.452 55.9436 112.185 55.1612 111.406L43.8285 100.111L55.1232 88.7784C55.903 87.996 55.9008 86.7297 55.1185 85.9499C54.3361 85.1702 53.0698 85.1723 52.2901 85.9547L39.5835 98.7039ZM109.997 98L105.068 98.0083L105.075 102.008L110.003 102L109.997 98ZM101.125 98.0149L91.2681 98.0314L91.2748 102.031L101.132 102.015L101.125 98.0149ZM87.3253 98.038L77.4681 98.0546L77.4748 102.055L87.332 102.038L87.3253 98.038ZM73.5253 98.0612L63.6681 98.0777L63.6749 102.078L73.532 102.061L73.5253 98.0612ZM59.7253 98.0844L49.8682 98.1009L49.8749 102.101L59.732 102.084L59.7253 98.0844ZM45.9253 98.1075L40.9967 98.1158L41.0035 102.116L45.932 102.108L45.9253 98.1075Z" fill="black"/>
<path d="M150.4 94.86C150.4 94.2733 150.747 93.6933 151.44 93.12C152.133 92.5333 153.207 92.24 154.66 92.24C156.113 92.24 157.187 92.58 157.88 93.26C158.573 93.94 158.92 94.6933 158.92 95.52C158.92 96.3467 158.7 97.0467 158.26 97.62C157.833 98.18 157.287 98.5533 156.62 98.74C157.447 98.9133 158.153 99.2733 158.74 99.82C159.327 100.367 159.62 101.093 159.62 102C159.62 103.227 159.093 104.227 158.04 105C157 105.773 155.767 106.16 154.34 106.16C152.927 106.16 151.813 105.973 151 105.6C150.2 105.227 149.8 104.767 149.8 104.22C149.8 103.673 150.1 103.313 150.7 103.14C151.087 104.153 152.24 104.66 154.16 104.66C155.16 104.66 156.04 104.433 156.8 103.98C157.56 103.527 157.94 102.907 157.94 102.12C157.94 101.32 157.587 100.727 156.88 100.34C156.173 99.94 155.327 99.74 154.34 99.74H153.5C152.9 99.74 152.6 99.5 152.6 99.02C152.6 98.5 152.9 98.24 153.5 98.24H154.34C155.167 98.24 155.853 98.0333 156.4 97.62C156.96 97.1933 157.24 96.66 157.24 96.02C157.24 95.3667 157.007 94.8267 156.54 94.4C156.087 93.96 155.427 93.74 154.56 93.74C153.707 93.74 153.02 93.92 152.5 94.28C151.993 94.64 151.647 95.1267 151.46 95.74C150.753 95.74 150.4 95.4467 150.4 94.86ZM163.324 94.04C164.404 92.84 165.771 92.24 167.424 92.24C169.077 92.24 170.437 92.84 171.504 94.04C172.571 95.2267 173.104 96.9333 173.104 99.16C173.104 101.373 172.564 103.093 171.484 104.32C170.417 105.547 169.064 106.16 167.424 106.16C165.784 106.16 164.417 105.547 163.324 104.32C162.244 103.093 161.704 101.373 161.704 99.16C161.704 96.9467 162.244 95.24 163.324 94.04ZM171.224 99.22C171.224 97.5133 170.857 96.1867 170.124 95.24C169.404 94.28 168.497 93.8 167.404 93.8C166.311 93.8 165.404 94.28 164.684 95.24C163.977 96.1867 163.624 97.5133 163.624 99.22C163.624 100.913 163.957 102.24 164.624 103.2C165.291 104.147 166.217 104.62 167.404 104.62C168.604 104.62 169.537 104.147 170.204 103.2C170.884 102.24 171.224 100.913 171.224 99.22ZM177.133 94.04C178.213 92.84 179.579 92.24 181.233 92.24C182.886 92.24 184.246 92.84 185.313 94.04C186.379 95.2267 186.913 96.9333 186.913 99.16C186.913 101.373 186.373 103.093 185.293 104.32C184.226 105.547 182.873 106.16 181.233 106.16C179.593 106.16 178.226 105.547 177.133 104.32C176.053 103.093 175.513 101.373 175.513 99.16C175.513 96.9467 176.053 95.24 177.133 94.04ZM185.033 99.22C185.033 97.5133 184.666 96.1867 183.933 95.24C183.213 94.28 182.306 93.8 181.213 93.8C180.119 93.8 179.213 94.28 178.493 95.24C177.786 96.1867 177.433 97.5133 177.433 99.22C177.433 100.913 177.766 102.24 178.433 103.2C179.099 104.147 180.026 104.62 181.213 104.62C182.413 104.62 183.346 104.147 184.013 103.2C184.693 102.24 185.033 100.913 185.033 99.22ZM190.321 96.14H190.461C190.968 96.14 191.221 96.3733 191.221 96.84V97.62C191.501 97.1533 191.921 96.76 192.481 96.44C193.041 96.12 193.648 95.96 194.301 95.96C195.541 95.96 196.541 96.38 197.301 97.22C198.074 98.0467 198.461 99.3133 198.461 101.02C198.461 102.713 198.008 103.993 197.101 104.86C196.208 105.727 195.108 106.16 193.801 106.16C192.908 106.16 192.048 105.933 191.221 105.48V109.78C191.221 110.273 190.968 110.52 190.461 110.52H190.321C189.814 110.52 189.561 110.273 189.561 109.78V96.88C189.561 96.3867 189.814 96.14 190.321 96.14ZM196.801 101C196.801 99.7333 196.534 98.8133 196.001 98.24C195.468 97.6533 194.748 97.36 193.841 97.36C192.934 97.36 192.268 97.76 191.841 98.56C191.428 99.36 191.221 100.4 191.221 101.68V104.18C191.354 104.273 191.681 104.4 192.201 104.56C192.734 104.707 193.268 104.78 193.801 104.78C194.694 104.78 195.414 104.467 195.961 103.84C196.521 103.213 196.801 102.267 196.801 101ZM201.187 96.14H201.807C202.141 96.14 202.414 96.3 202.627 96.62L204.887 100.08C205.461 99.3733 206.227 98.22 207.187 96.62C207.387 96.3 207.647 96.14 207.967 96.14H208.327C208.714 96.14 208.907 96.2933 208.907 96.6C208.907 96.7067 208.881 96.8067 208.827 96.9C208.067 98.1933 207.054 99.58 205.787 101.06L208.927 105.24C209.034 105.387 209.087 105.52 209.087 105.64C209.087 105.88 208.947 106 208.667 106H207.887C207.554 106 207.254 105.813 206.987 105.44L204.727 102.18C204.514 102.393 204.267 102.707 203.987 103.12C203.707 103.533 203.501 103.833 203.367 104.02C202.967 104.62 202.647 105.12 202.407 105.52C202.194 105.84 201.921 106 201.587 106H201.227C201.067 106 200.934 105.947 200.827 105.84C200.721 105.733 200.667 105.62 200.667 105.5C200.667 105.367 200.707 105.24 200.787 105.12C201.694 103.787 202.727 102.473 203.887 101.18L200.767 96.9C200.687 96.8067 200.647 96.7 200.647 96.58C200.647 96.46 200.694 96.36 200.787 96.28C200.894 96.1867 201.027 96.14 201.187 96.14Z" fill="black"/>
<path d="M53.954 197.592C53.954 196.776 54.302 196.134 54.998 195.666C55.706 195.186 56.492 194.946 57.356 194.946C58.22 194.946 58.886 195.072 59.354 195.324C59.834 195.564 60.074 195.852 60.074 196.188C60.074 196.524 59.84 196.77 59.372 196.926C59.288 196.734 59.054 196.554 58.67 196.386C58.298 196.218 57.836 196.134 57.284 196.134C56.732 196.134 56.276 196.242 55.916 196.458C55.568 196.662 55.394 196.956 55.394 197.34C55.394 197.712 55.526 198 55.79 198.204C56.054 198.408 56.672 198.624 57.644 198.852C58.628 199.068 59.378 199.386 59.894 199.806C60.41 200.226 60.668 200.814 60.668 201.57C60.668 202.326 60.32 202.944 59.624 203.424C58.928 203.892 58.07 204.126 57.05 204.126C56.042 204.126 55.232 204 54.62 203.748C54.02 203.484 53.72 203.142 53.72 202.722C53.72 202.302 53.918 201.996 54.314 201.804C54.482 202.128 54.806 202.404 55.286 202.632C55.766 202.86 56.366 202.974 57.086 202.974C57.806 202.974 58.352 202.842 58.724 202.578C59.108 202.314 59.3 201.99 59.3 201.606C59.3 201.21 59.126 200.904 58.778 200.688C58.442 200.46 57.776 200.238 56.78 200.022C55.796 199.806 55.076 199.5 54.62 199.104C54.176 198.696 53.954 198.192 53.954 197.592ZM63.33 191.382H63.456C63.912 191.382 64.14 191.61 64.14 192.066V196.926C64.344 196.398 64.692 195.948 65.184 195.576C65.676 195.204 66.252 195.018 66.912 195.018C67.92 195.018 68.724 195.306 69.324 195.882C69.924 196.446 70.224 197.364 70.224 198.636V203.316C70.224 203.556 70.17 203.73 70.062 203.838C69.954 203.946 69.78 204 69.54 204H69.396C68.952 204 68.73 203.772 68.73 203.316V198.726C68.73 197.058 68.01 196.224 66.57 196.224C65.814 196.224 65.22 196.536 64.788 197.16C64.368 197.784 64.158 198.57 64.158 199.518V203.316C64.158 203.772 63.924 204 63.456 204H63.33C63.09 204 62.916 203.946 62.808 203.838C62.7 203.73 62.646 203.556 62.646 203.316V192.066C62.646 191.61 62.874 191.382 63.33 191.382ZM73.5262 196.17C74.3782 195.366 75.4222 194.964 76.6582 194.964C77.8942 194.964 78.9382 195.366 79.7902 196.17C80.6422 196.974 81.0682 198.108 81.0682 199.572C81.0682 201.036 80.6422 202.164 79.7902 202.956C78.9382 203.748 77.8942 204.144 76.6582 204.144C75.4222 204.144 74.3782 203.748 73.5262 202.956C72.6742 202.164 72.2482 201.036 72.2482 199.572C72.2482 198.108 72.6742 196.974 73.5262 196.17ZM78.7282 197.088C78.2002 196.5 77.5102 196.206 76.6582 196.206C75.8062 196.206 75.1102 196.5 74.5702 197.088C74.0422 197.664 73.7782 198.492 73.7782 199.572C73.7782 200.64 74.0422 201.468 74.5702 202.056C75.1102 202.632 75.8062 202.92 76.6582 202.92C77.5102 202.92 78.2002 202.632 78.7282 202.056C79.2682 201.468 79.5382 200.64 79.5382 199.572C79.5382 198.492 79.2682 197.664 78.7282 197.088ZM83.8261 195.126H83.9341C84.3901 195.126 84.6181 195.348 84.6181 195.792V196.764C84.8221 196.308 85.1461 195.9 85.5901 195.54C86.0461 195.18 86.5321 195 87.0481 195C87.5641 195 87.9541 195.102 88.2181 195.306C88.4941 195.51 88.6321 195.762 88.6321 196.062C88.6321 196.35 88.5061 196.578 88.2541 196.746C87.8821 196.434 87.4861 196.278 87.0661 196.278C86.3221 196.278 85.7341 196.584 85.3021 197.196C84.8701 197.796 84.6541 198.552 84.6541 199.464V203.316C84.6541 203.556 84.6001 203.73 84.4921 203.838C84.3841 203.946 84.2101 204 83.9701 204H83.8261C83.5861 204 83.4121 203.946 83.3041 203.838C83.1961 203.73 83.1421 203.556 83.1421 203.316V195.792C83.1421 195.348 83.3701 195.126 83.8261 195.126ZM91.9126 192.732H92.0386C92.4946 192.732 92.7226 192.954 92.7226 193.398V195.18H95.2066C95.6746 195.18 95.9086 195.384 95.9086 195.792C95.9086 196.2 95.6746 196.404 95.2066 196.404H92.7226V200.94C92.7226 201.696 92.8666 202.23 93.1546 202.542C93.4546 202.842 93.8866 202.992 94.4506 202.992C95.0266 202.992 95.4526 202.854 95.7286 202.578C96.0286 202.674 96.1786 202.866 96.1786 203.154C96.1786 203.442 95.9806 203.682 95.5846 203.874C95.1886 204.054 94.7146 204.144 94.1626 204.144C92.2066 204.144 91.2286 203.076 91.2286 200.94V196.404H90.3466C90.0826 196.404 89.8906 196.362 89.7706 196.278C89.6506 196.194 89.5906 196.032 89.5906 195.792C89.5906 195.384 89.8426 195.18 90.3466 195.18H91.2286V193.398C91.2286 192.954 91.4566 192.732 91.9126 192.732Z" fill="black"/>
<path d="M125.954 198.592C125.954 197.776 126.302 197.134 126.998 196.666C127.706 196.186 128.492 195.946 129.356 195.946C130.22 195.946 130.886 196.072 131.354 196.324C131.834 196.564 132.074 196.852 132.074 197.188C132.074 197.524 131.84 197.77 131.372 197.926C131.288 197.734 131.054 197.554 130.67 197.386C130.298 197.218 129.836 197.134 129.284 197.134C128.732 197.134 128.276 197.242 127.916 197.458C127.568 197.662 127.394 197.956 127.394 198.34C127.394 198.712 127.526 199 127.79 199.204C128.054 199.408 128.672 199.624 129.644 199.852C130.628 200.068 131.378 200.386 131.894 200.806C132.41 201.226 132.668 201.814 132.668 202.57C132.668 203.326 132.32 203.944 131.624 204.424C130.928 204.892 130.07 205.126 129.05 205.126C128.042 205.126 127.232 205 126.62 204.748C126.02 204.484 125.72 204.142 125.72 203.722C125.72 203.302 125.918 202.996 126.314 202.804C126.482 203.128 126.806 203.404 127.286 203.632C127.766 203.86 128.366 203.974 129.086 203.974C129.806 203.974 130.352 203.842 130.724 203.578C131.108 203.314 131.3 202.99 131.3 202.606C131.3 202.21 131.126 201.904 130.778 201.688C130.442 201.46 129.776 201.238 128.78 201.022C127.796 200.806 127.076 200.5 126.62 200.104C126.176 199.696 125.954 199.192 125.954 198.592ZM135.33 192.382H135.456C135.912 192.382 136.14 192.61 136.14 193.066V197.926C136.344 197.398 136.692 196.948 137.184 196.576C137.676 196.204 138.252 196.018 138.912 196.018C139.92 196.018 140.724 196.306 141.324 196.882C141.924 197.446 142.224 198.364 142.224 199.636V204.316C142.224 204.556 142.17 204.73 142.062 204.838C141.954 204.946 141.78 205 141.54 205H141.396C140.952 205 140.73 204.772 140.73 204.316V199.726C140.73 198.058 140.01 197.224 138.57 197.224C137.814 197.224 137.22 197.536 136.788 198.16C136.368 198.784 136.158 199.57 136.158 200.518V204.316C136.158 204.772 135.924 205 135.456 205H135.33C135.09 205 134.916 204.946 134.808 204.838C134.7 204.73 134.646 204.556 134.646 204.316V193.066C134.646 192.61 134.874 192.382 135.33 192.382ZM145.526 197.17C146.378 196.366 147.422 195.964 148.658 195.964C149.894 195.964 150.938 196.366 151.79 197.17C152.642 197.974 153.068 199.108 153.068 200.572C153.068 202.036 152.642 203.164 151.79 203.956C150.938 204.748 149.894 205.144 148.658 205.144C147.422 205.144 146.378 204.748 145.526 203.956C144.674 203.164 144.248 202.036 144.248 200.572C144.248 199.108 144.674 197.974 145.526 197.17ZM150.728 198.088C150.2 197.5 149.51 197.206 148.658 197.206C147.806 197.206 147.11 197.5 146.57 198.088C146.042 198.664 145.778 199.492 145.778 200.572C145.778 201.64 146.042 202.468 146.57 203.056C147.11 203.632 147.806 203.92 148.658 203.92C149.51 203.92 150.2 203.632 150.728 203.056C151.268 202.468 151.538 201.64 151.538 200.572C151.538 199.492 151.268 198.664 150.728 198.088ZM155.826 196.126H155.934C156.39 196.126 156.618 196.348 156.618 196.792V197.764C156.822 197.308 157.146 196.9 157.59 196.54C158.046 196.18 158.532 196 159.048 196C159.564 196 159.954 196.102 160.218 196.306C160.494 196.51 160.632 196.762 160.632 197.062C160.632 197.35 160.506 197.578 160.254 197.746C159.882 197.434 159.486 197.278 159.066 197.278C158.322 197.278 157.734 197.584 157.302 198.196C156.87 198.796 156.654 199.552 156.654 200.464V204.316C156.654 204.556 156.6 204.73 156.492 204.838C156.384 204.946 156.21 205 155.97 205H155.826C155.586 205 155.412 204.946 155.304 204.838C155.196 204.73 155.142 204.556 155.142 204.316V196.792C155.142 196.348 155.37 196.126 155.826 196.126ZM163.913 193.732H164.039C164.495 193.732 164.723 193.954 164.723 194.398V196.18H167.207C167.675 196.18 167.909 196.384 167.909 196.792C167.909 197.2 167.675 197.404 167.207 197.404H164.723V201.94C164.723 202.696 164.867 203.23 165.155 203.542C165.455 203.842 165.887 203.992 166.451 203.992C167.027 203.992 167.453 203.854 167.729 203.578C168.029 203.674 168.179 203.866 168.179 204.154C168.179 204.442 167.981 204.682 167.585 204.874C167.189 205.054 166.715 205.144 166.163 205.144C164.207 205.144 163.229 204.076 163.229 201.94V197.404H162.347C162.083 197.404 161.891 197.362 161.771 197.278C161.651 197.194 161.591 197.032 161.591 196.792C161.591 196.384 161.843 196.18 162.347 196.18H163.229V194.398C163.229 193.954 163.457 193.732 163.913 193.732Z" fill="black"/>
<path d="M201.954 198.592C201.954 197.776 202.302 197.134 202.998 196.666C203.706 196.186 204.492 195.946 205.356 195.946C206.22 195.946 206.886 196.072 207.354 196.324C207.834 196.564 208.074 196.852 208.074 197.188C208.074 197.524 207.84 197.77 207.372 197.926C207.288 197.734 207.054 197.554 206.67 197.386C206.298 197.218 205.836 197.134 205.284 197.134C204.732 197.134 204.276 197.242 203.916 197.458C203.568 197.662 203.394 197.956 203.394 198.34C203.394 198.712 203.526 199 203.79 199.204C204.054 199.408 204.672 199.624 205.644 199.852C206.628 200.068 207.378 200.386 207.894 200.806C208.41 201.226 208.668 201.814 208.668 202.57C208.668 203.326 208.32 203.944 207.624 204.424C206.928 204.892 206.07 205.126 205.05 205.126C204.042 205.126 203.232 205 202.62 204.748C202.02 204.484 201.72 204.142 201.72 203.722C201.72 203.302 201.918 202.996 202.314 202.804C202.482 203.128 202.806 203.404 203.286 203.632C203.766 203.86 204.366 203.974 205.086 203.974C205.806 203.974 206.352 203.842 206.724 203.578C207.108 203.314 207.3 202.99 207.3 202.606C207.3 202.21 207.126 201.904 206.778 201.688C206.442 201.46 205.776 201.238 204.78 201.022C203.796 200.806 203.076 200.5 202.62 200.104C202.176 199.696 201.954 199.192 201.954 198.592ZM211.33 192.382H211.456C211.912 192.382 212.14 192.61 212.14 193.066V197.926C212.344 197.398 212.692 196.948 213.184 196.576C213.676 196.204 214.252 196.018 214.912 196.018C215.92 196.018 216.724 196.306 217.324 196.882C217.924 197.446 218.224 198.364 218.224 199.636V204.316C218.224 204.556 218.17 204.73 218.062 204.838C217.954 204.946 217.78 205 217.54 205H217.396C216.952 205 216.73 204.772 216.73 204.316V199.726C216.73 198.058 216.01 197.224 214.57 197.224C213.814 197.224 213.22 197.536 212.788 198.16C212.368 198.784 212.158 199.57 212.158 200.518V204.316C212.158 204.772 211.924 205 211.456 205H211.33C211.09 205 210.916 204.946 210.808 204.838C210.7 204.73 210.646 204.556 210.646 204.316V193.066C210.646 192.61 210.874 192.382 211.33 192.382ZM221.526 197.17C222.378 196.366 223.422 195.964 224.658 195.964C225.894 195.964 226.938 196.366 227.79 197.17C228.642 197.974 229.068 199.108 229.068 200.572C229.068 202.036 228.642 203.164 227.79 203.956C226.938 204.748 225.894 205.144 224.658 205.144C223.422 205.144 222.378 204.748 221.526 203.956C220.674 203.164 220.248 202.036 220.248 200.572C220.248 199.108 220.674 197.974 221.526 197.17ZM226.728 198.088C226.2 197.5 225.51 197.206 224.658 197.206C223.806 197.206 223.11 197.5 222.57 198.088C222.042 198.664 221.778 199.492 221.778 200.572C221.778 201.64 222.042 202.468 222.57 203.056C223.11 203.632 223.806 203.92 224.658 203.92C225.51 203.92 226.2 203.632 226.728 203.056C227.268 202.468 227.538 201.64 227.538 200.572C227.538 199.492 227.268 198.664 226.728 198.088ZM231.826 196.126H231.934C232.39 196.126 232.618 196.348 232.618 196.792V197.764C232.822 197.308 233.146 196.9 233.59 196.54C234.046 196.18 234.532 196 235.048 196C235.564 196 235.954 196.102 236.218 196.306C236.494 196.51 236.632 196.762 236.632 197.062C236.632 197.35 236.506 197.578 236.254 197.746C235.882 197.434 235.486 197.278 235.066 197.278C234.322 197.278 233.734 197.584 233.302 198.196C232.87 198.796 232.654 199.552 232.654 200.464V204.316C232.654 204.556 232.6 204.73 232.492 204.838C232.384 204.946 232.21 205 231.97 205H231.826C231.586 205 231.412 204.946 231.304 204.838C231.196 204.73 231.142 204.556 231.142 204.316V196.792C231.142 196.348 231.37 196.126 231.826 196.126ZM239.913 193.732H240.039C240.495 193.732 240.723 193.954 240.723 194.398V196.18H243.207C243.675 196.18 243.909 196.384 243.909 196.792C243.909 197.2 243.675 197.404 243.207 197.404H240.723V201.94C240.723 202.696 240.867 203.23 241.155 203.542C241.455 203.842 241.887 203.992 242.451 203.992C243.027 203.992 243.453 203.854 243.729 203.578C244.029 203.674 244.179 203.866 244.179 204.154C244.179 204.442 243.981 204.682 243.585 204.874C243.189 205.054 242.715 205.144 242.163 205.144C240.207 205.144 239.229 204.076 239.229 201.94V197.404H238.347C238.083 197.404 237.891 197.362 237.771 197.278C237.651 197.194 237.591 197.032 237.591 196.792C237.591 196.384 237.843 196.18 238.347 196.18H239.229V194.398C239.229 193.954 239.457 193.732 239.913 193.732Z" fill="black"/>
<path d="M273.106 184.382H273.232C273.688 184.382 273.916 184.604 273.916 185.048V196.316C273.916 196.772 273.688 197 273.232 197H273.106C272.854 197 272.674 196.946 272.566 196.838C272.47 196.73 272.422 196.556 272.422 196.316V185.048C272.422 184.808 272.47 184.64 272.566 184.544C272.674 184.436 272.854 184.382 273.106 184.382ZM277.376 189.17C278.228 188.366 279.272 187.964 280.508 187.964C281.744 187.964 282.788 188.366 283.64 189.17C284.492 189.974 284.918 191.108 284.918 192.572C284.918 194.036 284.492 195.164 283.64 195.956C282.788 196.748 281.744 197.144 280.508 197.144C279.272 197.144 278.228 196.748 277.376 195.956C276.524 195.164 276.098 194.036 276.098 192.572C276.098 191.108 276.524 189.974 277.376 189.17ZM282.578 190.088C282.05 189.5 281.36 189.206 280.508 189.206C279.656 189.206 278.96 189.5 278.42 190.088C277.892 190.664 277.628 191.492 277.628 192.572C277.628 193.64 277.892 194.468 278.42 195.056C278.96 195.632 279.656 195.92 280.508 195.92C281.36 195.92 282.05 195.632 282.578 195.056C283.118 194.468 283.388 193.64 283.388 192.572C283.388 191.492 283.118 190.664 282.578 190.088ZM287.712 189.17C288.564 188.366 289.608 187.964 290.844 187.964C292.08 187.964 293.124 188.366 293.976 189.17C294.828 189.974 295.254 191.108 295.254 192.572C295.254 194.036 294.828 195.164 293.976 195.956C293.124 196.748 292.08 197.144 290.844 197.144C289.608 197.144 288.564 196.748 287.712 195.956C286.86 195.164 286.434 194.036 286.434 192.572C286.434 191.108 286.86 189.974 287.712 189.17ZM292.914 190.088C292.386 189.5 291.696 189.206 290.844 189.206C289.992 189.206 289.296 189.5 288.756 190.088C288.228 190.664 287.964 191.492 287.964 192.572C287.964 193.64 288.228 194.468 288.756 195.056C289.296 195.632 289.992 195.92 290.844 195.92C291.696 195.92 292.386 195.632 292.914 195.056C293.454 194.468 293.724 193.64 293.724 192.572C293.724 191.492 293.454 190.664 292.914 190.088ZM303.778 189.17C304.63 188.366 305.674 187.964 306.91 187.964C308.146 187.964 309.19 188.366 310.042 189.17C310.894 189.974 311.32 191.108 311.32 192.572C311.32 194.036 310.894 195.164 310.042 195.956C309.19 196.748 308.146 197.144 306.91 197.144C305.674 197.144 304.63 196.748 303.778 195.956C302.926 195.164 302.5 194.036 302.5 192.572C302.5 191.108 302.926 189.974 303.778 189.17ZM308.98 190.088C308.452 189.5 307.762 189.206 306.91 189.206C306.058 189.206 305.362 189.5 304.822 190.088C304.294 190.664 304.03 191.492 304.03 192.572C304.03 193.64 304.294 194.468 304.822 195.056C305.362 195.632 306.058 195.92 306.91 195.92C307.762 195.92 308.452 195.632 308.98 195.056C309.52 194.468 309.79 193.64 309.79 192.572C309.79 191.492 309.52 190.664 308.98 190.088ZM314.114 189.17C314.966 188.366 316.01 187.964 317.246 187.964C318.482 187.964 319.526 188.366 320.378 189.17C321.23 189.974 321.656 191.108 321.656 192.572C321.656 194.036 321.23 195.164 320.378 195.956C319.526 196.748 318.482 197.144 317.246 197.144C316.01 197.144 314.966 196.748 314.114 195.956C313.262 195.164 312.836 194.036 312.836 192.572C312.836 191.108 313.262 189.974 314.114 189.17ZM319.316 190.088C318.788 189.5 318.098 189.206 317.246 189.206C316.394 189.206 315.698 189.5 315.158 190.088C314.63 190.664 314.366 191.492 314.366 192.572C314.366 193.64 314.63 194.468 315.158 195.056C315.698 195.632 316.394 195.92 317.246 195.92C318.098 195.92 318.788 195.632 319.316 195.056C319.856 194.468 320.126 193.64 320.126 192.572C320.126 191.492 319.856 190.664 319.316 190.088ZM273.034 210.17C273.886 209.366 274.93 208.964 276.166 208.964C277.402 208.964 278.446 209.366 279.298 210.17C280.15 210.974 280.576 212.108 280.576 213.572C280.576 215.036 280.15 216.164 279.298 216.956C278.446 217.748 277.402 218.144 276.166 218.144C274.93 218.144 273.886 217.748 273.034 216.956C272.182 216.164 271.756 215.036 271.756 213.572C271.756 212.108 272.182 210.974 273.034 210.17ZM278.236 211.088C277.708 210.5 277.018 210.206 276.166 210.206C275.314 210.206 274.618 210.5 274.078 211.088C273.55 211.664 273.286 212.492 273.286 213.572C273.286 214.64 273.55 215.468 274.078 216.056C274.618 216.632 275.314 216.92 276.166 216.92C277.018 216.92 277.708 216.632 278.236 216.056C278.776 215.468 279.046 214.64 279.046 213.572C279.046 212.492 278.776 211.664 278.236 211.088ZM289.1 210.17C289.952 209.366 290.996 208.964 292.232 208.964C293.468 208.964 294.512 209.366 295.364 210.17C296.216 210.974 296.642 212.108 296.642 213.572C296.642 215.036 296.216 216.164 295.364 216.956C294.512 217.748 293.468 218.144 292.232 218.144C290.996 218.144 289.952 217.748 289.1 216.956C288.248 216.164 287.822 215.036 287.822 213.572C287.822 212.108 288.248 210.974 289.1 210.17ZM294.302 211.088C293.774 210.5 293.084 210.206 292.232 210.206C291.38 210.206 290.684 210.5 290.144 211.088C289.616 211.664 289.352 212.492 289.352 213.572C289.352 214.64 289.616 215.468 290.144 216.056C290.684 216.632 291.38 216.92 292.232 216.92C293.084 216.92 293.774 216.632 294.302 216.056C294.842 215.468 295.112 214.64 295.112 213.572C295.112 212.492 294.842 211.664 294.302 211.088ZM299.436 210.17C300.288 209.366 301.332 208.964 302.568 208.964C303.804 208.964 304.848 209.366 305.7 210.17C306.552 210.974 306.978 212.108 306.978 213.572C306.978 215.036 306.552 216.164 305.7 216.956C304.848 217.748 303.804 218.144 302.568 218.144C301.332 218.144 300.288 217.748 299.436 216.956C298.584 216.164 298.158 215.036 298.158 213.572C298.158 212.108 298.584 210.974 299.436 210.17ZM304.638 211.088C304.11 210.5 303.42 210.206 302.568 210.206C301.716 210.206 301.02 210.5 300.48 211.088C299.952 211.664 299.688 212.492 299.688 213.572C299.688 214.64 299.952 215.468 300.48 216.056C301.02 216.632 301.716 216.92 302.568 216.92C303.42 216.92 304.11 216.632 304.638 216.056C305.178 215.468 305.448 214.64 305.448 213.572C305.448 212.492 305.178 211.664 304.638 211.088ZM309.772 210.17C310.624 209.366 311.668 208.964 312.904 208.964C314.14 208.964 315.184 209.366 316.036 210.17C316.888 210.974 317.314 212.108 317.314 213.572C317.314 215.036 316.888 216.164 316.036 216.956C315.184 217.748 314.14 218.144 312.904 218.144C311.668 218.144 310.624 217.748 309.772 216.956C308.92 216.164 308.494 215.036 308.494 213.572C308.494 212.108 308.92 210.974 309.772 210.17ZM314.974 211.088C314.446 210.5 313.756 210.206 312.904 210.206C312.052 210.206 311.356 210.5 310.816 211.088C310.288 211.664 310.024 212.492 310.024 213.572C310.024 214.64 310.288 215.468 310.816 216.056C311.356 216.632 312.052 216.92 312.904 216.92C313.756 216.92 314.446 216.632 314.974 216.056C315.514 215.468 315.784 214.64 315.784 213.572C315.784 212.492 315.514 211.664 314.974 211.088ZM322.592 215.426L321.782 215.39C321.494 215.39 321.248 215.468 321.044 215.624C320.84 215.768 320.738 215.93 320.738 216.11C320.738 216.566 321.122 216.794 321.89 216.794H323.222C325.778 216.794 327.056 217.58 327.056 219.152C327.056 219.98 326.654 220.652 325.85 221.168C325.058 221.684 324.038 221.966 322.79 222.014H322.358C321.338 222.014 320.468 221.81 319.748 221.402C319.028 220.994 318.668 220.514 318.668 219.962C318.668 219.698 318.728 219.488 318.848 219.332C318.98 219.176 319.148 219.086 319.352 219.062C319.58 219.53 319.982 219.92 320.558 220.232C321.134 220.544 321.812 220.7 322.592 220.7H322.718C323.618 220.7 324.32 220.562 324.824 220.286C325.34 220.01 325.598 219.662 325.598 219.242C325.598 218.834 325.37 218.534 324.914 218.342C324.47 218.162 323.696 218.072 322.592 218.072C321.5 218.072 320.678 217.964 320.126 217.748C319.574 217.532 319.298 217.112 319.298 216.488C319.298 215.864 319.736 215.372 320.612 215.012C319.568 214.424 319.046 213.488 319.046 212.204C319.046 211.184 319.394 210.392 320.09 209.828C320.786 209.264 321.644 208.982 322.664 208.982C323.18 208.982 323.654 209.09 324.086 209.306C324.53 209.522 324.866 209.756 325.094 210.008C325.55 209.708 325.778 209.162 325.778 208.37C326.102 208.37 326.39 208.472 326.642 208.676C326.894 208.868 327.02 209.114 327.02 209.414C327.02 210.014 326.576 210.446 325.688 210.71C325.952 211.07 326.084 211.598 326.084 212.294C326.084 213.314 325.748 214.094 325.076 214.634C324.416 215.162 323.588 215.426 322.592 215.426ZM324.104 210.656C323.708 210.308 323.204 210.134 322.592 210.134C321.98 210.134 321.47 210.308 321.062 210.656C320.654 210.992 320.45 211.514 320.45 212.222C320.45 212.93 320.654 213.458 321.062 213.806C321.47 214.142 321.98 214.31 322.592 214.31C323.204 214.31 323.708 214.142 324.104 213.806C324.512 213.458 324.716 212.93 324.716 212.222C324.716 211.514 324.512 210.992 324.104 210.656Z" fill="black"/>
<path d="M709 247.085C710.228 245.513 715.819 237.878 715.872 239.144C715.942 240.82 714.645 247.927 717.857 247.009C719.718 246.477 726.552 234.743 726.868 243.267C726.961 245.793 727.383 255.154 730.38 250.445C732.262 247.487 735.114 237.547 735.114 241.053C735.114 243.606 739.143 256.8 742.292 253.652C745.128 250.816 747.139 247.457 749.164 244.031C749.468 243.517 752.7 237.532 752.905 238.457C753.347 240.446 754.842 255.963 756.036 256.095C761.166 256.665 760.954 239.684 764.282 238.686C764.886 238.505 765.779 250.949 767.566 248.765C770.742 244.883 771.71 239.557 774.133 235.25C774.702 234.237 778.082 246.731 778.485 248.612C781.235 261.445 783.043 246.504 784.517 240.977C787.798 228.672 785.986 238.335 788.03 243.649C788.614 245.17 788.237 247.827 789.404 248.994C790.113 249.703 792.751 238.097 793.909 242.962C794.369 244.894 795.393 259.302 796.276 259.302C799.188 259.302 802.115 247.785 802.461 245.711" stroke="#93227E" stroke-width="16" stroke-linecap="round" stroke-linejoin="round"/>
<path d="M525.968 252.143C526.924 250.393 531.197 241.948 531.455 243.189C531.797 244.831 531.675 252.054 534.695 250.626C536.444 249.798 541.276 237.108 542.975 245.467C543.479 247.944 545.42 257.111 547.61 251.977C548.985 248.752 550.18 238.48 550.751 241.939C551.167 244.458 557.291 256.82 559.885 253.201C562.221 249.941 563.659 246.3 565.098 242.589C565.314 242.033 567.529 235.601 567.882 236.48C568.642 238.371 572.644 253.437 573.843 253.374C578.998 253.101 576.023 236.381 579.145 234.854C579.711 234.577 582.618 246.709 584.026 244.264C586.527 239.917 586.615 234.504 588.304 229.86C588.701 228.767 594.07 240.545 594.774 242.335C599.577 254.549 598.928 239.512 599.482 233.819C600.716 221.144 600.501 230.973 603.383 235.884C604.208 237.289 604.268 239.972 605.61 240.933C606.425 241.518 607.137 229.637 609.072 234.248C609.841 236.079 613.197 250.129 614.069 249.985C616.941 249.511 617.954 237.671 617.958 235.568" stroke="#93227E" stroke-width="16" stroke-linecap="round" stroke-linejoin="round"/>
<path d="M646.968 252.143C647.924 250.393 652.197 241.948 652.455 243.189C652.797 244.831 652.675 252.054 655.695 250.626C657.444 249.798 662.276 237.108 663.975 245.467C664.479 247.944 666.42 257.111 668.61 251.977C669.985 248.752 671.18 238.48 671.751 241.939C672.167 244.458 678.291 256.82 680.885 253.201C683.221 249.941 684.659 246.3 686.098 242.589C686.314 242.033 688.529 235.601 688.882 236.48C689.642 238.371 693.644 253.437 694.843 253.374C699.998 253.101 697.023 236.381 700.145 234.854C700.711 234.577 703.618 246.709 705.026 244.264C707.527 239.917 707.615 234.504 709.304 229.86C709.701 228.767 715.07 240.545 715.774 242.335C720.577 254.549 719.928 239.512 720.482 233.819C721.716 221.144 721.501 230.973 724.383 235.884C725.208 237.289 725.268 239.972 726.61 240.933C727.425 241.518 728.137 229.637 730.072 234.248C730.841 236.079 734.197 250.129 735.069 249.985C737.941 249.511 738.954 237.671 738.958 235.568" stroke="#93227E" stroke-width="16" stroke-linecap="round" stroke-linejoin="round"/>
<path d="M808.607 147.634C810.001 149.061 816.82 155.624 815.558 155.506C813.888 155.352 807.019 153.116 807.499 156.422C807.776 158.337 818.491 166.679 810.001 165.852C807.485 165.606 798.152 164.773 802.418 168.373C805.098 170.633 814.567 174.789 811.093 174.32C808.562 173.979 794.948 176.207 797.647 179.748C800.078 182.938 803.138 185.381 806.263 187.845C806.731 188.215 812.23 192.219 811.286 192.299C809.255 192.471 793.679 191.877 793.387 193.042C792.136 198.05 808.993 200.111 809.537 203.543C809.636 204.165 797.185 203.386 799.11 205.449C802.532 209.115 807.68 210.787 811.625 213.764C812.553 214.465 799.719 216.142 797.801 216.29C784.715 217.299 799.281 221.09 804.561 223.29C816.316 228.187 806.982 225.098 801.443 226.413C799.857 226.789 797.274 226.06 795.962 227.06C795.164 227.668 806.313 231.834 801.337 232.332C799.361 232.529 784.945 231.617 784.827 232.492C784.438 235.377 795.46 239.819 797.469 240.439" stroke="#93227E" stroke-width="16" stroke-linecap="round" stroke-linejoin="round"/>
<rect x="515.5" y="136.5" width="295" height="116" rx="7.5" fill="#93227E" stroke="black" stroke-width="5"/>
<path d="M524 240C525.252 236.433 525.655 232.765 525.655 228.966C525.655 226.277 525.149 222.85 526.084 220.383C527.371 216.985 524 209.63 526.206 206.42C526.206 202.799 524 195.556 526.206 195.556C526.206 191.302 524 189.688 524 185.344C524 182.619 526.958 175.422 525.93 172.909C524.391 169.145 525.655 162.973 525.655 158.775C525.655 155.029 524.382 150.956 525.134 147.196C525.386 145.934 548.848 147.196 551.243 147.196C577.803 147.196 591.864 144.505 617.785 147.196C622.988 147.196 634.272 147.196 634.272 147.196C647.58 147.196 650.91 147.196 659.101 147.196C673.815 147.196 689.707 147.196 704.389 147.196C725.725 147.196 751.267 147.196 751.267 147.196C754.044 147.196 771.13 147.196 771.13 147.196L784.56 147.741C786.543 146.739 788.911 147.853 790.933 148.013C793.26 148.198 794.832 147.434 797 147.434" stroke="#721861" stroke-width="17" stroke-linecap="round" stroke-linejoin="round"/>
<g filter="url(#filter4_d)">
<rect x="613" y="174" width="50" height="50" fill="#ED8B00"/>
<rect x="614" y="175" width="48" height="48" stroke="black" stroke-width="2"/>
</g>
<path d="M619 181C617.272 192.839 618.308 205.93 618.308 218" stroke="#FFB200" stroke-width="7" stroke-linecap="round" stroke-linejoin="round"/>
<path d="M619 180C631.677 180 644.523 179 657 179" stroke="#FFB200" stroke-width="7" stroke-linecap="round" stroke-linejoin="round"/>
<g filter="url(#filter5_d)">
<rect x="663" y="174" width="150" height="50" fill="#DB5B93"/>
<rect x="664" y="175" width="148" height="48" stroke="black" stroke-width="2"/>
</g>
<path d="M672 181C666.816 192.839 669.924 205.93 669.924 218" stroke="#F187B6" stroke-width="7" stroke-linecap="round" stroke-linejoin="round"/>
<path d="M673 180C718.038 180 763.672 179 808 179" stroke="#F187B6" stroke-width="7" stroke-linecap="round" stroke-linejoin="round"/>
<g filter="url(#filter6_d)">
<rect x="564" y="174" width="50" height="50" fill="#008744"/>
<rect x="565" y="175" width="48" height="48" stroke="black" stroke-width="2"/>
</g>
<path d="M570 181C568.272 192.839 569.308 205.93 569.308 218" stroke="#229F61" stroke-width="7" stroke-linecap="round" stroke-linejoin="round"/>
<path d="M570 180C582.677 180 595.523 179 608 179" stroke="#229F61" stroke-width="7" stroke-linecap="round" stroke-linejoin="round"/>
<g filter="url(#filter7_d)">
<rect x="515" y="174" width="50" height="50" fill="#0761B4"/>
<rect x="516" y="175" width="48" height="48" stroke="black" stroke-width="2"/>
</g>
<path d="M521 181C519.272 192.839 520.308 205.93 520.308 218" stroke="#0084FF" stroke-width="7" stroke-linecap="round" stroke-linejoin="round"/>
<path d="M521 180C533.677 180 546.523 179 559 179" stroke="#0084FF" stroke-width="7" stroke-linecap="round" stroke-linejoin="round"/>
<path d="M563.498 253C566.063 256.386 576.327 265.37 568.308 265.37C564.656 265.37 559.545 270.525 558 273.616" stroke="white" stroke-width="2" stroke-linecap="round" stroke-linejoin="round"/>
<line x1="516.5" y1="78" x2="516.5" y2="319" stroke="black" stroke-width="3" stroke-dasharray="10 4"/>
<line x1="814.5" y1="73" x2="814.5" y2="314" stroke="black" stroke-width="3" stroke-dasharray="10 4"/>
<path d="M813.707 100.707C814.098 100.317 814.098 99.6834 813.707 99.2929L807.343 92.9289C806.953 92.5384 806.319 92.5384 805.929 92.9289C805.538 93.3195 805.538 93.9526 805.929 94.3432L811.586 100L805.929 105.657C805.538 106.047 805.538 106.681 805.929 107.071C806.319 107.462 806.953 107.462 807.343 107.071L813.707 100.707ZM729 101L734 101L734 99L729 99L729 101ZM738 101L748 101L748 99L738 99L738 101ZM752 101L762 101L762 99L752 99L752 101ZM766 101L776 101L776 99L766 99L766 101ZM780 101L790 101L790 99L780 99L780 101ZM794 101L804 101L804 99L794 99L794 101ZM808 101L813 101L813 99L808 99L808 101ZM814.414 101.414C815.195 100.633 815.195 99.3668 814.414 98.5858L801.686 85.8579C800.905 85.0768 799.639 85.0768 798.858 85.8579C798.077 86.6389 798.077 87.9052 798.858 88.6863L810.172 100L798.858 111.314C798.077 112.095 798.077 113.361 798.858 114.142C799.639 114.923 800.905 114.923 801.686 114.142L814.414 101.414ZM729 102L734 102L734 98L729 98L729 102ZM738 102L748 102L748 98L738 98L738 102ZM752 102L762 102L762 98L752 98L752 102ZM766 102L776 102L776 98L766 98L766 102ZM780 102L790 102L790 98L780 98L780 102ZM794 102L804 102L804 98L794 98L794 102ZM808 102L813 102L813 98L808 98L808 102Z" fill="black"/>
<path d="M520.292 99.4099C519.902 99.801 519.903 100.434 520.294 100.824L526.669 107.177C527.06 107.567 527.693 107.566 528.083 107.175C528.473 106.784 528.472 106.151 528.081 105.761L522.414 100.113L528.062 94.4471C528.452 94.0559 528.45 93.4227 528.059 93.0329C527.668 92.643 527.035 92.6441 526.645 93.0352L520.292 99.4099ZM589.998 99L585.07 99.0083L585.073 101.008L590.002 101L589.998 99ZM581.127 99.0149L571.27 99.0314L571.273 101.031L581.13 101.015L581.127 99.0149ZM567.327 99.038L557.47 99.0546L557.473 101.055L567.33 101.038L567.327 99.038ZM553.527 99.0612L543.67 99.0777L543.673 101.078L553.53 101.061L553.527 99.0612ZM539.727 99.0844L529.87 99.1009L529.873 101.101L539.73 101.084L539.727 99.0844ZM525.927 99.1075L520.998 99.1158L521.002 101.116L525.93 101.108L525.927 99.1075ZM519.584 98.7039C518.804 99.4863 518.806 100.753 519.588 101.532L532.338 114.239C533.12 115.019 534.386 115.017 535.166 114.234C535.946 113.452 535.944 112.185 535.161 111.406L523.829 100.111L535.123 88.7784C535.903 87.996 535.901 86.7297 535.118 85.9499C534.336 85.1702 533.07 85.1723 532.29 85.9547L519.584 98.7039ZM589.997 98L585.068 98.0083L585.075 102.008L590.003 102L589.997 98ZM581.125 98.0149L571.268 98.0314L571.275 102.031L581.132 102.015L581.125 98.0149ZM567.325 98.038L557.468 98.0546L557.475 102.055L567.332 102.038L567.325 98.038ZM553.525 98.0612L543.668 98.0777L543.675 102.078L553.532 102.061L553.525 98.0612ZM539.725 98.0844L529.868 98.1009L529.875 102.101L539.732 102.084L539.725 98.0844ZM525.925 98.1075L520.997 98.1158L521.003 102.116L525.932 102.108L525.925 98.1075Z" fill="black"/>
<path d="M630.4 94.86C630.4 94.2733 630.747 93.6933 631.44 93.12C632.133 92.5333 633.207 92.24 634.66 92.24C636.113 92.24 637.187 92.58 637.88 93.26C638.573 93.94 638.92 94.6933 638.92 95.52C638.92 96.3467 638.7 97.0467 638.26 97.62C637.833 98.18 637.287 98.5533 636.62 98.74C637.447 98.9133 638.153 99.2733 638.74 99.82C639.327 100.367 639.62 101.093 639.62 102C639.62 103.227 639.093 104.227 638.04 105C637 105.773 635.767 106.16 634.34 106.16C632.927 106.16 631.813 105.973 631 105.6C630.2 105.227 629.8 104.767 629.8 104.22C629.8 103.673 630.1 103.313 630.7 103.14C631.087 104.153 632.24 104.66 634.16 104.66C635.16 104.66 636.04 104.433 636.8 103.98C637.56 103.527 637.94 102.907 637.94 102.12C637.94 101.32 637.587 100.727 636.88 100.34C636.173 99.94 635.327 99.74 634.34 99.74H633.5C632.9 99.74 632.6 99.5 632.6 99.02C632.6 98.5 632.9 98.24 633.5 98.24H634.34C635.167 98.24 635.853 98.0333 636.4 97.62C636.96 97.1933 637.24 96.66 637.24 96.02C637.24 95.3667 637.007 94.8267 636.54 94.4C636.087 93.96 635.427 93.74 634.56 93.74C633.707 93.74 633.02 93.92 632.5 94.28C631.993 94.64 631.647 95.1267 631.46 95.74C630.753 95.74 630.4 95.4467 630.4 94.86ZM643.324 94.04C644.404 92.84 645.771 92.24 647.424 92.24C649.077 92.24 650.437 92.84 651.504 94.04C652.571 95.2267 653.104 96.9333 653.104 99.16C653.104 101.373 652.564 103.093 651.484 104.32C650.417 105.547 649.064 106.16 647.424 106.16C645.784 106.16 644.417 105.547 643.324 104.32C642.244 103.093 641.704 101.373 641.704 99.16C641.704 96.9467 642.244 95.24 643.324 94.04ZM651.224 99.22C651.224 97.5133 650.857 96.1867 650.124 95.24C649.404 94.28 648.497 93.8 647.404 93.8C646.311 93.8 645.404 94.28 644.684 95.24C643.977 96.1867 643.624 97.5133 643.624 99.22C643.624 100.913 643.957 102.24 644.624 103.2C645.291 104.147 646.217 104.62 647.404 104.62C648.604 104.62 649.537 104.147 650.204 103.2C650.884 102.24 651.224 100.913 651.224 99.22ZM657.133 94.04C658.213 92.84 659.579 92.24 661.233 92.24C662.886 92.24 664.246 92.84 665.313 94.04C666.379 95.2267 666.913 96.9333 666.913 99.16C666.913 101.373 666.373 103.093 665.293 104.32C664.226 105.547 662.873 106.16 661.233 106.16C659.593 106.16 658.226 105.547 657.133 104.32C656.053 103.093 655.513 101.373 655.513 99.16C655.513 96.9467 656.053 95.24 657.133 94.04ZM665.033 99.22C665.033 97.5133 664.666 96.1867 663.933 95.24C663.213 94.28 662.306 93.8 661.213 93.8C660.119 93.8 659.213 94.28 658.493 95.24C657.786 96.1867 657.433 97.5133 657.433 99.22C657.433 100.913 657.766 102.24 658.433 103.2C659.099 104.147 660.026 104.62 661.213 104.62C662.413 104.62 663.346 104.147 664.013 103.2C664.693 102.24 665.033 100.913 665.033 99.22ZM670.321 96.14H670.461C670.968 96.14 671.221 96.3733 671.221 96.84V97.62C671.501 97.1533 671.921 96.76 672.481 96.44C673.041 96.12 673.648 95.96 674.301 95.96C675.541 95.96 676.541 96.38 677.301 97.22C678.074 98.0467 678.461 99.3133 678.461 101.02C678.461 102.713 678.008 103.993 677.101 104.86C676.208 105.727 675.108 106.16 673.801 106.16C672.908 106.16 672.048 105.933 671.221 105.48V109.78C671.221 110.273 670.968 110.52 670.461 110.52H670.321C669.814 110.52 669.561 110.273 669.561 109.78V96.88C669.561 96.3867 669.814 96.14 670.321 96.14ZM676.801 101C676.801 99.7333 676.534 98.8133 676.001 98.24C675.468 97.6533 674.748 97.36 673.841 97.36C672.934 97.36 672.268 97.76 671.841 98.56C671.428 99.36 671.221 100.4 671.221 101.68V104.18C671.354 104.273 671.681 104.4 672.201 104.56C672.734 104.707 673.268 104.78 673.801 104.78C674.694 104.78 675.414 104.467 675.961 103.84C676.521 103.213 676.801 102.267 676.801 101ZM681.187 96.14H681.807C682.141 96.14 682.414 96.3 682.627 96.62L684.887 100.08C685.461 99.3733 686.227 98.22 687.187 96.62C687.387 96.3 687.647 96.14 687.967 96.14H688.327C688.714 96.14 688.907 96.2933 688.907 96.6C688.907 96.7067 688.881 96.8067 688.827 96.9C688.067 98.1933 687.054 99.58 685.787 101.06L688.927 105.24C689.034 105.387 689.087 105.52 689.087 105.64C689.087 105.88 688.947 106 688.667 106H687.887C687.554 106 687.254 105.813 686.987 105.44L684.727 102.18C684.514 102.393 684.267 102.707 683.987 103.12C683.707 103.533 683.501 103.833 683.367 104.02C682.967 104.62 682.647 105.12 682.407 105.52C682.194 105.84 681.921 106 681.587 106H681.227C681.067 106 680.934 105.947 680.827 105.84C680.721 105.733 680.667 105.62 680.667 105.5C680.667 105.367 680.707 105.24 680.787 105.12C681.694 103.787 682.727 102.473 683.887 101.18L680.767 96.9C680.687 96.8067 680.647 96.7 680.647 96.58C680.647 96.46 680.694 96.36 680.787 96.28C680.894 96.1867 681.027 96.14 681.187 96.14Z" fill="black"/>
<path d="M517.954 198.592C517.954 197.776 518.302 197.134 518.998 196.666C519.706 196.186 520.492 195.946 521.356 195.946C522.22 195.946 522.886 196.072 523.354 196.324C523.834 196.564 524.074 196.852 524.074 197.188C524.074 197.524 523.84 197.77 523.372 197.926C523.288 197.734 523.054 197.554 522.67 197.386C522.298 197.218 521.836 197.134 521.284 197.134C520.732 197.134 520.276 197.242 519.916 197.458C519.568 197.662 519.394 197.956 519.394 198.34C519.394 198.712 519.526 199 519.79 199.204C520.054 199.408 520.672 199.624 521.644 199.852C522.628 200.068 523.378 200.386 523.894 200.806C524.41 201.226 524.668 201.814 524.668 202.57C524.668 203.326 524.32 203.944 523.624 204.424C522.928 204.892 522.07 205.126 521.05 205.126C520.042 205.126 519.232 205 518.62 204.748C518.02 204.484 517.72 204.142 517.72 203.722C517.72 203.302 517.918 202.996 518.314 202.804C518.482 203.128 518.806 203.404 519.286 203.632C519.766 203.86 520.366 203.974 521.086 203.974C521.806 203.974 522.352 203.842 522.724 203.578C523.108 203.314 523.3 202.99 523.3 202.606C523.3 202.21 523.126 201.904 522.778 201.688C522.442 201.46 521.776 201.238 520.78 201.022C519.796 200.806 519.076 200.5 518.62 200.104C518.176 199.696 517.954 199.192 517.954 198.592ZM527.33 192.382H527.456C527.912 192.382 528.14 192.61 528.14 193.066V197.926C528.344 197.398 528.692 196.948 529.184 196.576C529.676 196.204 530.252 196.018 530.912 196.018C531.92 196.018 532.724 196.306 533.324 196.882C533.924 197.446 534.224 198.364 534.224 199.636V204.316C534.224 204.556 534.17 204.73 534.062 204.838C533.954 204.946 533.78 205 533.54 205H533.396C532.952 205 532.73 204.772 532.73 204.316V199.726C532.73 198.058 532.01 197.224 530.57 197.224C529.814 197.224 529.22 197.536 528.788 198.16C528.368 198.784 528.158 199.57 528.158 200.518V204.316C528.158 204.772 527.924 205 527.456 205H527.33C527.09 205 526.916 204.946 526.808 204.838C526.7 204.73 526.646 204.556 526.646 204.316V193.066C526.646 192.61 526.874 192.382 527.33 192.382ZM537.526 197.17C538.378 196.366 539.422 195.964 540.658 195.964C541.894 195.964 542.938 196.366 543.79 197.17C544.642 197.974 545.068 199.108 545.068 200.572C545.068 202.036 544.642 203.164 543.79 203.956C542.938 204.748 541.894 205.144 540.658 205.144C539.422 205.144 538.378 204.748 537.526 203.956C536.674 203.164 536.248 202.036 536.248 200.572C536.248 199.108 536.674 197.974 537.526 197.17ZM542.728 198.088C542.2 197.5 541.51 197.206 540.658 197.206C539.806 197.206 539.11 197.5 538.57 198.088C538.042 198.664 537.778 199.492 537.778 200.572C537.778 201.64 538.042 202.468 538.57 203.056C539.11 203.632 539.806 203.92 540.658 203.92C541.51 203.92 542.2 203.632 542.728 203.056C543.268 202.468 543.538 201.64 543.538 200.572C543.538 199.492 543.268 198.664 542.728 198.088ZM547.826 196.126H547.934C548.39 196.126 548.618 196.348 548.618 196.792V197.764C548.822 197.308 549.146 196.9 549.59 196.54C550.046 196.18 550.532 196 551.048 196C551.564 196 551.954 196.102 552.218 196.306C552.494 196.51 552.632 196.762 552.632 197.062C552.632 197.35 552.506 197.578 552.254 197.746C551.882 197.434 551.486 197.278 551.066 197.278C550.322 197.278 549.734 197.584 549.302 198.196C548.87 198.796 548.654 199.552 548.654 200.464V204.316C548.654 204.556 548.6 204.73 548.492 204.838C548.384 204.946 548.21 205 547.97 205H547.826C547.586 205 547.412 204.946 547.304 204.838C547.196 204.73 547.142 204.556 547.142 204.316V196.792C547.142 196.348 547.37 196.126 547.826 196.126ZM555.913 193.732H556.039C556.495 193.732 556.723 193.954 556.723 194.398V196.18H559.207C559.675 196.18 559.909 196.384 559.909 196.792C559.909 197.2 559.675 197.404 559.207 197.404H556.723V201.94C556.723 202.696 556.867 203.23 557.155 203.542C557.455 203.842 557.887 203.992 558.451 203.992C559.027 203.992 559.453 203.854 559.729 203.578C560.029 203.674 560.179 203.866 560.179 204.154C560.179 204.442 559.981 204.682 559.585 204.874C559.189 205.054 558.715 205.144 558.163 205.144C556.207 205.144 555.229 204.076 555.229 201.94V197.404H554.347C554.083 197.404 553.891 197.362 553.771 197.278C553.651 197.194 553.591 197.032 553.591 196.792C553.591 196.384 553.843 196.18 554.347 196.18H555.229V194.398C555.229 193.954 555.457 193.732 555.913 193.732Z" fill="black"/>
<path d="M568.954 198.592C568.954 197.776 569.302 197.134 569.998 196.666C570.706 196.186 571.492 195.946 572.356 195.946C573.22 195.946 573.886 196.072 574.354 196.324C574.834 196.564 575.074 196.852 575.074 197.188C575.074 197.524 574.84 197.77 574.372 197.926C574.288 197.734 574.054 197.554 573.67 197.386C573.298 197.218 572.836 197.134 572.284 197.134C571.732 197.134 571.276 197.242 570.916 197.458C570.568 197.662 570.394 197.956 570.394 198.34C570.394 198.712 570.526 199 570.79 199.204C571.054 199.408 571.672 199.624 572.644 199.852C573.628 200.068 574.378 200.386 574.894 200.806C575.41 201.226 575.668 201.814 575.668 202.57C575.668 203.326 575.32 203.944 574.624 204.424C573.928 204.892 573.07 205.126 572.05 205.126C571.042 205.126 570.232 205 569.62 204.748C569.02 204.484 568.72 204.142 568.72 203.722C568.72 203.302 568.918 202.996 569.314 202.804C569.482 203.128 569.806 203.404 570.286 203.632C570.766 203.86 571.366 203.974 572.086 203.974C572.806 203.974 573.352 203.842 573.724 203.578C574.108 203.314 574.3 202.99 574.3 202.606C574.3 202.21 574.126 201.904 573.778 201.688C573.442 201.46 572.776 201.238 571.78 201.022C570.796 200.806 570.076 200.5 569.62 200.104C569.176 199.696 568.954 199.192 568.954 198.592ZM578.33 192.382H578.456C578.912 192.382 579.14 192.61 579.14 193.066V197.926C579.344 197.398 579.692 196.948 580.184 196.576C580.676 196.204 581.252 196.018 581.912 196.018C582.92 196.018 583.724 196.306 584.324 196.882C584.924 197.446 585.224 198.364 585.224 199.636V204.316C585.224 204.556 585.17 204.73 585.062 204.838C584.954 204.946 584.78 205 584.54 205H584.396C583.952 205 583.73 204.772 583.73 204.316V199.726C583.73 198.058 583.01 197.224 581.57 197.224C580.814 197.224 580.22 197.536 579.788 198.16C579.368 198.784 579.158 199.57 579.158 200.518V204.316C579.158 204.772 578.924 205 578.456 205H578.33C578.09 205 577.916 204.946 577.808 204.838C577.7 204.73 577.646 204.556 577.646 204.316V193.066C577.646 192.61 577.874 192.382 578.33 192.382ZM588.526 197.17C589.378 196.366 590.422 195.964 591.658 195.964C592.894 195.964 593.938 196.366 594.79 197.17C595.642 197.974 596.068 199.108 596.068 200.572C596.068 202.036 595.642 203.164 594.79 203.956C593.938 204.748 592.894 205.144 591.658 205.144C590.422 205.144 589.378 204.748 588.526 203.956C587.674 203.164 587.248 202.036 587.248 200.572C587.248 199.108 587.674 197.974 588.526 197.17ZM593.728 198.088C593.2 197.5 592.51 197.206 591.658 197.206C590.806 197.206 590.11 197.5 589.57 198.088C589.042 198.664 588.778 199.492 588.778 200.572C588.778 201.64 589.042 202.468 589.57 203.056C590.11 203.632 590.806 203.92 591.658 203.92C592.51 203.92 593.2 203.632 593.728 203.056C594.268 202.468 594.538 201.64 594.538 200.572C594.538 199.492 594.268 198.664 593.728 198.088ZM598.826 196.126H598.934C599.39 196.126 599.618 196.348 599.618 196.792V197.764C599.822 197.308 600.146 196.9 600.59 196.54C601.046 196.18 601.532 196 602.048 196C602.564 196 602.954 196.102 603.218 196.306C603.494 196.51 603.632 196.762 603.632 197.062C603.632 197.35 603.506 197.578 603.254 197.746C602.882 197.434 602.486 197.278 602.066 197.278C601.322 197.278 600.734 197.584 600.302 198.196C599.87 198.796 599.654 199.552 599.654 200.464V204.316C599.654 204.556 599.6 204.73 599.492 204.838C599.384 204.946 599.21 205 598.97 205H598.826C598.586 205 598.412 204.946 598.304 204.838C598.196 204.73 598.142 204.556 598.142 204.316V196.792C598.142 196.348 598.37 196.126 598.826 196.126ZM606.913 193.732H607.039C607.495 193.732 607.723 193.954 607.723 194.398V196.18H610.207C610.675 196.18 610.909 196.384 610.909 196.792C610.909 197.2 610.675 197.404 610.207 197.404H607.723V201.94C607.723 202.696 607.867 203.23 608.155 203.542C608.455 203.842 608.887 203.992 609.451 203.992C610.027 203.992 610.453 203.854 610.729 203.578C611.029 203.674 611.179 203.866 611.179 204.154C611.179 204.442 610.981 204.682 610.585 204.874C610.189 205.054 609.715 205.144 609.163 205.144C607.207 205.144 606.229 204.076 606.229 201.94V197.404H605.347C605.083 197.404 604.891 197.362 604.771 197.278C604.651 197.194 604.591 197.032 604.591 196.792C604.591 196.384 604.843 196.18 605.347 196.18H606.229V194.398C606.229 193.954 606.457 193.732 606.913 193.732Z" fill="black"/>
<path d="M616.954 198.592C616.954 197.776 617.302 197.134 617.998 196.666C618.706 196.186 619.492 195.946 620.356 195.946C621.22 195.946 621.886 196.072 622.354 196.324C622.834 196.564 623.074 196.852 623.074 197.188C623.074 197.524 622.84 197.77 622.372 197.926C622.288 197.734 622.054 197.554 621.67 197.386C621.298 197.218 620.836 197.134 620.284 197.134C619.732 197.134 619.276 197.242 618.916 197.458C618.568 197.662 618.394 197.956 618.394 198.34C618.394 198.712 618.526 199 618.79 199.204C619.054 199.408 619.672 199.624 620.644 199.852C621.628 200.068 622.378 200.386 622.894 200.806C623.41 201.226 623.668 201.814 623.668 202.57C623.668 203.326 623.32 203.944 622.624 204.424C621.928 204.892 621.07 205.126 620.05 205.126C619.042 205.126 618.232 205 617.62 204.748C617.02 204.484 616.72 204.142 616.72 203.722C616.72 203.302 616.918 202.996 617.314 202.804C617.482 203.128 617.806 203.404 618.286 203.632C618.766 203.86 619.366 203.974 620.086 203.974C620.806 203.974 621.352 203.842 621.724 203.578C622.108 203.314 622.3 202.99 622.3 202.606C622.3 202.21 622.126 201.904 621.778 201.688C621.442 201.46 620.776 201.238 619.78 201.022C618.796 200.806 618.076 200.5 617.62 200.104C617.176 199.696 616.954 199.192 616.954 198.592ZM626.33 192.382H626.456C626.912 192.382 627.14 192.61 627.14 193.066V197.926C627.344 197.398 627.692 196.948 628.184 196.576C628.676 196.204 629.252 196.018 629.912 196.018C630.92 196.018 631.724 196.306 632.324 196.882C632.924 197.446 633.224 198.364 633.224 199.636V204.316C633.224 204.556 633.17 204.73 633.062 204.838C632.954 204.946 632.78 205 632.54 205H632.396C631.952 205 631.73 204.772 631.73 204.316V199.726C631.73 198.058 631.01 197.224 629.57 197.224C628.814 197.224 628.22 197.536 627.788 198.16C627.368 198.784 627.158 199.57 627.158 200.518V204.316C627.158 204.772 626.924 205 626.456 205H626.33C626.09 205 625.916 204.946 625.808 204.838C625.7 204.73 625.646 204.556 625.646 204.316V193.066C625.646 192.61 625.874 192.382 626.33 192.382ZM636.526 197.17C637.378 196.366 638.422 195.964 639.658 195.964C640.894 195.964 641.938 196.366 642.79 197.17C643.642 197.974 644.068 199.108 644.068 200.572C644.068 202.036 643.642 203.164 642.79 203.956C641.938 204.748 640.894 205.144 639.658 205.144C638.422 205.144 637.378 204.748 636.526 203.956C635.674 203.164 635.248 202.036 635.248 200.572C635.248 199.108 635.674 197.974 636.526 197.17ZM641.728 198.088C641.2 197.5 640.51 197.206 639.658 197.206C638.806 197.206 638.11 197.5 637.57 198.088C637.042 198.664 636.778 199.492 636.778 200.572C636.778 201.64 637.042 202.468 637.57 203.056C638.11 203.632 638.806 203.92 639.658 203.92C640.51 203.92 641.2 203.632 641.728 203.056C642.268 202.468 642.538 201.64 642.538 200.572C642.538 199.492 642.268 198.664 641.728 198.088ZM646.826 196.126H646.934C647.39 196.126 647.618 196.348 647.618 196.792V197.764C647.822 197.308 648.146 196.9 648.59 196.54C649.046 196.18 649.532 196 650.048 196C650.564 196 650.954 196.102 651.218 196.306C651.494 196.51 651.632 196.762 651.632 197.062C651.632 197.35 651.506 197.578 651.254 197.746C650.882 197.434 650.486 197.278 650.066 197.278C649.322 197.278 648.734 197.584 648.302 198.196C647.87 198.796 647.654 199.552 647.654 200.464V204.316C647.654 204.556 647.6 204.73 647.492 204.838C647.384 204.946 647.21 205 646.97 205H646.826C646.586 205 646.412 204.946 646.304 204.838C646.196 204.73 646.142 204.556 646.142 204.316V196.792C646.142 196.348 646.37 196.126 646.826 196.126ZM654.913 193.732H655.039C655.495 193.732 655.723 193.954 655.723 194.398V196.18H658.207C658.675 196.18 658.909 196.384 658.909 196.792C658.909 197.2 658.675 197.404 658.207 197.404H655.723V201.94C655.723 202.696 655.867 203.23 656.155 203.542C656.455 203.842 656.887 203.992 657.451 203.992C658.027 203.992 658.453 203.854 658.729 203.578C659.029 203.674 659.179 203.866 659.179 204.154C659.179 204.442 658.981 204.682 658.585 204.874C658.189 205.054 657.715 205.144 657.163 205.144C655.207 205.144 654.229 204.076 654.229 201.94V197.404H653.347C653.083 197.404 652.891 197.362 652.771 197.278C652.651 197.194 652.591 197.032 652.591 196.792C652.591 196.384 652.843 196.18 653.347 196.18H654.229V194.398C654.229 193.954 654.457 193.732 654.913 193.732Z" fill="black"/>
<path d="M685.106 193.382H685.232C685.688 193.382 685.916 193.604 685.916 194.048V205.316C685.916 205.772 685.688 206 685.232 206H685.106C684.854 206 684.674 205.946 684.566 205.838C684.47 205.73 684.422 205.556 684.422 205.316V194.048C684.422 193.808 684.47 193.64 684.566 193.544C684.674 193.436 684.854 193.382 685.106 193.382ZM689.376 198.17C690.228 197.366 691.272 196.964 692.508 196.964C693.744 196.964 694.788 197.366 695.64 198.17C696.492 198.974 696.918 200.108 696.918 201.572C696.918 203.036 696.492 204.164 695.64 204.956C694.788 205.748 693.744 206.144 692.508 206.144C691.272 206.144 690.228 205.748 689.376 204.956C688.524 204.164 688.098 203.036 688.098 201.572C688.098 200.108 688.524 198.974 689.376 198.17ZM694.578 199.088C694.05 198.5 693.36 198.206 692.508 198.206C691.656 198.206 690.96 198.5 690.42 199.088C689.892 199.664 689.628 200.492 689.628 201.572C689.628 202.64 689.892 203.468 690.42 204.056C690.96 204.632 691.656 204.92 692.508 204.92C693.36 204.92 694.05 204.632 694.578 204.056C695.118 203.468 695.388 202.64 695.388 201.572C695.388 200.492 695.118 199.664 694.578 199.088ZM699.712 198.17C700.564 197.366 701.608 196.964 702.844 196.964C704.08 196.964 705.124 197.366 705.976 198.17C706.828 198.974 707.254 200.108 707.254 201.572C707.254 203.036 706.828 204.164 705.976 204.956C705.124 205.748 704.08 206.144 702.844 206.144C701.608 206.144 700.564 205.748 699.712 204.956C698.86 204.164 698.434 203.036 698.434 201.572C698.434 200.108 698.86 198.974 699.712 198.17ZM704.914 199.088C704.386 198.5 703.696 198.206 702.844 198.206C701.992 198.206 701.296 198.5 700.756 199.088C700.228 199.664 699.964 200.492 699.964 201.572C699.964 202.64 700.228 203.468 700.756 204.056C701.296 204.632 701.992 204.92 702.844 204.92C703.696 204.92 704.386 204.632 704.914 204.056C705.454 203.468 705.724 202.64 705.724 201.572C705.724 200.492 705.454 199.664 704.914 199.088ZM715.778 198.17C716.63 197.366 717.674 196.964 718.91 196.964C720.146 196.964 721.19 197.366 722.042 198.17C722.894 198.974 723.32 200.108 723.32 201.572C723.32 203.036 722.894 204.164 722.042 204.956C721.19 205.748 720.146 206.144 718.91 206.144C717.674 206.144 716.63 205.748 715.778 204.956C714.926 204.164 714.5 203.036 714.5 201.572C714.5 200.108 714.926 198.974 715.778 198.17ZM720.98 199.088C720.452 198.5 719.762 198.206 718.91 198.206C718.058 198.206 717.362 198.5 716.822 199.088C716.294 199.664 716.03 200.492 716.03 201.572C716.03 202.64 716.294 203.468 716.822 204.056C717.362 204.632 718.058 204.92 718.91 204.92C719.762 204.92 720.452 204.632 720.98 204.056C721.52 203.468 721.79 202.64 721.79 201.572C721.79 200.492 721.52 199.664 720.98 199.088ZM726.114 198.17C726.966 197.366 728.01 196.964 729.246 196.964C730.482 196.964 731.526 197.366 732.378 198.17C733.23 198.974 733.656 200.108 733.656 201.572C733.656 203.036 733.23 204.164 732.378 204.956C731.526 205.748 730.482 206.144 729.246 206.144C728.01 206.144 726.966 205.748 726.114 204.956C725.262 204.164 724.836 203.036 724.836 201.572C724.836 200.108 725.262 198.974 726.114 198.17ZM731.316 199.088C730.788 198.5 730.098 198.206 729.246 198.206C728.394 198.206 727.698 198.5 727.158 199.088C726.63 199.664 726.366 200.492 726.366 201.572C726.366 202.64 726.63 203.468 727.158 204.056C727.698 204.632 728.394 204.92 729.246 204.92C730.098 204.92 730.788 204.632 731.316 204.056C731.856 203.468 732.126 202.64 732.126 201.572C732.126 200.492 731.856 199.664 731.316 199.088ZM742.18 198.17C743.032 197.366 744.076 196.964 745.312 196.964C746.548 196.964 747.592 197.366 748.444 198.17C749.296 198.974 749.722 200.108 749.722 201.572C749.722 203.036 749.296 204.164 748.444 204.956C747.592 205.748 746.548 206.144 745.312 206.144C744.076 206.144 743.032 205.748 742.18 204.956C741.328 204.164 740.902 203.036 740.902 201.572C740.902 200.108 741.328 198.974 742.18 198.17ZM747.382 199.088C746.854 198.5 746.164 198.206 745.312 198.206C744.46 198.206 743.764 198.5 743.224 199.088C742.696 199.664 742.432 200.492 742.432 201.572C742.432 202.64 742.696 203.468 743.224 204.056C743.764 204.632 744.46 204.92 745.312 204.92C746.164 204.92 746.854 204.632 747.382 204.056C747.922 203.468 748.192 202.64 748.192 201.572C748.192 200.492 747.922 199.664 747.382 199.088ZM758.247 198.17C759.099 197.366 760.143 196.964 761.379 196.964C762.615 196.964 763.659 197.366 764.511 198.17C765.363 198.974 765.789 200.108 765.789 201.572C765.789 203.036 765.363 204.164 764.511 204.956C763.659 205.748 762.615 206.144 761.379 206.144C760.143 206.144 759.099 205.748 758.247 204.956C757.395 204.164 756.969 203.036 756.969 201.572C756.969 200.108 757.395 198.974 758.247 198.17ZM763.449 199.088C762.921 198.5 762.231 198.206 761.379 198.206C760.527 198.206 759.831 198.5 759.291 199.088C758.763 199.664 758.499 200.492 758.499 201.572C758.499 202.64 758.763 203.468 759.291 204.056C759.831 204.632 760.527 204.92 761.379 204.92C762.231 204.92 762.921 204.632 763.449 204.056C763.989 203.468 764.259 202.64 764.259 201.572C764.259 200.492 763.989 199.664 763.449 199.088ZM768.583 198.17C769.435 197.366 770.479 196.964 771.715 196.964C772.951 196.964 773.995 197.366 774.847 198.17C775.699 198.974 776.125 200.108 776.125 201.572C776.125 203.036 775.699 204.164 774.847 204.956C773.995 205.748 772.951 206.144 771.715 206.144C770.479 206.144 769.435 205.748 768.583 204.956C767.731 204.164 767.305 203.036 767.305 201.572C767.305 200.108 767.731 198.974 768.583 198.17ZM773.785 199.088C773.257 198.5 772.567 198.206 771.715 198.206C770.863 198.206 770.167 198.5 769.627 199.088C769.099 199.664 768.835 200.492 768.835 201.572C768.835 202.64 769.099 203.468 769.627 204.056C770.167 204.632 770.863 204.92 771.715 204.92C772.567 204.92 773.257 204.632 773.785 204.056C774.325 203.468 774.595 202.64 774.595 201.572C774.595 200.492 774.325 199.664 773.785 199.088ZM778.919 198.17C779.771 197.366 780.815 196.964 782.051 196.964C783.287 196.964 784.331 197.366 785.183 198.17C786.035 198.974 786.461 200.108 786.461 201.572C786.461 203.036 786.035 204.164 785.183 204.956C784.331 205.748 783.287 206.144 782.051 206.144C780.815 206.144 779.771 205.748 778.919 204.956C778.067 204.164 777.641 203.036 777.641 201.572C777.641 200.108 778.067 198.974 778.919 198.17ZM784.121 199.088C783.593 198.5 782.903 198.206 782.051 198.206C781.199 198.206 780.503 198.5 779.963 199.088C779.435 199.664 779.171 200.492 779.171 201.572C779.171 202.64 779.435 203.468 779.963 204.056C780.503 204.632 781.199 204.92 782.051 204.92C782.903 204.92 783.593 204.632 784.121 204.056C784.661 203.468 784.931 202.64 784.931 201.572C784.931 200.492 784.661 199.664 784.121 199.088ZM791.739 203.426L790.929 203.39C790.641 203.39 790.395 203.468 790.191 203.624C789.987 203.768 789.885 203.93 789.885 204.11C789.885 204.566 790.269 204.794 791.037 204.794H792.369C794.925 204.794 796.203 205.58 796.203 207.152C796.203 207.98 795.801 208.652 794.997 209.168C794.205 209.684 793.185 209.966 791.937 210.014H791.505C790.485 210.014 789.615 209.81 788.895 209.402C788.175 208.994 787.815 208.514 787.815 207.962C787.815 207.698 787.875 207.488 787.995 207.332C788.127 207.176 788.295 207.086 788.499 207.062C788.727 207.53 789.129 207.92 789.705 208.232C790.281 208.544 790.959 208.7 791.739 208.7H791.865C792.765 208.7 793.467 208.562 793.971 208.286C794.487 208.01 794.745 207.662 794.745 207.242C794.745 206.834 794.517 206.534 794.061 206.342C793.617 206.162 792.843 206.072 791.739 206.072C790.647 206.072 789.825 205.964 789.273 205.748C788.721 205.532 788.445 205.112 788.445 204.488C788.445 203.864 788.883 203.372 789.759 203.012C788.715 202.424 788.193 201.488 788.193 200.204C788.193 199.184 788.541 198.392 789.237 197.828C789.933 197.264 790.791 196.982 791.811 196.982C792.327 196.982 792.801 197.09 793.233 197.306C793.677 197.522 794.013 197.756 794.241 198.008C794.697 197.708 794.925 197.162 794.925 196.37C795.249 196.37 795.537 196.472 795.789 196.676C796.041 196.868 796.167 197.114 796.167 197.414C796.167 198.014 795.723 198.446 794.835 198.71C795.099 199.07 795.231 199.598 795.231 200.294C795.231 201.314 794.895 202.094 794.223 202.634C793.563 203.162 792.735 203.426 791.739 203.426ZM793.251 198.656C792.855 198.308 792.351 198.134 791.739 198.134C791.127 198.134 790.617 198.308 790.209 198.656C789.801 198.992 789.597 199.514 789.597 200.222C789.597 200.93 789.801 201.458 790.209 201.806C790.617 202.142 791.127 202.31 791.739 202.31C792.351 202.31 792.855 202.142 793.251 201.806C793.659 201.458 793.863 200.93 793.863 200.222C793.863 199.514 793.659 198.992 793.251 198.656Z" fill="black"/>
<defs>
<filter id="filter0_d" x="179" y="174" width="83" height="58" filterUnits="userSpaceOnUse" color-interpolation-filters="sRGB">
<feFlood flood-opacity="0" result="BackgroundImageFix"/>
<feColorMatrix in="SourceAlpha" type="matrix" values="0 0 0 0 0 0 0 0 0 0 0 0 0 0 0 0 0 0 127 0"/>
<feOffset dy="4"/>
<feGaussianBlur stdDeviation="2"/>
<feColorMatrix type="matrix" values="0 0 0 0 0 0 0 0 0 0 0 0 0 0 0 0 0 0 0.25 0"/>
<feBlend mode="normal" in2="BackgroundImageFix" result="effect1_dropShadow"/>
<feBlend mode="normal" in="SourceGraphic" in2="effect1_dropShadow" result="shape"/>
</filter>
<filter id="filter1_d" x="254" y="174" width="83" height="58" filterUnits="userSpaceOnUse" color-interpolation-filters="sRGB">
<feFlood flood-opacity="0" result="BackgroundImageFix"/>
<feColorMatrix in="SourceAlpha" type="matrix" values="0 0 0 0 0 0 0 0 0 0 0 0 0 0 0 0 0 0 127 0"/>
<feOffset dy="4"/>
<feGaussianBlur stdDeviation="2"/>
<feColorMatrix type="matrix" values="0 0 0 0 0 0 0 0 0 0 0 0 0 0 0 0 0 0 0.25 0"/>
<feBlend mode="normal" in2="BackgroundImageFix" result="effect1_dropShadow"/>
<feBlend mode="normal" in="SourceGraphic" in2="effect1_dropShadow" result="shape"/>
</filter>
<filter id="filter2_d" x="104" y="174" width="83" height="58" filterUnits="userSpaceOnUse" color-interpolation-filters="sRGB">
<feFlood flood-opacity="0" result="BackgroundImageFix"/>
<feColorMatrix in="SourceAlpha" type="matrix" values="0 0 0 0 0 0 0 0 0 0 0 0 0 0 0 0 0 0 127 0"/>
<feOffset dy="4"/>
<feGaussianBlur stdDeviation="2"/>
<feColorMatrix type="matrix" values="0 0 0 0 0 0 0 0 0 0 0 0 0 0 0 0 0 0 0.25 0"/>
<feBlend mode="normal" in2="BackgroundImageFix" result="effect1_dropShadow"/>
<feBlend mode="normal" in="SourceGraphic" in2="effect1_dropShadow" result="shape"/>
</filter>
<filter id="filter3_d" x="31" y="174" width="83" height="58" filterUnits="userSpaceOnUse" color-interpolation-filters="sRGB">
<feFlood flood-opacity="0" result="BackgroundImageFix"/>
<feColorMatrix in="SourceAlpha" type="matrix" values="0 0 0 0 0 0 0 0 0 0 0 0 0 0 0 0 0 0 127 0"/>
<feOffset dy="4"/>
<feGaussianBlur stdDeviation="2"/>
<feColorMatrix type="matrix" values="0 0 0 0 0 0 0 0 0 0 0 0 0 0 0 0 0 0 0.25 0"/>
<feBlend mode="normal" in2="BackgroundImageFix" result="effect1_dropShadow"/>
<feBlend mode="normal" in="SourceGraphic" in2="effect1_dropShadow" result="shape"/>
</filter>
<filter id="filter4_d" x="609" y="174" width="58" height="58" filterUnits="userSpaceOnUse" color-interpolation-filters="sRGB">
<feFlood flood-opacity="0" result="BackgroundImageFix"/>
<feColorMatrix in="SourceAlpha" type="matrix" values="0 0 0 0 0 0 0 0 0 0 0 0 0 0 0 0 0 0 127 0"/>
<feOffset dy="4"/>
<feGaussianBlur stdDeviation="2"/>
<feColorMatrix type="matrix" values="0 0 0 0 0 0 0 0 0 0 0 0 0 0 0 0 0 0 0.25 0"/>
<feBlend mode="normal" in2="BackgroundImageFix" result="effect1_dropShadow"/>
<feBlend mode="normal" in="SourceGraphic" in2="effect1_dropShadow" result="shape"/>
</filter>
<filter id="filter5_d" x="659" y="174" width="158" height="58" filterUnits="userSpaceOnUse" color-interpolation-filters="sRGB">
<feFlood flood-opacity="0" result="BackgroundImageFix"/>
<feColorMatrix in="SourceAlpha" type="matrix" values="0 0 0 0 0 0 0 0 0 0 0 0 0 0 0 0 0 0 127 0"/>
<feOffset dy="4"/>
<feGaussianBlur stdDeviation="2"/>
<feColorMatrix type="matrix" values="0 0 0 0 0 0 0 0 0 0 0 0 0 0 0 0 0 0 0.25 0"/>
<feBlend mode="normal" in2="BackgroundImageFix" result="effect1_dropShadow"/>
<feBlend mode="normal" in="SourceGraphic" in2="effect1_dropShadow" result="shape"/>
</filter>
<filter id="filter6_d" x="560" y="174" width="58" height="58" filterUnits="userSpaceOnUse" color-interpolation-filters="sRGB">
<feFlood flood-opacity="0" result="BackgroundImageFix"/>
<feColorMatrix in="SourceAlpha" type="matrix" values="0 0 0 0 0 0 0 0 0 0 0 0 0 0 0 0 0 0 127 0"/>
<feOffset dy="4"/>
<feGaussianBlur stdDeviation="2"/>
<feColorMatrix type="matrix" values="0 0 0 0 0 0 0 0 0 0 0 0 0 0 0 0 0 0 0.25 0"/>
<feBlend mode="normal" in2="BackgroundImageFix" result="effect1_dropShadow"/>
<feBlend mode="normal" in="SourceGraphic" in2="effect1_dropShadow" result="shape"/>
</filter>
<filter id="filter7_d" x="511" y="174" width="58" height="58" filterUnits="userSpaceOnUse" color-interpolation-filters="sRGB">
<feFlood flood-opacity="0" result="BackgroundImageFix"/>
<feColorMatrix in="SourceAlpha" type="matrix" values="0 0 0 0 0 0 0 0 0 0 0 0 0 0 0 0 0 0 127 0"/>
<feOffset dy="4"/>
<feGaussianBlur stdDeviation="2"/>
<feColorMatrix type="matrix" values="0 0 0 0 0 0 0 0 0 0 0 0 0 0 0 0 0 0 0.25 0"/>
<feBlend mode="normal" in2="BackgroundImageFix" result="effect1_dropShadow"/>
<feBlend mode="normal" in="SourceGraphic" in2="effect1_dropShadow" result="shape"/>
</filter>
</defs>
</svg>
