
<svg width="406" height="356" viewBox="0 0 406 356" fill="none" xmlns="http://www.w3.org/2000/svg">
<rect width="406" height="356" fill="white"/>
<path d="M251 238.085C252.228 236.513 257.819 228.878 257.872 230.144C257.942 231.82 256.645 238.927 259.857 238.009C261.718 237.477 268.552 225.743 268.868 234.267C268.961 236.793 269.383 246.154 272.38 241.445C274.262 238.487 277.114 228.547 277.114 232.053C277.114 234.606 281.143 247.8 284.292 244.652C287.128 241.816 289.139 238.457 291.164 235.031C291.468 234.517 294.7 228.532 294.905 229.457C295.347 231.446 296.842 246.963 298.036 247.095C303.166 247.665 302.954 230.684 306.282 229.686C306.886 229.505 307.779 241.949 309.566 239.765C312.742 235.883 313.71 230.557 316.133 226.25C316.702 225.237 320.082 237.731 320.485 239.612C323.235 252.445 325.043 237.504 326.517 231.977C329.798 219.672 327.986 229.335 330.03 234.649C330.614 236.17 330.237 238.827 331.404 239.994C332.113 240.703 334.751 229.097 335.909 233.962C336.369 235.894 337.393 250.302 338.276 250.302C341.188 250.302 344.115 238.785 344.461 236.711" stroke="#93227E" stroke-width="16" stroke-linecap="round" stroke-linejoin="round"/>
<path d="M67.968 243.143C68.9235 241.393 73.1969 232.948 73.4552 234.189C73.797 235.831 73.6746 243.054 76.6947 241.626C78.444 240.798 83.2756 228.108 84.9753 236.467C85.479 238.944 87.4197 248.111 89.6097 242.977C90.9851 239.752 92.1803 229.48 92.7512 232.939C93.167 235.458 99.2908 247.82 101.885 244.201C104.221 240.941 105.659 237.3 107.098 233.589C107.314 233.033 109.529 226.601 109.882 227.48C110.642 229.371 114.644 244.437 115.843 244.374C120.998 244.101 118.023 227.381 121.145 225.854C121.711 225.577 124.618 237.709 126.026 235.264C128.527 230.917 128.615 225.504 130.304 220.86C130.701 219.767 136.07 231.545 136.774 233.335C141.577 245.549 140.928 230.512 141.482 224.819C142.716 212.144 142.501 221.973 145.383 226.884C146.208 228.289 146.268 230.972 147.61 231.933C148.425 232.518 149.137 220.637 151.072 225.248C151.841 227.079 155.197 241.129 156.069 240.985C158.941 240.511 159.954 228.671 159.958 226.568" stroke="#93227E" stroke-width="16" stroke-linecap="round" stroke-linejoin="round"/>
<path d="M188.968 243.143C189.924 241.393 194.197 232.948 194.455 234.189C194.797 235.831 194.675 243.054 197.695 241.626C199.444 240.798 204.276 228.108 205.975 236.467C206.479 238.944 208.42 248.111 210.61 242.977C211.985 239.752 213.18 229.48 213.751 232.939C214.167 235.458 220.291 247.82 222.885 244.201C225.221 240.941 226.659 237.3 228.098 233.589C228.314 233.033 230.529 226.601 230.882 227.48C231.642 229.371 235.644 244.437 236.843 244.374C241.998 244.101 239.023 227.381 242.145 225.854C242.711 225.577 245.618 237.709 247.026 235.264C249.527 230.917 249.615 225.504 251.304 220.86C251.701 219.767 257.07 231.545 257.774 233.335C262.577 245.549 261.928 230.512 262.482 224.819C263.716 212.144 263.501 221.973 266.383 226.884C267.208 228.289 267.268 230.972 268.61 231.933C269.425 232.518 270.137 220.637 272.072 225.248C272.841 227.079 276.197 241.129 277.069 240.985C279.941 240.511 280.954 228.671 280.958 226.568" stroke="#93227E" stroke-width="16" stroke-linecap="round" stroke-linejoin="round"/>
<path d="M350.607 138.634C352.001 140.061 358.82 146.624 357.558 146.506C355.888 146.352 349.019 144.116 349.499 147.422C349.776 149.337 360.491 157.679 352.001 156.852C349.485 156.606 340.152 155.773 344.418 159.373C347.098 161.633 356.567 165.789 353.093 165.32C350.562 164.979 336.948 167.207 339.647 170.748C342.078 173.938 345.138 176.381 348.263 178.845C348.731 179.215 354.23 183.219 353.286 183.299C351.255 183.471 335.679 182.877 335.387 184.042C334.136 189.05 350.993 191.111 351.537 194.543C351.636 195.165 339.185 194.386 341.11 196.449C344.532 200.115 349.68 201.787 353.625 204.764C354.553 205.465 341.719 207.142 339.801 207.29C326.715 208.299 341.281 212.09 346.561 214.29C358.316 219.187 348.982 216.098 343.443 217.413C341.857 217.789 339.274 217.06 337.962 218.06C337.164 218.668 348.313 222.834 343.337 223.332C341.361 223.529 326.945 222.617 326.827 223.492C326.438 226.377 337.46 230.819 339.469 231.439" stroke="#93227E" stroke-width="16" stroke-linecap="round" stroke-linejoin="round"/>
<rect x="57.5" y="127.5" width="295" height="116" rx="7.5" fill="#93227E" stroke="black" stroke-width="5"/>
<path d="M66 231C67.2523 227.433 67.6545 223.765 67.6545 219.966C67.6545 217.277 67.1492 213.85 68.0835 211.383C69.3708 207.985 66 200.63 68.2061 197.42C68.2061 193.799 66 186.556 68.2061 186.556C68.2061 182.302 66 180.688 66 176.344C66 173.619 68.958 166.422 67.9303 163.909C66.3914 160.145 67.6545 153.973 67.6545 149.775C67.6545 146.029 66.382 141.956 67.1337 138.196C67.386 136.934 90.8484 138.196 93.2431 138.196C119.803 138.196 133.864 135.505 159.785 138.196C164.988 138.196 176.272 138.196 176.272 138.196C189.58 138.196 192.91 138.196 201.101 138.196C215.815 138.196 231.707 138.196 246.389 138.196C267.725 138.196 293.267 138.196 293.267 138.196C296.044 138.196 313.13 138.196 313.13 138.196L326.56 138.741C328.543 137.739 330.911 138.853 332.933 139.013C335.26 139.198 336.832 138.434 339 138.434" stroke="#721861" stroke-width="17" stroke-linecap="round" stroke-linejoin="round"/>
<g filter="url(#filter0_d)">
<rect x="205" y="165" width="50" height="50" fill="#ED8B00"/>
<rect x="206" y="166" width="48" height="48" stroke="black" stroke-width="2"/>
</g>
<path d="M211 172C209.272 183.839 210.308 196.93 210.308 209" stroke="#FFB200" stroke-width="7" stroke-linecap="round" stroke-linejoin="round"/>
<path d="M211 171C223.677 171 236.523 170 249 170" stroke="#FFB200" stroke-width="7" stroke-linecap="round" stroke-linejoin="round"/>
<g filter="url(#filter1_d)">
<rect x="280" y="165" width="50" height="50" fill="#DB5B93"/>
<rect x="281" y="166" width="48" height="48" stroke="black" stroke-width="2"/>
</g>
<path d="M286 172C284.272 183.839 285.308 196.93 285.308 209" stroke="#F187B6" stroke-width="7" stroke-linecap="round" stroke-linejoin="round"/>
<path d="M286 171C298.677 171 311.523 170 324 170" stroke="#F187B6" stroke-width="7" stroke-linecap="round" stroke-linejoin="round"/>
<g filter="url(#filter2_d)">
<rect x="130" y="165" width="50" height="50" fill="#008744"/>
<rect x="131" y="166" width="48" height="48" stroke="black" stroke-width="2"/>
</g>
<path d="M136 172C134.272 183.839 135.308 196.93 135.308 209" stroke="#229F61" stroke-width="7" stroke-linecap="round" stroke-linejoin="round"/>
<path d="M136 171C148.677 171 161.523 170 174 170" stroke="#229F61" stroke-width="7" stroke-linecap="round" stroke-linejoin="round"/>
<g filter="url(#filter3_d)">
<rect x="57" y="165" width="50" height="50" fill="#0761B4"/>
<rect x="58" y="166" width="48" height="48" stroke="black" stroke-width="2"/>
</g>
<path d="M63 172C61.272 183.839 62.3081 196.93 62.3081 209" stroke="#0084FF" stroke-width="7" stroke-linecap="round" stroke-linejoin="round"/>
<path d="M63 171C75.6773 171 88.5225 170 101 170" stroke="#0084FF" stroke-width="7" stroke-linecap="round" stroke-linejoin="round"/>
<path d="M83.4977 253C86.0627 256.386 96.3268 265.37 88.3082 265.37C84.6561 265.37 79.5455 270.525 78 273.616" stroke="white" stroke-width="2" stroke-linecap="round" stroke-linejoin="round"/>
<line x1="58.5" y1="69" x2="58.5" y2="310" stroke="black" stroke-width="3" stroke-dasharray="10 4"/>
<line x1="356.5" y1="64" x2="356.5" y2="305" stroke="black" stroke-width="3" stroke-dasharray="10 4"/>
<path d="M355.707 91.7071C356.098 91.3166 356.098 90.6834 355.707 90.2929L349.343 83.9289C348.953 83.5384 348.319 83.5384 347.929 83.9289C347.538 84.3195 347.538 84.9526 347.929 85.3432L353.586 91L347.929 96.6569C347.538 97.0474 347.538 97.6806 347.929 98.0711C348.319 98.4616 348.953 98.4616 349.343 98.0711L355.707 91.7071ZM271 92L276 92L276 90L271 90L271 92ZM280 92L290 92L290 90L280 90L280 92ZM294 92L304 92L304 90L294 90L294 92ZM308 92L318 92L318 90L308 90L308 92ZM322 92L332 92L332 90L322 90L322 92ZM336 92L346 92L346 90L336 90L336 92ZM350 92L355 92L355 90L350 90L350 92ZM356.414 92.4142C357.195 91.6332 357.195 90.3668 356.414 89.5858L343.686 76.8579C342.905 76.0768 341.639 76.0768 340.858 76.8579C340.077 77.6389 340.077 78.9052 340.858 79.6863L352.172 91L340.858 102.314C340.077 103.095 340.077 104.361 340.858 105.142C341.639 105.923 342.905 105.923 343.686 105.142L356.414 92.4142ZM271 93L276 93L276 89L271 89L271 93ZM280 93L290 93L290 89L280 89L280 93ZM294 93L304 93L304 89L294 89L294 93ZM308 93L318 93L318 89L308 89L308 93ZM322 93L332 93L332 89L322 89L322 93ZM336 93L346 93L346 89L336 89L336 93ZM350 93L355 93L355 89L350 89L350 93Z" fill="black"/>
<path d="M62.2918 90.4099C61.9019 90.801 61.903 91.4342 62.2942 91.8241L68.6688 98.1773C69.06 98.5672 69.6932 98.5662 70.083 98.175C70.4729 97.7838 70.4718 97.1506 70.0807 96.7608L64.4143 91.1134L70.0617 85.4471C70.4515 85.0559 70.4505 84.4227 70.0593 84.0329C69.6681 83.643 69.035 83.6441 68.6451 84.0352L62.2918 90.4099ZM131.998 90L127.07 90.0083L127.073 92.0083L132.002 92L131.998 90ZM123.127 90.0149L113.27 90.0314L113.273 92.0314L123.13 92.0149L123.127 90.0149ZM109.327 90.038L99.4698 90.0546L99.4732 92.0546L109.33 92.038L109.327 90.038ZM95.527 90.0612L85.6698 90.0777L85.6732 92.0777L95.5303 92.0612L95.527 90.0612ZM81.727 90.0844L71.8698 90.1009L71.8732 92.1009L81.7303 92.0844L81.727 90.0844ZM67.927 90.1075L62.9984 90.1158L63.0018 92.1158L67.9304 92.1075L67.927 90.1075ZM61.5835 89.7039C60.8038 90.4863 60.8059 91.7526 61.5883 92.5324L74.3375 105.239C75.1199 106.019 76.3862 106.017 77.1659 105.234C77.9457 104.452 77.9436 103.185 77.1612 102.406L65.8285 91.111L77.1232 79.7784C77.903 78.996 77.9008 77.7297 77.1185 76.9499C76.3361 76.1702 75.0698 76.1723 74.2901 76.9547L61.5835 89.7039ZM131.997 89L127.068 89.0083L127.075 93.0083L132.003 93L131.997 89ZM123.125 89.0149L113.268 89.0314L113.275 93.0314L123.132 93.0149L123.125 89.0149ZM109.325 89.038L99.4681 89.0546L99.4748 93.0546L109.332 93.038L109.325 89.038ZM95.5253 89.0612L85.6681 89.0777L85.6749 93.0777L95.532 93.0612L95.5253 89.0612ZM81.7253 89.0844L71.8682 89.1009L71.8749 93.1009L81.732 93.0844L81.7253 89.0844ZM67.9253 89.1075L62.9967 89.1158L63.0035 93.1158L67.932 93.1075L67.9253 89.1075Z" fill="black"/>
<path d="M172.4 85.86C172.4 85.2733 172.747 84.6933 173.44 84.12C174.133 83.5333 175.207 83.24 176.66 83.24C178.113 83.24 179.187 83.58 179.88 84.26C180.573 84.94 180.92 85.6933 180.92 86.52C180.92 87.3467 180.7 88.0467 180.26 88.62C179.833 89.18 179.287 89.5533 178.62 89.74C179.447 89.9133 180.153 90.2733 180.74 90.82C181.327 91.3667 181.62 92.0933 181.62 93C181.62 94.2267 181.093 95.2267 180.04 96C179 96.7733 177.767 97.16 176.34 97.16C174.927 97.16 173.813 96.9733 173 96.6C172.2 96.2267 171.8 95.7667 171.8 95.22C171.8 94.6733 172.1 94.3133 172.7 94.14C173.087 95.1533 174.24 95.66 176.16 95.66C177.16 95.66 178.04 95.4333 178.8 94.98C179.56 94.5267 179.94 93.9067 179.94 93.12C179.94 92.32 179.587 91.7267 178.88 91.34C178.173 90.94 177.327 90.74 176.34 90.74H175.5C174.9 90.74 174.6 90.5 174.6 90.02C174.6 89.5 174.9 89.24 175.5 89.24H176.34C177.167 89.24 177.853 89.0333 178.4 88.62C178.96 88.1933 179.24 87.66 179.24 87.02C179.24 86.3667 179.007 85.8267 178.54 85.4C178.087 84.96 177.427 84.74 176.56 84.74C175.707 84.74 175.02 84.92 174.5 85.28C173.993 85.64 173.647 86.1267 173.46 86.74C172.753 86.74 172.4 86.4467 172.4 85.86ZM185.324 85.04C186.404 83.84 187.771 83.24 189.424 83.24C191.077 83.24 192.437 83.84 193.504 85.04C194.571 86.2267 195.104 87.9333 195.104 90.16C195.104 92.3733 194.564 94.0933 193.484 95.32C192.417 96.5467 191.064 97.16 189.424 97.16C187.784 97.16 186.417 96.5467 185.324 95.32C184.244 94.0933 183.704 92.3733 183.704 90.16C183.704 87.9467 184.244 86.24 185.324 85.04ZM193.224 90.22C193.224 88.5133 192.857 87.1867 192.124 86.24C191.404 85.28 190.497 84.8 189.404 84.8C188.311 84.8 187.404 85.28 186.684 86.24C185.977 87.1867 185.624 88.5133 185.624 90.22C185.624 91.9133 185.957 93.24 186.624 94.2C187.291 95.1467 188.217 95.62 189.404 95.62C190.604 95.62 191.537 95.1467 192.204 94.2C192.884 93.24 193.224 91.9133 193.224 90.22ZM199.133 85.04C200.213 83.84 201.579 83.24 203.233 83.24C204.886 83.24 206.246 83.84 207.313 85.04C208.379 86.2267 208.913 87.9333 208.913 90.16C208.913 92.3733 208.373 94.0933 207.293 95.32C206.226 96.5467 204.873 97.16 203.233 97.16C201.593 97.16 200.226 96.5467 199.133 95.32C198.053 94.0933 197.513 92.3733 197.513 90.16C197.513 87.9467 198.053 86.24 199.133 85.04ZM207.033 90.22C207.033 88.5133 206.666 87.1867 205.933 86.24C205.213 85.28 204.306 84.8 203.213 84.8C202.119 84.8 201.213 85.28 200.493 86.24C199.786 87.1867 199.433 88.5133 199.433 90.22C199.433 91.9133 199.766 93.24 200.433 94.2C201.099 95.1467 202.026 95.62 203.213 95.62C204.413 95.62 205.346 95.1467 206.013 94.2C206.693 93.24 207.033 91.9133 207.033 90.22ZM212.321 87.14H212.461C212.968 87.14 213.221 87.3733 213.221 87.84V88.62C213.501 88.1533 213.921 87.76 214.481 87.44C215.041 87.12 215.648 86.96 216.301 86.96C217.541 86.96 218.541 87.38 219.301 88.22C220.074 89.0467 220.461 90.3133 220.461 92.02C220.461 93.7133 220.008 94.9933 219.101 95.86C218.208 96.7267 217.108 97.16 215.801 97.16C214.908 97.16 214.048 96.9333 213.221 96.48V100.78C213.221 101.273 212.968 101.52 212.461 101.52H212.321C211.814 101.52 211.561 101.273 211.561 100.78V87.88C211.561 87.3867 211.814 87.14 212.321 87.14ZM218.801 92C218.801 90.7333 218.534 89.8133 218.001 89.24C217.468 88.6533 216.748 88.36 215.841 88.36C214.934 88.36 214.268 88.76 213.841 89.56C213.428 90.36 213.221 91.4 213.221 92.68V95.18C213.354 95.2733 213.681 95.4 214.201 95.56C214.734 95.7067 215.268 95.78 215.801 95.78C216.694 95.78 217.414 95.4667 217.961 94.84C218.521 94.2133 218.801 93.2667 218.801 92ZM223.187 87.14H223.807C224.141 87.14 224.414 87.3 224.627 87.62L226.887 91.08C227.461 90.3733 228.227 89.22 229.187 87.62C229.387 87.3 229.647 87.14 229.967 87.14H230.327C230.714 87.14 230.907 87.2933 230.907 87.6C230.907 87.7067 230.881 87.8067 230.827 87.9C230.067 89.1933 229.054 90.58 227.787 92.06L230.927 96.24C231.034 96.3867 231.087 96.52 231.087 96.64C231.087 96.88 230.947 97 230.667 97H229.887C229.554 97 229.254 96.8133 228.987 96.44L226.727 93.18C226.514 93.3933 226.267 93.7067 225.987 94.12C225.707 94.5333 225.501 94.8333 225.367 95.02C224.967 95.62 224.647 96.12 224.407 96.52C224.194 96.84 223.921 97 223.587 97H223.227C223.067 97 222.934 96.9467 222.827 96.84C222.721 96.7333 222.667 96.62 222.667 96.5C222.667 96.3667 222.707 96.24 222.787 96.12C223.694 94.7867 224.727 93.4733 225.887 92.18L222.767 87.9C222.687 87.8067 222.647 87.7 222.647 87.58C222.647 87.46 222.694 87.36 222.787 87.28C222.894 87.1867 223.027 87.14 223.187 87.14Z" fill="black"/>
<path d="M67.998 184.778H69.852C70.356 184.778 70.608 184.994 70.608 185.426V196.316C70.608 196.772 70.356 197 69.852 197H69.726C69.222 197 68.97 196.772 68.97 196.316V186.128H67.998C67.506 186.128 67.26 185.906 67.26 185.462C67.26 185.006 67.506 184.778 67.998 184.778ZM74.4091 186.236C75.3811 185.156 76.6111 184.616 78.0991 184.616C79.5871 184.616 80.8111 185.156 81.7711 186.236C82.7311 187.304 83.2111 188.84 83.2111 190.844C83.2111 192.836 82.7251 194.384 81.7531 195.488C80.7931 196.592 79.5751 197.144 78.0991 197.144C76.6231 197.144 75.3931 196.592 74.4091 195.488C73.4371 194.384 72.9511 192.836 72.9511 190.844C72.9511 188.852 73.4371 187.316 74.4091 186.236ZM81.5191 190.898C81.5191 189.362 81.1891 188.168 80.5291 187.316C79.8811 186.452 79.0651 186.02 78.0811 186.02C77.0971 186.02 76.2811 186.452 75.6331 187.316C74.9971 188.168 74.6791 189.362 74.6791 190.898C74.6791 192.422 74.9791 193.616 75.5791 194.48C76.1791 195.332 77.0131 195.758 78.0811 195.758C79.1611 195.758 80.0011 195.332 80.6011 194.48C81.2131 193.616 81.5191 192.422 81.5191 190.898ZM86.8368 186.236C87.8088 185.156 89.0388 184.616 90.5268 184.616C92.0148 184.616 93.2388 185.156 94.1988 186.236C95.1588 187.304 95.6388 188.84 95.6388 190.844C95.6388 192.836 95.1528 194.384 94.1808 195.488C93.2208 196.592 92.0028 197.144 90.5268 197.144C89.0508 197.144 87.8208 196.592 86.8368 195.488C85.8648 194.384 85.3788 192.836 85.3788 190.844C85.3788 188.852 85.8648 187.316 86.8368 186.236ZM93.9468 190.898C93.9468 189.362 93.6168 188.168 92.9568 187.316C92.3088 186.452 91.4928 186.02 90.5088 186.02C89.5248 186.02 88.7088 186.452 88.0608 187.316C87.4248 188.168 87.1068 189.362 87.1068 190.898C87.1068 192.422 87.4068 193.616 88.0068 194.48C88.6068 195.332 89.4408 195.758 90.5088 195.758C91.5888 195.758 92.4288 195.332 93.0288 194.48C93.6408 193.616 93.9468 192.422 93.9468 190.898Z" fill="black"/>
<path d="M143.998 184.778H145.852C146.356 184.778 146.608 184.994 146.608 185.426V196.316C146.608 196.772 146.356 197 145.852 197H145.726C145.222 197 144.97 196.772 144.97 196.316V186.128H143.998C143.506 186.128 143.26 185.906 143.26 185.462C143.26 185.006 143.506 184.778 143.998 184.778ZM150.409 186.236C151.381 185.156 152.611 184.616 154.099 184.616C155.587 184.616 156.811 185.156 157.771 186.236C158.731 187.304 159.211 188.84 159.211 190.844C159.211 192.836 158.725 194.384 157.753 195.488C156.793 196.592 155.575 197.144 154.099 197.144C152.623 197.144 151.393 196.592 150.409 195.488C149.437 194.384 148.951 192.836 148.951 190.844C148.951 188.852 149.437 187.316 150.409 186.236ZM157.519 190.898C157.519 189.362 157.189 188.168 156.529 187.316C155.881 186.452 155.065 186.02 154.081 186.02C153.097 186.02 152.281 186.452 151.633 187.316C150.997 188.168 150.679 189.362 150.679 190.898C150.679 192.422 150.979 193.616 151.579 194.48C152.179 195.332 153.013 195.758 154.081 195.758C155.161 195.758 156.001 195.332 156.601 194.48C157.213 193.616 157.519 192.422 157.519 190.898ZM162.837 186.236C163.809 185.156 165.039 184.616 166.527 184.616C168.015 184.616 169.239 185.156 170.199 186.236C171.159 187.304 171.639 188.84 171.639 190.844C171.639 192.836 171.153 194.384 170.181 195.488C169.221 196.592 168.003 197.144 166.527 197.144C165.051 197.144 163.821 196.592 162.837 195.488C161.865 194.384 161.379 192.836 161.379 190.844C161.379 188.852 161.865 187.316 162.837 186.236ZM169.947 190.898C169.947 189.362 169.617 188.168 168.957 187.316C168.309 186.452 167.493 186.02 166.509 186.02C165.525 186.02 164.709 186.452 164.061 187.316C163.425 188.168 163.107 189.362 163.107 190.898C163.107 192.422 163.407 193.616 164.007 194.48C164.607 195.332 165.441 195.758 166.509 195.758C167.589 195.758 168.429 195.332 169.029 194.48C169.641 193.616 169.947 192.422 169.947 190.898Z" fill="black"/>
<path d="M217.998 184.778H219.852C220.356 184.778 220.608 184.994 220.608 185.426V196.316C220.608 196.772 220.356 197 219.852 197H219.726C219.222 197 218.97 196.772 218.97 196.316V186.128H217.998C217.506 186.128 217.26 185.906 217.26 185.462C217.26 185.006 217.506 184.778 217.998 184.778ZM224.409 186.236C225.381 185.156 226.611 184.616 228.099 184.616C229.587 184.616 230.811 185.156 231.771 186.236C232.731 187.304 233.211 188.84 233.211 190.844C233.211 192.836 232.725 194.384 231.753 195.488C230.793 196.592 229.575 197.144 228.099 197.144C226.623 197.144 225.393 196.592 224.409 195.488C223.437 194.384 222.951 192.836 222.951 190.844C222.951 188.852 223.437 187.316 224.409 186.236ZM231.519 190.898C231.519 189.362 231.189 188.168 230.529 187.316C229.881 186.452 229.065 186.02 228.081 186.02C227.097 186.02 226.281 186.452 225.633 187.316C224.997 188.168 224.679 189.362 224.679 190.898C224.679 192.422 224.979 193.616 225.579 194.48C226.179 195.332 227.013 195.758 228.081 195.758C229.161 195.758 230.001 195.332 230.601 194.48C231.213 193.616 231.519 192.422 231.519 190.898ZM236.837 186.236C237.809 185.156 239.039 184.616 240.527 184.616C242.015 184.616 243.239 185.156 244.199 186.236C245.159 187.304 245.639 188.84 245.639 190.844C245.639 192.836 245.153 194.384 244.181 195.488C243.221 196.592 242.003 197.144 240.527 197.144C239.051 197.144 237.821 196.592 236.837 195.488C235.865 194.384 235.379 192.836 235.379 190.844C235.379 188.852 235.865 187.316 236.837 186.236ZM243.947 190.898C243.947 189.362 243.617 188.168 242.957 187.316C242.309 186.452 241.493 186.02 240.509 186.02C239.525 186.02 238.709 186.452 238.061 187.316C237.425 188.168 237.107 189.362 237.107 190.898C237.107 192.422 237.407 193.616 238.007 194.48C238.607 195.332 239.441 195.758 240.509 195.758C241.589 195.758 242.429 195.332 243.029 194.48C243.641 193.616 243.947 192.422 243.947 190.898Z" fill="black"/>
<path d="M292.998 184.778H294.852C295.356 184.778 295.608 184.994 295.608 185.426V196.316C295.608 196.772 295.356 197 294.852 197H294.726C294.222 197 293.97 196.772 293.97 196.316V186.128H292.998C292.506 186.128 292.26 185.906 292.26 185.462C292.26 185.006 292.506 184.778 292.998 184.778ZM299.409 186.236C300.381 185.156 301.611 184.616 303.099 184.616C304.587 184.616 305.811 185.156 306.771 186.236C307.731 187.304 308.211 188.84 308.211 190.844C308.211 192.836 307.725 194.384 306.753 195.488C305.793 196.592 304.575 197.144 303.099 197.144C301.623 197.144 300.393 196.592 299.409 195.488C298.437 194.384 297.951 192.836 297.951 190.844C297.951 188.852 298.437 187.316 299.409 186.236ZM306.519 190.898C306.519 189.362 306.189 188.168 305.529 187.316C304.881 186.452 304.065 186.02 303.081 186.02C302.097 186.02 301.281 186.452 300.633 187.316C299.997 188.168 299.679 189.362 299.679 190.898C299.679 192.422 299.979 193.616 300.579 194.48C301.179 195.332 302.013 195.758 303.081 195.758C304.161 195.758 305.001 195.332 305.601 194.48C306.213 193.616 306.519 192.422 306.519 190.898ZM311.837 186.236C312.809 185.156 314.039 184.616 315.527 184.616C317.015 184.616 318.239 185.156 319.199 186.236C320.159 187.304 320.639 188.84 320.639 190.844C320.639 192.836 320.153 194.384 319.181 195.488C318.221 196.592 317.003 197.144 315.527 197.144C314.051 197.144 312.821 196.592 311.837 195.488C310.865 194.384 310.379 192.836 310.379 190.844C310.379 188.852 310.865 187.316 311.837 186.236ZM318.947 190.898C318.947 189.362 318.617 188.168 317.957 187.316C317.309 186.452 316.493 186.02 315.509 186.02C314.525 186.02 313.709 186.452 313.061 187.316C312.425 188.168 312.107 189.362 312.107 190.898C312.107 192.422 312.407 193.616 313.007 194.48C313.607 195.332 314.441 195.758 315.509 195.758C316.589 195.758 317.429 195.332 318.029 194.48C318.641 193.616 318.947 192.422 318.947 190.898Z" fill="black"/>
<path d="M0.954 283.592C0.954 282.776 1.302 282.134 1.998 281.666C2.706 281.186 3.492 280.946 4.356 280.946C5.22 280.946 5.886 281.072 6.354 281.324C6.834 281.564 7.074 281.852 7.074 282.188C7.074 282.524 6.84 282.77 6.372 282.926C6.288 282.734 6.054 282.554 5.67 282.386C5.298 282.218 4.836 282.134 4.284 282.134C3.732 282.134 3.276 282.242 2.916 282.458C2.568 282.662 2.394 282.956 2.394 283.34C2.394 283.712 2.526 284 2.79 284.204C3.054 284.408 3.672 284.624 4.644 284.852C5.628 285.068 6.378 285.386 6.894 285.806C7.41 286.226 7.668 286.814 7.668 287.57C7.668 288.326 7.32 288.944 6.624 289.424C5.928 289.892 5.07 290.126 4.05 290.126C3.042 290.126 2.232 290 1.62 289.748C1.02 289.484 0.72 289.142 0.72 288.722C0.72 288.302 0.918 287.996 1.314 287.804C1.482 288.128 1.806 288.404 2.286 288.632C2.766 288.86 3.366 288.974 4.086 288.974C4.806 288.974 5.352 288.842 5.724 288.578C6.108 288.314 6.3 287.99 6.3 287.606C6.3 287.21 6.126 286.904 5.778 286.688C5.442 286.46 4.776 286.238 3.78 286.022C2.796 285.806 2.076 285.5 1.62 285.104C1.176 284.696 0.954 284.192 0.954 283.592ZM10.33 277.382H10.456C10.912 277.382 11.14 277.61 11.14 278.066V282.926C11.344 282.398 11.692 281.948 12.184 281.576C12.676 281.204 13.252 281.018 13.912 281.018C14.92 281.018 15.724 281.306 16.324 281.882C16.924 282.446 17.224 283.364 17.224 284.636V289.316C17.224 289.556 17.17 289.73 17.062 289.838C16.954 289.946 16.78 290 16.54 290H16.396C15.952 290 15.73 289.772 15.73 289.316V284.726C15.73 283.058 15.01 282.224 13.57 282.224C12.814 282.224 12.22 282.536 11.788 283.16C11.368 283.784 11.158 284.57 11.158 285.518V289.316C11.158 289.772 10.924 290 10.456 290H10.33C10.09 290 9.91603 289.946 9.80803 289.838C9.70003 289.73 9.64603 289.556 9.64603 289.316V278.066C9.64603 277.61 9.87403 277.382 10.33 277.382ZM20.4902 281.126H20.5982C21.0542 281.126 21.2822 281.348 21.2822 281.792V282.764C21.4862 282.308 21.8102 281.9 22.2542 281.54C22.7102 281.18 23.1962 281 23.7122 281C24.2282 281 24.6182 281.102 24.8822 281.306C25.1582 281.51 25.2962 281.762 25.2962 282.062C25.2962 282.35 25.1702 282.578 24.9182 282.746C24.5462 282.434 24.1502 282.278 23.7302 282.278C22.9862 282.278 22.3982 282.584 21.9662 283.196C21.5342 283.796 21.3182 284.552 21.3182 285.464V289.316C21.3182 289.556 21.2642 289.73 21.1562 289.838C21.0482 289.946 20.8742 290 20.6342 290H20.4902C20.2502 290 20.0762 289.946 19.9682 289.838C19.8602 289.73 19.8062 289.556 19.8062 289.316V281.792C19.8062 281.348 20.0342 281.126 20.4902 281.126ZM28.1087 281.126H28.2167C28.6727 281.126 28.9007 281.348 28.9007 281.792V289.316C28.9007 289.772 28.6727 290 28.2167 290H28.1087C27.6527 290 27.4247 289.772 27.4247 289.316V281.792C27.4247 281.348 27.6527 281.126 28.1087 281.126ZM27.1727 278.588C27.1727 278.312 27.2687 278.078 27.4607 277.886C27.6527 277.682 27.8807 277.58 28.1447 277.58C28.4207 277.58 28.6547 277.682 28.8467 277.886C29.0507 278.078 29.1527 278.312 29.1527 278.588C29.1527 278.852 29.0567 279.086 28.8647 279.29C28.6727 279.482 28.4387 279.578 28.1627 279.578C27.8867 279.578 27.6527 279.482 27.4607 279.29C27.2687 279.098 27.1727 278.864 27.1727 278.588ZM32.5136 281.126H32.6396C33.0956 281.126 33.3236 281.354 33.3236 281.81V282.692C33.5516 282.236 33.9116 281.834 34.4036 281.486C34.8956 281.138 35.4596 280.964 36.0956 280.964C37.0676 280.964 37.8596 281.258 38.4716 281.846C39.0956 282.422 39.4076 283.34 39.4076 284.6V289.316C39.4076 289.556 39.3536 289.73 39.2456 289.838C39.1376 289.946 38.9636 290 38.7236 290H38.5796C38.1356 290 37.9136 289.772 37.9136 289.316V284.654C37.9136 283.778 37.7276 283.154 37.3556 282.782C36.9836 282.41 36.4436 282.224 35.7356 282.224C35.0276 282.224 34.4516 282.512 34.0076 283.088C33.5636 283.664 33.3416 284.426 33.3416 285.374V289.316C33.3416 289.772 33.1076 290 32.6396 290H32.5136C32.2736 290 32.0996 289.946 31.9916 289.838C31.8836 289.73 31.8296 289.556 31.8296 289.316V281.81C31.8296 281.354 32.0576 281.126 32.5136 281.126ZM42.5692 277.382H42.6772C42.9172 277.382 43.0912 277.436 43.1992 277.544C43.3072 277.652 43.3612 277.826 43.3612 278.066V284.672C44.0692 284.18 44.7472 283.622 45.3952 282.998C46.0552 282.374 46.5532 281.906 46.8892 281.594C47.2372 281.282 47.5432 281.126 47.8072 281.126H48.3112C48.4552 281.126 48.5692 281.168 48.6532 281.252C48.7492 281.324 48.7972 281.414 48.7972 281.522C48.7972 281.918 47.4652 283.058 44.8012 284.942C45.4372 285.446 46.1692 286.142 46.9972 287.03C47.8372 287.918 48.4972 288.686 48.9772 289.334C49.0492 289.442 49.0852 289.544 49.0852 289.64C49.0852 289.88 48.9352 290 48.6352 290H48.2032C47.8192 290 47.5432 289.886 47.3752 289.658C46.1032 287.99 44.7652 286.58 43.3612 285.428V289.316C43.3612 289.556 43.3072 289.73 43.1992 289.838C43.0912 289.946 42.9172 290 42.6772 290H42.5692C42.3292 290 42.1552 289.946 42.0472 289.838C41.9392 289.73 41.8852 289.556 41.8852 289.316V278.066C41.8852 277.826 41.9392 277.652 42.0472 277.544C42.1552 277.436 42.3292 277.382 42.5692 277.382ZM50.793 288.974C50.793 288.626 50.907 288.344 51.135 288.128C51.363 287.912 51.639 287.804 51.963 287.804C52.299 287.804 52.581 287.912 52.809 288.128C53.037 288.344 53.151 288.626 53.151 288.974C53.151 289.322 53.037 289.604 52.809 289.82C52.581 290.036 52.299 290.144 51.963 290.144C51.639 290.144 51.363 290.036 51.135 289.82C50.907 289.604 50.793 289.322 50.793 288.974ZM50.793 282.89C50.793 282.542 50.907 282.26 51.135 282.044C51.363 281.828 51.639 281.72 51.963 281.72C52.299 281.72 52.581 281.828 52.809 282.044C53.037 282.26 53.151 282.542 53.151 282.89C53.151 283.238 53.037 283.52 52.809 283.736C52.581 283.952 52.299 284.06 51.963 284.06C51.639 284.06 51.363 283.952 51.135 283.736C50.907 283.52 50.793 283.238 50.793 282.89Z" fill="black"/>
<path d="M80.152 280.37C80.152 279.638 80.494 278.996 81.178 278.444C81.862 277.892 82.804 277.616 84.004 277.616C85.204 277.616 86.134 277.934 86.794 278.57C87.454 279.194 87.784 279.968 87.784 280.892C87.784 281.816 87.478 282.674 86.866 283.466C86.254 284.246 84.886 285.668 82.762 287.732C82.354 288.128 82.042 288.434 81.826 288.65H87.316C87.82 288.65 88.072 288.878 88.072 289.334C88.072 289.778 87.82 290 87.316 290H80.638C80.146 290 79.9 289.742 79.9 289.226C79.9 288.794 80.092 288.434 80.476 288.146C82.852 285.89 84.418 284.324 85.174 283.448C85.93 282.56 86.308 281.792 86.308 281.144C86.308 280.484 86.08 279.962 85.624 279.578C85.18 279.182 84.562 278.984 83.77 278.984C82.99 278.984 82.378 279.224 81.934 279.704C81.49 280.184 81.232 280.694 81.16 281.234C80.488 281.234 80.152 280.946 80.152 280.37Z" fill="black"/>
<path d="M156.998 277.778H158.852C159.356 277.778 159.608 277.994 159.608 278.426V289.316C159.608 289.772 159.356 290 158.852 290H158.726C158.222 290 157.97 289.772 157.97 289.316V279.128H156.998C156.506 279.128 156.26 278.906 156.26 278.462C156.26 278.006 156.506 277.778 156.998 277.778Z" fill="black"/>
<path d="M225.998 277.778H227.852C228.356 277.778 228.608 277.994 228.608 278.426V289.316C228.608 289.772 228.356 290 227.852 290H227.726C227.222 290 226.97 289.772 226.97 289.316V279.128H225.998C225.506 279.128 225.26 278.906 225.26 278.462C225.26 278.006 225.506 277.778 225.998 277.778Z" fill="black"/>
<path d="M306.998 277.778H308.852C309.356 277.778 309.608 277.994 309.608 278.426V289.316C309.608 289.772 309.356 290 308.852 290H308.726C308.222 290 307.97 289.772 307.97 289.316V279.128H306.998C306.506 279.128 306.26 278.906 306.26 278.462C306.26 278.006 306.506 277.778 306.998 277.778Z" fill="black"/>
<defs>
<filter id="filter0_d" x="201" y="165" width="58" height="58" filterUnits="userSpaceOnUse" color-interpolation-filters="sRGB">
<feFlood flood-opacity="0" result="BackgroundImageFix"/>
<feColorMatrix in="SourceAlpha" type="matrix" values="0 0 0 0 0 0 0 0 0 0 0 0 0 0 0 0 0 0 127 0"/>
<feOffset dy="4"/>
<feGaussianBlur stdDeviation="2"/>
<feColorMatrix type="matrix" values="0 0 0 0 0 0 0 0 0 0 0 0 0 0 0 0 0 0 0.25 0"/>
<feBlend mode="normal" in2="BackgroundImageFix" result="effect1_dropShadow"/>
<feBlend mode="normal" in="SourceGraphic" in2="effect1_dropShadow" result="shape"/>
</filter>
<filter id="filter1_d" x="276" y="165" width="58" height="58" filterUnits="userSpaceOnUse" color-interpolation-filters="sRGB">
<feFlood flood-opacity="0" result="BackgroundImageFix"/>
<feColorMatrix in="SourceAlpha" type="matrix" values="0 0 0 0 0 0 0 0 0 0 0 0 0 0 0 0 0 0 127 0"/>
<feOffset dy="4"/>
<feGaussianBlur stdDeviation="2"/>
<feColorMatrix type="matrix" values="0 0 0 0 0 0 0 0 0 0 0 0 0 0 0 0 0 0 0.25 0"/>
<feBlend mode="normal" in2="BackgroundImageFix" result="effect1_dropShadow"/>
<feBlend mode="normal" in="SourceGraphic" in2="effect1_dropShadow" result="shape"/>
</filter>
<filter id="filter2_d" x="126" y="165" width="58" height="58" filterUnits="userSpaceOnUse" color-interpolation-filters="sRGB">
<feFlood flood-opacity="0" result="BackgroundImageFix"/>
<feColorMatrix in="SourceAlpha" type="matrix" values="0 0 0 0 0 0 0 0 0 0 0 0 0 0 0 0 0 0 127 0"/>
<feOffset dy="4"/>
<feGaussianBlur stdDeviation="2"/>
<feColorMatrix type="matrix" values="0 0 0 0 0 0 0 0 0 0 0 0 0 0 0 0 0 0 0.25 0"/>
<feBlend mode="normal" in2="BackgroundImageFix" result="effect1_dropShadow"/>
<feBlend mode="normal" in="SourceGraphic" in2="effect1_dropShadow" result="shape"/>
</filter>
<filter id="filter3_d" x="53" y="165" width="58" height="58" filterUnits="userSpaceOnUse" color-interpolation-filters="sRGB">
<feFlood flood-opacity="0" result="BackgroundImageFix"/>
<feColorMatrix in="SourceAlpha" type="matrix" values="0 0 0 0 0 0 0 0 0 0 0 0 0 0 0 0 0 0 127 0"/>
<feOffset dy="4"/>
<feGaussianBlur stdDeviation="2"/>
<feColorMatrix type="matrix" values="0 0 0 0 0 0 0 0 0 0 0 0 0 0 0 0 0 0 0.25 0"/>
<feBlend mode="normal" in2="BackgroundImageFix" result="effect1_dropShadow"/>
<feBlend mode="normal" in="SourceGraphic" in2="effect1_dropShadow" result="shape"/>
</filter>
</defs>
</svg>
