<svg width="797" height="299" viewBox="0 0 797 299" fill="none" xmlns="http://www.w3.org/2000/svg">
<rect width="797" height="299" fill="white"/>
<g filter="url(#filter0_d)">
<rect x="531" y="91" width="50" height="50" fill="#ED8B00"/>
<rect x="532" y="92" width="48" height="48" stroke="black" stroke-width="2"/>
</g>
<g filter="url(#filter1_d)">
<rect x="531" y="23" width="50" height="50" fill="#ED8B00"/>
<rect x="532" y="24" width="48" height="48" stroke="black" stroke-width="2"/>
</g>
<g filter="url(#filter2_d)">
<rect x="48" y="177" width="50" height="50" fill="#ED8B00"/>
<rect x="49" y="178" width="48" height="48" stroke="black" stroke-width="2"/>
</g>
<path d="M54 184C52.272 195.839 53.3081 208.93 53.3081 221" stroke="#FFB200" stroke-width="7" stroke-linecap="round" stroke-linejoin="round"/>
<path d="M54 183C66.6773 183 79.5225 182 92 182" stroke="#FFB200" stroke-width="7" stroke-linecap="round" stroke-linejoin="round"/>
<g filter="url(#filter3_d)">
<rect x="134" y="177" width="50" height="50" fill="#ED8B00"/>
<rect x="135" y="178" width="48" height="48" stroke="black" stroke-width="2"/>
</g>
<path d="M140 184C138.272 195.839 139.308 208.93 139.308 221" stroke="#FFB200" stroke-width="7" stroke-linecap="round" stroke-linejoin="round"/>
<path d="M140 183C152.677 183 165.523 182 178 182" stroke="#FFB200" stroke-width="7" stroke-linecap="round" stroke-linejoin="round"/>
<g filter="url(#filter4_d)">
<rect x="225" y="177" width="50" height="50" fill="#ED8B00"/>
<rect x="226" y="178" width="48" height="48" stroke="black" stroke-width="2"/>
</g>
<path d="M231 184C229.272 195.839 230.308 208.93 230.308 221" stroke="#FFB200" stroke-width="7" stroke-linecap="round" stroke-linejoin="round"/>
<path d="M231 183C243.677 183 256.523 182 269 182" stroke="#FFB200" stroke-width="7" stroke-linecap="round" stroke-linejoin="round"/>
<g filter="url(#filter5_d)">
<rect x="316" y="177" width="50" height="50" fill="#ED8B00"/>
<rect x="317" y="178" width="48" height="48" stroke="black" stroke-width="2"/>
</g>
<path d="M322 184C320.272 195.839 321.308 208.93 321.308 221" stroke="#FFB200" stroke-width="7" stroke-linecap="round" stroke-linejoin="round"/>
<path d="M322 183C334.677 183 347.523 182 360 182" stroke="#FFB200" stroke-width="7" stroke-linecap="round" stroke-linejoin="round"/>
<path d="M322 183C334.677 183 347.523 182 360 182" stroke="#FFB200" stroke-width="7" stroke-linecap="round" stroke-linejoin="round"/>
<g filter="url(#filter6_d)">
<rect x="531" y="159" width="50" height="50" fill="#ED8B00"/>
<rect x="532" y="160" width="48" height="48" stroke="black" stroke-width="2"/>
</g>
<g filter="url(#filter7_d)">
<rect x="531" y="227" width="50" height="50" fill="#ED8B00"/>
<rect x="532" y="228" width="48" height="48" stroke="black" stroke-width="2"/>
</g>
<path d="M322 183C334.677 183 347.523 182 360 182" stroke="#FFB200" stroke-width="7" stroke-linecap="round" stroke-linejoin="round"/>
<path d="M322 184C320.272 195.839 321.308 208.93 321.308 221M322 183C334.677 183 347.523 182 360 182" stroke="#FFB200" stroke-width="7" stroke-linecap="round" stroke-linejoin="round"/>
<path d="M538 98C536.272 109.839 537.308 122.93 537.308 135M538 97C550.677 97 563.523 96 576 96" stroke="#FFB200" stroke-width="7" stroke-linecap="round" stroke-linejoin="round"/>
<path d="M538 167C536.272 178.839 537.308 191.93 537.308 204M538 166C550.677 166 563.523 165 576 165" stroke="#FFB200" stroke-width="7" stroke-linecap="round" stroke-linejoin="round"/>
<path d="M537 234C535.272 245.839 536.308 258.93 536.308 271M537 233C549.677 233 562.523 232 575 232" stroke="#FFB200" stroke-width="7" stroke-linecap="round" stroke-linejoin="round"/>
<path d="M538 31C536.272 42.8389 537.308 55.9303 537.308 68M538 30C550.677 30 563.523 29 576 29" stroke="#FFB200" stroke-width="7" stroke-linecap="round" stroke-linejoin="round"/>
<g filter="url(#filter8_d)">
<rect x="48" y="55" width="50" height="50" fill="#ED8B00"/>
<rect x="49" y="56" width="48" height="48" stroke="black" stroke-width="2"/>
</g>
<path d="M54 62C52.272 73.8389 53.3081 86.9303 53.3081 99" stroke="#FFB200" stroke-width="7" stroke-linecap="round" stroke-linejoin="round"/>
<path d="M54 61C66.6773 61 79.5225 60 92 60" stroke="#FFB200" stroke-width="7" stroke-linecap="round" stroke-linejoin="round"/>
<g filter="url(#filter9_d)">
<rect x="134" y="55" width="50" height="50" fill="#ED8B00"/>
<rect x="135" y="56" width="48" height="48" stroke="black" stroke-width="2"/>
</g>
<path d="M140 62C138.272 73.8389 139.308 86.9303 139.308 99" stroke="#FFB200" stroke-width="7" stroke-linecap="round" stroke-linejoin="round"/>
<path d="M140 61C152.677 61 165.523 60 178 60" stroke="#FFB200" stroke-width="7" stroke-linecap="round" stroke-linejoin="round"/>
<g filter="url(#filter10_d)">
<rect x="225" y="55" width="50" height="50" fill="#ED8B00"/>
<rect x="226" y="56" width="48" height="48" stroke="black" stroke-width="2"/>
</g>
<path d="M231 62C229.272 73.8389 230.308 86.9303 230.308 99" stroke="#FFB200" stroke-width="7" stroke-linecap="round" stroke-linejoin="round"/>
<path d="M231 61C243.677 61 256.523 60 269 60" stroke="#FFB200" stroke-width="7" stroke-linecap="round" stroke-linejoin="round"/>
<g filter="url(#filter11_d)">
<rect x="316" y="55" width="50" height="50" fill="#ED8B00"/>
<rect x="317" y="56" width="48" height="48" stroke="black" stroke-width="2"/>
</g>
<g filter="url(#filter12_d)">
<rect x="668" y="91" width="50" height="50" fill="#ED8B00"/>
<rect x="669" y="92" width="48" height="48" stroke="black" stroke-width="2"/>
</g>
<g filter="url(#filter13_d)">
<rect x="668" y="159" width="50" height="50" fill="#ED8B00"/>
<rect x="669" y="160" width="48" height="48" stroke="black" stroke-width="2"/>
</g>
<g filter="url(#filter14_d)">
<rect x="668" y="227" width="50" height="50" fill="#ED8B00"/>
<rect x="669" y="228" width="48" height="48" stroke="black" stroke-width="2"/>
</g>
<g filter="url(#filter15_d)">
<rect x="668" y="23" width="50" height="50" fill="#ED8B00"/>
<rect x="669" y="24" width="48" height="48" stroke="black" stroke-width="2"/>
</g>
<path d="M322 62C320.272 73.8389 321.308 86.9303 321.308 99" stroke="#FFB200" stroke-width="7" stroke-linecap="round" stroke-linejoin="round"/>
<path d="M322 61C334.677 61 347.523 60 360 60" stroke="#FFB200" stroke-width="7" stroke-linecap="round" stroke-linejoin="round"/>
<path d="M17 85.475C55.1483 80.3023 95.5471 83.0662 133.946 82.8291C179.692 82.5468 225.237 81.4475 270.925 79.3518C297.119 78.1502 322.87 77.2717 348.939 74.6648C365.897 72.9691 382.325 74.5893 399.361 74.5893M386.772 62C390.656 67.132 394.909 70.5504 399.116 74.8929C401.089 76.9292 393.998 77.2472 391.301 77.9841C388.62 78.7168 381.779 83.9023 379.458 85.5" stroke="black" stroke-width="2" stroke-linecap="round" stroke-linejoin="round"/>
<path d="M398.731 198.006C360.519 202.682 320.159 199.392 281.76 199.129C236.015 198.815 190.459 199.321 144.748 200.822C118.54 201.682 92.7798 202.225 66.6791 204.492C49.7011 205.967 33.295 204.133 16.2603 203.911M28.6842 216.663C24.8674 211.481 20.6595 208.008 16.5098 203.611C14.5638 201.549 21.6582 201.323 24.3644 200.621C27.0551 199.924 33.9622 194.828 36.3044 193.26" stroke="black" stroke-width="2" stroke-linecap="round" stroke-linejoin="round"/>
<path d="M675 98C673.272 109.839 674.308 122.93 674.308 135M675 97C687.677 97 700.523 96 713 96" stroke="#FFB200" stroke-width="7" stroke-linecap="round" stroke-linejoin="round"/>
<path d="M675 234C673.272 245.839 674.308 258.93 674.308 271M675 233C687.677 233 700.523 232 713 232" stroke="#FFB200" stroke-width="7" stroke-linecap="round" stroke-linejoin="round"/>
<path d="M675 31C673.272 42.8389 674.308 55.9303 674.308 68M675 30C687.677 30 700.523 29 713 29" stroke="#FFB200" stroke-width="7" stroke-linecap="round" stroke-linejoin="round"/>
<path d="M549.842 33.0003C554.733 59.4607 551.672 87.3946 551.626 113.976C551.572 145.643 552.335 177.18 554.095 208.827C555.103 226.971 555.792 244.805 558.207 262.877C559.777 274.632 558.036 285.987 557.911 297.779M570.592 289.199C565.432 291.833 561.982 294.74 557.609 297.605C555.558 298.949 555.293 294.038 554.576 292.163C553.863 290.299 548.728 285.51 547.147 283.886" stroke="black" stroke-width="2" stroke-linecap="round" stroke-linejoin="round"/>
<path d="M697.475 270.744C692.302 244.337 695.066 216.372 694.829 189.792C694.547 158.126 693.448 126.599 691.352 94.9728C690.15 76.8408 689.272 59.0152 686.665 40.9698C684.969 29.2316 686.589 17.8594 686.589 6.0667M674 14.781C679.132 12.0924 682.55 9.14855 686.893 6.23665C688.929 4.87115 689.247 9.7796 689.984 11.6464C690.717 13.5024 695.902 18.2373 697.5 19.8444" stroke="black" stroke-width="2" stroke-linecap="round" stroke-linejoin="round"/>
<path d="M154.22 165.14H154.34C154.847 165.14 155.1 165.387 155.1 165.88V166.96C155.327 166.453 155.687 166 156.18 165.6C156.687 165.2 157.227 165 157.8 165C158.373 165 158.807 165.113 159.1 165.34C159.407 165.567 159.56 165.847 159.56 166.18C159.56 166.5 159.42 166.753 159.14 166.94C158.727 166.593 158.287 166.42 157.82 166.42C156.993 166.42 156.34 166.76 155.86 167.44C155.38 168.107 155.14 168.947 155.14 169.96V174.24C155.14 174.507 155.08 174.7 154.96 174.82C154.84 174.94 154.647 175 154.38 175H154.22C153.953 175 153.76 174.94 153.64 174.82C153.52 174.7 153.46 174.507 153.46 174.24V165.88C153.46 165.387 153.713 165.14 154.22 165.14ZM162.19 166.3C163.136 165.407 164.296 164.96 165.67 164.96C167.043 164.96 168.203 165.407 169.15 166.3C170.096 167.193 170.57 168.453 170.57 170.08C170.57 171.707 170.096 172.96 169.15 173.84C168.203 174.72 167.043 175.16 165.67 175.16C164.296 175.16 163.136 174.72 162.19 173.84C161.243 172.96 160.77 171.707 160.77 170.08C160.77 168.453 161.243 167.193 162.19 166.3ZM167.97 167.32C167.383 166.667 166.616 166.34 165.67 166.34C164.723 166.34 163.95 166.667 163.35 167.32C162.763 167.96 162.47 168.88 162.47 170.08C162.47 171.267 162.763 172.187 163.35 172.84C163.95 173.48 164.723 173.8 165.67 173.8C166.616 173.8 167.383 173.48 167.97 172.84C168.57 172.187 168.87 171.267 168.87 170.08C168.87 168.88 168.57 167.96 167.97 167.32ZM172.674 165.16H172.994C173.381 165.16 173.621 165.367 173.714 165.78C174.607 169.393 175.301 171.98 175.794 173.54H176.034C176.141 173.087 176.434 171.94 176.914 170.1C177.394 168.247 177.754 166.807 177.994 165.78C178.087 165.367 178.347 165.16 178.774 165.16H179.074C179.501 165.16 179.761 165.367 179.854 165.78C180.081 166.767 180.427 168.14 180.894 169.9C181.374 171.66 181.694 172.873 181.854 173.54H182.094C182.547 172.113 182.981 170.54 183.394 168.82C183.807 167.1 184.054 166.087 184.134 165.78C184.227 165.367 184.467 165.16 184.854 165.16H185.174C185.614 165.16 185.834 165.307 185.834 165.6C185.834 165.653 185.794 165.82 185.714 166.1C185.647 166.38 185.494 166.98 185.254 167.9C185.027 168.82 184.841 169.547 184.694 170.08C184.281 171.56 183.861 172.873 183.434 174.02C183.181 174.673 182.721 175 182.054 175H181.874C181.501 175 181.227 174.927 181.054 174.78C180.881 174.62 180.741 174.367 180.634 174.02C179.847 171.38 179.294 169.093 178.974 167.16H178.854C178.481 169.4 177.947 171.687 177.254 174.02C177.147 174.367 177.007 174.62 176.834 174.78C176.661 174.927 176.387 175 176.014 175H175.834C175.167 175 174.714 174.687 174.474 174.06C174.234 173.433 173.987 172.733 173.734 171.96C173.494 171.173 173.314 170.56 173.194 170.12C173.074 169.68 172.867 168.92 172.574 167.84C172.201 166.413 172.014 165.667 172.014 165.6C172.014 165.307 172.234 165.16 172.674 165.16ZM188.174 168.46H193.494C193.987 168.46 194.234 168.68 194.234 169.12C194.234 169.56 193.987 169.78 193.494 169.78H188.174C187.68 169.78 187.434 169.56 187.434 169.12C187.434 168.68 187.68 168.46 188.174 168.46ZM197.462 165.14H197.582C198.089 165.14 198.342 165.387 198.342 165.88V166.96C198.569 166.453 198.929 166 199.422 165.6C199.929 165.2 200.469 165 201.042 165C201.616 165 202.049 165.113 202.342 165.34C202.649 165.567 202.802 165.847 202.802 166.18C202.802 166.5 202.662 166.753 202.382 166.94C201.969 166.593 201.529 166.42 201.062 166.42C200.236 166.42 199.582 166.76 199.102 167.44C198.622 168.107 198.382 168.947 198.382 169.96V174.24C198.382 174.507 198.322 174.7 198.202 174.82C198.082 174.94 197.889 175 197.622 175H197.462C197.196 175 197.002 174.94 196.882 174.82C196.762 174.7 196.702 174.507 196.702 174.24V165.88C196.702 165.387 196.956 165.14 197.462 165.14ZM204.012 170.1C204.012 168.433 204.479 167.16 205.412 166.28C206.345 165.4 207.419 164.96 208.632 164.96C209.845 164.96 210.805 165.273 211.512 165.9C212.219 166.513 212.572 167.28 212.572 168.2C212.572 169.12 212.205 169.84 211.472 170.36C210.752 170.867 209.819 171.12 208.672 171.12C207.525 171.12 206.492 170.94 205.572 170.58C205.572 171.553 205.905 172.34 206.572 172.94C207.239 173.527 208.052 173.82 209.012 173.82C210.505 173.82 211.439 173.36 211.812 172.44C212.039 172.44 212.232 172.507 212.392 172.64C212.552 172.76 212.632 172.94 212.632 173.18C212.632 173.647 212.285 174.093 211.592 174.52C210.912 174.947 210.045 175.16 208.992 175.16C207.579 175.16 206.392 174.733 205.432 173.88C204.485 173.027 204.012 171.767 204.012 170.1ZM211.052 168.14C211.052 167.62 210.825 167.18 210.372 166.82C209.932 166.46 209.319 166.28 208.532 166.28C207.759 166.28 207.079 166.593 206.492 167.22C205.905 167.847 205.605 168.553 205.592 169.34C206.552 169.66 207.505 169.82 208.452 169.82C210.185 169.82 211.052 169.26 211.052 168.14ZM214.665 165.16H215.125C215.552 165.16 215.812 165.367 215.905 165.78C216.785 169.22 217.632 171.76 218.445 173.4H218.685C219.498 171.76 220.345 169.22 221.225 165.78C221.318 165.367 221.578 165.16 222.005 165.16H222.465C222.878 165.16 223.085 165.307 223.085 165.6C223.085 165.68 223.065 165.773 223.025 165.88C221.998 169.387 220.998 172.1 220.025 174.02C219.852 174.367 219.672 174.62 219.485 174.78C219.298 174.927 219.025 175 218.665 175H218.485C218.112 175 217.832 174.927 217.645 174.78C217.458 174.62 217.278 174.367 217.105 174.02C216.132 172.1 215.132 169.387 214.105 165.88C214.065 165.773 214.045 165.68 214.045 165.6C214.045 165.307 214.252 165.16 214.665 165.16ZM224.5 170.1C224.5 168.433 224.967 167.16 225.9 166.28C226.833 165.4 227.907 164.96 229.12 164.96C230.333 164.96 231.293 165.273 232 165.9C232.707 166.513 233.06 167.28 233.06 168.2C233.06 169.12 232.693 169.84 231.96 170.36C231.24 170.867 230.307 171.12 229.16 171.12C228.013 171.12 226.98 170.94 226.06 170.58C226.06 171.553 226.393 172.34 227.06 172.94C227.727 173.527 228.54 173.82 229.5 173.82C230.993 173.82 231.927 173.36 232.3 172.44C232.527 172.44 232.72 172.507 232.88 172.64C233.04 172.76 233.12 172.94 233.12 173.18C233.12 173.647 232.773 174.093 232.08 174.52C231.4 174.947 230.533 175.16 229.48 175.16C228.067 175.16 226.88 174.733 225.92 173.88C224.973 173.027 224.5 171.767 224.5 170.1ZM231.54 168.14C231.54 167.62 231.313 167.18 230.86 166.82C230.42 166.46 229.807 166.28 229.02 166.28C228.247 166.28 227.567 166.593 226.98 167.22C226.393 167.847 226.093 168.553 226.08 169.34C227.04 169.66 227.993 169.82 228.94 169.82C230.673 169.82 231.54 169.26 231.54 168.14ZM236.173 165.14H236.293C236.8 165.14 237.053 165.387 237.053 165.88V166.96C237.28 166.453 237.64 166 238.133 165.6C238.64 165.2 239.18 165 239.753 165C240.326 165 240.76 165.113 241.053 165.34C241.36 165.567 241.513 165.847 241.513 166.18C241.513 166.5 241.373 166.753 241.093 166.94C240.68 166.593 240.24 166.42 239.773 166.42C238.946 166.42 238.293 166.76 237.813 167.44C237.333 168.107 237.093 168.947 237.093 169.96V174.24C237.093 174.507 237.033 174.7 236.913 174.82C236.793 174.94 236.6 175 236.333 175H236.173C235.906 175 235.713 174.94 235.593 174.82C235.473 174.7 235.413 174.507 235.413 174.24V165.88C235.413 165.387 235.666 165.14 236.173 165.14ZM243.138 167.88C243.138 166.973 243.525 166.26 244.298 165.74C245.085 165.207 245.958 164.94 246.918 164.94C247.878 164.94 248.618 165.08 249.138 165.36C249.671 165.627 249.938 165.947 249.938 166.32C249.938 166.693 249.678 166.967 249.158 167.14C249.065 166.927 248.805 166.727 248.378 166.54C247.965 166.353 247.451 166.26 246.838 166.26C246.225 166.26 245.718 166.38 245.318 166.62C244.931 166.847 244.738 167.173 244.738 167.6C244.738 168.013 244.885 168.333 245.178 168.56C245.471 168.787 246.158 169.027 247.238 169.28C248.331 169.52 249.165 169.873 249.738 170.34C250.311 170.807 250.598 171.46 250.598 172.3C250.598 173.14 250.211 173.827 249.438 174.36C248.665 174.88 247.711 175.14 246.578 175.14C245.458 175.14 244.558 175 243.878 174.72C243.211 174.427 242.878 174.047 242.878 173.58C242.878 173.113 243.098 172.773 243.538 172.56C243.725 172.92 244.085 173.227 244.618 173.48C245.151 173.733 245.818 173.86 246.618 173.86C247.418 173.86 248.025 173.713 248.438 173.42C248.865 173.127 249.078 172.767 249.078 172.34C249.078 171.9 248.885 171.56 248.498 171.32C248.125 171.067 247.385 170.82 246.278 170.58C245.185 170.34 244.385 170 243.878 169.56C243.385 169.107 243.138 168.547 243.138 167.88ZM252.176 170.1C252.176 168.433 252.643 167.16 253.576 166.28C254.509 165.4 255.583 164.96 256.796 164.96C258.009 164.96 258.969 165.273 259.676 165.9C260.383 166.513 260.736 167.28 260.736 168.2C260.736 169.12 260.369 169.84 259.636 170.36C258.916 170.867 257.983 171.12 256.836 171.12C255.689 171.12 254.656 170.94 253.736 170.58C253.736 171.553 254.069 172.34 254.736 172.94C255.403 173.527 256.216 173.82 257.176 173.82C258.669 173.82 259.603 173.36 259.976 172.44C260.203 172.44 260.396 172.507 260.556 172.64C260.716 172.76 260.796 172.94 260.796 173.18C260.796 173.647 260.449 174.093 259.756 174.52C259.076 174.947 258.209 175.16 257.156 175.16C255.743 175.16 254.556 174.733 253.596 173.88C252.649 173.027 252.176 171.767 252.176 170.1ZM259.216 168.14C259.216 167.62 258.989 167.18 258.536 166.82C258.096 166.46 257.483 166.28 256.696 166.28C255.923 166.28 255.243 166.593 254.656 167.22C254.069 167.847 253.769 168.553 253.756 169.34C254.716 169.66 255.669 169.82 256.616 169.82C258.349 169.82 259.216 169.26 259.216 168.14Z" fill="black"/>
<path d="M186.22 37.14H186.34C186.847 37.14 187.1 37.3867 187.1 37.88V38.96C187.327 38.4533 187.687 38 188.18 37.6C188.687 37.2 189.227 37 189.8 37C190.373 37 190.807 37.1133 191.1 37.34C191.407 37.5667 191.56 37.8467 191.56 38.18C191.56 38.5 191.42 38.7533 191.14 38.94C190.727 38.5933 190.287 38.42 189.82 38.42C188.993 38.42 188.34 38.76 187.86 39.44C187.38 40.1067 187.14 40.9467 187.14 41.96V46.24C187.14 46.5067 187.08 46.7 186.96 46.82C186.84 46.94 186.647 47 186.38 47H186.22C185.953 47 185.76 46.94 185.64 46.82C185.52 46.7 185.46 46.5067 185.46 46.24V37.88C185.46 37.3867 185.713 37.14 186.22 37.14ZM194.19 38.3C195.136 37.4067 196.296 36.96 197.67 36.96C199.043 36.96 200.203 37.4067 201.15 38.3C202.096 39.1933 202.57 40.4533 202.57 42.08C202.57 43.7067 202.096 44.96 201.15 45.84C200.203 46.72 199.043 47.16 197.67 47.16C196.296 47.16 195.136 46.72 194.19 45.84C193.243 44.96 192.77 43.7067 192.77 42.08C192.77 40.4533 193.243 39.1933 194.19 38.3ZM199.97 39.32C199.383 38.6667 198.616 38.34 197.67 38.34C196.723 38.34 195.95 38.6667 195.35 39.32C194.763 39.96 194.47 40.88 194.47 42.08C194.47 43.2667 194.763 44.1867 195.35 44.84C195.95 45.48 196.723 45.8 197.67 45.8C198.616 45.8 199.383 45.48 199.97 44.84C200.57 44.1867 200.87 43.2667 200.87 42.08C200.87 40.88 200.57 39.96 199.97 39.32ZM204.674 37.16H204.994C205.381 37.16 205.621 37.3667 205.714 37.78C206.607 41.3933 207.301 43.98 207.794 45.54H208.034C208.141 45.0867 208.434 43.94 208.914 42.1C209.394 40.2467 209.754 38.8067 209.994 37.78C210.087 37.3667 210.347 37.16 210.774 37.16H211.074C211.501 37.16 211.761 37.3667 211.854 37.78C212.081 38.7667 212.427 40.14 212.894 41.9C213.374 43.66 213.694 44.8733 213.854 45.54H214.094C214.547 44.1133 214.981 42.54 215.394 40.82C215.807 39.1 216.054 38.0867 216.134 37.78C216.227 37.3667 216.467 37.16 216.854 37.16H217.174C217.614 37.16 217.834 37.3067 217.834 37.6C217.834 37.6533 217.794 37.82 217.714 38.1C217.647 38.38 217.494 38.98 217.254 39.9C217.027 40.82 216.841 41.5467 216.694 42.08C216.281 43.56 215.861 44.8733 215.434 46.02C215.181 46.6733 214.721 47 214.054 47H213.874C213.501 47 213.227 46.9267 213.054 46.78C212.881 46.62 212.741 46.3667 212.634 46.02C211.847 43.38 211.294 41.0933 210.974 39.16H210.854C210.481 41.4 209.947 43.6867 209.254 46.02C209.147 46.3667 209.007 46.62 208.834 46.78C208.661 46.9267 208.387 47 208.014 47H207.834C207.167 47 206.714 46.6867 206.474 46.06C206.234 45.4333 205.987 44.7333 205.734 43.96C205.494 43.1733 205.314 42.56 205.194 42.12C205.074 41.68 204.867 40.92 204.574 39.84C204.201 38.4133 204.014 37.6667 204.014 37.6C204.014 37.3067 204.234 37.16 204.674 37.16Z" fill="black"/>
<path d="M460.42 26.1C460.913 25.7133 461.44 25.4267 462 25.24C462.56 25.0533 463.24 24.96 464.04 24.96C464.84 24.96 465.54 25.14 466.14 25.5C466.753 25.86 467.06 26.2467 467.06 26.66C467.06 27.1667 466.773 27.4533 466.2 27.52C466.067 27.2267 465.767 26.96 465.3 26.72C464.833 26.4667 464.28 26.34 463.64 26.34C462.747 26.34 462.007 26.66 461.42 27.3C460.833 27.9267 460.54 28.8467 460.54 30.06C460.54 31.2733 460.84 32.2 461.44 32.84C462.04 33.48 462.76 33.8 463.6 33.8C464.933 33.8 465.833 33.3667 466.3 32.5C466.553 32.5 466.767 32.58 466.94 32.74C467.113 32.8867 467.2 33.08 467.2 33.32C467.2 33.7867 466.88 34.2133 466.24 34.6C465.6 34.9733 464.867 35.16 464.04 35.16C463.227 35.16 462.533 35.0667 461.96 34.88C461.4 34.68 460.88 34.3867 460.4 34C459.92 33.6 459.54 33.0667 459.26 32.4C458.98 31.7333 458.84 30.96 458.84 30.08C458.84 29.1867 458.98 28.4 459.26 27.72C459.553 27.0267 459.94 26.4867 460.42 26.1ZM470.162 26.3C471.109 25.4067 472.269 24.96 473.642 24.96C475.016 24.96 476.176 25.4067 477.122 26.3C478.069 27.1933 478.542 28.4533 478.542 30.08C478.542 31.7067 478.069 32.96 477.122 33.84C476.176 34.72 475.016 35.16 473.642 35.16C472.269 35.16 471.109 34.72 470.162 33.84C469.216 32.96 468.742 31.7067 468.742 30.08C468.742 28.4533 469.216 27.1933 470.162 26.3ZM475.942 27.32C475.356 26.6667 474.589 26.34 473.642 26.34C472.696 26.34 471.922 26.6667 471.322 27.32C470.736 27.96 470.442 28.88 470.442 30.08C470.442 31.2667 470.736 32.1867 471.322 32.84C471.922 33.48 472.696 33.8 473.642 33.8C474.589 33.8 475.356 33.48 475.942 32.84C476.542 32.1867 476.842 31.2667 476.842 30.08C476.842 28.88 476.542 27.96 475.942 27.32ZM481.727 20.98H481.867C482.373 20.98 482.627 21.2267 482.627 21.72V34.24C482.627 34.7467 482.373 35 481.867 35H481.727C481.447 35 481.247 34.94 481.127 34.82C481.02 34.7 480.967 34.5067 480.967 34.24V21.72C480.967 21.4533 481.02 21.2667 481.127 21.16C481.247 21.04 481.447 20.98 481.727 20.98ZM486.191 25.16H486.331C486.838 25.16 487.091 25.4067 487.091 25.9V31.04C487.091 32.8667 487.898 33.78 489.511 33.78C490.124 33.78 490.638 33.6 491.051 33.24C491.798 32.6 492.171 31.64 492.171 30.36V25.9C492.171 25.4067 492.431 25.16 492.951 25.16H493.091C493.358 25.16 493.544 25.22 493.651 25.34C493.771 25.4467 493.831 25.6333 493.831 25.9V34.26C493.831 34.5267 493.771 34.72 493.651 34.84C493.531 34.9467 493.338 35 493.071 35H492.951C492.431 35 492.171 34.7533 492.171 34.26V33.26C491.984 33.6867 491.584 34.1133 490.971 34.54C490.371 34.9533 489.724 35.16 489.031 35.16C486.631 35.16 485.431 33.82 485.431 31.14V25.9C485.431 25.4067 485.684 25.16 486.191 25.16ZM497.603 25.14H497.723C498.243 25.14 498.503 25.3933 498.503 25.9V26.74C499.116 25.58 500.056 25 501.323 25C502.136 25 502.809 25.22 503.343 25.66C503.889 26.0867 504.263 26.6867 504.463 27.46C504.676 26.6867 505.069 26.08 505.643 25.64C506.216 25.2 506.876 24.98 507.623 24.98C509.916 24.98 511.063 26.32 511.063 29V34.26C511.063 34.7533 510.796 35 510.263 35H510.143C509.636 35 509.383 34.7533 509.383 34.26V29.1C509.383 27.2733 508.689 26.36 507.303 26.36C506.329 26.36 505.663 26.7133 505.303 27.42C504.956 28.1267 504.783 29.0867 504.783 30.3V34.26C504.783 34.7533 504.523 35 504.003 35H503.863C503.356 35 503.103 34.7533 503.103 34.26V29.1C503.103 27.2733 502.403 26.36 501.003 26.36C499.336 26.36 498.503 27.6533 498.503 30.24V34.26C498.503 34.7533 498.243 35 497.723 35H497.603C497.096 35 496.843 34.7533 496.843 34.26V25.9C496.843 25.3933 497.096 25.14 497.603 25.14ZM514.536 25.14H514.676C515.183 25.14 515.436 25.3933 515.436 25.9V26.88C515.69 26.3733 516.09 25.9267 516.636 25.54C517.183 25.1533 517.81 24.96 518.516 24.96C519.596 24.96 520.476 25.2867 521.156 25.94C521.85 26.58 522.196 27.6 522.196 29V34.24C522.196 34.5067 522.136 34.7 522.016 34.82C521.896 34.94 521.703 35 521.436 35H521.276C520.783 35 520.536 34.7467 520.536 34.24V29.06C520.536 28.0867 520.33 27.3933 519.916 26.98C519.503 26.5667 518.903 26.36 518.116 26.36C517.33 26.36 516.69 26.68 516.196 27.32C515.703 27.96 515.456 28.8067 515.456 29.86V34.24C515.456 34.7467 515.196 35 514.676 35H514.536C514.27 35 514.076 34.94 513.956 34.82C513.836 34.7 513.776 34.5067 513.776 34.24V25.9C513.776 25.3933 514.03 25.14 514.536 25.14Z" fill="black"/>
<path d="M637.42 283.1C637.913 282.713 638.44 282.427 639 282.24C639.56 282.053 640.24 281.96 641.04 281.96C641.84 281.96 642.54 282.14 643.14 282.5C643.753 282.86 644.06 283.247 644.06 283.66C644.06 284.167 643.773 284.453 643.2 284.52C643.067 284.227 642.767 283.96 642.3 283.72C641.833 283.467 641.28 283.34 640.64 283.34C639.747 283.34 639.007 283.66 638.42 284.3C637.833 284.927 637.54 285.847 637.54 287.06C637.54 288.273 637.84 289.2 638.44 289.84C639.04 290.48 639.76 290.8 640.6 290.8C641.933 290.8 642.833 290.367 643.3 289.5C643.553 289.5 643.767 289.58 643.94 289.74C644.113 289.887 644.2 290.08 644.2 290.32C644.2 290.787 643.88 291.213 643.24 291.6C642.6 291.973 641.867 292.16 641.04 292.16C640.227 292.16 639.533 292.067 638.96 291.88C638.4 291.68 637.88 291.387 637.4 291C636.92 290.6 636.54 290.067 636.26 289.4C635.98 288.733 635.84 287.96 635.84 287.08C635.84 286.187 635.98 285.4 636.26 284.72C636.553 284.027 636.94 283.487 637.42 283.1ZM647.162 283.3C648.109 282.407 649.269 281.96 650.642 281.96C652.016 281.96 653.176 282.407 654.122 283.3C655.069 284.193 655.542 285.453 655.542 287.08C655.542 288.707 655.069 289.96 654.122 290.84C653.176 291.72 652.016 292.16 650.642 292.16C649.269 292.16 648.109 291.72 647.162 290.84C646.216 289.96 645.742 288.707 645.742 287.08C645.742 285.453 646.216 284.193 647.162 283.3ZM652.942 284.32C652.356 283.667 651.589 283.34 650.642 283.34C649.696 283.34 648.922 283.667 648.322 284.32C647.736 284.96 647.442 285.88 647.442 287.08C647.442 288.267 647.736 289.187 648.322 289.84C648.922 290.48 649.696 290.8 650.642 290.8C651.589 290.8 652.356 290.48 652.942 289.84C653.542 289.187 653.842 288.267 653.842 287.08C653.842 285.88 653.542 284.96 652.942 284.32ZM658.727 277.98H658.867C659.373 277.98 659.627 278.227 659.627 278.72V291.24C659.627 291.747 659.373 292 658.867 292H658.727C658.447 292 658.247 291.94 658.127 291.82C658.02 291.7 657.967 291.507 657.967 291.24V278.72C657.967 278.453 658.02 278.267 658.127 278.16C658.247 278.04 658.447 277.98 658.727 277.98ZM663.191 282.16H663.331C663.838 282.16 664.091 282.407 664.091 282.9V288.04C664.091 289.867 664.898 290.78 666.511 290.78C667.124 290.78 667.638 290.6 668.051 290.24C668.798 289.6 669.171 288.64 669.171 287.36V282.9C669.171 282.407 669.431 282.16 669.951 282.16H670.091C670.358 282.16 670.544 282.22 670.651 282.34C670.771 282.447 670.831 282.633 670.831 282.9V291.26C670.831 291.527 670.771 291.72 670.651 291.84C670.531 291.947 670.338 292 670.071 292H669.951C669.431 292 669.171 291.753 669.171 291.26V290.26C668.984 290.687 668.584 291.113 667.971 291.54C667.371 291.953 666.724 292.16 666.031 292.16C663.631 292.16 662.431 290.82 662.431 288.14V282.9C662.431 282.407 662.684 282.16 663.191 282.16ZM674.603 282.14H674.723C675.243 282.14 675.503 282.393 675.503 282.9V283.74C676.116 282.58 677.056 282 678.323 282C679.136 282 679.809 282.22 680.343 282.66C680.889 283.087 681.263 283.687 681.463 284.46C681.676 283.687 682.069 283.08 682.643 282.64C683.216 282.2 683.876 281.98 684.623 281.98C686.916 281.98 688.063 283.32 688.063 286V291.26C688.063 291.753 687.796 292 687.263 292H687.143C686.636 292 686.383 291.753 686.383 291.26V286.1C686.383 284.273 685.689 283.36 684.303 283.36C683.329 283.36 682.663 283.713 682.303 284.42C681.956 285.127 681.783 286.087 681.783 287.3V291.26C681.783 291.753 681.523 292 681.003 292H680.863C680.356 292 680.103 291.753 680.103 291.26V286.1C680.103 284.273 679.403 283.36 678.003 283.36C676.336 283.36 675.503 284.653 675.503 287.24V291.26C675.503 291.753 675.243 292 674.723 292H674.603C674.096 292 673.843 291.753 673.843 291.26V282.9C673.843 282.393 674.096 282.14 674.603 282.14ZM691.536 282.14H691.676C692.183 282.14 692.436 282.393 692.436 282.9V283.88C692.69 283.373 693.09 282.927 693.636 282.54C694.183 282.153 694.81 281.96 695.516 281.96C696.596 281.96 697.476 282.287 698.156 282.94C698.85 283.58 699.196 284.6 699.196 286V291.24C699.196 291.507 699.136 291.7 699.016 291.82C698.896 291.94 698.703 292 698.436 292H698.276C697.783 292 697.536 291.747 697.536 291.24V286.06C697.536 285.087 697.33 284.393 696.916 283.98C696.503 283.567 695.903 283.36 695.116 283.36C694.33 283.36 693.69 283.68 693.196 284.32C692.703 284.96 692.456 285.807 692.456 286.86V291.24C692.456 291.747 692.196 292 691.676 292H691.536C691.27 292 691.076 291.94 690.956 291.82C690.836 291.7 690.776 291.507 690.776 291.24V282.9C690.776 282.393 691.03 282.14 691.536 282.14ZM702.189 285.46H707.509C708.003 285.46 708.249 285.68 708.249 286.12C708.249 286.56 708.003 286.78 707.509 286.78H702.189C701.696 286.78 701.449 286.56 701.449 286.12C701.449 285.68 701.696 285.46 702.189 285.46ZM711.478 282.14H711.598C712.104 282.14 712.358 282.387 712.358 282.88V283.96C712.584 283.453 712.944 283 713.438 282.6C713.944 282.2 714.484 282 715.058 282C715.631 282 716.064 282.113 716.358 282.34C716.664 282.567 716.818 282.847 716.818 283.18C716.818 283.5 716.678 283.753 716.398 283.94C715.984 283.593 715.544 283.42 715.078 283.42C714.251 283.42 713.598 283.76 713.118 284.44C712.638 285.107 712.398 285.947 712.398 286.96V291.24C712.398 291.507 712.338 291.7 712.218 291.82C712.098 291.94 711.904 292 711.638 292H711.478C711.211 292 711.018 291.94 710.898 291.82C710.778 291.7 710.718 291.507 710.718 291.24V282.88C710.718 282.387 710.971 282.14 711.478 282.14ZM718.028 287.1C718.028 285.433 718.494 284.16 719.428 283.28C720.361 282.4 721.434 281.96 722.648 281.96C723.861 281.96 724.821 282.273 725.528 282.9C726.234 283.513 726.588 284.28 726.588 285.2C726.588 286.12 726.221 286.84 725.488 287.36C724.768 287.867 723.834 288.12 722.688 288.12C721.541 288.12 720.508 287.94 719.588 287.58C719.588 288.553 719.921 289.34 720.588 289.94C721.254 290.527 722.068 290.82 723.028 290.82C724.521 290.82 725.454 290.36 725.828 289.44C726.054 289.44 726.248 289.507 726.408 289.64C726.568 289.76 726.648 289.94 726.648 290.18C726.648 290.647 726.301 291.093 725.608 291.52C724.928 291.947 724.061 292.16 723.008 292.16C721.594 292.16 720.408 291.733 719.448 290.88C718.501 290.027 718.028 288.767 718.028 287.1ZM725.068 285.14C725.068 284.62 724.841 284.18 724.388 283.82C723.948 283.46 723.334 283.28 722.548 283.28C721.774 283.28 721.094 283.593 720.508 284.22C719.921 284.847 719.621 285.553 719.608 286.34C720.568 286.66 721.521 286.82 722.467 286.82C724.201 286.82 725.068 286.26 725.068 285.14ZM728.68 282.16H729.14C729.567 282.16 729.827 282.367 729.92 282.78C730.8 286.22 731.647 288.76 732.46 290.4H732.7C733.514 288.76 734.36 286.22 735.24 282.78C735.334 282.367 735.594 282.16 736.02 282.16H736.48C736.894 282.16 737.1 282.307 737.1 282.6C737.1 282.68 737.08 282.773 737.04 282.88C736.014 286.387 735.014 289.1 734.04 291.02C733.867 291.367 733.687 291.62 733.5 291.78C733.314 291.927 733.04 292 732.68 292H732.5C732.127 292 731.847 291.927 731.66 291.78C731.474 291.62 731.294 291.367 731.12 291.02C730.147 289.1 729.147 286.387 728.12 282.88C728.08 282.773 728.06 282.68 728.06 282.6C728.06 282.307 728.267 282.16 728.68 282.16ZM738.516 287.1C738.516 285.433 738.982 284.16 739.916 283.28C740.849 282.4 741.922 281.96 743.136 281.96C744.349 281.96 745.309 282.273 746.016 282.9C746.722 283.513 747.076 284.28 747.076 285.2C747.076 286.12 746.709 286.84 745.976 287.36C745.256 287.867 744.322 288.12 743.176 288.12C742.029 288.12 740.996 287.94 740.076 287.58C740.076 288.553 740.409 289.34 741.076 289.94C741.742 290.527 742.556 290.82 743.516 290.82C745.009 290.82 745.942 290.36 746.316 289.44C746.542 289.44 746.736 289.507 746.896 289.64C747.056 289.76 747.136 289.94 747.136 290.18C747.136 290.647 746.789 291.093 746.096 291.52C745.416 291.947 744.549 292.16 743.496 292.16C742.082 292.16 740.896 291.733 739.936 290.88C738.989 290.027 738.516 288.767 738.516 287.1ZM745.556 285.14C745.556 284.62 745.329 284.18 744.876 283.82C744.436 283.46 743.822 283.28 743.036 283.28C742.262 283.28 741.582 283.593 740.996 284.22C740.409 284.847 740.109 285.553 740.096 286.34C741.056 286.66 742.009 286.82 742.956 286.82C744.689 286.82 745.556 286.26 745.556 285.14ZM750.189 282.14H750.309C750.815 282.14 751.069 282.387 751.069 282.88V283.96C751.295 283.453 751.655 283 752.149 282.6C752.655 282.2 753.195 282 753.769 282C754.342 282 754.775 282.113 755.069 282.34C755.375 282.567 755.529 282.847 755.529 283.18C755.529 283.5 755.389 283.753 755.109 283.94C754.695 283.593 754.255 283.42 753.789 283.42C752.962 283.42 752.309 283.76 751.829 284.44C751.349 285.107 751.109 285.947 751.109 286.96V291.24C751.109 291.507 751.049 291.7 750.929 291.82C750.809 291.94 750.615 292 750.349 292H750.189C749.922 292 749.729 291.94 749.609 291.82C749.489 291.7 749.429 291.507 749.429 291.24V282.88C749.429 282.387 749.682 282.14 750.189 282.14ZM757.154 284.88C757.154 283.973 757.54 283.26 758.314 282.74C759.1 282.207 759.974 281.94 760.934 281.94C761.894 281.94 762.634 282.08 763.154 282.36C763.687 282.627 763.954 282.947 763.954 283.32C763.954 283.693 763.694 283.967 763.174 284.14C763.08 283.927 762.82 283.727 762.394 283.54C761.98 283.353 761.467 283.26 760.854 283.26C760.24 283.26 759.734 283.38 759.334 283.62C758.947 283.847 758.754 284.173 758.754 284.6C758.754 285.013 758.9 285.333 759.194 285.56C759.487 285.787 760.174 286.027 761.254 286.28C762.347 286.52 763.18 286.873 763.754 287.34C764.327 287.807 764.614 288.46 764.614 289.3C764.614 290.14 764.227 290.827 763.454 291.36C762.68 291.88 761.727 292.14 760.594 292.14C759.474 292.14 758.574 292 757.894 291.72C757.227 291.427 756.894 291.047 756.894 290.58C756.894 290.113 757.114 289.773 757.554 289.56C757.74 289.92 758.1 290.227 758.634 290.48C759.167 290.733 759.834 290.86 760.634 290.86C761.434 290.86 762.04 290.713 762.454 290.42C762.88 290.127 763.094 289.767 763.094 289.34C763.094 288.9 762.9 288.56 762.514 288.32C762.14 288.067 761.4 287.82 760.294 287.58C759.2 287.34 758.4 287 757.894 286.56C757.4 286.107 757.154 285.547 757.154 284.88ZM766.192 287.1C766.192 285.433 766.658 284.16 767.592 283.28C768.525 282.4 769.598 281.96 770.812 281.96C772.025 281.96 772.985 282.273 773.692 282.9C774.398 283.513 774.752 284.28 774.752 285.2C774.752 286.12 774.385 286.84 773.652 287.36C772.932 287.867 771.998 288.12 770.852 288.12C769.705 288.12 768.672 287.94 767.752 287.58C767.752 288.553 768.085 289.34 768.752 289.94C769.418 290.527 770.232 290.82 771.192 290.82C772.685 290.82 773.618 290.36 773.992 289.44C774.218 289.44 774.412 289.507 774.572 289.64C774.732 289.76 774.812 289.94 774.812 290.18C774.812 290.647 774.465 291.093 773.772 291.52C773.092 291.947 772.225 292.16 771.172 292.16C769.758 292.16 768.572 291.733 767.612 290.88C766.665 290.027 766.192 288.767 766.192 287.1ZM773.232 285.14C773.232 284.62 773.005 284.18 772.552 283.82C772.112 283.46 771.498 283.28 770.712 283.28C769.938 283.28 769.258 283.593 768.672 284.22C768.085 284.847 767.785 285.553 767.772 286.34C768.732 286.66 769.685 286.82 770.632 286.82C772.365 286.82 773.232 286.26 773.232 285.14Z" fill="black"/>
<defs>
<filter id="filter0_d" x="527" y="91" width="58" height="58" filterUnits="userSpaceOnUse" color-interpolation-filters="sRGB">
<feFlood flood-opacity="0" result="BackgroundImageFix"/>
<feColorMatrix in="SourceAlpha" type="matrix" values="0 0 0 0 0 0 0 0 0 0 0 0 0 0 0 0 0 0 127 0"/>
<feOffset dy="4"/>
<feGaussianBlur stdDeviation="2"/>
<feColorMatrix type="matrix" values="0 0 0 0 0 0 0 0 0 0 0 0 0 0 0 0 0 0 0.25 0"/>
<feBlend mode="normal" in2="BackgroundImageFix" result="effect1_dropShadow"/>
<feBlend mode="normal" in="SourceGraphic" in2="effect1_dropShadow" result="shape"/>
</filter>
<filter id="filter1_d" x="527" y="23" width="58" height="58" filterUnits="userSpaceOnUse" color-interpolation-filters="sRGB">
<feFlood flood-opacity="0" result="BackgroundImageFix"/>
<feColorMatrix in="SourceAlpha" type="matrix" values="0 0 0 0 0 0 0 0 0 0 0 0 0 0 0 0 0 0 127 0"/>
<feOffset dy="4"/>
<feGaussianBlur stdDeviation="2"/>
<feColorMatrix type="matrix" values="0 0 0 0 0 0 0 0 0 0 0 0 0 0 0 0 0 0 0.25 0"/>
<feBlend mode="normal" in2="BackgroundImageFix" result="effect1_dropShadow"/>
<feBlend mode="normal" in="SourceGraphic" in2="effect1_dropShadow" result="shape"/>
</filter>
<filter id="filter2_d" x="44" y="177" width="58" height="58" filterUnits="userSpaceOnUse" color-interpolation-filters="sRGB">
<feFlood flood-opacity="0" result="BackgroundImageFix"/>
<feColorMatrix in="SourceAlpha" type="matrix" values="0 0 0 0 0 0 0 0 0 0 0 0 0 0 0 0 0 0 127 0"/>
<feOffset dy="4"/>
<feGaussianBlur stdDeviation="2"/>
<feColorMatrix type="matrix" values="0 0 0 0 0 0 0 0 0 0 0 0 0 0 0 0 0 0 0.25 0"/>
<feBlend mode="normal" in2="BackgroundImageFix" result="effect1_dropShadow"/>
<feBlend mode="normal" in="SourceGraphic" in2="effect1_dropShadow" result="shape"/>
</filter>
<filter id="filter3_d" x="130" y="177" width="58" height="58" filterUnits="userSpaceOnUse" color-interpolation-filters="sRGB">
<feFlood flood-opacity="0" result="BackgroundImageFix"/>
<feColorMatrix in="SourceAlpha" type="matrix" values="0 0 0 0 0 0 0 0 0 0 0 0 0 0 0 0 0 0 127 0"/>
<feOffset dy="4"/>
<feGaussianBlur stdDeviation="2"/>
<feColorMatrix type="matrix" values="0 0 0 0 0 0 0 0 0 0 0 0 0 0 0 0 0 0 0.25 0"/>
<feBlend mode="normal" in2="BackgroundImageFix" result="effect1_dropShadow"/>
<feBlend mode="normal" in="SourceGraphic" in2="effect1_dropShadow" result="shape"/>
</filter>
<filter id="filter4_d" x="221" y="177" width="58" height="58" filterUnits="userSpaceOnUse" color-interpolation-filters="sRGB">
<feFlood flood-opacity="0" result="BackgroundImageFix"/>
<feColorMatrix in="SourceAlpha" type="matrix" values="0 0 0 0 0 0 0 0 0 0 0 0 0 0 0 0 0 0 127 0"/>
<feOffset dy="4"/>
<feGaussianBlur stdDeviation="2"/>
<feColorMatrix type="matrix" values="0 0 0 0 0 0 0 0 0 0 0 0 0 0 0 0 0 0 0.25 0"/>
<feBlend mode="normal" in2="BackgroundImageFix" result="effect1_dropShadow"/>
<feBlend mode="normal" in="SourceGraphic" in2="effect1_dropShadow" result="shape"/>
</filter>
<filter id="filter5_d" x="312" y="177" width="58" height="58" filterUnits="userSpaceOnUse" color-interpolation-filters="sRGB">
<feFlood flood-opacity="0" result="BackgroundImageFix"/>
<feColorMatrix in="SourceAlpha" type="matrix" values="0 0 0 0 0 0 0 0 0 0 0 0 0 0 0 0 0 0 127 0"/>
<feOffset dy="4"/>
<feGaussianBlur stdDeviation="2"/>
<feColorMatrix type="matrix" values="0 0 0 0 0 0 0 0 0 0 0 0 0 0 0 0 0 0 0.25 0"/>
<feBlend mode="normal" in2="BackgroundImageFix" result="effect1_dropShadow"/>
<feBlend mode="normal" in="SourceGraphic" in2="effect1_dropShadow" result="shape"/>
</filter>
<filter id="filter6_d" x="527" y="159" width="58" height="58" filterUnits="userSpaceOnUse" color-interpolation-filters="sRGB">
<feFlood flood-opacity="0" result="BackgroundImageFix"/>
<feColorMatrix in="SourceAlpha" type="matrix" values="0 0 0 0 0 0 0 0 0 0 0 0 0 0 0 0 0 0 127 0"/>
<feOffset dy="4"/>
<feGaussianBlur stdDeviation="2"/>
<feColorMatrix type="matrix" values="0 0 0 0 0 0 0 0 0 0 0 0 0 0 0 0 0 0 0.25 0"/>
<feBlend mode="normal" in2="BackgroundImageFix" result="effect1_dropShadow"/>
<feBlend mode="normal" in="SourceGraphic" in2="effect1_dropShadow" result="shape"/>
</filter>
<filter id="filter7_d" x="527" y="227" width="58" height="58" filterUnits="userSpaceOnUse" color-interpolation-filters="sRGB">
<feFlood flood-opacity="0" result="BackgroundImageFix"/>
<feColorMatrix in="SourceAlpha" type="matrix" values="0 0 0 0 0 0 0 0 0 0 0 0 0 0 0 0 0 0 127 0"/>
<feOffset dy="4"/>
<feGaussianBlur stdDeviation="2"/>
<feColorMatrix type="matrix" values="0 0 0 0 0 0 0 0 0 0 0 0 0 0 0 0 0 0 0.25 0"/>
<feBlend mode="normal" in2="BackgroundImageFix" result="effect1_dropShadow"/>
<feBlend mode="normal" in="SourceGraphic" in2="effect1_dropShadow" result="shape"/>
</filter>
<filter id="filter8_d" x="44" y="55" width="58" height="58" filterUnits="userSpaceOnUse" color-interpolation-filters="sRGB">
<feFlood flood-opacity="0" result="BackgroundImageFix"/>
<feColorMatrix in="SourceAlpha" type="matrix" values="0 0 0 0 0 0 0 0 0 0 0 0 0 0 0 0 0 0 127 0"/>
<feOffset dy="4"/>
<feGaussianBlur stdDeviation="2"/>
<feColorMatrix type="matrix" values="0 0 0 0 0 0 0 0 0 0 0 0 0 0 0 0 0 0 0.25 0"/>
<feBlend mode="normal" in2="BackgroundImageFix" result="effect1_dropShadow"/>
<feBlend mode="normal" in="SourceGraphic" in2="effect1_dropShadow" result="shape"/>
</filter>
<filter id="filter9_d" x="130" y="55" width="58" height="58" filterUnits="userSpaceOnUse" color-interpolation-filters="sRGB">
<feFlood flood-opacity="0" result="BackgroundImageFix"/>
<feColorMatrix in="SourceAlpha" type="matrix" values="0 0 0 0 0 0 0 0 0 0 0 0 0 0 0 0 0 0 127 0"/>
<feOffset dy="4"/>
<feGaussianBlur stdDeviation="2"/>
<feColorMatrix type="matrix" values="0 0 0 0 0 0 0 0 0 0 0 0 0 0 0 0 0 0 0.25 0"/>
<feBlend mode="normal" in2="BackgroundImageFix" result="effect1_dropShadow"/>
<feBlend mode="normal" in="SourceGraphic" in2="effect1_dropShadow" result="shape"/>
</filter>
<filter id="filter10_d" x="221" y="55" width="58" height="58" filterUnits="userSpaceOnUse" color-interpolation-filters="sRGB">
<feFlood flood-opacity="0" result="BackgroundImageFix"/>
<feColorMatrix in="SourceAlpha" type="matrix" values="0 0 0 0 0 0 0 0 0 0 0 0 0 0 0 0 0 0 127 0"/>
<feOffset dy="4"/>
<feGaussianBlur stdDeviation="2"/>
<feColorMatrix type="matrix" values="0 0 0 0 0 0 0 0 0 0 0 0 0 0 0 0 0 0 0.25 0"/>
<feBlend mode="normal" in2="BackgroundImageFix" result="effect1_dropShadow"/>
<feBlend mode="normal" in="SourceGraphic" in2="effect1_dropShadow" result="shape"/>
</filter>
<filter id="filter11_d" x="312" y="55" width="58" height="58" filterUnits="userSpaceOnUse" color-interpolation-filters="sRGB">
<feFlood flood-opacity="0" result="BackgroundImageFix"/>
<feColorMatrix in="SourceAlpha" type="matrix" values="0 0 0 0 0 0 0 0 0 0 0 0 0 0 0 0 0 0 127 0"/>
<feOffset dy="4"/>
<feGaussianBlur stdDeviation="2"/>
<feColorMatrix type="matrix" values="0 0 0 0 0 0 0 0 0 0 0 0 0 0 0 0 0 0 0.25 0"/>
<feBlend mode="normal" in2="BackgroundImageFix" result="effect1_dropShadow"/>
<feBlend mode="normal" in="SourceGraphic" in2="effect1_dropShadow" result="shape"/>
</filter>
<filter id="filter12_d" x="664" y="91" width="58" height="58" filterUnits="userSpaceOnUse" color-interpolation-filters="sRGB">
<feFlood flood-opacity="0" result="BackgroundImageFix"/>
<feColorMatrix in="SourceAlpha" type="matrix" values="0 0 0 0 0 0 0 0 0 0 0 0 0 0 0 0 0 0 127 0"/>
<feOffset dy="4"/>
<feGaussianBlur stdDeviation="2"/>
<feColorMatrix type="matrix" values="0 0 0 0 0 0 0 0 0 0 0 0 0 0 0 0 0 0 0.25 0"/>
<feBlend mode="normal" in2="BackgroundImageFix" result="effect1_dropShadow"/>
<feBlend mode="normal" in="SourceGraphic" in2="effect1_dropShadow" result="shape"/>
</filter>
<filter id="filter13_d" x="664" y="159" width="58" height="58" filterUnits="userSpaceOnUse" color-interpolation-filters="sRGB">
<feFlood flood-opacity="0" result="BackgroundImageFix"/>
<feColorMatrix in="SourceAlpha" type="matrix" values="0 0 0 0 0 0 0 0 0 0 0 0 0 0 0 0 0 0 127 0"/>
<feOffset dy="4"/>
<feGaussianBlur stdDeviation="2"/>
<feColorMatrix type="matrix" values="0 0 0 0 0 0 0 0 0 0 0 0 0 0 0 0 0 0 0.25 0"/>
<feBlend mode="normal" in2="BackgroundImageFix" result="effect1_dropShadow"/>
<feBlend mode="normal" in="SourceGraphic" in2="effect1_dropShadow" result="shape"/>
</filter>
<filter id="filter14_d" x="664" y="227" width="58" height="58" filterUnits="userSpaceOnUse" color-interpolation-filters="sRGB">
<feFlood flood-opacity="0" result="BackgroundImageFix"/>
<feColorMatrix in="SourceAlpha" type="matrix" values="0 0 0 0 0 0 0 0 0 0 0 0 0 0 0 0 0 0 127 0"/>
<feOffset dy="4"/>
<feGaussianBlur stdDeviation="2"/>
<feColorMatrix type="matrix" values="0 0 0 0 0 0 0 0 0 0 0 0 0 0 0 0 0 0 0.25 0"/>
<feBlend mode="normal" in2="BackgroundImageFix" result="effect1_dropShadow"/>
<feBlend mode="normal" in="SourceGraphic" in2="effect1_dropShadow" result="shape"/>
</filter>
<filter id="filter15_d" x="664" y="23" width="58" height="58" filterUnits="userSpaceOnUse" color-interpolation-filters="sRGB">
<feFlood flood-opacity="0" result="BackgroundImageFix"/>
<feColorMatrix in="SourceAlpha" type="matrix" values="0 0 0 0 0 0 0 0 0 0 0 0 0 0 0 0 0 0 127 0"/>
<feOffset dy="4"/>
<feGaussianBlur stdDeviation="2"/>
<feColorMatrix type="matrix" values="0 0 0 0 0 0 0 0 0 0 0 0 0 0 0 0 0 0 0.25 0"/>
<feBlend mode="normal" in2="BackgroundImageFix" result="effect1_dropShadow"/>
<feBlend mode="normal" in="SourceGraphic" in2="effect1_dropShadow" result="shape"/>
</filter>
</defs>
</svg>
