<svg width="797" height="299" viewBox="0 0 797 299" fill="none" xmlns="http://www.w3.org/2000/svg">
<rect width="797" height="299" fill="white"/>
<path d="M45.7101 53C33.8948 59.9163 28.5974 68.8984 22.7101 81C21.5638 83.3562 17.2318 90.401 22.7101 86.4444C30.2516 80.9978 36.4145 76.8238 44.0434 71.4444C45.7253 70.2585 48.546 66.5472 50.0309 64.4926M50.0309 64.4926C51.1557 62.9363 51.5141 62.3305 50.0309 64.4926ZM50.0309 64.4926C49.7892 64.8449 49.4987 65.2706 49.1545 65.7778C45.9469 70.5048 43.3076 75.2595 40.4879 80.2222C37.0705 86.2367 30.7101 96.7057 30.7101 103.5C30.7101 107.71 26.3433 112.017 32.8768 107.389C38.762 103.22 41.1158 96.9601 46.3212 92.5556C48.8057 90.4533 51.6799 88.4124 54.2101 86.4444C55.9135 85.1196 55.0784 85.864 54.2656 87.4444C51.7847 92.2685 48.8183 96.8748 46.7101 101.889C41.4171 114.478 37.0254 128.159 29.7101 139.778C28.6994 141.383 24.6545 146.659 27.7101 145C33.7766 141.707 37.8789 136.395 43.2657 132.444C46.7167 129.914 49.8691 127.154 53.2101 124.556C58.235 120.647 54.96 124.796 53.1545 128.167C47.4119 138.886 43.1431 150.245 37.7657 161C36.6274 163.277 36.1244 165.735 34.9323 168C34.7724 168.304 33.2971 169.86 34.2656 169.444C39.2702 167.3 43.1391 163 47.2101 159.556C48.5598 158.413 50.5537 156.396 48.2657 159.222C45.4856 162.656 42.439 166.035 40.3212 169.944C37.742 174.706 35.6858 179.671 32.7101 184.222C30.4305 187.709 28.2459 191.837 26.9323 195.778C26.3234 197.604 29.8508 194.277 30.2656 194C33.2443 192.014 36.6272 190.365 39.9323 189C43.8331 187.389 47.5874 185.725 51.2657 183.778C53.659 182.511 47.8849 191.065 46.7101 192.944C44.6166 196.294 43.432 200.291 41.2101 203.5C39.8864 205.412 39.7275 207.521 38.7101 209.556C37.8464 211.283 36.0025 212.512 35.3768 214.389C34.8894 215.851 42.1121 211.239 42.7101 211C45.0826 210.051 47.8246 205.886 49.7101 204" stroke="#D2D5DA" stroke-width="19" stroke-linecap="round" stroke-linejoin="round"/>
<path d="M700.42 53C688.605 59.9163 683.307 68.8984 677.42 81C676.274 83.3562 671.942 90.401 677.42 86.4444C684.962 80.9978 691.125 76.8238 698.754 71.4444C700.435 70.2585 703.256 66.5472 704.741 64.4926M704.741 64.4926C705.866 62.9363 706.224 62.3305 704.741 64.4926ZM704.741 64.4926C704.499 64.8449 704.209 65.2706 703.865 65.7778C700.657 70.5048 698.018 75.2595 695.198 80.2222C691.781 86.2367 685.42 96.7057 685.42 103.5C685.42 107.71 681.053 112.017 687.587 107.389C693.472 103.22 695.826 96.9601 701.031 92.5556C703.516 90.4533 706.39 88.4124 708.92 86.4444C710.624 85.1196 709.789 85.864 708.976 87.4444C706.495 92.2685 703.528 96.8748 701.42 101.889C696.127 114.478 691.736 128.159 684.42 139.778C683.409 141.383 679.365 146.659 682.42 145C688.487 141.707 692.589 136.395 697.976 132.444C701.427 129.914 704.579 127.154 707.92 124.556C712.945 120.647 709.67 124.796 707.865 128.167C702.122 138.886 697.853 150.245 692.476 161C691.337 163.277 690.835 165.735 689.642 168C689.482 168.304 688.007 169.86 688.976 169.444C693.98 167.3 697.849 163 701.92 159.556C703.27 158.413 705.264 156.396 702.976 159.222C700.196 162.656 697.149 166.035 695.031 169.944C692.452 174.706 690.396 179.671 687.42 184.222C685.141 187.709 682.956 191.837 681.642 195.778C681.034 197.604 684.561 194.277 684.976 194C687.954 192.014 691.337 190.365 694.642 189C698.543 187.389 702.297 185.725 705.976 183.778C708.369 182.511 702.595 191.065 701.42 192.944C699.327 196.294 698.142 200.291 695.92 203.5C694.596 205.412 694.438 207.521 693.42 209.556C692.557 211.283 690.713 212.512 690.087 214.389C689.599 215.851 696.822 211.239 697.42 211C699.793 210.051 702.535 205.886 704.42 204" stroke="#D2D5DA" stroke-width="19" stroke-linecap="round" stroke-linejoin="round"/>
<path d="M32.2101 52C32.2101 47.3056 36.0157 43.5 40.7101 43.5H686.71C691.404 43.5 695.21 47.3056 695.21 52V215C695.21 219.694 691.404 223.5 686.71 223.5H40.7101C36.0157 223.5 32.2101 219.694 32.2101 215V52Z" fill="#D2D5DA" stroke="#333F48" stroke-width="3"/>
<path d="M56.2101 75C56.2101 70.3056 60.0157 66.5 64.7101 66.5H234.71C239.405 66.5 243.21 70.3056 243.21 75V194C243.21 198.694 239.405 202.5 234.71 202.5H64.7101C60.0157 202.5 56.2101 198.694 56.2101 194V75Z" fill="white" stroke="#333F48" stroke-width="3"/>
<path d="M272.21 75C272.21 70.3056 276.016 66.5 280.71 66.5H450.71C455.405 66.5 459.21 70.3056 459.21 75V194C459.21 198.694 455.405 202.5 450.71 202.5H280.71C276.016 202.5 272.21 198.694 272.21 194V75Z" fill="white" stroke="#333F48" stroke-width="3"/>
<path d="M487.21 75C487.21 70.3056 491.016 66.5 495.71 66.5H665.71C670.405 66.5 674.21 70.3056 674.21 75V194C674.21 198.694 670.405 202.5 665.71 202.5H495.71C491.016 202.5 487.21 198.694 487.21 194V75Z" fill="white" stroke="#333F48" stroke-width="3"/>
<path d="M109.451 105C132.868 107.307 156.319 105.313 179.762 106.611C183.386 106.812 186.77 107.175 190.403 107.175C194.776 107.175 201.467 105.603 201.641 110.397C202.016 120.723 200.746 131.381 200.746 141.814C200.746 146.218 200.746 150.621 200.746 155.025C200.746 155.966 201.436 159.232 199.851 159.375C196.663 159.662 193.784 160.1 190.502 160.1C180.713 160.1 170.875 162.098 161.065 162.275C153.74 162.407 146.578 163 139.186 163C126.788 163 114.39 163 101.992 163C97.6325 163 99.6051 154.431 99.6051 151.4C99.6051 147.829 99.6051 144.257 99.6051 140.686C99.6051 133.28 100.766 126.101 100.5 118.775C100.369 115.154 98.7101 111.413 98.7101 107.9C98.7101 104.799 100.236 106.391 103.384 106.45C106.294 106.505 108.476 106.173 111.241 105.725" stroke="#E9EBED" stroke-opacity="0.5" stroke-width="75" stroke-linecap="round" stroke-linejoin="round"/>
<path d="M324.451 112C347.868 114.307 371.319 112.313 394.762 113.611C398.386 113.812 401.77 114.175 405.403 114.175C409.776 114.175 416.467 112.603 416.641 117.397C417.016 127.723 415.746 138.381 415.746 148.814C415.746 153.218 415.746 157.621 415.746 162.025C415.746 162.966 416.436 166.232 414.851 166.375C411.663 166.662 408.784 167.1 405.502 167.1C395.713 167.1 385.875 169.098 376.065 169.275C368.74 169.407 361.578 170 354.186 170C341.788 170 329.39 170 316.992 170C312.632 170 314.605 161.431 314.605 158.4C314.605 154.829 314.605 151.257 314.605 147.686C314.605 140.28 315.766 133.101 315.5 125.775C315.369 122.154 313.71 118.413 313.71 114.9C313.71 111.799 315.236 113.391 318.384 113.45C321.294 113.505 323.476 113.173 326.241 112.725" stroke="#E9EBED" stroke-opacity="0.5" stroke-width="75" stroke-linecap="round" stroke-linejoin="round"/>
<path d="M540.451 112C563.868 114.307 587.319 112.313 610.762 113.611C614.386 113.812 617.77 114.175 621.403 114.175C625.776 114.175 632.467 112.603 632.641 117.397C633.016 127.723 631.746 138.381 631.746 148.814C631.746 153.218 631.746 157.621 631.746 162.025C631.746 162.966 632.436 166.232 630.851 166.375C627.663 166.662 624.784 167.1 621.502 167.1C611.713 167.1 601.875 169.098 592.065 169.275C584.74 169.407 577.578 170 570.186 170C557.788 170 545.39 170 532.992 170C528.632 170 530.605 161.431 530.605 158.4C530.605 154.829 530.605 151.257 530.605 147.686C530.605 140.28 531.766 133.101 531.5 125.775C531.369 122.154 529.71 118.413 529.71 114.9C529.71 111.799 531.236 113.391 534.384 113.45C537.294 113.505 539.476 113.173 542.241 112.725" stroke="#E9EBED" stroke-opacity="0.5" stroke-width="75" stroke-linecap="round" stroke-linejoin="round"/>
<path d="M72.9501 173.64C73.5634 173.64 74.0701 173.78 74.4701 174.06C74.8834 174.34 75.0901 174.693 75.0901 175.12C75.0901 175.533 74.8768 175.813 74.4501 175.96C74.1168 175.4 73.5834 175.12 72.8501 175.12C71.4634 175.12 70.7701 176.08 70.7701 178V178.2H73.2301C73.7368 178.2 73.9901 178.427 73.9901 178.88C73.9901 179.32 73.7368 179.54 73.2301 179.54H70.7701V187.34C70.7701 187.607 70.7101 187.8 70.5901 187.92C70.4701 188.027 70.2767 188.08 70.0101 188.08H69.9101C69.6301 188.08 69.4301 188.027 69.3101 187.92C69.1901 187.8 69.1301 187.607 69.1301 187.34V179.54H68.0901C67.8101 179.54 67.6101 179.5 67.4901 179.42C67.3834 179.327 67.3301 179.147 67.3301 178.88C67.3301 178.613 67.3901 178.433 67.5101 178.34C67.6301 178.247 67.8234 178.2 68.0901 178.2H69.1301V177.56C69.1301 176.32 69.4701 175.36 70.1501 174.68C70.8301 173.987 71.7634 173.64 72.9501 173.64ZM76.5306 173.98H76.6706C77.1772 173.98 77.4306 174.227 77.4306 174.72V187.24C77.4306 187.747 77.1772 188 76.6706 188H76.5306C76.2506 188 76.0506 187.94 75.9306 187.82C75.8239 187.7 75.7706 187.507 75.7706 187.24V174.72C75.7706 174.453 75.8239 174.267 75.9306 174.16C76.0506 174.04 76.2506 173.98 76.5306 173.98ZM79.8548 183.1C79.8548 181.433 80.3214 180.16 81.2548 179.28C82.1881 178.4 83.2614 177.96 84.4748 177.96C85.6881 177.96 86.6481 178.273 87.3548 178.9C88.0614 179.513 88.4148 180.28 88.4148 181.2C88.4148 182.12 88.0481 182.84 87.3148 183.36C86.5948 183.867 85.6614 184.12 84.5148 184.12C83.3681 184.12 82.3348 183.94 81.4148 183.58C81.4148 184.553 81.7481 185.34 82.4148 185.94C83.0814 186.527 83.8948 186.82 84.8548 186.82C86.3481 186.82 87.2814 186.36 87.6548 185.44C87.8814 185.44 88.0748 185.507 88.2348 185.64C88.3948 185.76 88.4748 185.94 88.4748 186.18C88.4748 186.647 88.1281 187.093 87.4348 187.52C86.7548 187.947 85.8881 188.16 84.8348 188.16C83.4214 188.16 82.2348 187.733 81.2748 186.88C80.3281 186.027 79.8548 184.767 79.8548 183.1ZM86.8948 181.14C86.8948 180.62 86.6681 180.18 86.2148 179.82C85.7748 179.46 85.1614 179.28 84.3748 179.28C83.6014 179.28 82.9214 179.593 82.3348 180.22C81.7481 180.847 81.4481 181.553 81.4348 182.34C82.3948 182.66 83.3481 182.82 84.2948 182.82C86.0281 182.82 86.8948 182.26 86.8948 181.14ZM90.9677 178.14H91.5877C91.9211 178.14 92.1944 178.3 92.4077 178.62L94.6677 182.08C95.2411 181.373 96.0077 180.22 96.9677 178.62C97.1677 178.3 97.4277 178.14 97.7477 178.14H98.1077C98.4944 178.14 98.6877 178.293 98.6877 178.6C98.6877 178.707 98.6611 178.807 98.6077 178.9C97.8477 180.193 96.8344 181.58 95.5677 183.06L98.7077 187.24C98.8144 187.387 98.8677 187.52 98.8677 187.64C98.8677 187.88 98.7277 188 98.4477 188H97.6677C97.3344 188 97.0344 187.813 96.7677 187.44L94.5077 184.18C94.2944 184.393 94.0477 184.707 93.7677 185.12C93.4877 185.533 93.2811 185.833 93.1477 186.02C92.7477 186.62 92.4277 187.12 92.1877 187.52C91.9744 187.84 91.7011 188 91.3677 188H91.0077C90.8477 188 90.7144 187.947 90.6077 187.84C90.5011 187.733 90.4477 187.62 90.4477 187.5C90.4477 187.367 90.4877 187.24 90.5677 187.12C91.4744 185.787 92.5077 184.473 93.6677 183.18L90.5477 178.9C90.4677 178.807 90.4277 178.7 90.4277 178.58C90.4277 178.46 90.4744 178.36 90.5677 178.28C90.6744 178.187 90.8077 178.14 90.9677 178.14ZM101.614 181.46H106.934C107.427 181.46 107.674 181.68 107.674 182.12C107.674 182.56 107.427 182.78 106.934 182.78H101.614C101.121 182.78 100.874 182.56 100.874 182.12C100.874 181.68 101.121 181.46 101.614 181.46ZM111.243 178.14H111.363C111.869 178.14 112.123 178.387 112.123 178.88V187.24C112.123 187.747 111.869 188 111.363 188H111.243C110.736 188 110.483 187.747 110.483 187.24V178.88C110.483 178.387 110.736 178.14 111.243 178.14ZM110.203 175.32C110.203 175.013 110.309 174.753 110.523 174.54C110.736 174.313 110.989 174.2 111.283 174.2C111.589 174.2 111.849 174.313 112.063 174.54C112.289 174.753 112.403 175.013 112.403 175.32C112.403 175.613 112.296 175.873 112.083 176.1C111.869 176.313 111.609 176.42 111.303 176.42C110.996 176.42 110.736 176.313 110.523 176.1C110.309 175.887 110.203 175.627 110.203 175.32ZM116.997 175.48H117.137C117.644 175.48 117.897 175.727 117.897 176.22V178.2H120.657C121.177 178.2 121.437 178.427 121.437 178.88C121.437 179.333 121.177 179.56 120.657 179.56H117.897V184.6C117.897 185.44 118.057 186.033 118.377 186.38C118.71 186.713 119.19 186.88 119.817 186.88C120.457 186.88 120.93 186.727 121.237 186.42C121.57 186.527 121.737 186.74 121.737 187.06C121.737 187.38 121.517 187.647 121.077 187.86C120.637 188.06 120.11 188.16 119.497 188.16C117.324 188.16 116.237 186.973 116.237 184.6V179.56H115.257C114.964 179.56 114.75 179.513 114.617 179.42C114.484 179.327 114.417 179.147 114.417 178.88C114.417 178.427 114.697 178.2 115.257 178.2H116.237V176.22C116.237 175.727 116.49 175.48 116.997 175.48ZM122.784 183.1C122.784 181.433 123.251 180.16 124.184 179.28C125.118 178.4 126.191 177.96 127.404 177.96C128.618 177.96 129.578 178.273 130.284 178.9C130.991 179.513 131.344 180.28 131.344 181.2C131.344 182.12 130.978 182.84 130.244 183.36C129.524 183.867 128.591 184.12 127.444 184.12C126.298 184.12 125.264 183.94 124.344 183.58C124.344 184.553 124.678 185.34 125.344 185.94C126.011 186.527 126.824 186.82 127.784 186.82C129.278 186.82 130.211 186.36 130.584 185.44C130.811 185.44 131.004 185.507 131.164 185.64C131.324 185.76 131.404 185.94 131.404 186.18C131.404 186.647 131.058 187.093 130.364 187.52C129.684 187.947 128.818 188.16 127.764 188.16C126.351 188.16 125.164 187.733 124.204 186.88C123.258 186.027 122.784 184.767 122.784 183.1ZM129.824 181.14C129.824 180.62 129.598 180.18 129.144 179.82C128.704 179.46 128.091 179.28 127.304 179.28C126.531 179.28 125.851 179.593 125.264 180.22C124.678 180.847 124.378 181.553 124.364 182.34C125.324 182.66 126.278 182.82 127.224 182.82C128.958 182.82 129.824 182.26 129.824 181.14ZM134.457 178.14H134.577C135.097 178.14 135.357 178.393 135.357 178.9V179.74C135.971 178.58 136.911 178 138.177 178C138.991 178 139.664 178.22 140.197 178.66C140.744 179.087 141.117 179.687 141.317 180.46C141.531 179.687 141.924 179.08 142.497 178.64C143.071 178.2 143.731 177.98 144.477 177.98C146.771 177.98 147.917 179.32 147.917 182V187.26C147.917 187.753 147.651 188 147.117 188H146.997C146.491 188 146.237 187.753 146.237 187.26V182.1C146.237 180.273 145.544 179.36 144.157 179.36C143.184 179.36 142.517 179.713 142.157 180.42C141.811 181.127 141.637 182.087 141.637 183.3V187.26C141.637 187.753 141.377 188 140.857 188H140.717C140.211 188 139.957 187.753 139.957 187.26V182.1C139.957 180.273 139.257 179.36 137.857 179.36C136.191 179.36 135.357 180.653 135.357 183.24V187.26C135.357 187.753 135.097 188 134.577 188H134.457C133.951 188 133.697 187.753 133.697 187.26V178.9C133.697 178.393 133.951 178.14 134.457 178.14Z" fill="#21282E"/>
<path d="M704.22 113.14H704.34C704.86 113.14 705.12 113.393 705.12 113.9V114.74C705.733 113.58 706.673 113 707.94 113C708.753 113 709.427 113.22 709.96 113.66C710.507 114.087 710.88 114.687 711.08 115.46C711.293 114.687 711.687 114.08 712.26 113.64C712.833 113.2 713.493 112.98 714.24 112.98C716.533 112.98 717.68 114.32 717.68 117V122.26C717.68 122.753 717.413 123 716.88 123H716.76C716.253 123 716 122.753 716 122.26V117.1C716 115.273 715.307 114.36 713.92 114.36C712.947 114.36 712.28 114.713 711.92 115.42C711.573 116.127 711.4 117.087 711.4 118.3V122.26C711.4 122.753 711.14 123 710.62 123H710.48C709.973 123 709.72 122.753 709.72 122.26V117.1C709.72 115.273 709.02 114.36 707.62 114.36C705.953 114.36 705.12 115.653 705.12 118.24V122.26C705.12 122.753 704.86 123 704.34 123H704.22C703.713 123 703.46 122.753 703.46 122.26V113.9C703.46 113.393 703.713 113.14 704.22 113.14ZM723.894 112.98C726.72 112.98 728.134 114.293 728.134 116.92V120.88C728.134 121.613 728.414 122.08 728.974 122.28C728.774 122.787 728.4 123.04 727.854 123.04C727.454 123.04 727.134 122.9 726.894 122.62C726.667 122.327 726.554 121.947 726.554 121.48C725.714 122.6 724.627 123.16 723.294 123.16C722.214 123.16 721.36 122.887 720.734 122.34C720.12 121.78 719.814 121.033 719.814 120.1C719.814 119.153 720.174 118.387 720.894 117.8C721.627 117.213 722.614 116.92 723.854 116.92C724.6 116.92 725.227 117 725.734 117.16C726.147 117.307 726.394 117.4 726.474 117.44V116.56C726.474 115.747 726.267 115.173 725.854 114.84C725.44 114.493 724.814 114.32 723.974 114.32C722.787 114.32 721.867 114.773 721.214 115.68C720.654 115.6 720.374 115.34 720.374 114.9C720.374 114.393 720.72 113.947 721.414 113.56C722.107 113.173 722.934 112.98 723.894 112.98ZM726.474 118.72C725.634 118.347 724.807 118.16 723.994 118.16C723.18 118.16 722.554 118.333 722.114 118.68C721.674 119.027 721.454 119.48 721.454 120.04C721.454 120.587 721.64 121.027 722.014 121.36C722.4 121.68 722.96 121.84 723.694 121.84C724.44 121.84 725.087 121.573 725.634 121.04C726.194 120.507 726.474 119.86 726.474 119.1V118.72ZM732.177 113.14H732.297C732.804 113.14 733.057 113.387 733.057 113.88V122.24C733.057 122.747 732.804 123 732.297 123H732.177C731.671 123 731.417 122.747 731.417 122.24V113.88C731.417 113.387 731.671 113.14 732.177 113.14ZM731.137 110.32C731.137 110.013 731.244 109.753 731.457 109.54C731.671 109.313 731.924 109.2 732.217 109.2C732.524 109.2 732.784 109.313 732.997 109.54C733.224 109.753 733.337 110.013 733.337 110.32C733.337 110.613 733.231 110.873 733.017 111.1C732.804 111.313 732.544 111.42 732.237 111.42C731.931 111.42 731.671 111.313 731.457 111.1C731.244 110.887 731.137 110.627 731.137 110.32ZM737.072 113.14H737.212C737.718 113.14 737.972 113.393 737.972 113.9V114.88C738.225 114.373 738.625 113.927 739.172 113.54C739.718 113.153 740.345 112.96 741.052 112.96C742.132 112.96 743.012 113.287 743.692 113.94C744.385 114.58 744.732 115.6 744.732 117V122.24C744.732 122.507 744.672 122.7 744.552 122.82C744.432 122.94 744.238 123 743.972 123H743.812C743.318 123 743.072 122.747 743.072 122.24V117.06C743.072 116.087 742.865 115.393 742.452 114.98C742.038 114.567 741.438 114.36 740.652 114.36C739.865 114.36 739.225 114.68 738.732 115.32C738.238 115.96 737.992 116.807 737.992 117.86V122.24C737.992 122.747 737.732 123 737.212 123H737.072C736.805 123 736.612 122.94 736.492 122.82C736.372 122.7 736.312 122.507 736.312 122.24V113.9C736.312 113.393 736.565 113.14 737.072 113.14ZM757.312 112.98C760.138 112.98 761.552 114.293 761.552 116.92V120.88C761.552 121.613 761.832 122.08 762.392 122.28C762.192 122.787 761.818 123.04 761.272 123.04C760.872 123.04 760.552 122.9 760.312 122.62C760.085 122.327 759.972 121.947 759.972 121.48C759.132 122.6 758.045 123.16 756.712 123.16C755.632 123.16 754.778 122.887 754.152 122.34C753.538 121.78 753.232 121.033 753.232 120.1C753.232 119.153 753.592 118.387 754.312 117.8C755.045 117.213 756.032 116.92 757.272 116.92C758.018 116.92 758.645 117 759.152 117.16C759.565 117.307 759.812 117.4 759.892 117.44V116.56C759.892 115.747 759.685 115.173 759.272 114.84C758.858 114.493 758.232 114.32 757.392 114.32C756.205 114.32 755.285 114.773 754.632 115.68C754.072 115.6 753.792 115.34 753.792 114.9C753.792 114.393 754.138 113.947 754.832 113.56C755.525 113.173 756.352 112.98 757.312 112.98ZM759.892 118.72C759.052 118.347 758.225 118.16 757.412 118.16C756.598 118.16 755.972 118.333 755.532 118.68C755.092 119.027 754.872 119.48 754.872 120.04C754.872 120.587 755.058 121.027 755.432 121.36C755.818 121.68 756.378 121.84 757.112 121.84C757.858 121.84 758.505 121.573 759.052 121.04C759.612 120.507 759.892 119.86 759.892 119.1V118.72ZM764.695 113.14H765.315C765.648 113.14 765.922 113.3 766.135 113.62L768.395 117.08C768.968 116.373 769.735 115.22 770.695 113.62C770.895 113.3 771.155 113.14 771.475 113.14H771.835C772.222 113.14 772.415 113.293 772.415 113.6C772.415 113.707 772.388 113.807 772.335 113.9C771.575 115.193 770.562 116.58 769.295 118.06L772.435 122.24C772.542 122.387 772.595 122.52 772.595 122.64C772.595 122.88 772.455 123 772.175 123H771.395C771.062 123 770.762 122.813 770.495 122.44L768.235 119.18C768.022 119.393 767.775 119.707 767.495 120.12C767.215 120.533 767.008 120.833 766.875 121.02C766.475 121.62 766.155 122.12 765.915 122.52C765.702 122.84 765.428 123 765.095 123H764.735C764.575 123 764.442 122.947 764.335 122.84C764.228 122.733 764.175 122.62 764.175 122.5C764.175 122.367 764.215 122.24 764.295 122.12C765.202 120.787 766.235 119.473 767.395 118.18L764.275 113.9C764.195 113.807 764.155 113.7 764.155 113.58C764.155 113.46 764.202 113.36 764.295 113.28C764.402 113.187 764.535 113.14 764.695 113.14ZM776.162 113.14H776.282C776.788 113.14 777.042 113.387 777.042 113.88V122.24C777.042 122.747 776.788 123 776.282 123H776.162C775.655 123 775.402 122.747 775.402 122.24V113.88C775.402 113.387 775.655 113.14 776.162 113.14ZM775.122 110.32C775.122 110.013 775.228 109.753 775.442 109.54C775.655 109.313 775.908 109.2 776.202 109.2C776.508 109.2 776.768 109.313 776.982 109.54C777.208 109.753 777.322 110.013 777.322 110.32C777.322 110.613 777.215 110.873 777.002 111.1C776.788 111.313 776.528 111.42 776.222 111.42C775.915 111.42 775.655 111.313 775.442 111.1C775.228 110.887 775.122 110.627 775.122 110.32ZM779.896 115.88C779.896 114.973 780.283 114.26 781.056 113.74C781.843 113.207 782.716 112.94 783.676 112.94C784.636 112.94 785.376 113.08 785.896 113.36C786.429 113.627 786.696 113.947 786.696 114.32C786.696 114.693 786.436 114.967 785.916 115.14C785.823 114.927 785.563 114.727 785.136 114.54C784.723 114.353 784.209 114.26 783.596 114.26C782.983 114.26 782.476 114.38 782.076 114.62C781.689 114.847 781.496 115.173 781.496 115.6C781.496 116.013 781.643 116.333 781.936 116.56C782.229 116.787 782.916 117.027 783.996 117.28C785.089 117.52 785.923 117.873 786.496 118.34C787.069 118.807 787.356 119.46 787.356 120.3C787.356 121.14 786.969 121.827 786.196 122.36C785.423 122.88 784.469 123.14 783.336 123.14C782.216 123.14 781.316 123 780.636 122.72C779.969 122.427 779.636 122.047 779.636 121.58C779.636 121.113 779.856 120.773 780.296 120.56C780.483 120.92 780.843 121.227 781.376 121.48C781.909 121.733 782.576 121.86 783.376 121.86C784.176 121.86 784.783 121.713 785.196 121.42C785.623 121.127 785.836 120.767 785.836 120.34C785.836 119.9 785.643 119.56 785.256 119.32C784.883 119.067 784.143 118.82 783.036 118.58C781.943 118.34 781.143 118 780.636 117.56C780.143 117.107 779.896 116.547 779.896 115.88Z" fill="black"/>
<path d="M704.22 113.14H704.34C704.86 113.14 705.12 113.393 705.12 113.9V114.74C705.733 113.58 706.673 113 707.94 113C708.753 113 709.427 113.22 709.96 113.66C710.507 114.087 710.88 114.687 711.08 115.46C711.293 114.687 711.687 114.08 712.26 113.64C712.833 113.2 713.493 112.98 714.24 112.98C716.533 112.98 717.68 114.32 717.68 117V122.26C717.68 122.753 717.413 123 716.88 123H716.76C716.253 123 716 122.753 716 122.26V117.1C716 115.273 715.307 114.36 713.92 114.36C712.947 114.36 712.28 114.713 711.92 115.42C711.573 116.127 711.4 117.087 711.4 118.3V122.26C711.4 122.753 711.14 123 710.62 123H710.48C709.973 123 709.72 122.753 709.72 122.26V117.1C709.72 115.273 709.02 114.36 707.62 114.36C705.953 114.36 705.12 115.653 705.12 118.24V122.26C705.12 122.753 704.86 123 704.34 123H704.22C703.713 123 703.46 122.753 703.46 122.26V113.9C703.46 113.393 703.713 113.14 704.22 113.14ZM723.894 112.98C726.72 112.98 728.134 114.293 728.134 116.92V120.88C728.134 121.613 728.414 122.08 728.974 122.28C728.774 122.787 728.4 123.04 727.854 123.04C727.454 123.04 727.134 122.9 726.894 122.62C726.667 122.327 726.554 121.947 726.554 121.48C725.714 122.6 724.627 123.16 723.294 123.16C722.214 123.16 721.36 122.887 720.734 122.34C720.12 121.78 719.814 121.033 719.814 120.1C719.814 119.153 720.174 118.387 720.894 117.8C721.627 117.213 722.614 116.92 723.854 116.92C724.6 116.92 725.227 117 725.734 117.16C726.147 117.307 726.394 117.4 726.474 117.44V116.56C726.474 115.747 726.267 115.173 725.854 114.84C725.44 114.493 724.814 114.32 723.974 114.32C722.787 114.32 721.867 114.773 721.214 115.68C720.654 115.6 720.374 115.34 720.374 114.9C720.374 114.393 720.72 113.947 721.414 113.56C722.107 113.173 722.934 112.98 723.894 112.98ZM726.474 118.72C725.634 118.347 724.807 118.16 723.994 118.16C723.18 118.16 722.554 118.333 722.114 118.68C721.674 119.027 721.454 119.48 721.454 120.04C721.454 120.587 721.64 121.027 722.014 121.36C722.4 121.68 722.96 121.84 723.694 121.84C724.44 121.84 725.087 121.573 725.634 121.04C726.194 120.507 726.474 119.86 726.474 119.1V118.72ZM732.177 113.14H732.297C732.804 113.14 733.057 113.387 733.057 113.88V122.24C733.057 122.747 732.804 123 732.297 123H732.177C731.671 123 731.417 122.747 731.417 122.24V113.88C731.417 113.387 731.671 113.14 732.177 113.14ZM731.137 110.32C731.137 110.013 731.244 109.753 731.457 109.54C731.671 109.313 731.924 109.2 732.217 109.2C732.524 109.2 732.784 109.313 732.997 109.54C733.224 109.753 733.337 110.013 733.337 110.32C733.337 110.613 733.231 110.873 733.017 111.1C732.804 111.313 732.544 111.42 732.237 111.42C731.931 111.42 731.671 111.313 731.457 111.1C731.244 110.887 731.137 110.627 731.137 110.32ZM737.072 113.14H737.212C737.718 113.14 737.972 113.393 737.972 113.9V114.88C738.225 114.373 738.625 113.927 739.172 113.54C739.718 113.153 740.345 112.96 741.052 112.96C742.132 112.96 743.012 113.287 743.692 113.94C744.385 114.58 744.732 115.6 744.732 117V122.24C744.732 122.507 744.672 122.7 744.552 122.82C744.432 122.94 744.238 123 743.972 123H743.812C743.318 123 743.072 122.747 743.072 122.24V117.06C743.072 116.087 742.865 115.393 742.452 114.98C742.038 114.567 741.438 114.36 740.652 114.36C739.865 114.36 739.225 114.68 738.732 115.32C738.238 115.96 737.992 116.807 737.992 117.86V122.24C737.992 122.747 737.732 123 737.212 123H737.072C736.805 123 736.612 122.94 736.492 122.82C736.372 122.7 736.312 122.507 736.312 122.24V113.9C736.312 113.393 736.565 113.14 737.072 113.14ZM757.312 112.98C760.138 112.98 761.552 114.293 761.552 116.92V120.88C761.552 121.613 761.832 122.08 762.392 122.28C762.192 122.787 761.818 123.04 761.272 123.04C760.872 123.04 760.552 122.9 760.312 122.62C760.085 122.327 759.972 121.947 759.972 121.48C759.132 122.6 758.045 123.16 756.712 123.16C755.632 123.16 754.778 122.887 754.152 122.34C753.538 121.78 753.232 121.033 753.232 120.1C753.232 119.153 753.592 118.387 754.312 117.8C755.045 117.213 756.032 116.92 757.272 116.92C758.018 116.92 758.645 117 759.152 117.16C759.565 117.307 759.812 117.4 759.892 117.44V116.56C759.892 115.747 759.685 115.173 759.272 114.84C758.858 114.493 758.232 114.32 757.392 114.32C756.205 114.32 755.285 114.773 754.632 115.68C754.072 115.6 753.792 115.34 753.792 114.9C753.792 114.393 754.138 113.947 754.832 113.56C755.525 113.173 756.352 112.98 757.312 112.98ZM759.892 118.72C759.052 118.347 758.225 118.16 757.412 118.16C756.598 118.16 755.972 118.333 755.532 118.68C755.092 119.027 754.872 119.48 754.872 120.04C754.872 120.587 755.058 121.027 755.432 121.36C755.818 121.68 756.378 121.84 757.112 121.84C757.858 121.84 758.505 121.573 759.052 121.04C759.612 120.507 759.892 119.86 759.892 119.1V118.72ZM764.695 113.14H765.315C765.648 113.14 765.922 113.3 766.135 113.62L768.395 117.08C768.968 116.373 769.735 115.22 770.695 113.62C770.895 113.3 771.155 113.14 771.475 113.14H771.835C772.222 113.14 772.415 113.293 772.415 113.6C772.415 113.707 772.388 113.807 772.335 113.9C771.575 115.193 770.562 116.58 769.295 118.06L772.435 122.24C772.542 122.387 772.595 122.52 772.595 122.64C772.595 122.88 772.455 123 772.175 123H771.395C771.062 123 770.762 122.813 770.495 122.44L768.235 119.18C768.022 119.393 767.775 119.707 767.495 120.12C767.215 120.533 767.008 120.833 766.875 121.02C766.475 121.62 766.155 122.12 765.915 122.52C765.702 122.84 765.428 123 765.095 123H764.735C764.575 123 764.442 122.947 764.335 122.84C764.228 122.733 764.175 122.62 764.175 122.5C764.175 122.367 764.215 122.24 764.295 122.12C765.202 120.787 766.235 119.473 767.395 118.18L764.275 113.9C764.195 113.807 764.155 113.7 764.155 113.58C764.155 113.46 764.202 113.36 764.295 113.28C764.402 113.187 764.535 113.14 764.695 113.14ZM776.162 113.14H776.282C776.788 113.14 777.042 113.387 777.042 113.88V122.24C777.042 122.747 776.788 123 776.282 123H776.162C775.655 123 775.402 122.747 775.402 122.24V113.88C775.402 113.387 775.655 113.14 776.162 113.14ZM775.122 110.32C775.122 110.013 775.228 109.753 775.442 109.54C775.655 109.313 775.908 109.2 776.202 109.2C776.508 109.2 776.768 109.313 776.982 109.54C777.208 109.753 777.322 110.013 777.322 110.32C777.322 110.613 777.215 110.873 777.002 111.1C776.788 111.313 776.528 111.42 776.222 111.42C775.915 111.42 775.655 111.313 775.442 111.1C775.228 110.887 775.122 110.627 775.122 110.32ZM779.896 115.88C779.896 114.973 780.283 114.26 781.056 113.74C781.843 113.207 782.716 112.94 783.676 112.94C784.636 112.94 785.376 113.08 785.896 113.36C786.429 113.627 786.696 113.947 786.696 114.32C786.696 114.693 786.436 114.967 785.916 115.14C785.823 114.927 785.563 114.727 785.136 114.54C784.723 114.353 784.209 114.26 783.596 114.26C782.983 114.26 782.476 114.38 782.076 114.62C781.689 114.847 781.496 115.173 781.496 115.6C781.496 116.013 781.643 116.333 781.936 116.56C782.229 116.787 782.916 117.027 783.996 117.28C785.089 117.52 785.923 117.873 786.496 118.34C787.069 118.807 787.356 119.46 787.356 120.3C787.356 121.14 786.969 121.827 786.196 122.36C785.423 122.88 784.469 123.14 783.336 123.14C782.216 123.14 781.316 123 780.636 122.72C779.969 122.427 779.636 122.047 779.636 121.58C779.636 121.113 779.856 120.773 780.296 120.56C780.483 120.92 780.843 121.227 781.376 121.48C781.909 121.733 782.576 121.86 783.376 121.86C784.176 121.86 784.783 121.713 785.196 121.42C785.623 121.127 785.836 120.767 785.836 120.34C785.836 119.9 785.643 119.56 785.256 119.32C784.883 119.067 784.143 118.82 783.036 118.58C781.943 118.34 781.143 118 780.636 117.56C780.143 117.107 779.896 116.547 779.896 115.88Z" fill="black"/>
<path d="M377.42 246.1C377.913 245.713 378.44 245.427 379 245.24C379.56 245.053 380.24 244.96 381.04 244.96C381.84 244.96 382.54 245.14 383.14 245.5C383.753 245.86 384.06 246.247 384.06 246.66C384.06 247.167 383.773 247.453 383.2 247.52C383.067 247.227 382.767 246.96 382.3 246.72C381.833 246.467 381.28 246.34 380.64 246.34C379.747 246.34 379.007 246.66 378.42 247.3C377.833 247.927 377.54 248.847 377.54 250.06C377.54 251.273 377.84 252.2 378.44 252.84C379.04 253.48 379.76 253.8 380.6 253.8C381.933 253.8 382.833 253.367 383.3 252.5C383.553 252.5 383.767 252.58 383.94 252.74C384.113 252.887 384.2 253.08 384.2 253.32C384.2 253.787 383.88 254.213 383.24 254.6C382.6 254.973 381.867 255.16 381.04 255.16C380.227 255.16 379.533 255.067 378.96 254.88C378.4 254.68 377.88 254.387 377.4 254C376.92 253.6 376.54 253.067 376.26 252.4C375.98 251.733 375.84 250.96 375.84 250.08C375.84 249.187 375.98 248.4 376.26 247.72C376.553 247.027 376.94 246.487 377.42 246.1ZM387.122 245.14H387.242C387.749 245.14 388.002 245.387 388.002 245.88V246.96C388.229 246.453 388.589 246 389.082 245.6C389.589 245.2 390.129 245 390.702 245C391.276 245 391.709 245.113 392.002 245.34C392.309 245.567 392.462 245.847 392.462 246.18C392.462 246.5 392.322 246.753 392.042 246.94C391.629 246.593 391.189 246.42 390.722 246.42C389.896 246.42 389.242 246.76 388.762 247.44C388.282 248.107 388.042 248.947 388.042 249.96V254.24C388.042 254.507 387.982 254.7 387.862 254.82C387.742 254.94 387.549 255 387.282 255H387.122C386.856 255 386.662 254.94 386.542 254.82C386.422 254.7 386.362 254.507 386.362 254.24V245.88C386.362 245.387 386.616 245.14 387.122 245.14ZM395.092 246.3C396.039 245.407 397.199 244.96 398.572 244.96C399.945 244.96 401.105 245.407 402.052 246.3C402.999 247.193 403.472 248.453 403.472 250.08C403.472 251.707 402.999 252.96 402.052 253.84C401.105 254.72 399.945 255.16 398.572 255.16C397.199 255.16 396.039 254.72 395.092 253.84C394.145 252.96 393.672 251.707 393.672 250.08C393.672 248.453 394.145 247.193 395.092 246.3ZM400.872 247.32C400.285 246.667 399.519 246.34 398.572 246.34C397.625 246.34 396.852 246.667 396.252 247.32C395.665 247.96 395.372 248.88 395.372 250.08C395.372 251.267 395.665 252.187 396.252 252.84C396.852 253.48 397.625 253.8 398.572 253.8C399.519 253.8 400.285 253.48 400.872 252.84C401.472 252.187 401.772 251.267 401.772 250.08C401.772 248.88 401.472 247.96 400.872 247.32ZM405.376 247.88C405.376 246.973 405.763 246.26 406.536 245.74C407.323 245.207 408.196 244.94 409.156 244.94C410.116 244.94 410.856 245.08 411.376 245.36C411.91 245.627 412.176 245.947 412.176 246.32C412.176 246.693 411.916 246.967 411.396 247.14C411.303 246.927 411.043 246.727 410.616 246.54C410.203 246.353 409.69 246.26 409.076 246.26C408.463 246.26 407.956 246.38 407.556 246.62C407.17 246.847 406.976 247.173 406.976 247.6C406.976 248.013 407.123 248.333 407.416 248.56C407.71 248.787 408.396 249.027 409.476 249.28C410.57 249.52 411.403 249.873 411.976 250.34C412.55 250.807 412.836 251.46 412.836 252.3C412.836 253.14 412.45 253.827 411.676 254.36C410.903 254.88 409.95 255.14 408.816 255.14C407.696 255.14 406.796 255 406.116 254.72C405.45 254.427 405.116 254.047 405.116 253.58C405.116 253.113 405.336 252.773 405.776 252.56C405.963 252.92 406.323 253.227 406.856 253.48C407.39 253.733 408.056 253.86 408.856 253.86C409.656 253.86 410.263 253.713 410.676 253.42C411.103 253.127 411.316 252.767 411.316 252.34C411.316 251.9 411.123 251.56 410.736 251.32C410.363 251.067 409.623 250.82 408.516 250.58C407.423 250.34 406.623 250 406.116 249.56C405.623 249.107 405.376 248.547 405.376 247.88ZM414.634 247.88C414.634 246.973 415.021 246.26 415.794 245.74C416.581 245.207 417.454 244.94 418.414 244.94C419.374 244.94 420.114 245.08 420.634 245.36C421.168 245.627 421.434 245.947 421.434 246.32C421.434 246.693 421.174 246.967 420.654 247.14C420.561 246.927 420.301 246.727 419.874 246.54C419.461 246.353 418.948 246.26 418.334 246.26C417.721 246.26 417.214 246.38 416.814 246.62C416.428 246.847 416.234 247.173 416.234 247.6C416.234 248.013 416.381 248.333 416.674 248.56C416.968 248.787 417.654 249.027 418.734 249.28C419.828 249.52 420.661 249.873 421.234 250.34C421.808 250.807 422.094 251.46 422.094 252.3C422.094 253.14 421.708 253.827 420.934 254.36C420.161 254.88 419.208 255.14 418.074 255.14C416.954 255.14 416.054 255 415.374 254.72C414.708 254.427 414.374 254.047 414.374 253.58C414.374 253.113 414.594 252.773 415.034 252.56C415.221 252.92 415.581 253.227 416.114 253.48C416.648 253.733 417.314 253.86 418.114 253.86C418.914 253.86 419.521 253.713 419.934 253.42C420.361 253.127 420.574 252.767 420.574 252.34C420.574 251.9 420.381 251.56 419.994 251.32C419.621 251.067 418.881 250.82 417.774 250.58C416.681 250.34 415.881 250 415.374 249.56C414.881 249.107 414.634 248.547 414.634 247.88ZM434.159 244.98C436.986 244.98 438.399 246.293 438.399 248.92V252.88C438.399 253.613 438.679 254.08 439.239 254.28C439.039 254.787 438.666 255.04 438.119 255.04C437.719 255.04 437.399 254.9 437.159 254.62C436.933 254.327 436.819 253.947 436.819 253.48C435.979 254.6 434.893 255.16 433.559 255.16C432.479 255.16 431.626 254.887 430.999 254.34C430.386 253.78 430.079 253.033 430.079 252.1C430.079 251.153 430.439 250.387 431.159 249.8C431.893 249.213 432.879 248.92 434.119 248.92C434.866 248.92 435.493 249 435.999 249.16C436.413 249.307 436.659 249.4 436.739 249.44V248.56C436.739 247.747 436.533 247.173 436.119 246.84C435.706 246.493 435.079 246.32 434.239 246.32C433.053 246.32 432.133 246.773 431.479 247.68C430.919 247.6 430.639 247.34 430.639 246.9C430.639 246.393 430.986 245.947 431.679 245.56C432.373 245.173 433.199 244.98 434.159 244.98ZM436.739 250.72C435.899 250.347 435.073 250.16 434.259 250.16C433.446 250.16 432.819 250.333 432.379 250.68C431.939 251.027 431.719 251.48 431.719 252.04C431.719 252.587 431.906 253.027 432.279 253.36C432.666 253.68 433.226 253.84 433.959 253.84C434.706 253.84 435.353 253.573 435.899 253.04C436.459 252.507 436.739 251.86 436.739 251.1V250.72ZM441.543 245.14H442.163C442.496 245.14 442.769 245.3 442.983 245.62L445.243 249.08C445.816 248.373 446.583 247.22 447.543 245.62C447.743 245.3 448.003 245.14 448.323 245.14H448.683C449.069 245.14 449.263 245.293 449.263 245.6C449.263 245.707 449.236 245.807 449.183 245.9C448.423 247.193 447.409 248.58 446.143 250.06L449.283 254.24C449.389 254.387 449.443 254.52 449.443 254.64C449.443 254.88 449.303 255 449.023 255H448.243C447.909 255 447.609 254.813 447.343 254.44L445.083 251.18C444.869 251.393 444.623 251.707 444.343 252.12C444.063 252.533 443.856 252.833 443.723 253.02C443.323 253.62 443.003 254.12 442.763 254.52C442.549 254.84 442.276 255 441.943 255H441.583C441.423 255 441.289 254.947 441.183 254.84C441.076 254.733 441.023 254.62 441.023 254.5C441.023 254.367 441.063 254.24 441.143 254.12C442.049 252.787 443.083 251.473 444.243 250.18L441.123 245.9C441.043 245.807 441.003 245.7 441.003 245.58C441.003 245.46 441.049 245.36 441.143 245.28C441.249 245.187 441.383 245.14 441.543 245.14ZM453.009 245.14H453.129C453.636 245.14 453.889 245.387 453.889 245.88V254.24C453.889 254.747 453.636 255 453.129 255H453.009C452.503 255 452.249 254.747 452.249 254.24V245.88C452.249 245.387 452.503 245.14 453.009 245.14ZM451.969 242.32C451.969 242.013 452.076 241.753 452.289 241.54C452.503 241.313 452.756 241.2 453.049 241.2C453.356 241.2 453.616 241.313 453.829 241.54C454.056 241.753 454.169 242.013 454.169 242.32C454.169 242.613 454.063 242.873 453.849 243.1C453.636 243.313 453.376 243.42 453.069 243.42C452.763 243.42 452.503 243.313 452.289 243.1C452.076 242.887 451.969 242.627 451.969 242.32ZM456.744 247.88C456.744 246.973 457.13 246.26 457.904 245.74C458.69 245.207 459.564 244.94 460.524 244.94C461.484 244.94 462.224 245.08 462.744 245.36C463.277 245.627 463.544 245.947 463.544 246.32C463.544 246.693 463.284 246.967 462.764 247.14C462.67 246.927 462.41 246.727 461.984 246.54C461.57 246.353 461.057 246.26 460.444 246.26C459.83 246.26 459.324 246.38 458.924 246.62C458.537 246.847 458.344 247.173 458.344 247.6C458.344 248.013 458.49 248.333 458.784 248.56C459.077 248.787 459.764 249.027 460.844 249.28C461.937 249.52 462.77 249.873 463.344 250.34C463.917 250.807 464.204 251.46 464.204 252.3C464.204 253.14 463.817 253.827 463.044 254.36C462.27 254.88 461.317 255.14 460.184 255.14C459.064 255.14 458.164 255 457.484 254.72C456.817 254.427 456.484 254.047 456.484 253.58C456.484 253.113 456.704 252.773 457.144 252.56C457.33 252.92 457.69 253.227 458.224 253.48C458.757 253.733 459.424 253.86 460.224 253.86C461.024 253.86 461.63 253.713 462.044 253.42C462.47 253.127 462.684 252.767 462.684 252.34C462.684 251.9 462.49 251.56 462.104 251.32C461.73 251.067 460.99 250.82 459.884 250.58C458.79 250.34 457.99 250 457.484 249.56C456.99 249.107 456.744 248.547 456.744 247.88Z" fill="black"/>
<path d="M289.95 173.64C290.563 173.64 291.07 173.78 291.47 174.06C291.883 174.34 292.09 174.693 292.09 175.12C292.09 175.533 291.877 175.813 291.45 175.96C291.117 175.4 290.583 175.12 289.85 175.12C288.463 175.12 287.77 176.08 287.77 178V178.2H290.23C290.737 178.2 290.99 178.427 290.99 178.88C290.99 179.32 290.737 179.54 290.23 179.54H287.77V187.34C287.77 187.607 287.71 187.8 287.59 187.92C287.47 188.027 287.277 188.08 287.01 188.08H286.91C286.63 188.08 286.43 188.027 286.31 187.92C286.19 187.8 286.13 187.607 286.13 187.34V179.54H285.09C284.81 179.54 284.61 179.5 284.49 179.42C284.383 179.327 284.33 179.147 284.33 178.88C284.33 178.613 284.39 178.433 284.51 178.34C284.63 178.247 284.823 178.2 285.09 178.2H286.13V177.56C286.13 176.32 286.47 175.36 287.15 174.68C287.83 173.987 288.763 173.64 289.95 173.64ZM293.531 173.98H293.671C294.177 173.98 294.431 174.227 294.431 174.72V187.24C294.431 187.747 294.177 188 293.671 188H293.531C293.251 188 293.051 187.94 292.931 187.82C292.824 187.7 292.771 187.507 292.771 187.24V174.72C292.771 174.453 292.824 174.267 292.931 174.16C293.051 174.04 293.251 173.98 293.531 173.98ZM296.855 183.1C296.855 181.433 297.321 180.16 298.255 179.28C299.188 178.4 300.261 177.96 301.475 177.96C302.688 177.96 303.648 178.273 304.355 178.9C305.061 179.513 305.415 180.28 305.415 181.2C305.415 182.12 305.048 182.84 304.315 183.36C303.595 183.867 302.661 184.12 301.515 184.12C300.368 184.12 299.335 183.94 298.415 183.58C298.415 184.553 298.748 185.34 299.415 185.94C300.081 186.527 300.895 186.82 301.855 186.82C303.348 186.82 304.281 186.36 304.655 185.44C304.881 185.44 305.075 185.507 305.235 185.64C305.395 185.76 305.475 185.94 305.475 186.18C305.475 186.647 305.128 187.093 304.435 187.52C303.755 187.947 302.888 188.16 301.835 188.16C300.421 188.16 299.235 187.733 298.275 186.88C297.328 186.027 296.855 184.767 296.855 183.1ZM303.895 181.14C303.895 180.62 303.668 180.18 303.215 179.82C302.775 179.46 302.161 179.28 301.375 179.28C300.601 179.28 299.921 179.593 299.335 180.22C298.748 180.847 298.448 181.553 298.435 182.34C299.395 182.66 300.348 182.82 301.295 182.82C303.028 182.82 303.895 182.26 303.895 181.14ZM307.968 178.14H308.588C308.921 178.14 309.194 178.3 309.408 178.62L311.668 182.08C312.241 181.373 313.008 180.22 313.968 178.62C314.168 178.3 314.428 178.14 314.748 178.14H315.108C315.494 178.14 315.688 178.293 315.688 178.6C315.688 178.707 315.661 178.807 315.608 178.9C314.848 180.193 313.834 181.58 312.568 183.06L315.708 187.24C315.814 187.387 315.868 187.52 315.868 187.64C315.868 187.88 315.728 188 315.448 188H314.668C314.334 188 314.034 187.813 313.768 187.44L311.508 184.18C311.294 184.393 311.048 184.707 310.768 185.12C310.488 185.533 310.281 185.833 310.148 186.02C309.748 186.62 309.428 187.12 309.188 187.52C308.974 187.84 308.701 188 308.368 188H308.008C307.848 188 307.714 187.947 307.608 187.84C307.501 187.733 307.448 187.62 307.448 187.5C307.448 187.367 307.488 187.24 307.568 187.12C308.474 185.787 309.508 184.473 310.668 183.18L307.548 178.9C307.468 178.807 307.428 178.7 307.428 178.58C307.428 178.46 307.474 178.36 307.568 178.28C307.674 178.187 307.808 178.14 307.968 178.14ZM318.614 181.46H323.934C324.427 181.46 324.674 181.68 324.674 182.12C324.674 182.56 324.427 182.78 323.934 182.78H318.614C318.121 182.78 317.874 182.56 317.874 182.12C317.874 181.68 318.121 181.46 318.614 181.46ZM328.243 178.14H328.363C328.869 178.14 329.123 178.387 329.123 178.88V187.24C329.123 187.747 328.869 188 328.363 188H328.243C327.736 188 327.483 187.747 327.483 187.24V178.88C327.483 178.387 327.736 178.14 328.243 178.14ZM327.203 175.32C327.203 175.013 327.309 174.753 327.523 174.54C327.736 174.313 327.989 174.2 328.283 174.2C328.589 174.2 328.849 174.313 329.063 174.54C329.289 174.753 329.403 175.013 329.403 175.32C329.403 175.613 329.296 175.873 329.083 176.1C328.869 176.313 328.609 176.42 328.303 176.42C327.996 176.42 327.736 176.313 327.523 176.1C327.309 175.887 327.203 175.627 327.203 175.32ZM333.997 175.48H334.137C334.644 175.48 334.897 175.727 334.897 176.22V178.2H337.657C338.177 178.2 338.437 178.427 338.437 178.88C338.437 179.333 338.177 179.56 337.657 179.56H334.897V184.6C334.897 185.44 335.057 186.033 335.377 186.38C335.71 186.713 336.19 186.88 336.817 186.88C337.457 186.88 337.93 186.727 338.237 186.42C338.57 186.527 338.737 186.74 338.737 187.06C338.737 187.38 338.517 187.647 338.077 187.86C337.637 188.06 337.11 188.16 336.497 188.16C334.324 188.16 333.237 186.973 333.237 184.6V179.56H332.257C331.964 179.56 331.75 179.513 331.617 179.42C331.484 179.327 331.417 179.147 331.417 178.88C331.417 178.427 331.697 178.2 332.257 178.2H333.237V176.22C333.237 175.727 333.49 175.48 333.997 175.48ZM339.784 183.1C339.784 181.433 340.251 180.16 341.184 179.28C342.118 178.4 343.191 177.96 344.404 177.96C345.618 177.96 346.578 178.273 347.284 178.9C347.991 179.513 348.344 180.28 348.344 181.2C348.344 182.12 347.978 182.84 347.244 183.36C346.524 183.867 345.591 184.12 344.444 184.12C343.298 184.12 342.264 183.94 341.344 183.58C341.344 184.553 341.678 185.34 342.344 185.94C343.011 186.527 343.824 186.82 344.784 186.82C346.278 186.82 347.211 186.36 347.584 185.44C347.811 185.44 348.004 185.507 348.164 185.64C348.324 185.76 348.404 185.94 348.404 186.18C348.404 186.647 348.058 187.093 347.364 187.52C346.684 187.947 345.818 188.16 344.764 188.16C343.351 188.16 342.164 187.733 341.204 186.88C340.258 186.027 339.784 184.767 339.784 183.1ZM346.824 181.14C346.824 180.62 346.598 180.18 346.144 179.82C345.704 179.46 345.091 179.28 344.304 179.28C343.531 179.28 342.851 179.593 342.264 180.22C341.678 180.847 341.378 181.553 341.364 182.34C342.324 182.66 343.278 182.82 344.224 182.82C345.958 182.82 346.824 182.26 346.824 181.14ZM351.457 178.14H351.577C352.097 178.14 352.357 178.393 352.357 178.9V179.74C352.971 178.58 353.911 178 355.177 178C355.991 178 356.664 178.22 357.197 178.66C357.744 179.087 358.117 179.687 358.317 180.46C358.531 179.687 358.924 179.08 359.497 178.64C360.071 178.2 360.731 177.98 361.477 177.98C363.771 177.98 364.917 179.32 364.917 182V187.26C364.917 187.753 364.651 188 364.117 188H363.997C363.491 188 363.237 187.753 363.237 187.26V182.1C363.237 180.273 362.544 179.36 361.157 179.36C360.184 179.36 359.517 179.713 359.157 180.42C358.811 181.127 358.637 182.087 358.637 183.3V187.26C358.637 187.753 358.377 188 357.857 188H357.717C357.211 188 356.957 187.753 356.957 187.26V182.1C356.957 180.273 356.257 179.36 354.857 179.36C353.191 179.36 352.357 180.653 352.357 183.24V187.26C352.357 187.753 352.097 188 351.577 188H351.457C350.951 188 350.697 187.753 350.697 187.26V178.9C350.697 178.393 350.951 178.14 351.457 178.14Z" fill="#21282E"/>
<path d="M506.95 173.64C507.563 173.64 508.07 173.78 508.47 174.06C508.883 174.34 509.09 174.693 509.09 175.12C509.09 175.533 508.877 175.813 508.45 175.96C508.117 175.4 507.583 175.12 506.85 175.12C505.463 175.12 504.77 176.08 504.77 178V178.2H507.23C507.737 178.2 507.99 178.427 507.99 178.88C507.99 179.32 507.737 179.54 507.23 179.54H504.77V187.34C504.77 187.607 504.71 187.8 504.59 187.92C504.47 188.027 504.277 188.08 504.01 188.08H503.91C503.63 188.08 503.43 188.027 503.31 187.92C503.19 187.8 503.13 187.607 503.13 187.34V179.54H502.09C501.81 179.54 501.61 179.5 501.49 179.42C501.383 179.327 501.33 179.147 501.33 178.88C501.33 178.613 501.39 178.433 501.51 178.34C501.63 178.247 501.823 178.2 502.09 178.2H503.13V177.56C503.13 176.32 503.47 175.36 504.15 174.68C504.83 173.987 505.763 173.64 506.95 173.64ZM510.531 173.98H510.671C511.177 173.98 511.431 174.227 511.431 174.72V187.24C511.431 187.747 511.177 188 510.671 188H510.531C510.251 188 510.051 187.94 509.931 187.82C509.824 187.7 509.771 187.507 509.771 187.24V174.72C509.771 174.453 509.824 174.267 509.931 174.16C510.051 174.04 510.251 173.98 510.531 173.98ZM513.855 183.1C513.855 181.433 514.321 180.16 515.255 179.28C516.188 178.4 517.261 177.96 518.475 177.96C519.688 177.96 520.648 178.273 521.355 178.9C522.061 179.513 522.415 180.28 522.415 181.2C522.415 182.12 522.048 182.84 521.315 183.36C520.595 183.867 519.661 184.12 518.515 184.12C517.368 184.12 516.335 183.94 515.415 183.58C515.415 184.553 515.748 185.34 516.415 185.94C517.081 186.527 517.895 186.82 518.855 186.82C520.348 186.82 521.281 186.36 521.655 185.44C521.881 185.44 522.075 185.507 522.235 185.64C522.395 185.76 522.475 185.94 522.475 186.18C522.475 186.647 522.128 187.093 521.435 187.52C520.755 187.947 519.888 188.16 518.835 188.16C517.421 188.16 516.235 187.733 515.275 186.88C514.328 186.027 513.855 184.767 513.855 183.1ZM520.895 181.14C520.895 180.62 520.668 180.18 520.215 179.82C519.775 179.46 519.161 179.28 518.375 179.28C517.601 179.28 516.921 179.593 516.335 180.22C515.748 180.847 515.448 181.553 515.435 182.34C516.395 182.66 517.348 182.82 518.295 182.82C520.028 182.82 520.895 182.26 520.895 181.14ZM524.968 178.14H525.588C525.921 178.14 526.194 178.3 526.408 178.62L528.668 182.08C529.241 181.373 530.008 180.22 530.968 178.62C531.168 178.3 531.428 178.14 531.748 178.14H532.108C532.494 178.14 532.688 178.293 532.688 178.6C532.688 178.707 532.661 178.807 532.608 178.9C531.848 180.193 530.834 181.58 529.568 183.06L532.708 187.24C532.814 187.387 532.868 187.52 532.868 187.64C532.868 187.88 532.728 188 532.448 188H531.668C531.334 188 531.034 187.813 530.768 187.44L528.508 184.18C528.294 184.393 528.048 184.707 527.768 185.12C527.488 185.533 527.281 185.833 527.148 186.02C526.748 186.62 526.428 187.12 526.188 187.52C525.974 187.84 525.701 188 525.368 188H525.008C524.848 188 524.714 187.947 524.608 187.84C524.501 187.733 524.448 187.62 524.448 187.5C524.448 187.367 524.488 187.24 524.568 187.12C525.474 185.787 526.508 184.473 527.668 183.18L524.548 178.9C524.468 178.807 524.428 178.7 524.428 178.58C524.428 178.46 524.474 178.36 524.568 178.28C524.674 178.187 524.808 178.14 524.968 178.14ZM535.614 181.46H540.934C541.427 181.46 541.674 181.68 541.674 182.12C541.674 182.56 541.427 182.78 540.934 182.78H535.614C535.121 182.78 534.874 182.56 534.874 182.12C534.874 181.68 535.121 181.46 535.614 181.46ZM545.243 178.14H545.363C545.869 178.14 546.123 178.387 546.123 178.88V187.24C546.123 187.747 545.869 188 545.363 188H545.243C544.736 188 544.483 187.747 544.483 187.24V178.88C544.483 178.387 544.736 178.14 545.243 178.14ZM544.203 175.32C544.203 175.013 544.309 174.753 544.523 174.54C544.736 174.313 544.989 174.2 545.283 174.2C545.589 174.2 545.849 174.313 546.063 174.54C546.289 174.753 546.403 175.013 546.403 175.32C546.403 175.613 546.296 175.873 546.083 176.1C545.869 176.313 545.609 176.42 545.303 176.42C544.996 176.42 544.736 176.313 544.523 176.1C544.309 175.887 544.203 175.627 544.203 175.32ZM550.997 175.48H551.137C551.644 175.48 551.897 175.727 551.897 176.22V178.2H554.657C555.177 178.2 555.437 178.427 555.437 178.88C555.437 179.333 555.177 179.56 554.657 179.56H551.897V184.6C551.897 185.44 552.057 186.033 552.377 186.38C552.71 186.713 553.19 186.88 553.817 186.88C554.457 186.88 554.93 186.727 555.237 186.42C555.57 186.527 555.737 186.74 555.737 187.06C555.737 187.38 555.517 187.647 555.077 187.86C554.637 188.06 554.11 188.16 553.497 188.16C551.324 188.16 550.237 186.973 550.237 184.6V179.56H549.257C548.964 179.56 548.75 179.513 548.617 179.42C548.484 179.327 548.417 179.147 548.417 178.88C548.417 178.427 548.697 178.2 549.257 178.2H550.237V176.22C550.237 175.727 550.49 175.48 550.997 175.48ZM556.784 183.1C556.784 181.433 557.251 180.16 558.184 179.28C559.118 178.4 560.191 177.96 561.404 177.96C562.618 177.96 563.578 178.273 564.284 178.9C564.991 179.513 565.344 180.28 565.344 181.2C565.344 182.12 564.978 182.84 564.244 183.36C563.524 183.867 562.591 184.12 561.444 184.12C560.298 184.12 559.264 183.94 558.344 183.58C558.344 184.553 558.678 185.34 559.344 185.94C560.011 186.527 560.824 186.82 561.784 186.82C563.278 186.82 564.211 186.36 564.584 185.44C564.811 185.44 565.004 185.507 565.164 185.64C565.324 185.76 565.404 185.94 565.404 186.18C565.404 186.647 565.058 187.093 564.364 187.52C563.684 187.947 562.818 188.16 561.764 188.16C560.351 188.16 559.164 187.733 558.204 186.88C557.258 186.027 556.784 184.767 556.784 183.1ZM563.824 181.14C563.824 180.62 563.598 180.18 563.144 179.82C562.704 179.46 562.091 179.28 561.304 179.28C560.531 179.28 559.851 179.593 559.264 180.22C558.678 180.847 558.378 181.553 558.364 182.34C559.324 182.66 560.278 182.82 561.224 182.82C562.958 182.82 563.824 182.26 563.824 181.14ZM568.457 178.14H568.577C569.097 178.14 569.357 178.393 569.357 178.9V179.74C569.971 178.58 570.911 178 572.177 178C572.991 178 573.664 178.22 574.197 178.66C574.744 179.087 575.117 179.687 575.317 180.46C575.531 179.687 575.924 179.08 576.497 178.64C577.071 178.2 577.731 177.98 578.477 177.98C580.771 177.98 581.917 179.32 581.917 182V187.26C581.917 187.753 581.651 188 581.117 188H580.997C580.491 188 580.237 187.753 580.237 187.26V182.1C580.237 180.273 579.544 179.36 578.157 179.36C577.184 179.36 576.517 179.713 576.157 180.42C575.811 181.127 575.637 182.087 575.637 183.3V187.26C575.637 187.753 575.377 188 574.857 188H574.717C574.211 188 573.957 187.753 573.957 187.26V182.1C573.957 180.273 573.257 179.36 571.857 179.36C570.191 179.36 569.357 180.653 569.357 183.24V187.26C569.357 187.753 569.097 188 568.577 188H568.457C567.951 188 567.697 187.753 567.697 187.26V178.9C567.697 178.393 567.951 178.14 568.457 178.14Z" fill="#21282E"/>
<path d="M756.061 135.061C756.646 134.475 756.646 133.525 756.061 132.939L746.515 123.393C745.929 122.808 744.979 122.808 744.393 123.393C743.808 123.979 743.808 124.929 744.393 125.515L752.879 134L744.393 142.485C743.808 143.071 743.808 144.021 744.393 144.607C744.979 145.192 745.929 145.192 746.515 144.607L756.061 135.061ZM364.939 275.061C365.525 275.646 366.475 275.646 367.061 275.061L376.607 265.515C377.192 264.929 377.192 263.979 376.607 263.393C376.021 262.808 375.071 262.808 374.485 263.393L366 271.879L357.515 263.393C356.929 262.808 355.979 262.808 355.393 263.393C354.808 263.979 354.808 264.929 355.393 265.515L364.939 275.061ZM31 135.5H366V132.5H31V135.5ZM366 135.5H755V132.5H366V135.5ZM364.5 41V134H367.5V41H364.5ZM364.5 134V274H367.5V134H364.5Z" fill="#E4002B"/>
</svg>
