<svg width="373" height="356" viewBox="0 0 373 356" fill="none" xmlns="http://www.w3.org/2000/svg">
<rect width="373" height="356" fill="white"/>
<path d="M229 247.085C230.228 245.513 235.819 237.878 235.872 239.144C235.942 240.82 234.645 247.927 237.857 247.009C239.718 246.477 246.552 234.743 246.868 243.267C246.961 245.793 247.383 255.154 250.38 250.445C252.262 247.487 255.114 237.547 255.114 241.053C255.114 243.606 259.143 256.8 262.292 253.652C265.128 250.816 267.139 247.457 269.164 244.031C269.468 243.517 272.7 237.532 272.905 238.457C273.347 240.446 274.842 255.963 276.036 256.095C281.166 256.665 280.954 239.684 284.282 238.686C284.886 238.505 285.779 250.949 287.566 248.765C290.742 244.883 291.71 239.557 294.133 235.25C294.702 234.237 298.082 246.731 298.485 248.612C301.235 261.445 303.043 246.504 304.517 240.977C307.798 228.672 305.986 238.335 308.03 243.649C308.614 245.17 308.237 247.827 309.404 248.994C310.113 249.703 312.751 238.097 313.909 242.962C314.369 244.894 315.393 259.302 316.276 259.302C319.188 259.302 322.115 247.785 322.461 245.711" stroke="#93227E" stroke-width="16" stroke-linecap="round" stroke-linejoin="round"/>
<path d="M45.968 252.143C46.9235 250.393 51.1969 241.948 51.4552 243.189C51.797 244.831 51.6746 252.054 54.6947 250.626C56.444 249.798 61.2756 237.108 62.9753 245.467C63.479 247.944 65.4197 257.111 67.6097 251.977C68.9851 248.752 70.1803 238.48 70.7512 241.939C71.167 244.458 77.2908 256.82 79.8846 253.201C82.221 249.941 83.6587 246.3 85.0983 242.589C85.3143 242.033 87.5288 235.601 87.8822 236.48C88.6424 238.371 92.6439 253.437 93.8433 253.374C98.9976 253.101 96.0229 236.381 99.1448 234.854C99.7106 234.577 102.618 246.709 104.026 244.264C106.527 239.917 106.615 234.504 108.304 229.86C108.701 228.767 114.07 240.545 114.774 242.335C119.577 254.549 118.928 239.512 119.482 233.819C120.716 221.144 120.501 230.973 123.383 235.884C124.208 237.289 124.268 239.972 125.61 240.933C126.425 241.518 127.137 229.637 129.072 234.248C129.841 236.079 133.197 250.129 134.069 249.985C136.941 249.511 137.954 237.671 137.958 235.568" stroke="#93227E" stroke-width="16" stroke-linecap="round" stroke-linejoin="round"/>
<path d="M166.968 252.143C167.924 250.393 172.197 241.948 172.455 243.189C172.797 244.831 172.675 252.054 175.695 250.626C177.444 249.798 182.276 237.108 183.975 245.467C184.479 247.944 186.42 257.111 188.61 251.977C189.985 248.752 191.18 238.48 191.751 241.939C192.167 244.458 198.291 256.82 200.885 253.201C203.221 249.941 204.659 246.3 206.098 242.589C206.314 242.033 208.529 235.601 208.882 236.48C209.642 238.371 213.644 253.437 214.843 253.374C219.998 253.101 217.023 236.381 220.145 234.854C220.711 234.577 223.618 246.709 225.026 244.264C227.527 239.917 227.615 234.504 229.304 229.86C229.701 228.767 235.07 240.545 235.774 242.335C240.577 254.549 239.928 239.512 240.482 233.819C241.716 221.144 241.501 230.973 244.383 235.884C245.208 237.289 245.268 239.972 246.61 240.933C247.425 241.518 248.137 229.637 250.072 234.248C250.841 236.079 254.197 250.129 255.069 249.985C257.941 249.511 258.954 237.671 258.958 235.568" stroke="#93227E" stroke-width="16" stroke-linecap="round" stroke-linejoin="round"/>
<path d="M328.607 147.634C330.001 149.061 336.82 155.624 335.558 155.506C333.888 155.352 327.019 153.116 327.499 156.422C327.776 158.337 338.491 166.679 330.001 165.852C327.485 165.606 318.152 164.773 322.418 168.373C325.098 170.633 334.567 174.789 331.093 174.32C328.562 173.979 314.948 176.207 317.647 179.748C320.078 182.938 323.138 185.381 326.263 187.845C326.731 188.215 332.23 192.219 331.286 192.299C329.255 192.471 313.679 191.877 313.387 193.042C312.136 198.05 328.993 200.111 329.537 203.543C329.636 204.165 317.185 203.386 319.11 205.449C322.532 209.115 327.68 210.787 331.625 213.764C332.553 214.465 319.719 216.142 317.801 216.29C304.715 217.299 319.281 221.09 324.561 223.29C336.316 228.187 326.982 225.098 321.443 226.413C319.857 226.789 317.274 226.06 315.962 227.06C315.164 227.668 326.313 231.834 321.337 232.332C319.361 232.529 304.945 231.617 304.827 232.492C304.438 235.377 315.46 239.819 317.469 240.439" stroke="#93227E" stroke-width="16" stroke-linecap="round" stroke-linejoin="round"/>
<rect x="35.5" y="136.5" width="295" height="116" rx="7.5" fill="#93227E" stroke="black" stroke-width="5"/>
<path d="M44 240C45.2523 236.433 45.6545 232.765 45.6545 228.966C45.6545 226.277 45.1492 222.85 46.0835 220.383C47.3708 216.985 44 209.63 46.2061 206.42C46.2061 202.799 44 195.556 46.2061 195.556C46.2061 191.302 44 189.688 44 185.344C44 182.619 46.958 175.422 45.9303 172.909C44.3914 169.145 45.6545 162.973 45.6545 158.775C45.6545 155.029 44.382 150.956 45.1337 147.196C45.386 145.934 68.8484 147.196 71.2431 147.196C97.8029 147.196 111.864 144.505 137.785 147.196C142.988 147.196 154.272 147.196 154.272 147.196C167.58 147.196 170.91 147.196 179.101 147.196C193.815 147.196 209.707 147.196 224.389 147.196C245.725 147.196 271.267 147.196 271.267 147.196C274.044 147.196 291.13 147.196 291.13 147.196L304.56 147.741C306.543 146.739 308.911 147.853 310.933 148.013C313.26 148.198 314.832 147.434 317 147.434" stroke="#721861" stroke-width="17" stroke-linecap="round" stroke-linejoin="round"/>
<g filter="url(#filter0_d)">
<rect x="183" y="174" width="50" height="50" fill="#ED8B00"/>
<rect x="184" y="175" width="48" height="48" stroke="black" stroke-width="2"/>
</g>
<path d="M189 181C187.272 192.839 188.308 205.93 188.308 218" stroke="#FFB200" stroke-width="7" stroke-linecap="round" stroke-linejoin="round"/>
<path d="M189 180C201.677 180 214.523 179 227 179" stroke="#FFB200" stroke-width="7" stroke-linecap="round" stroke-linejoin="round"/>
<g filter="url(#filter1_d)">
<rect x="258" y="174" width="50" height="50" fill="#DB5B93"/>
<rect x="259" y="175" width="48" height="48" stroke="black" stroke-width="2"/>
</g>
<path d="M264 181C262.272 192.839 263.308 205.93 263.308 218" stroke="#F187B6" stroke-width="7" stroke-linecap="round" stroke-linejoin="round"/>
<path d="M264 180C276.677 180 289.523 179 302 179" stroke="#F187B6" stroke-width="7" stroke-linecap="round" stroke-linejoin="round"/>
<g filter="url(#filter2_d)">
<rect x="108" y="174" width="50" height="50" fill="#008744"/>
<rect x="109" y="175" width="48" height="48" stroke="black" stroke-width="2"/>
</g>
<path d="M114 181C112.272 192.839 113.308 205.93 113.308 218" stroke="#229F61" stroke-width="7" stroke-linecap="round" stroke-linejoin="round"/>
<path d="M114 180C126.677 180 139.523 179 152 179" stroke="#229F61" stroke-width="7" stroke-linecap="round" stroke-linejoin="round"/>
<g filter="url(#filter3_d)">
<rect x="35" y="174" width="50" height="50" fill="#0761B4"/>
<rect x="36" y="175" width="48" height="48" stroke="black" stroke-width="2"/>
</g>
<path d="M41 181C39.272 192.839 40.3081 205.93 40.3081 218" stroke="#0084FF" stroke-width="7" stroke-linecap="round" stroke-linejoin="round"/>
<path d="M41 180C53.6773 180 66.5225 179 79 179" stroke="#0084FF" stroke-width="7" stroke-linecap="round" stroke-linejoin="round"/>
<path d="M83.4977 253C86.0627 256.386 96.3268 265.37 88.3082 265.37C84.6561 265.37 79.5455 270.525 78 273.616" stroke="white" stroke-width="2" stroke-linecap="round" stroke-linejoin="round"/>
<line x1="36.5" y1="78" x2="36.5" y2="319" stroke="black" stroke-width="3" stroke-dasharray="10 4"/>
<line x1="334.5" y1="73" x2="334.5" y2="314" stroke="black" stroke-width="3" stroke-dasharray="10 4"/>
<path d="M333.707 100.707C334.098 100.317 334.098 99.6834 333.707 99.2929L327.343 92.9289C326.953 92.5384 326.319 92.5384 325.929 92.9289C325.538 93.3195 325.538 93.9526 325.929 94.3432L331.586 100L325.929 105.657C325.538 106.047 325.538 106.681 325.929 107.071C326.319 107.462 326.953 107.462 327.343 107.071L333.707 100.707ZM249 101L254 101L254 99L249 99L249 101ZM258 101L268 101L268 99L258 99L258 101ZM272 101L282 101L282 99L272 99L272 101ZM286 101L296 101L296 99L286 99L286 101ZM300 101L310 101L310 99L300 99L300 101ZM314 101L324 101L324 99L314 99L314 101ZM328 101L333 101L333 99L328 99L328 101ZM334.414 101.414C335.195 100.633 335.195 99.3668 334.414 98.5858L321.686 85.8579C320.905 85.0768 319.639 85.0768 318.858 85.8579C318.077 86.6389 318.077 87.9052 318.858 88.6863L330.172 100L318.858 111.314C318.077 112.095 318.077 113.361 318.858 114.142C319.639 114.923 320.905 114.923 321.686 114.142L334.414 101.414ZM249 102L254 102L254 98L249 98L249 102ZM258 102L268 102L268 98L258 98L258 102ZM272 102L282 102L282 98L272 98L272 102ZM286 102L296 102L296 98L286 98L286 102ZM300 102L310 102L310 98L300 98L300 102ZM314 102L324 102L324 98L314 98L314 102ZM328 102L333 102L333 98L328 98L328 102Z" fill="black"/>
<path d="M40.2918 99.4099C39.9019 99.801 39.903 100.434 40.2942 100.824L46.6688 107.177C47.06 107.567 47.6932 107.566 48.083 107.175C48.4729 106.784 48.4718 106.151 48.0807 105.761L42.4143 100.113L48.0617 94.4471C48.4515 94.0559 48.4505 93.4227 48.0593 93.0329C47.6681 92.643 47.035 92.6441 46.6451 93.0352L40.2918 99.4099ZM109.998 99L105.07 99.0083L105.073 101.008L110.002 101L109.998 99ZM101.127 99.0149L91.2698 99.0314L91.2731 101.031L101.13 101.015L101.127 99.0149ZM87.3269 99.038L77.4698 99.0546L77.4732 101.055L87.3303 101.038L87.3269 99.038ZM73.527 99.0612L63.6698 99.0777L63.6732 101.078L73.5303 101.061L73.527 99.0612ZM59.727 99.0844L49.8698 99.1009L49.8732 101.101L59.7303 101.084L59.727 99.0844ZM45.927 99.1075L40.9984 99.1158L41.0018 101.116L45.9304 101.108L45.927 99.1075ZM39.5835 98.7039C38.8038 99.4863 38.8059 100.753 39.5883 101.532L52.3375 114.239C53.1199 115.019 54.3862 115.017 55.1659 114.234C55.9457 113.452 55.9436 112.185 55.1612 111.406L43.8285 100.111L55.1232 88.7784C55.903 87.996 55.9008 86.7297 55.1185 85.9499C54.3361 85.1702 53.0698 85.1723 52.2901 85.9547L39.5835 98.7039ZM109.997 98L105.068 98.0083L105.075 102.008L110.003 102L109.997 98ZM101.125 98.0149L91.2681 98.0314L91.2748 102.031L101.132 102.015L101.125 98.0149ZM87.3253 98.038L77.4681 98.0546L77.4748 102.055L87.332 102.038L87.3253 98.038ZM73.5253 98.0612L63.6681 98.0777L63.6749 102.078L73.532 102.061L73.5253 98.0612ZM59.7253 98.0844L49.8682 98.1009L49.8749 102.101L59.732 102.084L59.7253 98.0844ZM45.9253 98.1075L40.9967 98.1158L41.0035 102.116L45.932 102.108L45.9253 98.1075Z" fill="black"/>
<path d="M150.4 94.86C150.4 94.2733 150.747 93.6933 151.44 93.12C152.133 92.5333 153.207 92.24 154.66 92.24C156.113 92.24 157.187 92.58 157.88 93.26C158.573 93.94 158.92 94.6933 158.92 95.52C158.92 96.3467 158.7 97.0467 158.26 97.62C157.833 98.18 157.287 98.5533 156.62 98.74C157.447 98.9133 158.153 99.2733 158.74 99.82C159.327 100.367 159.62 101.093 159.62 102C159.62 103.227 159.093 104.227 158.04 105C157 105.773 155.767 106.16 154.34 106.16C152.927 106.16 151.813 105.973 151 105.6C150.2 105.227 149.8 104.767 149.8 104.22C149.8 103.673 150.1 103.313 150.7 103.14C151.087 104.153 152.24 104.66 154.16 104.66C155.16 104.66 156.04 104.433 156.8 103.98C157.56 103.527 157.94 102.907 157.94 102.12C157.94 101.32 157.587 100.727 156.88 100.34C156.173 99.94 155.327 99.74 154.34 99.74H153.5C152.9 99.74 152.6 99.5 152.6 99.02C152.6 98.5 152.9 98.24 153.5 98.24H154.34C155.167 98.24 155.853 98.0333 156.4 97.62C156.96 97.1933 157.24 96.66 157.24 96.02C157.24 95.3667 157.007 94.8267 156.54 94.4C156.087 93.96 155.427 93.74 154.56 93.74C153.707 93.74 153.02 93.92 152.5 94.28C151.993 94.64 151.647 95.1267 151.46 95.74C150.753 95.74 150.4 95.4467 150.4 94.86ZM163.324 94.04C164.404 92.84 165.771 92.24 167.424 92.24C169.077 92.24 170.437 92.84 171.504 94.04C172.571 95.2267 173.104 96.9333 173.104 99.16C173.104 101.373 172.564 103.093 171.484 104.32C170.417 105.547 169.064 106.16 167.424 106.16C165.784 106.16 164.417 105.547 163.324 104.32C162.244 103.093 161.704 101.373 161.704 99.16C161.704 96.9467 162.244 95.24 163.324 94.04ZM171.224 99.22C171.224 97.5133 170.857 96.1867 170.124 95.24C169.404 94.28 168.497 93.8 167.404 93.8C166.311 93.8 165.404 94.28 164.684 95.24C163.977 96.1867 163.624 97.5133 163.624 99.22C163.624 100.913 163.957 102.24 164.624 103.2C165.291 104.147 166.217 104.62 167.404 104.62C168.604 104.62 169.537 104.147 170.204 103.2C170.884 102.24 171.224 100.913 171.224 99.22ZM177.133 94.04C178.213 92.84 179.579 92.24 181.233 92.24C182.886 92.24 184.246 92.84 185.313 94.04C186.379 95.2267 186.913 96.9333 186.913 99.16C186.913 101.373 186.373 103.093 185.293 104.32C184.226 105.547 182.873 106.16 181.233 106.16C179.593 106.16 178.226 105.547 177.133 104.32C176.053 103.093 175.513 101.373 175.513 99.16C175.513 96.9467 176.053 95.24 177.133 94.04ZM185.033 99.22C185.033 97.5133 184.666 96.1867 183.933 95.24C183.213 94.28 182.306 93.8 181.213 93.8C180.119 93.8 179.213 94.28 178.493 95.24C177.786 96.1867 177.433 97.5133 177.433 99.22C177.433 100.913 177.766 102.24 178.433 103.2C179.099 104.147 180.026 104.62 181.213 104.62C182.413 104.62 183.346 104.147 184.013 103.2C184.693 102.24 185.033 100.913 185.033 99.22ZM190.321 96.14H190.461C190.968 96.14 191.221 96.3733 191.221 96.84V97.62C191.501 97.1533 191.921 96.76 192.481 96.44C193.041 96.12 193.648 95.96 194.301 95.96C195.541 95.96 196.541 96.38 197.301 97.22C198.074 98.0467 198.461 99.3133 198.461 101.02C198.461 102.713 198.008 103.993 197.101 104.86C196.208 105.727 195.108 106.16 193.801 106.16C192.908 106.16 192.048 105.933 191.221 105.48V109.78C191.221 110.273 190.968 110.52 190.461 110.52H190.321C189.814 110.52 189.561 110.273 189.561 109.78V96.88C189.561 96.3867 189.814 96.14 190.321 96.14ZM196.801 101C196.801 99.7333 196.534 98.8133 196.001 98.24C195.468 97.6533 194.748 97.36 193.841 97.36C192.934 97.36 192.268 97.76 191.841 98.56C191.428 99.36 191.221 100.4 191.221 101.68V104.18C191.354 104.273 191.681 104.4 192.201 104.56C192.734 104.707 193.268 104.78 193.801 104.78C194.694 104.78 195.414 104.467 195.961 103.84C196.521 103.213 196.801 102.267 196.801 101ZM201.187 96.14H201.807C202.141 96.14 202.414 96.3 202.627 96.62L204.887 100.08C205.461 99.3733 206.227 98.22 207.187 96.62C207.387 96.3 207.647 96.14 207.967 96.14H208.327C208.714 96.14 208.907 96.2933 208.907 96.6C208.907 96.7067 208.881 96.8067 208.827 96.9C208.067 98.1933 207.054 99.58 205.787 101.06L208.927 105.24C209.034 105.387 209.087 105.52 209.087 105.64C209.087 105.88 208.947 106 208.667 106H207.887C207.554 106 207.254 105.813 206.987 105.44L204.727 102.18C204.514 102.393 204.267 102.707 203.987 103.12C203.707 103.533 203.501 103.833 203.367 104.02C202.967 104.62 202.647 105.12 202.407 105.52C202.194 105.84 201.921 106 201.587 106H201.227C201.067 106 200.934 105.947 200.827 105.84C200.721 105.733 200.667 105.62 200.667 105.5C200.667 105.367 200.707 105.24 200.787 105.12C201.694 103.787 202.727 102.473 203.887 101.18L200.767 96.9C200.687 96.8067 200.647 96.7 200.647 96.58C200.647 96.46 200.694 96.36 200.787 96.28C200.894 96.1867 201.027 96.14 201.187 96.14Z" fill="black"/>
<path d="M40.954 197.592C40.954 196.776 41.302 196.134 41.998 195.666C42.706 195.186 43.492 194.946 44.356 194.946C45.22 194.946 45.886 195.072 46.354 195.324C46.834 195.564 47.074 195.852 47.074 196.188C47.074 196.524 46.84 196.77 46.372 196.926C46.288 196.734 46.054 196.554 45.67 196.386C45.298 196.218 44.836 196.134 44.284 196.134C43.732 196.134 43.276 196.242 42.916 196.458C42.568 196.662 42.394 196.956 42.394 197.34C42.394 197.712 42.526 198 42.79 198.204C43.054 198.408 43.672 198.624 44.644 198.852C45.628 199.068 46.378 199.386 46.894 199.806C47.41 200.226 47.668 200.814 47.668 201.57C47.668 202.326 47.32 202.944 46.624 203.424C45.928 203.892 45.07 204.126 44.05 204.126C43.042 204.126 42.232 204 41.62 203.748C41.02 203.484 40.72 203.142 40.72 202.722C40.72 202.302 40.918 201.996 41.314 201.804C41.482 202.128 41.806 202.404 42.286 202.632C42.766 202.86 43.366 202.974 44.086 202.974C44.806 202.974 45.352 202.842 45.724 202.578C46.108 202.314 46.3 201.99 46.3 201.606C46.3 201.21 46.126 200.904 45.778 200.688C45.442 200.46 44.776 200.238 43.78 200.022C42.796 199.806 42.076 199.5 41.62 199.104C41.176 198.696 40.954 198.192 40.954 197.592ZM50.33 191.382H50.456C50.912 191.382 51.14 191.61 51.14 192.066V196.926C51.344 196.398 51.692 195.948 52.184 195.576C52.676 195.204 53.252 195.018 53.912 195.018C54.92 195.018 55.724 195.306 56.324 195.882C56.924 196.446 57.224 197.364 57.224 198.636V203.316C57.224 203.556 57.17 203.73 57.062 203.838C56.954 203.946 56.78 204 56.54 204H56.396C55.952 204 55.73 203.772 55.73 203.316V198.726C55.73 197.058 55.01 196.224 53.57 196.224C52.814 196.224 52.22 196.536 51.788 197.16C51.368 197.784 51.158 198.57 51.158 199.518V203.316C51.158 203.772 50.924 204 50.456 204H50.33C50.09 204 49.916 203.946 49.808 203.838C49.7 203.73 49.646 203.556 49.646 203.316V192.066C49.646 191.61 49.874 191.382 50.33 191.382ZM60.5262 196.17C61.3782 195.366 62.4222 194.964 63.6582 194.964C64.8942 194.964 65.9382 195.366 66.7902 196.17C67.6422 196.974 68.0682 198.108 68.0682 199.572C68.0682 201.036 67.6422 202.164 66.7902 202.956C65.9382 203.748 64.8942 204.144 63.6582 204.144C62.4222 204.144 61.3782 203.748 60.5262 202.956C59.6742 202.164 59.2482 201.036 59.2482 199.572C59.2482 198.108 59.6742 196.974 60.5262 196.17ZM65.7282 197.088C65.2002 196.5 64.5102 196.206 63.6582 196.206C62.8062 196.206 62.1102 196.5 61.5702 197.088C61.0422 197.664 60.7782 198.492 60.7782 199.572C60.7782 200.64 61.0422 201.468 61.5702 202.056C62.1102 202.632 62.8062 202.92 63.6582 202.92C64.5102 202.92 65.2002 202.632 65.7282 202.056C66.2682 201.468 66.5382 200.64 66.5382 199.572C66.5382 198.492 66.2682 197.664 65.7282 197.088ZM70.8261 195.126H70.9341C71.3901 195.126 71.6181 195.348 71.6181 195.792V196.764C71.8221 196.308 72.1461 195.9 72.5901 195.54C73.0461 195.18 73.5321 195 74.0481 195C74.5641 195 74.9541 195.102 75.2181 195.306C75.4941 195.51 75.6321 195.762 75.6321 196.062C75.6321 196.35 75.5061 196.578 75.2541 196.746C74.8821 196.434 74.4861 196.278 74.0661 196.278C73.3221 196.278 72.7341 196.584 72.3021 197.196C71.8701 197.796 71.6541 198.552 71.6541 199.464V203.316C71.6541 203.556 71.6001 203.73 71.4921 203.838C71.3841 203.946 71.2101 204 70.9701 204H70.8261C70.5861 204 70.4121 203.946 70.3041 203.838C70.1961 203.73 70.1421 203.556 70.1421 203.316V195.792C70.1421 195.348 70.3701 195.126 70.8261 195.126ZM78.9126 192.732H79.0386C79.4946 192.732 79.7226 192.954 79.7226 193.398V195.18H82.2066C82.6746 195.18 82.9086 195.384 82.9086 195.792C82.9086 196.2 82.6746 196.404 82.2066 196.404H79.7226V200.94C79.7226 201.696 79.8666 202.23 80.1546 202.542C80.4546 202.842 80.8866 202.992 81.4506 202.992C82.0266 202.992 82.4526 202.854 82.7286 202.578C83.0286 202.674 83.1786 202.866 83.1786 203.154C83.1786 203.442 82.9806 203.682 82.5846 203.874C82.1886 204.054 81.7146 204.144 81.1626 204.144C79.2066 204.144 78.2286 203.076 78.2286 200.94V196.404H77.3466C77.0826 196.404 76.8906 196.362 76.7706 196.278C76.6506 196.194 76.5906 196.032 76.5906 195.792C76.5906 195.384 76.8426 195.18 77.3466 195.18H78.2286V193.398C78.2286 192.954 78.4566 192.732 78.9126 192.732Z" fill="black"/>
<path d="M112.954 196.592C112.954 195.776 113.302 195.134 113.998 194.666C114.706 194.186 115.492 193.946 116.356 193.946C117.22 193.946 117.886 194.072 118.354 194.324C118.834 194.564 119.074 194.852 119.074 195.188C119.074 195.524 118.84 195.77 118.372 195.926C118.288 195.734 118.054 195.554 117.67 195.386C117.298 195.218 116.836 195.134 116.284 195.134C115.732 195.134 115.276 195.242 114.916 195.458C114.568 195.662 114.394 195.956 114.394 196.34C114.394 196.712 114.526 197 114.79 197.204C115.054 197.408 115.672 197.624 116.644 197.852C117.628 198.068 118.378 198.386 118.894 198.806C119.41 199.226 119.668 199.814 119.668 200.57C119.668 201.326 119.32 201.944 118.624 202.424C117.928 202.892 117.07 203.126 116.05 203.126C115.042 203.126 114.232 203 113.62 202.748C113.02 202.484 112.72 202.142 112.72 201.722C112.72 201.302 112.918 200.996 113.314 200.804C113.482 201.128 113.806 201.404 114.286 201.632C114.766 201.86 115.366 201.974 116.086 201.974C116.806 201.974 117.352 201.842 117.724 201.578C118.108 201.314 118.3 200.99 118.3 200.606C118.3 200.21 118.126 199.904 117.778 199.688C117.442 199.46 116.776 199.238 115.78 199.022C114.796 198.806 114.076 198.5 113.62 198.104C113.176 197.696 112.954 197.192 112.954 196.592ZM122.33 190.382H122.456C122.912 190.382 123.14 190.61 123.14 191.066V195.926C123.344 195.398 123.692 194.948 124.184 194.576C124.676 194.204 125.252 194.018 125.912 194.018C126.92 194.018 127.724 194.306 128.324 194.882C128.924 195.446 129.224 196.364 129.224 197.636V202.316C129.224 202.556 129.17 202.73 129.062 202.838C128.954 202.946 128.78 203 128.54 203H128.396C127.952 203 127.73 202.772 127.73 202.316V197.726C127.73 196.058 127.01 195.224 125.57 195.224C124.814 195.224 124.22 195.536 123.788 196.16C123.368 196.784 123.158 197.57 123.158 198.518V202.316C123.158 202.772 122.924 203 122.456 203H122.33C122.09 203 121.916 202.946 121.808 202.838C121.7 202.73 121.646 202.556 121.646 202.316V191.066C121.646 190.61 121.874 190.382 122.33 190.382ZM132.526 195.17C133.378 194.366 134.422 193.964 135.658 193.964C136.894 193.964 137.938 194.366 138.79 195.17C139.642 195.974 140.068 197.108 140.068 198.572C140.068 200.036 139.642 201.164 138.79 201.956C137.938 202.748 136.894 203.144 135.658 203.144C134.422 203.144 133.378 202.748 132.526 201.956C131.674 201.164 131.248 200.036 131.248 198.572C131.248 197.108 131.674 195.974 132.526 195.17ZM137.728 196.088C137.2 195.5 136.51 195.206 135.658 195.206C134.806 195.206 134.11 195.5 133.57 196.088C133.042 196.664 132.778 197.492 132.778 198.572C132.778 199.64 133.042 200.468 133.57 201.056C134.11 201.632 134.806 201.92 135.658 201.92C136.51 201.92 137.2 201.632 137.728 201.056C138.268 200.468 138.538 199.64 138.538 198.572C138.538 197.492 138.268 196.664 137.728 196.088ZM142.826 194.126H142.934C143.39 194.126 143.618 194.348 143.618 194.792V195.764C143.822 195.308 144.146 194.9 144.59 194.54C145.046 194.18 145.532 194 146.048 194C146.564 194 146.954 194.102 147.218 194.306C147.494 194.51 147.632 194.762 147.632 195.062C147.632 195.35 147.506 195.578 147.254 195.746C146.882 195.434 146.486 195.278 146.066 195.278C145.322 195.278 144.734 195.584 144.302 196.196C143.87 196.796 143.654 197.552 143.654 198.464V202.316C143.654 202.556 143.6 202.73 143.492 202.838C143.384 202.946 143.21 203 142.97 203H142.826C142.586 203 142.412 202.946 142.304 202.838C142.196 202.73 142.142 202.556 142.142 202.316V194.792C142.142 194.348 142.37 194.126 142.826 194.126ZM150.913 191.732H151.039C151.495 191.732 151.723 191.954 151.723 192.398V194.18H154.207C154.675 194.18 154.909 194.384 154.909 194.792C154.909 195.2 154.675 195.404 154.207 195.404H151.723V199.94C151.723 200.696 151.867 201.23 152.155 201.542C152.455 201.842 152.887 201.992 153.451 201.992C154.027 201.992 154.453 201.854 154.729 201.578C155.029 201.674 155.179 201.866 155.179 202.154C155.179 202.442 154.981 202.682 154.585 202.874C154.189 203.054 153.715 203.144 153.163 203.144C151.207 203.144 150.229 202.076 150.229 199.94V195.404H149.347C149.083 195.404 148.891 195.362 148.771 195.278C148.651 195.194 148.591 195.032 148.591 194.792C148.591 194.384 148.843 194.18 149.347 194.18H150.229V192.398C150.229 191.954 150.457 191.732 150.913 191.732Z" fill="black"/>
<path d="M188.954 196.592C188.954 195.776 189.302 195.134 189.998 194.666C190.706 194.186 191.492 193.946 192.356 193.946C193.22 193.946 193.886 194.072 194.354 194.324C194.834 194.564 195.074 194.852 195.074 195.188C195.074 195.524 194.84 195.77 194.372 195.926C194.288 195.734 194.054 195.554 193.67 195.386C193.298 195.218 192.836 195.134 192.284 195.134C191.732 195.134 191.276 195.242 190.916 195.458C190.568 195.662 190.394 195.956 190.394 196.34C190.394 196.712 190.526 197 190.79 197.204C191.054 197.408 191.672 197.624 192.644 197.852C193.628 198.068 194.378 198.386 194.894 198.806C195.41 199.226 195.668 199.814 195.668 200.57C195.668 201.326 195.32 201.944 194.624 202.424C193.928 202.892 193.07 203.126 192.05 203.126C191.042 203.126 190.232 203 189.62 202.748C189.02 202.484 188.72 202.142 188.72 201.722C188.72 201.302 188.918 200.996 189.314 200.804C189.482 201.128 189.806 201.404 190.286 201.632C190.766 201.86 191.366 201.974 192.086 201.974C192.806 201.974 193.352 201.842 193.724 201.578C194.108 201.314 194.3 200.99 194.3 200.606C194.3 200.21 194.126 199.904 193.778 199.688C193.442 199.46 192.776 199.238 191.78 199.022C190.796 198.806 190.076 198.5 189.62 198.104C189.176 197.696 188.954 197.192 188.954 196.592ZM198.33 190.382H198.456C198.912 190.382 199.14 190.61 199.14 191.066V195.926C199.344 195.398 199.692 194.948 200.184 194.576C200.676 194.204 201.252 194.018 201.912 194.018C202.92 194.018 203.724 194.306 204.324 194.882C204.924 195.446 205.224 196.364 205.224 197.636V202.316C205.224 202.556 205.17 202.73 205.062 202.838C204.954 202.946 204.78 203 204.54 203H204.396C203.952 203 203.73 202.772 203.73 202.316V197.726C203.73 196.058 203.01 195.224 201.57 195.224C200.814 195.224 200.22 195.536 199.788 196.16C199.368 196.784 199.158 197.57 199.158 198.518V202.316C199.158 202.772 198.924 203 198.456 203H198.33C198.09 203 197.916 202.946 197.808 202.838C197.7 202.73 197.646 202.556 197.646 202.316V191.066C197.646 190.61 197.874 190.382 198.33 190.382ZM208.526 195.17C209.378 194.366 210.422 193.964 211.658 193.964C212.894 193.964 213.938 194.366 214.79 195.17C215.642 195.974 216.068 197.108 216.068 198.572C216.068 200.036 215.642 201.164 214.79 201.956C213.938 202.748 212.894 203.144 211.658 203.144C210.422 203.144 209.378 202.748 208.526 201.956C207.674 201.164 207.248 200.036 207.248 198.572C207.248 197.108 207.674 195.974 208.526 195.17ZM213.728 196.088C213.2 195.5 212.51 195.206 211.658 195.206C210.806 195.206 210.11 195.5 209.57 196.088C209.042 196.664 208.778 197.492 208.778 198.572C208.778 199.64 209.042 200.468 209.57 201.056C210.11 201.632 210.806 201.92 211.658 201.92C212.51 201.92 213.2 201.632 213.728 201.056C214.268 200.468 214.538 199.64 214.538 198.572C214.538 197.492 214.268 196.664 213.728 196.088ZM218.826 194.126H218.934C219.39 194.126 219.618 194.348 219.618 194.792V195.764C219.822 195.308 220.146 194.9 220.59 194.54C221.046 194.18 221.532 194 222.048 194C222.564 194 222.954 194.102 223.218 194.306C223.494 194.51 223.632 194.762 223.632 195.062C223.632 195.35 223.506 195.578 223.254 195.746C222.882 195.434 222.486 195.278 222.066 195.278C221.322 195.278 220.734 195.584 220.302 196.196C219.87 196.796 219.654 197.552 219.654 198.464V202.316C219.654 202.556 219.6 202.73 219.492 202.838C219.384 202.946 219.21 203 218.97 203H218.826C218.586 203 218.412 202.946 218.304 202.838C218.196 202.73 218.142 202.556 218.142 202.316V194.792C218.142 194.348 218.37 194.126 218.826 194.126ZM226.913 191.732H227.039C227.495 191.732 227.723 191.954 227.723 192.398V194.18H230.207C230.675 194.18 230.909 194.384 230.909 194.792C230.909 195.2 230.675 195.404 230.207 195.404H227.723V199.94C227.723 200.696 227.867 201.23 228.155 201.542C228.455 201.842 228.887 201.992 229.451 201.992C230.027 201.992 230.453 201.854 230.729 201.578C231.029 201.674 231.179 201.866 231.179 202.154C231.179 202.442 230.981 202.682 230.585 202.874C230.189 203.054 229.715 203.144 229.163 203.144C227.207 203.144 226.229 202.076 226.229 199.94V195.404H225.347C225.083 195.404 224.891 195.362 224.771 195.278C224.651 195.194 224.591 195.032 224.591 194.792C224.591 194.384 224.843 194.18 225.347 194.18H226.229V192.398C226.229 191.954 226.457 191.732 226.913 191.732Z" fill="black"/>
<path d="M261.106 181.382H261.232C261.688 181.382 261.916 181.604 261.916 182.048V193.316C261.916 193.772 261.688 194 261.232 194H261.106C260.854 194 260.674 193.946 260.566 193.838C260.47 193.73 260.422 193.556 260.422 193.316V182.048C260.422 181.808 260.47 181.64 260.566 181.544C260.674 181.436 260.854 181.382 261.106 181.382ZM265.376 186.17C266.228 185.366 267.272 184.964 268.508 184.964C269.744 184.964 270.788 185.366 271.64 186.17C272.492 186.974 272.918 188.108 272.918 189.572C272.918 191.036 272.492 192.164 271.64 192.956C270.788 193.748 269.744 194.144 268.508 194.144C267.272 194.144 266.228 193.748 265.376 192.956C264.524 192.164 264.098 191.036 264.098 189.572C264.098 188.108 264.524 186.974 265.376 186.17ZM270.578 187.088C270.05 186.5 269.36 186.206 268.508 186.206C267.656 186.206 266.96 186.5 266.42 187.088C265.892 187.664 265.628 188.492 265.628 189.572C265.628 190.64 265.892 191.468 266.42 192.056C266.96 192.632 267.656 192.92 268.508 192.92C269.36 192.92 270.05 192.632 270.578 192.056C271.118 191.468 271.388 190.64 271.388 189.572C271.388 188.492 271.118 187.664 270.578 187.088ZM275.712 186.17C276.564 185.366 277.608 184.964 278.844 184.964C280.08 184.964 281.124 185.366 281.976 186.17C282.828 186.974 283.254 188.108 283.254 189.572C283.254 191.036 282.828 192.164 281.976 192.956C281.124 193.748 280.08 194.144 278.844 194.144C277.608 194.144 276.564 193.748 275.712 192.956C274.86 192.164 274.434 191.036 274.434 189.572C274.434 188.108 274.86 186.974 275.712 186.17ZM280.914 187.088C280.386 186.5 279.696 186.206 278.844 186.206C277.992 186.206 277.296 186.5 276.756 187.088C276.228 187.664 275.964 188.492 275.964 189.572C275.964 190.64 276.228 191.468 276.756 192.056C277.296 192.632 277.992 192.92 278.844 192.92C279.696 192.92 280.386 192.632 280.914 192.056C281.454 191.468 281.724 190.64 281.724 189.572C281.724 188.492 281.454 187.664 280.914 187.088ZM291.778 186.17C292.63 185.366 293.674 184.964 294.91 184.964C296.146 184.964 297.19 185.366 298.042 186.17C298.894 186.974 299.32 188.108 299.32 189.572C299.32 191.036 298.894 192.164 298.042 192.956C297.19 193.748 296.146 194.144 294.91 194.144C293.674 194.144 292.63 193.748 291.778 192.956C290.926 192.164 290.5 191.036 290.5 189.572C290.5 188.108 290.926 186.974 291.778 186.17ZM296.98 187.088C296.452 186.5 295.762 186.206 294.91 186.206C294.058 186.206 293.362 186.5 292.822 187.088C292.294 187.664 292.03 188.492 292.03 189.572C292.03 190.64 292.294 191.468 292.822 192.056C293.362 192.632 294.058 192.92 294.91 192.92C295.762 192.92 296.452 192.632 296.98 192.056C297.52 191.468 297.79 190.64 297.79 189.572C297.79 188.492 297.52 187.664 296.98 187.088ZM302.114 186.17C302.966 185.366 304.01 184.964 305.246 184.964C306.482 184.964 307.526 185.366 308.378 186.17C309.23 186.974 309.656 188.108 309.656 189.572C309.656 191.036 309.23 192.164 308.378 192.956C307.526 193.748 306.482 194.144 305.246 194.144C304.01 194.144 302.966 193.748 302.114 192.956C301.262 192.164 300.836 191.036 300.836 189.572C300.836 188.108 301.262 186.974 302.114 186.17ZM307.316 187.088C306.788 186.5 306.098 186.206 305.246 186.206C304.394 186.206 303.698 186.5 303.158 187.088C302.63 187.664 302.366 188.492 302.366 189.572C302.366 190.64 302.63 191.468 303.158 192.056C303.698 192.632 304.394 192.92 305.246 192.92C306.098 192.92 306.788 192.632 307.316 192.056C307.856 191.468 308.126 190.64 308.126 189.572C308.126 188.492 307.856 187.664 307.316 187.088ZM261.034 207.17C261.886 206.366 262.93 205.964 264.166 205.964C265.402 205.964 266.446 206.366 267.298 207.17C268.15 207.974 268.576 209.108 268.576 210.572C268.576 212.036 268.15 213.164 267.298 213.956C266.446 214.748 265.402 215.144 264.166 215.144C262.93 215.144 261.886 214.748 261.034 213.956C260.182 213.164 259.756 212.036 259.756 210.572C259.756 209.108 260.182 207.974 261.034 207.17ZM266.236 208.088C265.708 207.5 265.018 207.206 264.166 207.206C263.314 207.206 262.618 207.5 262.078 208.088C261.55 208.664 261.286 209.492 261.286 210.572C261.286 211.64 261.55 212.468 262.078 213.056C262.618 213.632 263.314 213.92 264.166 213.92C265.018 213.92 265.708 213.632 266.236 213.056C266.776 212.468 267.046 211.64 267.046 210.572C267.046 209.492 266.776 208.664 266.236 208.088ZM277.1 207.17C277.952 206.366 278.996 205.964 280.232 205.964C281.468 205.964 282.512 206.366 283.364 207.17C284.216 207.974 284.642 209.108 284.642 210.572C284.642 212.036 284.216 213.164 283.364 213.956C282.512 214.748 281.468 215.144 280.232 215.144C278.996 215.144 277.952 214.748 277.1 213.956C276.248 213.164 275.822 212.036 275.822 210.572C275.822 209.108 276.248 207.974 277.1 207.17ZM282.302 208.088C281.774 207.5 281.084 207.206 280.232 207.206C279.38 207.206 278.684 207.5 278.144 208.088C277.616 208.664 277.352 209.492 277.352 210.572C277.352 211.64 277.616 212.468 278.144 213.056C278.684 213.632 279.38 213.92 280.232 213.92C281.084 213.92 281.774 213.632 282.302 213.056C282.842 212.468 283.112 211.64 283.112 210.572C283.112 209.492 282.842 208.664 282.302 208.088ZM287.436 207.17C288.288 206.366 289.332 205.964 290.568 205.964C291.804 205.964 292.848 206.366 293.7 207.17C294.552 207.974 294.978 209.108 294.978 210.572C294.978 212.036 294.552 213.164 293.7 213.956C292.848 214.748 291.804 215.144 290.568 215.144C289.332 215.144 288.288 214.748 287.436 213.956C286.584 213.164 286.158 212.036 286.158 210.572C286.158 209.108 286.584 207.974 287.436 207.17ZM292.638 208.088C292.11 207.5 291.42 207.206 290.568 207.206C289.716 207.206 289.02 207.5 288.48 208.088C287.952 208.664 287.688 209.492 287.688 210.572C287.688 211.64 287.952 212.468 288.48 213.056C289.02 213.632 289.716 213.92 290.568 213.92C291.42 213.92 292.11 213.632 292.638 213.056C293.178 212.468 293.448 211.64 293.448 210.572C293.448 209.492 293.178 208.664 292.638 208.088ZM297.772 207.17C298.624 206.366 299.668 205.964 300.904 205.964C302.14 205.964 303.184 206.366 304.036 207.17C304.888 207.974 305.314 209.108 305.314 210.572C305.314 212.036 304.888 213.164 304.036 213.956C303.184 214.748 302.14 215.144 300.904 215.144C299.668 215.144 298.624 214.748 297.772 213.956C296.92 213.164 296.494 212.036 296.494 210.572C296.494 209.108 296.92 207.974 297.772 207.17ZM302.974 208.088C302.446 207.5 301.756 207.206 300.904 207.206C300.052 207.206 299.356 207.5 298.816 208.088C298.288 208.664 298.024 209.492 298.024 210.572C298.024 211.64 298.288 212.468 298.816 213.056C299.356 213.632 300.052 213.92 300.904 213.92C301.756 213.92 302.446 213.632 302.974 213.056C303.514 212.468 303.784 211.64 303.784 210.572C303.784 209.492 303.514 208.664 302.974 208.088ZM310.592 212.426L309.782 212.39C309.494 212.39 309.248 212.468 309.044 212.624C308.84 212.768 308.738 212.93 308.738 213.11C308.738 213.566 309.122 213.794 309.89 213.794H311.222C313.778 213.794 315.056 214.58 315.056 216.152C315.056 216.98 314.654 217.652 313.85 218.168C313.058 218.684 312.038 218.966 310.79 219.014H310.358C309.338 219.014 308.468 218.81 307.748 218.402C307.028 217.994 306.668 217.514 306.668 216.962C306.668 216.698 306.728 216.488 306.848 216.332C306.98 216.176 307.148 216.086 307.352 216.062C307.58 216.53 307.982 216.92 308.558 217.232C309.134 217.544 309.812 217.7 310.592 217.7H310.718C311.618 217.7 312.32 217.562 312.824 217.286C313.34 217.01 313.598 216.662 313.598 216.242C313.598 215.834 313.37 215.534 312.914 215.342C312.47 215.162 311.696 215.072 310.592 215.072C309.5 215.072 308.678 214.964 308.126 214.748C307.574 214.532 307.298 214.112 307.298 213.488C307.298 212.864 307.736 212.372 308.612 212.012C307.568 211.424 307.046 210.488 307.046 209.204C307.046 208.184 307.394 207.392 308.09 206.828C308.786 206.264 309.644 205.982 310.664 205.982C311.18 205.982 311.654 206.09 312.086 206.306C312.53 206.522 312.866 206.756 313.094 207.008C313.55 206.708 313.778 206.162 313.778 205.37C314.102 205.37 314.39 205.472 314.642 205.676C314.894 205.868 315.02 206.114 315.02 206.414C315.02 207.014 314.576 207.446 313.688 207.71C313.952 208.07 314.084 208.598 314.084 209.294C314.084 210.314 313.748 211.094 313.076 211.634C312.416 212.162 311.588 212.426 310.592 212.426ZM312.104 207.656C311.708 207.308 311.204 207.134 310.592 207.134C309.98 207.134 309.47 207.308 309.062 207.656C308.654 207.992 308.45 208.514 308.45 209.222C308.45 209.93 308.654 210.458 309.062 210.806C309.47 211.142 309.98 211.31 310.592 211.31C311.204 211.31 311.708 211.142 312.104 210.806C312.512 210.458 312.716 209.93 312.716 209.222C312.716 208.514 312.512 207.992 312.104 207.656Z" fill="black"/>
<defs>
<filter id="filter0_d" x="179" y="174" width="58" height="58" filterUnits="userSpaceOnUse" color-interpolation-filters="sRGB">
<feFlood flood-opacity="0" result="BackgroundImageFix"/>
<feColorMatrix in="SourceAlpha" type="matrix" values="0 0 0 0 0 0 0 0 0 0 0 0 0 0 0 0 0 0 127 0"/>
<feOffset dy="4"/>
<feGaussianBlur stdDeviation="2"/>
<feColorMatrix type="matrix" values="0 0 0 0 0 0 0 0 0 0 0 0 0 0 0 0 0 0 0.25 0"/>
<feBlend mode="normal" in2="BackgroundImageFix" result="effect1_dropShadow"/>
<feBlend mode="normal" in="SourceGraphic" in2="effect1_dropShadow" result="shape"/>
</filter>
<filter id="filter1_d" x="254" y="174" width="58" height="58" filterUnits="userSpaceOnUse" color-interpolation-filters="sRGB">
<feFlood flood-opacity="0" result="BackgroundImageFix"/>
<feColorMatrix in="SourceAlpha" type="matrix" values="0 0 0 0 0 0 0 0 0 0 0 0 0 0 0 0 0 0 127 0"/>
<feOffset dy="4"/>
<feGaussianBlur stdDeviation="2"/>
<feColorMatrix type="matrix" values="0 0 0 0 0 0 0 0 0 0 0 0 0 0 0 0 0 0 0.25 0"/>
<feBlend mode="normal" in2="BackgroundImageFix" result="effect1_dropShadow"/>
<feBlend mode="normal" in="SourceGraphic" in2="effect1_dropShadow" result="shape"/>
</filter>
<filter id="filter2_d" x="104" y="174" width="58" height="58" filterUnits="userSpaceOnUse" color-interpolation-filters="sRGB">
<feFlood flood-opacity="0" result="BackgroundImageFix"/>
<feColorMatrix in="SourceAlpha" type="matrix" values="0 0 0 0 0 0 0 0 0 0 0 0 0 0 0 0 0 0 127 0"/>
<feOffset dy="4"/>
<feGaussianBlur stdDeviation="2"/>
<feColorMatrix type="matrix" values="0 0 0 0 0 0 0 0 0 0 0 0 0 0 0 0 0 0 0.25 0"/>
<feBlend mode="normal" in2="BackgroundImageFix" result="effect1_dropShadow"/>
<feBlend mode="normal" in="SourceGraphic" in2="effect1_dropShadow" result="shape"/>
</filter>
<filter id="filter3_d" x="31" y="174" width="58" height="58" filterUnits="userSpaceOnUse" color-interpolation-filters="sRGB">
<feFlood flood-opacity="0" result="BackgroundImageFix"/>
<feColorMatrix in="SourceAlpha" type="matrix" values="0 0 0 0 0 0 0 0 0 0 0 0 0 0 0 0 0 0 127 0"/>
<feOffset dy="4"/>
<feGaussianBlur stdDeviation="2"/>
<feColorMatrix type="matrix" values="0 0 0 0 0 0 0 0 0 0 0 0 0 0 0 0 0 0 0.25 0"/>
<feBlend mode="normal" in2="BackgroundImageFix" result="effect1_dropShadow"/>
<feBlend mode="normal" in="SourceGraphic" in2="effect1_dropShadow" result="shape"/>
</filter>
</defs>
</svg>
