<svg width="800" height="299" viewBox="0 0 800 299" fill="none" xmlns="http://www.w3.org/2000/svg">
<rect width="800" height="299" fill="white"/>
<path d="M80.7101 86C68.8948 92.9163 63.5974 101.898 57.7101 114C56.5638 116.356 52.2318 123.401 57.7101 119.444C65.2516 113.998 71.4145 109.824 79.0434 104.444C80.7253 103.258 83.546 99.5472 85.0309 97.4926M85.0309 97.4926C86.1557 95.9363 86.5141 95.3305 85.0309 97.4926ZM85.0309 97.4926C84.7892 97.8449 84.4987 98.2706 84.1545 98.7778C80.9469 103.505 78.3076 108.26 75.4879 113.222C72.0705 119.237 65.7101 129.706 65.7101 136.5C65.7101 140.71 61.3433 145.017 67.8768 140.389C73.762 136.22 76.1158 129.96 81.3212 125.556C83.8057 123.453 86.6799 121.412 89.2101 119.444C90.9135 118.12 90.0784 118.864 89.2656 120.444C86.7847 125.269 83.8183 129.875 81.7101 134.889C76.4171 147.478 72.0254 161.159 64.7101 172.778C63.6994 174.383 59.6545 179.659 62.7101 178C68.7766 174.707 72.8789 169.395 78.2657 165.444C81.7167 162.914 84.8691 160.154 88.2101 157.556C93.235 153.647 89.96 157.796 88.1545 161.167C82.4119 171.886 78.1431 183.245 72.7657 194C71.6274 196.277 71.1244 198.735 69.9323 201C69.7724 201.304 68.2971 202.86 69.2656 202.444C74.2702 200.3 78.1391 196 82.2101 192.556C83.5598 191.413 85.5537 189.396 83.2657 192.222C80.4856 195.656 77.439 199.035 75.3212 202.944C72.742 207.706 70.6858 212.671 67.7101 217.222C65.4305 220.709 63.2459 224.837 61.9323 228.778C61.3234 230.604 64.8508 227.277 65.2656 227C68.2443 225.014 71.6272 223.365 74.9323 222C78.8331 220.389 82.5874 218.725 86.2657 216.778C88.659 215.511 82.8849 224.065 81.7101 225.944C79.6166 229.294 78.432 233.291 76.2101 236.5C74.8864 238.412 74.7275 240.521 73.7101 242.556C72.8464 244.283 71.0025 245.512 70.3768 247.389C69.8894 248.851 77.1121 244.239 77.7101 244C80.0826 243.051 82.8246 238.886 84.7101 237" stroke="#D2D5DA" stroke-width="19" stroke-linecap="round" stroke-linejoin="round"/>
<path d="M735.42 86C723.605 92.9163 718.307 101.898 712.42 114C711.274 116.356 706.942 123.401 712.42 119.444C719.962 113.998 726.125 109.824 733.754 104.444C735.435 103.258 738.256 99.5472 739.741 97.4926M739.741 97.4926C740.866 95.9363 741.224 95.3305 739.741 97.4926ZM739.741 97.4926C739.499 97.8449 739.209 98.2706 738.865 98.7778C735.657 103.505 733.018 108.26 730.198 113.222C726.781 119.237 720.42 129.706 720.42 136.5C720.42 140.71 716.053 145.017 722.587 140.389C728.472 136.22 730.826 129.96 736.031 125.556C738.516 123.453 741.39 121.412 743.92 119.444C745.624 118.12 744.789 118.864 743.976 120.444C741.495 125.269 738.528 129.875 736.42 134.889C731.127 147.478 726.736 161.159 719.42 172.778C718.409 174.383 714.365 179.659 717.42 178C723.487 174.707 727.589 169.395 732.976 165.444C736.427 162.914 739.579 160.154 742.92 157.556C747.945 153.647 744.67 157.796 742.865 161.167C737.122 171.886 732.853 183.245 727.476 194C726.337 196.277 725.835 198.735 724.642 201C724.482 201.304 723.007 202.86 723.976 202.444C728.98 200.3 732.849 196 736.92 192.556C738.27 191.413 740.264 189.396 737.976 192.222C735.196 195.656 732.149 199.035 730.031 202.944C727.452 207.706 725.396 212.671 722.42 217.222C720.141 220.709 717.956 224.837 716.642 228.778C716.034 230.604 719.561 227.277 719.976 227C722.954 225.014 726.337 223.365 729.642 222C733.543 220.389 737.297 218.725 740.976 216.778C743.369 215.511 737.595 224.065 736.42 225.944C734.327 229.294 733.142 233.291 730.92 236.5C729.596 238.412 729.438 240.521 728.42 242.556C727.557 244.283 725.713 245.512 725.087 247.389C724.599 248.851 731.822 244.239 732.42 244C734.793 243.051 737.535 238.886 739.42 237" stroke="#D2D5DA" stroke-width="19" stroke-linecap="round" stroke-linejoin="round"/>
<path d="M67.2101 85C67.2101 80.3056 71.0157 76.5 75.7101 76.5H721.71C726.404 76.5 730.21 80.3056 730.21 85V248C730.21 252.694 726.404 256.5 721.71 256.5H75.7101C71.0157 256.5 67.2101 252.694 67.2101 248V85Z" fill="#D2D5DA" stroke="#333F48" stroke-width="3"/>
<path d="M91.2101 108C91.2101 103.306 95.0157 99.5 99.7101 99.5H269.71C274.405 99.5 278.21 103.306 278.21 108V227C278.21 231.694 274.405 235.5 269.71 235.5H99.7101C95.0157 235.5 91.2101 231.694 91.2101 227V108Z" fill="white" stroke="#333F48" stroke-width="3"/>
<path d="M307.21 108C307.21 103.306 311.016 99.5 315.71 99.5H485.71C490.405 99.5 494.21 103.306 494.21 108V227C494.21 231.694 490.405 235.5 485.71 235.5H315.71C311.016 235.5 307.21 231.694 307.21 227V108Z" fill="white" stroke="#333F48" stroke-width="3"/>
<path d="M522.21 108C522.21 103.306 526.016 99.5 530.71 99.5H700.71C705.405 99.5 709.21 103.306 709.21 108V227C709.21 231.694 705.405 235.5 700.71 235.5H530.71C526.016 235.5 522.21 231.694 522.21 227V108Z" fill="white" stroke="#333F48" stroke-width="3"/>
<path d="M144.451 138C167.868 140.307 191.319 138.313 214.762 139.611C218.386 139.812 221.77 140.175 225.403 140.175C229.776 140.175 236.467 138.603 236.641 143.397C237.016 153.723 235.746 164.381 235.746 174.814C235.746 179.218 235.746 183.621 235.746 188.025C235.746 188.966 236.436 192.232 234.851 192.375C231.663 192.662 228.784 193.1 225.502 193.1C215.713 193.1 205.875 195.098 196.065 195.275C188.74 195.407 181.578 196 174.186 196C161.788 196 149.39 196 136.992 196C132.632 196 134.605 187.431 134.605 184.4C134.605 180.829 134.605 177.257 134.605 173.686C134.605 166.28 135.766 159.101 135.5 151.775C135.369 148.154 133.71 144.413 133.71 140.9C133.71 137.799 135.236 139.391 138.384 139.45C141.294 139.505 143.476 139.173 146.241 138.725" stroke="#E9EBED" stroke-opacity="0.5" stroke-width="75" stroke-linecap="round" stroke-linejoin="round"/>
<path d="M359.451 145C382.868 147.307 406.319 145.313 429.762 146.611C433.386 146.812 436.77 147.175 440.403 147.175C444.776 147.175 451.467 145.603 451.641 150.397C452.016 160.723 450.746 171.381 450.746 181.814C450.746 186.218 450.746 190.621 450.746 195.025C450.746 195.966 451.436 199.232 449.851 199.375C446.663 199.662 443.784 200.1 440.502 200.1C430.713 200.1 420.875 202.098 411.065 202.275C403.74 202.407 396.578 203 389.186 203C376.788 203 364.39 203 351.992 203C347.632 203 349.605 194.431 349.605 191.4C349.605 187.829 349.605 184.257 349.605 180.686C349.605 173.28 350.766 166.101 350.5 158.775C350.369 155.154 348.71 151.413 348.71 147.9C348.71 144.799 350.236 146.391 353.384 146.45C356.294 146.505 358.476 146.173 361.241 145.725" stroke="#E9EBED" stroke-opacity="0.5" stroke-width="75" stroke-linecap="round" stroke-linejoin="round"/>
<path d="M575.451 145C598.868 147.307 622.319 145.313 645.762 146.611C649.386 146.812 652.77 147.175 656.403 147.175C660.776 147.175 667.467 145.603 667.641 150.397C668.016 160.723 666.746 171.381 666.746 181.814C666.746 186.218 666.746 190.621 666.746 195.025C666.746 195.966 667.436 199.232 665.851 199.375C662.663 199.662 659.784 200.1 656.502 200.1C646.713 200.1 636.875 202.098 627.065 202.275C619.74 202.407 612.578 203 605.186 203C592.788 203 580.39 203 567.992 203C563.632 203 565.605 194.431 565.605 191.4C565.605 187.829 565.605 184.257 565.605 180.686C565.605 173.28 566.766 166.101 566.5 158.775C566.369 155.154 564.71 151.413 564.71 147.9C564.71 144.799 566.236 146.391 569.384 146.45C572.294 146.505 574.476 146.173 577.241 145.725" stroke="#E9EBED" stroke-opacity="0.5" stroke-width="75" stroke-linecap="round" stroke-linejoin="round"/>
<path d="M107.95 206.64C108.563 206.64 109.07 206.78 109.47 207.06C109.883 207.34 110.09 207.693 110.09 208.12C110.09 208.533 109.877 208.813 109.45 208.96C109.117 208.4 108.583 208.12 107.85 208.12C106.463 208.12 105.77 209.08 105.77 211V211.2H108.23C108.737 211.2 108.99 211.427 108.99 211.88C108.99 212.32 108.737 212.54 108.23 212.54H105.77V220.34C105.77 220.607 105.71 220.8 105.59 220.92C105.47 221.027 105.277 221.08 105.01 221.08H104.91C104.63 221.08 104.43 221.027 104.31 220.92C104.19 220.8 104.13 220.607 104.13 220.34V212.54H103.09C102.81 212.54 102.61 212.5 102.49 212.42C102.383 212.327 102.33 212.147 102.33 211.88C102.33 211.613 102.39 211.433 102.51 211.34C102.63 211.247 102.823 211.2 103.09 211.2H104.13V210.56C104.13 209.32 104.47 208.36 105.15 207.68C105.83 206.987 106.763 206.64 107.95 206.64ZM111.531 206.98H111.671C112.177 206.98 112.431 207.227 112.431 207.72V220.24C112.431 220.747 112.177 221 111.671 221H111.531C111.251 221 111.051 220.94 110.931 220.82C110.824 220.7 110.771 220.507 110.771 220.24V207.72C110.771 207.453 110.824 207.267 110.931 207.16C111.051 207.04 111.251 206.98 111.531 206.98ZM114.855 216.1C114.855 214.433 115.321 213.16 116.255 212.28C117.188 211.4 118.261 210.96 119.475 210.96C120.688 210.96 121.648 211.273 122.355 211.9C123.061 212.513 123.415 213.28 123.415 214.2C123.415 215.12 123.048 215.84 122.315 216.36C121.595 216.867 120.661 217.12 119.515 217.12C118.368 217.12 117.335 216.94 116.415 216.58C116.415 217.553 116.748 218.34 117.415 218.94C118.081 219.527 118.895 219.82 119.855 219.82C121.348 219.82 122.281 219.36 122.655 218.44C122.881 218.44 123.075 218.507 123.235 218.64C123.395 218.76 123.475 218.94 123.475 219.18C123.475 219.647 123.128 220.093 122.435 220.52C121.755 220.947 120.888 221.16 119.835 221.16C118.421 221.16 117.235 220.733 116.275 219.88C115.328 219.027 114.855 217.767 114.855 216.1ZM121.895 214.14C121.895 213.62 121.668 213.18 121.215 212.82C120.775 212.46 120.161 212.28 119.375 212.28C118.601 212.28 117.921 212.593 117.335 213.22C116.748 213.847 116.448 214.553 116.435 215.34C117.395 215.66 118.348 215.82 119.295 215.82C121.028 215.82 121.895 215.26 121.895 214.14ZM125.968 211.14H126.588C126.921 211.14 127.194 211.3 127.408 211.62L129.668 215.08C130.241 214.373 131.008 213.22 131.968 211.62C132.168 211.3 132.428 211.14 132.748 211.14H133.108C133.494 211.14 133.688 211.293 133.688 211.6C133.688 211.707 133.661 211.807 133.608 211.9C132.848 213.193 131.834 214.58 130.568 216.06L133.708 220.24C133.814 220.387 133.868 220.52 133.868 220.64C133.868 220.88 133.728 221 133.448 221H132.668C132.334 221 132.034 220.813 131.768 220.44L129.508 217.18C129.294 217.393 129.048 217.707 128.768 218.12C128.488 218.533 128.281 218.833 128.148 219.02C127.748 219.62 127.428 220.12 127.188 220.52C126.974 220.84 126.701 221 126.368 221H126.008C125.848 221 125.714 220.947 125.608 220.84C125.501 220.733 125.448 220.62 125.448 220.5C125.448 220.367 125.488 220.24 125.568 220.12C126.474 218.787 127.508 217.473 128.668 216.18L125.548 211.9C125.468 211.807 125.428 211.7 125.428 211.58C125.428 211.46 125.474 211.36 125.568 211.28C125.674 211.187 125.808 211.14 125.968 211.14ZM136.614 214.46H141.934C142.427 214.46 142.674 214.68 142.674 215.12C142.674 215.56 142.427 215.78 141.934 215.78H136.614C136.121 215.78 135.874 215.56 135.874 215.12C135.874 214.68 136.121 214.46 136.614 214.46ZM146.243 211.14H146.363C146.869 211.14 147.123 211.387 147.123 211.88V220.24C147.123 220.747 146.869 221 146.363 221H146.243C145.736 221 145.483 220.747 145.483 220.24V211.88C145.483 211.387 145.736 211.14 146.243 211.14ZM145.203 208.32C145.203 208.013 145.309 207.753 145.523 207.54C145.736 207.313 145.989 207.2 146.283 207.2C146.589 207.2 146.849 207.313 147.063 207.54C147.289 207.753 147.403 208.013 147.403 208.32C147.403 208.613 147.296 208.873 147.083 209.1C146.869 209.313 146.609 209.42 146.303 209.42C145.996 209.42 145.736 209.313 145.523 209.1C145.309 208.887 145.203 208.627 145.203 208.32ZM151.997 208.48H152.137C152.644 208.48 152.897 208.727 152.897 209.22V211.2H155.657C156.177 211.2 156.437 211.427 156.437 211.88C156.437 212.333 156.177 212.56 155.657 212.56H152.897V217.6C152.897 218.44 153.057 219.033 153.377 219.38C153.71 219.713 154.19 219.88 154.817 219.88C155.457 219.88 155.93 219.727 156.237 219.42C156.57 219.527 156.737 219.74 156.737 220.06C156.737 220.38 156.517 220.647 156.077 220.86C155.637 221.06 155.11 221.16 154.497 221.16C152.324 221.16 151.237 219.973 151.237 217.6V212.56H150.257C149.964 212.56 149.75 212.513 149.617 212.42C149.484 212.327 149.417 212.147 149.417 211.88C149.417 211.427 149.697 211.2 150.257 211.2H151.237V209.22C151.237 208.727 151.49 208.48 151.997 208.48ZM157.784 216.1C157.784 214.433 158.251 213.16 159.184 212.28C160.118 211.4 161.191 210.96 162.404 210.96C163.618 210.96 164.578 211.273 165.284 211.9C165.991 212.513 166.344 213.28 166.344 214.2C166.344 215.12 165.978 215.84 165.244 216.36C164.524 216.867 163.591 217.12 162.444 217.12C161.298 217.12 160.264 216.94 159.344 216.58C159.344 217.553 159.678 218.34 160.344 218.94C161.011 219.527 161.824 219.82 162.784 219.82C164.278 219.82 165.211 219.36 165.584 218.44C165.811 218.44 166.004 218.507 166.164 218.64C166.324 218.76 166.404 218.94 166.404 219.18C166.404 219.647 166.058 220.093 165.364 220.52C164.684 220.947 163.818 221.16 162.764 221.16C161.351 221.16 160.164 220.733 159.204 219.88C158.258 219.027 157.784 217.767 157.784 216.1ZM164.824 214.14C164.824 213.62 164.598 213.18 164.144 212.82C163.704 212.46 163.091 212.28 162.304 212.28C161.531 212.28 160.851 212.593 160.264 213.22C159.678 213.847 159.378 214.553 159.364 215.34C160.324 215.66 161.278 215.82 162.224 215.82C163.958 215.82 164.824 215.26 164.824 214.14ZM169.457 211.14H169.577C170.097 211.14 170.357 211.393 170.357 211.9V212.74C170.971 211.58 171.911 211 173.177 211C173.991 211 174.664 211.22 175.197 211.66C175.744 212.087 176.117 212.687 176.317 213.46C176.531 212.687 176.924 212.08 177.497 211.64C178.071 211.2 178.731 210.98 179.477 210.98C181.771 210.98 182.917 212.32 182.917 215V220.26C182.917 220.753 182.651 221 182.117 221H181.997C181.491 221 181.237 220.753 181.237 220.26V215.1C181.237 213.273 180.544 212.36 179.157 212.36C178.184 212.36 177.517 212.713 177.157 213.42C176.811 214.127 176.637 215.087 176.637 216.3V220.26C176.637 220.753 176.377 221 175.857 221H175.717C175.211 221 174.957 220.753 174.957 220.26V215.1C174.957 213.273 174.257 212.36 172.857 212.36C171.191 212.36 170.357 213.653 170.357 216.24V220.26C170.357 220.753 170.097 221 169.577 221H169.457C168.951 221 168.697 220.753 168.697 220.26V211.9C168.697 211.393 168.951 211.14 169.457 211.14Z" fill="#21282E"/>
<path d="M344.95 45.64C345.563 45.64 346.07 45.78 346.47 46.06C346.883 46.34 347.09 46.6933 347.09 47.12C347.09 47.5333 346.877 47.8133 346.45 47.96C346.117 47.4 345.583 47.12 344.85 47.12C343.463 47.12 342.77 48.08 342.77 50V50.2H345.23C345.737 50.2 345.99 50.4267 345.99 50.88C345.99 51.32 345.737 51.54 345.23 51.54H342.77V59.34C342.77 59.6067 342.71 59.8 342.59 59.92C342.47 60.0267 342.277 60.08 342.01 60.08H341.91C341.63 60.08 341.43 60.0267 341.31 59.92C341.19 59.8 341.13 59.6067 341.13 59.34V51.54H340.09C339.81 51.54 339.61 51.5 339.49 51.42C339.383 51.3267 339.33 51.1467 339.33 50.88C339.33 50.6133 339.39 50.4333 339.51 50.34C339.63 50.2467 339.823 50.2 340.09 50.2H341.13V49.56C341.13 48.32 341.47 47.36 342.15 46.68C342.83 45.9867 343.763 45.64 344.95 45.64ZM348.531 45.98H348.671C349.177 45.98 349.431 46.2267 349.431 46.72V59.24C349.431 59.7467 349.177 60 348.671 60H348.531C348.251 60 348.051 59.94 347.931 59.82C347.824 59.7 347.771 59.5067 347.771 59.24V46.72C347.771 46.4533 347.824 46.2667 347.931 46.16C348.051 46.04 348.251 45.98 348.531 45.98ZM351.855 55.1C351.855 53.4333 352.321 52.16 353.255 51.28C354.188 50.4 355.261 49.96 356.475 49.96C357.688 49.96 358.648 50.2733 359.355 50.9C360.061 51.5133 360.415 52.28 360.415 53.2C360.415 54.12 360.048 54.84 359.315 55.36C358.595 55.8667 357.661 56.12 356.515 56.12C355.368 56.12 354.335 55.94 353.415 55.58C353.415 56.5533 353.748 57.34 354.415 57.94C355.081 58.5267 355.895 58.82 356.855 58.82C358.348 58.82 359.281 58.36 359.655 57.44C359.881 57.44 360.075 57.5067 360.235 57.64C360.395 57.76 360.475 57.94 360.475 58.18C360.475 58.6467 360.128 59.0933 359.435 59.52C358.755 59.9467 357.888 60.16 356.835 60.16C355.421 60.16 354.235 59.7333 353.275 58.88C352.328 58.0267 351.855 56.7667 351.855 55.1ZM358.895 53.14C358.895 52.62 358.668 52.18 358.215 51.82C357.775 51.46 357.161 51.28 356.375 51.28C355.601 51.28 354.921 51.5933 354.335 52.22C353.748 52.8467 353.448 53.5533 353.435 54.34C354.395 54.66 355.348 54.82 356.295 54.82C358.028 54.82 358.895 54.26 358.895 53.14ZM362.968 50.14H363.588C363.921 50.14 364.194 50.3 364.408 50.62L366.668 54.08C367.241 53.3733 368.008 52.22 368.968 50.62C369.168 50.3 369.428 50.14 369.748 50.14H370.108C370.494 50.14 370.688 50.2933 370.688 50.6C370.688 50.7067 370.661 50.8067 370.608 50.9C369.848 52.1933 368.834 53.58 367.568 55.06L370.708 59.24C370.814 59.3867 370.868 59.52 370.868 59.64C370.868 59.88 370.728 60 370.448 60H369.668C369.334 60 369.034 59.8133 368.768 59.44L366.508 56.18C366.294 56.3933 366.048 56.7067 365.768 57.12C365.488 57.5333 365.281 57.8333 365.148 58.02C364.748 58.62 364.428 59.12 364.188 59.52C363.974 59.84 363.701 60 363.368 60H363.008C362.848 60 362.714 59.9467 362.608 59.84C362.501 59.7333 362.448 59.62 362.448 59.5C362.448 59.3667 362.488 59.24 362.568 59.12C363.474 57.7867 364.508 56.4733 365.668 55.18L362.548 50.9C362.468 50.8067 362.428 50.7 362.428 50.58C362.428 50.46 362.474 50.36 362.568 50.28C362.674 50.1867 362.808 50.14 362.968 50.14ZM380.661 51.1C381.155 50.7133 381.681 50.4267 382.241 50.24C382.801 50.0533 383.481 49.96 384.281 49.96C385.081 49.96 385.781 50.14 386.381 50.5C386.995 50.86 387.301 51.2467 387.301 51.66C387.301 52.1667 387.015 52.4533 386.441 52.52C386.308 52.2267 386.008 51.96 385.541 51.72C385.075 51.4667 384.521 51.34 383.881 51.34C382.988 51.34 382.248 51.66 381.661 52.3C381.075 52.9267 380.781 53.8467 380.781 55.06C380.781 56.2733 381.081 57.2 381.681 57.84C382.281 58.48 383.001 58.8 383.841 58.8C385.175 58.8 386.075 58.3667 386.541 57.5C386.795 57.5 387.008 57.58 387.181 57.74C387.355 57.8867 387.441 58.08 387.441 58.32C387.441 58.7867 387.121 59.2133 386.481 59.6C385.841 59.9733 385.108 60.16 384.281 60.16C383.468 60.16 382.775 60.0667 382.201 59.88C381.641 59.68 381.121 59.3867 380.641 59C380.161 58.6 379.781 58.0667 379.501 57.4C379.221 56.7333 379.081 55.96 379.081 55.08C379.081 54.1867 379.221 53.4 379.501 52.72C379.795 52.0267 380.181 51.4867 380.661 51.1ZM390.404 51.3C391.35 50.4067 392.51 49.96 393.884 49.96C395.257 49.96 396.417 50.4067 397.364 51.3C398.31 52.1933 398.784 53.4533 398.784 55.08C398.784 56.7067 398.31 57.96 397.364 58.84C396.417 59.72 395.257 60.16 393.884 60.16C392.51 60.16 391.35 59.72 390.404 58.84C389.457 57.96 388.984 56.7067 388.984 55.08C388.984 53.4533 389.457 52.1933 390.404 51.3ZM396.184 52.32C395.597 51.6667 394.83 51.34 393.884 51.34C392.937 51.34 392.164 51.6667 391.564 52.32C390.977 52.96 390.684 53.88 390.684 55.08C390.684 56.2667 390.977 57.1867 391.564 57.84C392.164 58.48 392.937 58.8 393.884 58.8C394.83 58.8 395.597 58.48 396.184 57.84C396.784 57.1867 397.084 56.2667 397.084 55.08C397.084 53.88 396.784 52.96 396.184 52.32ZM401.848 50.14H401.988C402.495 50.14 402.748 50.3933 402.748 50.9V51.88C403.001 51.3733 403.401 50.9267 403.948 50.54C404.495 50.1533 405.121 49.96 405.828 49.96C406.908 49.96 407.788 50.2867 408.468 50.94C409.161 51.58 409.508 52.6 409.508 54V59.24C409.508 59.5067 409.448 59.7 409.328 59.82C409.208 59.94 409.015 60 408.748 60H408.588C408.095 60 407.848 59.7467 407.848 59.24V54.06C407.848 53.0867 407.641 52.3933 407.228 51.98C406.815 51.5667 406.215 51.36 405.428 51.36C404.641 51.36 404.001 51.68 403.508 52.32C403.015 52.96 402.768 53.8067 402.768 54.86V59.24C402.768 59.7467 402.508 60 401.988 60H401.848C401.581 60 401.388 59.94 401.268 59.82C401.148 59.7 401.088 59.5067 401.088 59.24V50.9C401.088 50.3933 401.341 50.14 401.848 50.14ZM413.841 47.48H413.981C414.488 47.48 414.741 47.7267 414.741 48.22V50.2H417.501C418.021 50.2 418.281 50.4267 418.281 50.88C418.281 51.3333 418.021 51.56 417.501 51.56H414.741V56.6C414.741 57.44 414.901 58.0333 415.221 58.38C415.554 58.7133 416.034 58.88 416.661 58.88C417.301 58.88 417.774 58.7267 418.081 58.42C418.414 58.5267 418.581 58.74 418.581 59.06C418.581 59.38 418.361 59.6467 417.921 59.86C417.481 60.06 416.954 60.16 416.341 60.16C414.168 60.16 413.081 58.9733 413.081 56.6V51.56H412.101C411.808 51.56 411.594 51.5133 411.461 51.42C411.328 51.3267 411.261 51.1467 411.261 50.88C411.261 50.4267 411.541 50.2 412.101 50.2H413.081V48.22C413.081 47.7267 413.334 47.48 413.841 47.48ZM423.748 49.98C426.575 49.98 427.988 51.2933 427.988 53.92V57.88C427.988 58.6133 428.268 59.08 428.828 59.28C428.628 59.7867 428.255 60.04 427.708 60.04C427.308 60.04 426.988 59.9 426.748 59.62C426.522 59.3267 426.408 58.9467 426.408 58.48C425.568 59.6 424.482 60.16 423.148 60.16C422.068 60.16 421.215 59.8867 420.588 59.34C419.975 58.78 419.668 58.0333 419.668 57.1C419.668 56.1533 420.028 55.3867 420.748 54.8C421.482 54.2133 422.468 53.92 423.708 53.92C424.455 53.92 425.082 54 425.588 54.16C426.002 54.3067 426.248 54.4 426.328 54.44V53.56C426.328 52.7467 426.122 52.1733 425.708 51.84C425.295 51.4933 424.668 51.32 423.828 51.32C422.642 51.32 421.722 51.7733 421.068 52.68C420.508 52.6 420.228 52.34 420.228 51.9C420.228 51.3933 420.575 50.9467 421.268 50.56C421.962 50.1733 422.788 49.98 423.748 49.98ZM426.328 55.72C425.488 55.3467 424.662 55.16 423.848 55.16C423.035 55.16 422.408 55.3333 421.968 55.68C421.528 56.0267 421.308 56.48 421.308 57.04C421.308 57.5867 421.495 58.0267 421.868 58.36C422.255 58.68 422.815 58.84 423.548 58.84C424.295 58.84 424.942 58.5733 425.488 58.04C426.048 57.5067 426.328 56.86 426.328 56.1V55.72ZM432.032 50.14H432.152C432.658 50.14 432.912 50.3867 432.912 50.88V59.24C432.912 59.7467 432.658 60 432.152 60H432.032C431.525 60 431.272 59.7467 431.272 59.24V50.88C431.272 50.3867 431.525 50.14 432.032 50.14ZM430.992 47.32C430.992 47.0133 431.098 46.7533 431.312 46.54C431.525 46.3133 431.778 46.2 432.072 46.2C432.378 46.2 432.638 46.3133 432.852 46.54C433.078 46.7533 433.192 47.0133 433.192 47.32C433.192 47.6133 433.085 47.8733 432.872 48.1C432.658 48.3133 432.398 48.42 432.092 48.42C431.785 48.42 431.525 48.3133 431.312 48.1C431.098 47.8867 430.992 47.6267 430.992 47.32ZM436.926 50.14H437.066C437.573 50.14 437.826 50.3933 437.826 50.9V51.88C438.08 51.3733 438.48 50.9267 439.026 50.54C439.573 50.1533 440.2 49.96 440.906 49.96C441.986 49.96 442.866 50.2867 443.546 50.94C444.24 51.58 444.586 52.6 444.586 54V59.24C444.586 59.5067 444.526 59.7 444.406 59.82C444.286 59.94 444.093 60 443.826 60H443.666C443.173 60 442.926 59.7467 442.926 59.24V54.06C442.926 53.0867 442.72 52.3933 442.306 51.98C441.893 51.5667 441.293 51.36 440.506 51.36C439.72 51.36 439.08 51.68 438.586 52.32C438.093 52.96 437.846 53.8067 437.846 54.86V59.24C437.846 59.7467 437.586 60 437.066 60H436.926C436.66 60 436.466 59.94 436.346 59.82C436.226 59.7 436.166 59.5067 436.166 59.24V50.9C436.166 50.3933 436.42 50.14 436.926 50.14ZM446.679 55.1C446.679 53.4333 447.146 52.16 448.079 51.28C449.012 50.4 450.086 49.96 451.299 49.96C452.512 49.96 453.472 50.2733 454.179 50.9C454.886 51.5133 455.239 52.28 455.239 53.2C455.239 54.12 454.872 54.84 454.139 55.36C453.419 55.8667 452.486 56.12 451.339 56.12C450.192 56.12 449.159 55.94 448.239 55.58C448.239 56.5533 448.572 57.34 449.239 57.94C449.906 58.5267 450.719 58.82 451.679 58.82C453.172 58.82 454.106 58.36 454.479 57.44C454.706 57.44 454.899 57.5067 455.059 57.64C455.219 57.76 455.299 57.94 455.299 58.18C455.299 58.6467 454.952 59.0933 454.259 59.52C453.579 59.9467 452.712 60.16 451.659 60.16C450.246 60.16 449.059 59.7333 448.099 58.88C447.152 58.0267 446.679 56.7667 446.679 55.1ZM453.719 53.14C453.719 52.62 453.492 52.18 453.039 51.82C452.599 51.46 451.986 51.28 451.199 51.28C450.426 51.28 449.746 51.5933 449.159 52.22C448.572 52.8467 448.272 53.5533 448.259 54.34C449.219 54.66 450.172 54.82 451.119 54.82C452.852 54.82 453.719 54.26 453.719 53.14ZM458.352 50.14H458.472C458.979 50.14 459.232 50.3867 459.232 50.88V51.96C459.459 51.4533 459.819 51 460.312 50.6C460.819 50.2 461.359 50 461.932 50C462.505 50 462.939 50.1133 463.232 50.34C463.539 50.5667 463.692 50.8467 463.692 51.18C463.692 51.5 463.552 51.7533 463.272 51.94C462.859 51.5933 462.419 51.42 461.952 51.42C461.125 51.42 460.472 51.76 459.992 52.44C459.512 53.1067 459.272 53.9467 459.272 54.96V59.24C459.272 59.5067 459.212 59.7 459.092 59.82C458.972 59.94 458.779 60 458.512 60H458.352C458.085 60 457.892 59.94 457.772 59.82C457.652 59.7 457.592 59.5067 457.592 59.24V50.88C457.592 50.3867 457.845 50.14 458.352 50.14Z" fill="#21282E"/>
<path d="M324.95 206.64C325.563 206.64 326.07 206.78 326.47 207.06C326.883 207.34 327.09 207.693 327.09 208.12C327.09 208.533 326.877 208.813 326.45 208.96C326.117 208.4 325.583 208.12 324.85 208.12C323.463 208.12 322.77 209.08 322.77 211V211.2H325.23C325.737 211.2 325.99 211.427 325.99 211.88C325.99 212.32 325.737 212.54 325.23 212.54H322.77V220.34C322.77 220.607 322.71 220.8 322.59 220.92C322.47 221.027 322.277 221.08 322.01 221.08H321.91C321.63 221.08 321.43 221.027 321.31 220.92C321.19 220.8 321.13 220.607 321.13 220.34V212.54H320.09C319.81 212.54 319.61 212.5 319.49 212.42C319.383 212.327 319.33 212.147 319.33 211.88C319.33 211.613 319.39 211.433 319.51 211.34C319.63 211.247 319.823 211.2 320.09 211.2H321.13V210.56C321.13 209.32 321.47 208.36 322.15 207.68C322.83 206.987 323.763 206.64 324.95 206.64ZM328.531 206.98H328.671C329.177 206.98 329.431 207.227 329.431 207.72V220.24C329.431 220.747 329.177 221 328.671 221H328.531C328.251 221 328.051 220.94 327.931 220.82C327.824 220.7 327.771 220.507 327.771 220.24V207.72C327.771 207.453 327.824 207.267 327.931 207.16C328.051 207.04 328.251 206.98 328.531 206.98ZM331.855 216.1C331.855 214.433 332.321 213.16 333.255 212.28C334.188 211.4 335.261 210.96 336.475 210.96C337.688 210.96 338.648 211.273 339.355 211.9C340.061 212.513 340.415 213.28 340.415 214.2C340.415 215.12 340.048 215.84 339.315 216.36C338.595 216.867 337.661 217.12 336.515 217.12C335.368 217.12 334.335 216.94 333.415 216.58C333.415 217.553 333.748 218.34 334.415 218.94C335.081 219.527 335.895 219.82 336.855 219.82C338.348 219.82 339.281 219.36 339.655 218.44C339.881 218.44 340.075 218.507 340.235 218.64C340.395 218.76 340.475 218.94 340.475 219.18C340.475 219.647 340.128 220.093 339.435 220.52C338.755 220.947 337.888 221.16 336.835 221.16C335.421 221.16 334.235 220.733 333.275 219.88C332.328 219.027 331.855 217.767 331.855 216.1ZM338.895 214.14C338.895 213.62 338.668 213.18 338.215 212.82C337.775 212.46 337.161 212.28 336.375 212.28C335.601 212.28 334.921 212.593 334.335 213.22C333.748 213.847 333.448 214.553 333.435 215.34C334.395 215.66 335.348 215.82 336.295 215.82C338.028 215.82 338.895 215.26 338.895 214.14ZM342.968 211.14H343.588C343.921 211.14 344.194 211.3 344.408 211.62L346.668 215.08C347.241 214.373 348.008 213.22 348.968 211.62C349.168 211.3 349.428 211.14 349.748 211.14H350.108C350.494 211.14 350.688 211.293 350.688 211.6C350.688 211.707 350.661 211.807 350.608 211.9C349.848 213.193 348.834 214.58 347.568 216.06L350.708 220.24C350.814 220.387 350.868 220.52 350.868 220.64C350.868 220.88 350.728 221 350.448 221H349.668C349.334 221 349.034 220.813 348.768 220.44L346.508 217.18C346.294 217.393 346.048 217.707 345.768 218.12C345.488 218.533 345.281 218.833 345.148 219.02C344.748 219.62 344.428 220.12 344.188 220.52C343.974 220.84 343.701 221 343.368 221H343.008C342.848 221 342.714 220.947 342.608 220.84C342.501 220.733 342.448 220.62 342.448 220.5C342.448 220.367 342.488 220.24 342.568 220.12C343.474 218.787 344.508 217.473 345.668 216.18L342.548 211.9C342.468 211.807 342.428 211.7 342.428 211.58C342.428 211.46 342.474 211.36 342.568 211.28C342.674 211.187 342.808 211.14 342.968 211.14ZM353.614 214.46H358.934C359.427 214.46 359.674 214.68 359.674 215.12C359.674 215.56 359.427 215.78 358.934 215.78H353.614C353.121 215.78 352.874 215.56 352.874 215.12C352.874 214.68 353.121 214.46 353.614 214.46ZM363.243 211.14H363.363C363.869 211.14 364.123 211.387 364.123 211.88V220.24C364.123 220.747 363.869 221 363.363 221H363.243C362.736 221 362.483 220.747 362.483 220.24V211.88C362.483 211.387 362.736 211.14 363.243 211.14ZM362.203 208.32C362.203 208.013 362.309 207.753 362.523 207.54C362.736 207.313 362.989 207.2 363.283 207.2C363.589 207.2 363.849 207.313 364.063 207.54C364.289 207.753 364.403 208.013 364.403 208.32C364.403 208.613 364.296 208.873 364.083 209.1C363.869 209.313 363.609 209.42 363.303 209.42C362.996 209.42 362.736 209.313 362.523 209.1C362.309 208.887 362.203 208.627 362.203 208.32ZM368.997 208.48H369.137C369.644 208.48 369.897 208.727 369.897 209.22V211.2H372.657C373.177 211.2 373.437 211.427 373.437 211.88C373.437 212.333 373.177 212.56 372.657 212.56H369.897V217.6C369.897 218.44 370.057 219.033 370.377 219.38C370.71 219.713 371.19 219.88 371.817 219.88C372.457 219.88 372.93 219.727 373.237 219.42C373.57 219.527 373.737 219.74 373.737 220.06C373.737 220.38 373.517 220.647 373.077 220.86C372.637 221.06 372.11 221.16 371.497 221.16C369.324 221.16 368.237 219.973 368.237 217.6V212.56H367.257C366.964 212.56 366.75 212.513 366.617 212.42C366.484 212.327 366.417 212.147 366.417 211.88C366.417 211.427 366.697 211.2 367.257 211.2H368.237V209.22C368.237 208.727 368.49 208.48 368.997 208.48ZM374.784 216.1C374.784 214.433 375.251 213.16 376.184 212.28C377.118 211.4 378.191 210.96 379.404 210.96C380.618 210.96 381.578 211.273 382.284 211.9C382.991 212.513 383.344 213.28 383.344 214.2C383.344 215.12 382.978 215.84 382.244 216.36C381.524 216.867 380.591 217.12 379.444 217.12C378.298 217.12 377.264 216.94 376.344 216.58C376.344 217.553 376.678 218.34 377.344 218.94C378.011 219.527 378.824 219.82 379.784 219.82C381.278 219.82 382.211 219.36 382.584 218.44C382.811 218.44 383.004 218.507 383.164 218.64C383.324 218.76 383.404 218.94 383.404 219.18C383.404 219.647 383.058 220.093 382.364 220.52C381.684 220.947 380.818 221.16 379.764 221.16C378.351 221.16 377.164 220.733 376.204 219.88C375.258 219.027 374.784 217.767 374.784 216.1ZM381.824 214.14C381.824 213.62 381.598 213.18 381.144 212.82C380.704 212.46 380.091 212.28 379.304 212.28C378.531 212.28 377.851 212.593 377.264 213.22C376.678 213.847 376.378 214.553 376.364 215.34C377.324 215.66 378.278 215.82 379.224 215.82C380.958 215.82 381.824 215.26 381.824 214.14ZM386.457 211.14H386.577C387.097 211.14 387.357 211.393 387.357 211.9V212.74C387.971 211.58 388.911 211 390.177 211C390.991 211 391.664 211.22 392.197 211.66C392.744 212.087 393.117 212.687 393.317 213.46C393.531 212.687 393.924 212.08 394.497 211.64C395.071 211.2 395.731 210.98 396.477 210.98C398.771 210.98 399.917 212.32 399.917 215V220.26C399.917 220.753 399.651 221 399.117 221H398.997C398.491 221 398.237 220.753 398.237 220.26V215.1C398.237 213.273 397.544 212.36 396.157 212.36C395.184 212.36 394.517 212.713 394.157 213.42C393.811 214.127 393.637 215.087 393.637 216.3V220.26C393.637 220.753 393.377 221 392.857 221H392.717C392.211 221 391.957 220.753 391.957 220.26V215.1C391.957 213.273 391.257 212.36 389.857 212.36C388.191 212.36 387.357 213.653 387.357 216.24V220.26C387.357 220.753 387.097 221 386.577 221H386.457C385.951 221 385.697 220.753 385.697 220.26V211.9C385.697 211.393 385.951 211.14 386.457 211.14Z" fill="#21282E"/>
<path d="M541.95 206.64C542.563 206.64 543.07 206.78 543.47 207.06C543.883 207.34 544.09 207.693 544.09 208.12C544.09 208.533 543.877 208.813 543.45 208.96C543.117 208.4 542.583 208.12 541.85 208.12C540.463 208.12 539.77 209.08 539.77 211V211.2H542.23C542.737 211.2 542.99 211.427 542.99 211.88C542.99 212.32 542.737 212.54 542.23 212.54H539.77V220.34C539.77 220.607 539.71 220.8 539.59 220.92C539.47 221.027 539.277 221.08 539.01 221.08H538.91C538.63 221.08 538.43 221.027 538.31 220.92C538.19 220.8 538.13 220.607 538.13 220.34V212.54H537.09C536.81 212.54 536.61 212.5 536.49 212.42C536.383 212.327 536.33 212.147 536.33 211.88C536.33 211.613 536.39 211.433 536.51 211.34C536.63 211.247 536.823 211.2 537.09 211.2H538.13V210.56C538.13 209.32 538.47 208.36 539.15 207.68C539.83 206.987 540.763 206.64 541.95 206.64ZM545.531 206.98H545.671C546.177 206.98 546.431 207.227 546.431 207.72V220.24C546.431 220.747 546.177 221 545.671 221H545.531C545.251 221 545.051 220.94 544.931 220.82C544.824 220.7 544.771 220.507 544.771 220.24V207.72C544.771 207.453 544.824 207.267 544.931 207.16C545.051 207.04 545.251 206.98 545.531 206.98ZM548.855 216.1C548.855 214.433 549.321 213.16 550.255 212.28C551.188 211.4 552.261 210.96 553.475 210.96C554.688 210.96 555.648 211.273 556.355 211.9C557.061 212.513 557.415 213.28 557.415 214.2C557.415 215.12 557.048 215.84 556.315 216.36C555.595 216.867 554.661 217.12 553.515 217.12C552.368 217.12 551.335 216.94 550.415 216.58C550.415 217.553 550.748 218.34 551.415 218.94C552.081 219.527 552.895 219.82 553.855 219.82C555.348 219.82 556.281 219.36 556.655 218.44C556.881 218.44 557.075 218.507 557.235 218.64C557.395 218.76 557.475 218.94 557.475 219.18C557.475 219.647 557.128 220.093 556.435 220.52C555.755 220.947 554.888 221.16 553.835 221.16C552.421 221.16 551.235 220.733 550.275 219.88C549.328 219.027 548.855 217.767 548.855 216.1ZM555.895 214.14C555.895 213.62 555.668 213.18 555.215 212.82C554.775 212.46 554.161 212.28 553.375 212.28C552.601 212.28 551.921 212.593 551.335 213.22C550.748 213.847 550.448 214.553 550.435 215.34C551.395 215.66 552.348 215.82 553.295 215.82C555.028 215.82 555.895 215.26 555.895 214.14ZM559.968 211.14H560.588C560.921 211.14 561.194 211.3 561.408 211.62L563.668 215.08C564.241 214.373 565.008 213.22 565.968 211.62C566.168 211.3 566.428 211.14 566.748 211.14H567.108C567.494 211.14 567.688 211.293 567.688 211.6C567.688 211.707 567.661 211.807 567.608 211.9C566.848 213.193 565.834 214.58 564.568 216.06L567.708 220.24C567.814 220.387 567.868 220.52 567.868 220.64C567.868 220.88 567.728 221 567.448 221H566.668C566.334 221 566.034 220.813 565.768 220.44L563.508 217.18C563.294 217.393 563.048 217.707 562.768 218.12C562.488 218.533 562.281 218.833 562.148 219.02C561.748 219.62 561.428 220.12 561.188 220.52C560.974 220.84 560.701 221 560.368 221H560.008C559.848 221 559.714 220.947 559.608 220.84C559.501 220.733 559.448 220.62 559.448 220.5C559.448 220.367 559.488 220.24 559.568 220.12C560.474 218.787 561.508 217.473 562.668 216.18L559.548 211.9C559.468 211.807 559.428 211.7 559.428 211.58C559.428 211.46 559.474 211.36 559.568 211.28C559.674 211.187 559.808 211.14 559.968 211.14ZM570.614 214.46H575.934C576.427 214.46 576.674 214.68 576.674 215.12C576.674 215.56 576.427 215.78 575.934 215.78H570.614C570.121 215.78 569.874 215.56 569.874 215.12C569.874 214.68 570.121 214.46 570.614 214.46ZM580.243 211.14H580.363C580.869 211.14 581.123 211.387 581.123 211.88V220.24C581.123 220.747 580.869 221 580.363 221H580.243C579.736 221 579.483 220.747 579.483 220.24V211.88C579.483 211.387 579.736 211.14 580.243 211.14ZM579.203 208.32C579.203 208.013 579.309 207.753 579.523 207.54C579.736 207.313 579.989 207.2 580.283 207.2C580.589 207.2 580.849 207.313 581.063 207.54C581.289 207.753 581.403 208.013 581.403 208.32C581.403 208.613 581.296 208.873 581.083 209.1C580.869 209.313 580.609 209.42 580.303 209.42C579.996 209.42 579.736 209.313 579.523 209.1C579.309 208.887 579.203 208.627 579.203 208.32ZM585.997 208.48H586.137C586.644 208.48 586.897 208.727 586.897 209.22V211.2H589.657C590.177 211.2 590.437 211.427 590.437 211.88C590.437 212.333 590.177 212.56 589.657 212.56H586.897V217.6C586.897 218.44 587.057 219.033 587.377 219.38C587.71 219.713 588.19 219.88 588.817 219.88C589.457 219.88 589.93 219.727 590.237 219.42C590.57 219.527 590.737 219.74 590.737 220.06C590.737 220.38 590.517 220.647 590.077 220.86C589.637 221.06 589.11 221.16 588.497 221.16C586.324 221.16 585.237 219.973 585.237 217.6V212.56H584.257C583.964 212.56 583.75 212.513 583.617 212.42C583.484 212.327 583.417 212.147 583.417 211.88C583.417 211.427 583.697 211.2 584.257 211.2H585.237V209.22C585.237 208.727 585.49 208.48 585.997 208.48ZM591.784 216.1C591.784 214.433 592.251 213.16 593.184 212.28C594.118 211.4 595.191 210.96 596.404 210.96C597.618 210.96 598.578 211.273 599.284 211.9C599.991 212.513 600.344 213.28 600.344 214.2C600.344 215.12 599.978 215.84 599.244 216.36C598.524 216.867 597.591 217.12 596.444 217.12C595.298 217.12 594.264 216.94 593.344 216.58C593.344 217.553 593.678 218.34 594.344 218.94C595.011 219.527 595.824 219.82 596.784 219.82C598.278 219.82 599.211 219.36 599.584 218.44C599.811 218.44 600.004 218.507 600.164 218.64C600.324 218.76 600.404 218.94 600.404 219.18C600.404 219.647 600.058 220.093 599.364 220.52C598.684 220.947 597.818 221.16 596.764 221.16C595.351 221.16 594.164 220.733 593.204 219.88C592.258 219.027 591.784 217.767 591.784 216.1ZM598.824 214.14C598.824 213.62 598.598 213.18 598.144 212.82C597.704 212.46 597.091 212.28 596.304 212.28C595.531 212.28 594.851 212.593 594.264 213.22C593.678 213.847 593.378 214.553 593.364 215.34C594.324 215.66 595.278 215.82 596.224 215.82C597.958 215.82 598.824 215.26 598.824 214.14ZM603.457 211.14H603.577C604.097 211.14 604.357 211.393 604.357 211.9V212.74C604.971 211.58 605.911 211 607.177 211C607.991 211 608.664 211.22 609.197 211.66C609.744 212.087 610.117 212.687 610.317 213.46C610.531 212.687 610.924 212.08 611.497 211.64C612.071 211.2 612.731 210.98 613.477 210.98C615.771 210.98 616.917 212.32 616.917 215V220.26C616.917 220.753 616.651 221 616.117 221H615.997C615.491 221 615.237 220.753 615.237 220.26V215.1C615.237 213.273 614.544 212.36 613.157 212.36C612.184 212.36 611.517 212.713 611.157 213.42C610.811 214.127 610.637 215.087 610.637 216.3V220.26C610.637 220.753 610.377 221 609.857 221H609.717C609.211 221 608.957 220.753 608.957 220.26V215.1C608.957 213.273 608.257 212.36 606.857 212.36C605.191 212.36 604.357 213.653 604.357 216.24V220.26C604.357 220.753 604.097 221 603.577 221H603.457C602.951 221 602.697 220.753 602.697 220.26V211.9C602.697 211.393 602.951 211.14 603.457 211.14Z" fill="#21282E"/>
</svg>
