<svg width="373" height="356" viewBox="0 0 373 356" fill="none" xmlns="http://www.w3.org/2000/svg">
<rect width="373" height="356" fill="white"/>
<path d="M229 247.085C230.228 245.513 235.819 237.878 235.872 239.144C235.942 240.82 234.645 247.927 237.857 247.009C239.718 246.477 246.552 234.743 246.868 243.267C246.961 245.793 247.383 255.154 250.38 250.445C252.262 247.487 255.114 237.547 255.114 241.053C255.114 243.606 259.143 256.8 262.292 253.652C265.128 250.816 267.139 247.457 269.164 244.031C269.468 243.517 272.7 237.532 272.905 238.457C273.347 240.446 274.842 255.963 276.036 256.095C281.166 256.665 280.954 239.684 284.282 238.686C284.886 238.505 285.779 250.949 287.566 248.765C290.742 244.883 291.71 239.557 294.133 235.25C294.702 234.237 298.082 246.731 298.485 248.612C301.235 261.445 303.043 246.504 304.517 240.977C307.798 228.672 305.986 238.335 308.03 243.649C308.614 245.17 308.237 247.827 309.404 248.994C310.113 249.703 312.751 238.097 313.909 242.962C314.369 244.894 315.393 259.302 316.276 259.302C319.188 259.302 322.115 247.785 322.461 245.711" stroke="#93227E" stroke-width="16" stroke-linecap="round" stroke-linejoin="round"/>
<path d="M45.968 252.143C46.9235 250.393 51.1969 241.948 51.4552 243.189C51.797 244.831 51.6746 252.054 54.6947 250.626C56.444 249.798 61.2756 237.108 62.9753 245.467C63.479 247.944 65.4197 257.111 67.6097 251.977C68.9851 248.752 70.1803 238.48 70.7512 241.939C71.167 244.458 77.2908 256.82 79.8846 253.201C82.221 249.941 83.6587 246.3 85.0983 242.589C85.3143 242.033 87.5288 235.601 87.8822 236.48C88.6424 238.371 92.6439 253.437 93.8433 253.374C98.9976 253.101 96.0229 236.381 99.1448 234.854C99.7106 234.577 102.618 246.709 104.026 244.264C106.527 239.917 106.615 234.504 108.304 229.86C108.701 228.767 114.07 240.545 114.774 242.335C119.577 254.549 118.928 239.512 119.482 233.819C120.716 221.144 120.501 230.973 123.383 235.884C124.208 237.289 124.268 239.972 125.61 240.933C126.425 241.518 127.137 229.637 129.072 234.248C129.841 236.079 133.197 250.129 134.069 249.985C136.941 249.511 137.954 237.671 137.958 235.568" stroke="#93227E" stroke-width="16" stroke-linecap="round" stroke-linejoin="round"/>
<path d="M166.968 252.143C167.924 250.393 172.197 241.948 172.455 243.189C172.797 244.831 172.675 252.054 175.695 250.626C177.444 249.798 182.276 237.108 183.975 245.467C184.479 247.944 186.42 257.111 188.61 251.977C189.985 248.752 191.18 238.48 191.751 241.939C192.167 244.458 198.291 256.82 200.885 253.201C203.221 249.941 204.659 246.3 206.098 242.589C206.314 242.033 208.529 235.601 208.882 236.48C209.642 238.371 213.644 253.437 214.843 253.374C219.998 253.101 217.023 236.381 220.145 234.854C220.711 234.577 223.618 246.709 225.026 244.264C227.527 239.917 227.615 234.504 229.304 229.86C229.701 228.767 235.07 240.545 235.774 242.335C240.577 254.549 239.928 239.512 240.482 233.819C241.716 221.144 241.501 230.973 244.383 235.884C245.208 237.289 245.268 239.972 246.61 240.933C247.425 241.518 248.137 229.637 250.072 234.248C250.841 236.079 254.197 250.129 255.069 249.985C257.941 249.511 258.954 237.671 258.958 235.568" stroke="#93227E" stroke-width="16" stroke-linecap="round" stroke-linejoin="round"/>
<path d="M328.607 147.634C330.001 149.061 336.82 155.624 335.558 155.506C333.888 155.352 327.019 153.116 327.499 156.422C327.776 158.337 338.491 166.679 330.001 165.852C327.485 165.606 318.152 164.773 322.418 168.373C325.098 170.633 334.567 174.789 331.093 174.32C328.562 173.979 314.948 176.207 317.647 179.748C320.078 182.938 323.138 185.381 326.263 187.845C326.731 188.215 332.23 192.219 331.286 192.299C329.255 192.471 313.679 191.877 313.387 193.042C312.136 198.05 328.993 200.111 329.537 203.543C329.636 204.165 317.185 203.386 319.11 205.449C322.532 209.115 327.68 210.787 331.625 213.764C332.553 214.465 319.719 216.142 317.801 216.29C304.715 217.299 319.281 221.09 324.561 223.29C336.316 228.187 326.982 225.098 321.443 226.413C319.857 226.789 317.274 226.06 315.962 227.06C315.164 227.668 326.313 231.834 321.337 232.332C319.361 232.529 304.945 231.617 304.827 232.492C304.438 235.377 315.46 239.819 317.469 240.439" stroke="#93227E" stroke-width="16" stroke-linecap="round" stroke-linejoin="round"/>
<rect x="35.5" y="136.5" width="295" height="116" rx="7.5" fill="#93227E" stroke="black" stroke-width="5"/>
<path d="M44 240C45.2523 236.433 45.6545 232.765 45.6545 228.966C45.6545 226.277 45.1492 222.85 46.0835 220.383C47.3708 216.985 44 209.63 46.2061 206.42C46.2061 202.799 44 195.556 46.2061 195.556C46.2061 191.302 44 189.688 44 185.344C44 182.619 46.958 175.422 45.9303 172.909C44.3914 169.145 45.6545 162.973 45.6545 158.775C45.6545 155.029 44.382 150.956 45.1337 147.196C45.386 145.934 68.8484 147.196 71.2431 147.196C97.8029 147.196 111.864 144.505 137.785 147.196C142.988 147.196 154.272 147.196 154.272 147.196C167.58 147.196 170.91 147.196 179.101 147.196C193.815 147.196 209.707 147.196 224.389 147.196C245.725 147.196 271.267 147.196 271.267 147.196C274.044 147.196 291.13 147.196 291.13 147.196L304.56 147.741C306.543 146.739 308.911 147.853 310.933 148.013C313.26 148.198 314.832 147.434 317 147.434" stroke="#721861" stroke-width="17" stroke-linecap="round" stroke-linejoin="round"/>
<g filter="url(#filter0_d)">
<rect x="181" y="174" width="75" height="50" fill="#ED8B00"/>
<rect x="182" y="175" width="73" height="48" stroke="black" stroke-width="2"/>
</g>
<path d="M190 181C187.408 192.839 188.962 205.93 188.962 218" stroke="#FFB200" stroke-width="7" stroke-linecap="round" stroke-linejoin="round"/>
<path d="M190 180C209.016 180 228.284 179 247 179" stroke="#FFB200" stroke-width="7" stroke-linecap="round" stroke-linejoin="round"/>
<g filter="url(#filter1_d)">
<rect x="255" y="174" width="75" height="50" fill="#DB5B93"/>
<rect x="256" y="175" width="73" height="48" stroke="black" stroke-width="2"/>
</g>
<path d="M264 181C261.408 192.839 262.962 205.93 262.962 218" stroke="#F187B6" stroke-width="7" stroke-linecap="round" stroke-linejoin="round"/>
<path d="M264 180C283.016 180 302.284 179 321 179" stroke="#F187B6" stroke-width="7" stroke-linecap="round" stroke-linejoin="round"/>
<g filter="url(#filter2_d)">
<rect x="107" y="174" width="75" height="50" fill="#008744"/>
<rect x="108" y="175" width="73" height="48" stroke="black" stroke-width="2"/>
</g>
<path d="M116 181C113.408 192.839 114.962 205.93 114.962 218" stroke="#229F61" stroke-width="7" stroke-linecap="round" stroke-linejoin="round"/>
<path d="M116 180C135.016 180 154.284 179 173 179" stroke="#229F61" stroke-width="7" stroke-linecap="round" stroke-linejoin="round"/>
<g filter="url(#filter3_d)">
<rect x="34" y="174" width="75" height="50" fill="#0761B4"/>
<rect x="35" y="175" width="73" height="48" stroke="black" stroke-width="2"/>
</g>
<path d="M43 181C40.408 192.839 41.9621 205.93 41.9621 218" stroke="#0084FF" stroke-width="7" stroke-linecap="round" stroke-linejoin="round"/>
<path d="M43 180C62.016 180 81.2838 179 100 179" stroke="#0084FF" stroke-width="7" stroke-linecap="round" stroke-linejoin="round"/>
<path d="M83.4977 253C86.0627 256.386 96.3268 265.37 88.3082 265.37C84.6561 265.37 79.5455 270.525 78 273.616" stroke="white" stroke-width="2" stroke-linecap="round" stroke-linejoin="round"/>
<line x1="36.5" y1="78" x2="36.5" y2="319" stroke="black" stroke-width="3" stroke-dasharray="10 4"/>
<line x1="334.5" y1="73" x2="334.5" y2="314" stroke="black" stroke-width="3" stroke-dasharray="10 4"/>
<path d="M333.707 100.707C334.098 100.317 334.098 99.6834 333.707 99.2929L327.343 92.9289C326.953 92.5384 326.319 92.5384 325.929 92.9289C325.538 93.3195 325.538 93.9526 325.929 94.3432L331.586 100L325.929 105.657C325.538 106.047 325.538 106.681 325.929 107.071C326.319 107.462 326.953 107.462 327.343 107.071L333.707 100.707ZM249 101L254 101L254 99L249 99L249 101ZM258 101L268 101L268 99L258 99L258 101ZM272 101L282 101L282 99L272 99L272 101ZM286 101L296 101L296 99L286 99L286 101ZM300 101L310 101L310 99L300 99L300 101ZM314 101L324 101L324 99L314 99L314 101ZM328 101L333 101L333 99L328 99L328 101ZM334.414 101.414C335.195 100.633 335.195 99.3668 334.414 98.5858L321.686 85.8579C320.905 85.0768 319.639 85.0768 318.858 85.8579C318.077 86.6389 318.077 87.9052 318.858 88.6863L330.172 100L318.858 111.314C318.077 112.095 318.077 113.361 318.858 114.142C319.639 114.923 320.905 114.923 321.686 114.142L334.414 101.414ZM249 102L254 102L254 98L249 98L249 102ZM258 102L268 102L268 98L258 98L258 102ZM272 102L282 102L282 98L272 98L272 102ZM286 102L296 102L296 98L286 98L286 102ZM300 102L310 102L310 98L300 98L300 102ZM314 102L324 102L324 98L314 98L314 102ZM328 102L333 102L333 98L328 98L328 102Z" fill="black"/>
<path d="M40.2918 99.4099C39.9019 99.801 39.903 100.434 40.2942 100.824L46.6688 107.177C47.06 107.567 47.6932 107.566 48.083 107.175C48.4729 106.784 48.4718 106.151 48.0807 105.761L42.4143 100.113L48.0617 94.4471C48.4515 94.0559 48.4505 93.4227 48.0593 93.0329C47.6681 92.643 47.035 92.6441 46.6451 93.0352L40.2918 99.4099ZM109.998 99L105.07 99.0083L105.073 101.008L110.002 101L109.998 99ZM101.127 99.0149L91.2698 99.0314L91.2731 101.031L101.13 101.015L101.127 99.0149ZM87.3269 99.038L77.4698 99.0546L77.4732 101.055L87.3303 101.038L87.3269 99.038ZM73.527 99.0612L63.6698 99.0777L63.6732 101.078L73.5303 101.061L73.527 99.0612ZM59.727 99.0844L49.8698 99.1009L49.8732 101.101L59.7303 101.084L59.727 99.0844ZM45.927 99.1075L40.9984 99.1158L41.0018 101.116L45.9304 101.108L45.927 99.1075ZM39.5835 98.7039C38.8038 99.4863 38.8059 100.753 39.5883 101.532L52.3375 114.239C53.1199 115.019 54.3862 115.017 55.1659 114.234C55.9457 113.452 55.9436 112.185 55.1612 111.406L43.8285 100.111L55.1232 88.7784C55.903 87.996 55.9008 86.7297 55.1185 85.9499C54.3361 85.1702 53.0698 85.1723 52.2901 85.9547L39.5835 98.7039ZM109.997 98L105.068 98.0083L105.075 102.008L110.003 102L109.997 98ZM101.125 98.0149L91.2681 98.0314L91.2748 102.031L101.132 102.015L101.125 98.0149ZM87.3253 98.038L77.4681 98.0546L77.4748 102.055L87.332 102.038L87.3253 98.038ZM73.5253 98.0612L63.6681 98.0777L63.6749 102.078L73.532 102.061L73.5253 98.0612ZM59.7253 98.0844L49.8682 98.1009L49.8749 102.101L59.732 102.084L59.7253 98.0844ZM45.9253 98.1075L40.9967 98.1158L41.0035 102.116L45.932 102.108L45.9253 98.1075Z" fill="black"/>
<path d="M150.4 94.86C150.4 94.2733 150.747 93.6933 151.44 93.12C152.133 92.5333 153.207 92.24 154.66 92.24C156.113 92.24 157.187 92.58 157.88 93.26C158.573 93.94 158.92 94.6933 158.92 95.52C158.92 96.3467 158.7 97.0467 158.26 97.62C157.833 98.18 157.287 98.5533 156.62 98.74C157.447 98.9133 158.153 99.2733 158.74 99.82C159.327 100.367 159.62 101.093 159.62 102C159.62 103.227 159.093 104.227 158.04 105C157 105.773 155.767 106.16 154.34 106.16C152.927 106.16 151.813 105.973 151 105.6C150.2 105.227 149.8 104.767 149.8 104.22C149.8 103.673 150.1 103.313 150.7 103.14C151.087 104.153 152.24 104.66 154.16 104.66C155.16 104.66 156.04 104.433 156.8 103.98C157.56 103.527 157.94 102.907 157.94 102.12C157.94 101.32 157.587 100.727 156.88 100.34C156.173 99.94 155.327 99.74 154.34 99.74H153.5C152.9 99.74 152.6 99.5 152.6 99.02C152.6 98.5 152.9 98.24 153.5 98.24H154.34C155.167 98.24 155.853 98.0333 156.4 97.62C156.96 97.1933 157.24 96.66 157.24 96.02C157.24 95.3667 157.007 94.8267 156.54 94.4C156.087 93.96 155.427 93.74 154.56 93.74C153.707 93.74 153.02 93.92 152.5 94.28C151.993 94.64 151.647 95.1267 151.46 95.74C150.753 95.74 150.4 95.4467 150.4 94.86ZM163.324 94.04C164.404 92.84 165.771 92.24 167.424 92.24C169.077 92.24 170.437 92.84 171.504 94.04C172.571 95.2267 173.104 96.9333 173.104 99.16C173.104 101.373 172.564 103.093 171.484 104.32C170.417 105.547 169.064 106.16 167.424 106.16C165.784 106.16 164.417 105.547 163.324 104.32C162.244 103.093 161.704 101.373 161.704 99.16C161.704 96.9467 162.244 95.24 163.324 94.04ZM171.224 99.22C171.224 97.5133 170.857 96.1867 170.124 95.24C169.404 94.28 168.497 93.8 167.404 93.8C166.311 93.8 165.404 94.28 164.684 95.24C163.977 96.1867 163.624 97.5133 163.624 99.22C163.624 100.913 163.957 102.24 164.624 103.2C165.291 104.147 166.217 104.62 167.404 104.62C168.604 104.62 169.537 104.147 170.204 103.2C170.884 102.24 171.224 100.913 171.224 99.22ZM177.133 94.04C178.213 92.84 179.579 92.24 181.233 92.24C182.886 92.24 184.246 92.84 185.313 94.04C186.379 95.2267 186.913 96.9333 186.913 99.16C186.913 101.373 186.373 103.093 185.293 104.32C184.226 105.547 182.873 106.16 181.233 106.16C179.593 106.16 178.226 105.547 177.133 104.32C176.053 103.093 175.513 101.373 175.513 99.16C175.513 96.9467 176.053 95.24 177.133 94.04ZM185.033 99.22C185.033 97.5133 184.666 96.1867 183.933 95.24C183.213 94.28 182.306 93.8 181.213 93.8C180.119 93.8 179.213 94.28 178.493 95.24C177.786 96.1867 177.433 97.5133 177.433 99.22C177.433 100.913 177.766 102.24 178.433 103.2C179.099 104.147 180.026 104.62 181.213 104.62C182.413 104.62 183.346 104.147 184.013 103.2C184.693 102.24 185.033 100.913 185.033 99.22ZM190.321 96.14H190.461C190.968 96.14 191.221 96.3733 191.221 96.84V97.62C191.501 97.1533 191.921 96.76 192.481 96.44C193.041 96.12 193.648 95.96 194.301 95.96C195.541 95.96 196.541 96.38 197.301 97.22C198.074 98.0467 198.461 99.3133 198.461 101.02C198.461 102.713 198.008 103.993 197.101 104.86C196.208 105.727 195.108 106.16 193.801 106.16C192.908 106.16 192.048 105.933 191.221 105.48V109.78C191.221 110.273 190.968 110.52 190.461 110.52H190.321C189.814 110.52 189.561 110.273 189.561 109.78V96.88C189.561 96.3867 189.814 96.14 190.321 96.14ZM196.801 101C196.801 99.7333 196.534 98.8133 196.001 98.24C195.468 97.6533 194.748 97.36 193.841 97.36C192.934 97.36 192.268 97.76 191.841 98.56C191.428 99.36 191.221 100.4 191.221 101.68V104.18C191.354 104.273 191.681 104.4 192.201 104.56C192.734 104.707 193.268 104.78 193.801 104.78C194.694 104.78 195.414 104.467 195.961 103.84C196.521 103.213 196.801 102.267 196.801 101ZM201.187 96.14H201.807C202.141 96.14 202.414 96.3 202.627 96.62L204.887 100.08C205.461 99.3733 206.227 98.22 207.187 96.62C207.387 96.3 207.647 96.14 207.967 96.14H208.327C208.714 96.14 208.907 96.2933 208.907 96.6C208.907 96.7067 208.881 96.8067 208.827 96.9C208.067 98.1933 207.054 99.58 205.787 101.06L208.927 105.24C209.034 105.387 209.087 105.52 209.087 105.64C209.087 105.88 208.947 106 208.667 106H207.887C207.554 106 207.254 105.813 206.987 105.44L204.727 102.18C204.514 102.393 204.267 102.707 203.987 103.12C203.707 103.533 203.501 103.833 203.367 104.02C202.967 104.62 202.647 105.12 202.407 105.52C202.194 105.84 201.921 106 201.587 106H201.227C201.067 106 200.934 105.947 200.827 105.84C200.721 105.733 200.667 105.62 200.667 105.5C200.667 105.367 200.707 105.24 200.787 105.12C201.694 103.787 202.727 102.473 203.887 101.18L200.767 96.9C200.687 96.8067 200.647 96.7 200.647 96.58C200.647 96.46 200.694 96.36 200.787 96.28C200.894 96.1867 201.027 96.14 201.187 96.14Z" fill="black"/>
<path d="M52.44 192.778H59.604C60.096 192.778 60.342 193.012 60.342 193.48C60.342 193.684 60.126 194.2 59.694 195.028C57.918 198.532 56.328 201.682 54.924 204.478C54.744 204.826 54.438 205 54.006 205H53.736C53.352 205 53.16 204.862 53.16 204.586C53.16 204.37 53.232 204.142 53.376 203.902C53.664 203.422 55.35 200.176 58.434 194.164H52.44C51.96 194.164 51.72 193.936 51.72 193.48C51.72 193.012 51.96 192.778 52.44 192.778ZM63.8987 192.778H69.4067C69.8867 192.778 70.1267 193.006 70.1267 193.462C70.1267 193.918 69.8867 194.146 69.4067 194.146H64.4387L64.1687 197.728C64.7447 197.56 65.4647 197.476 66.3287 197.476C67.5287 197.476 68.5127 197.782 69.2807 198.394C70.0487 199.006 70.4327 199.906 70.4327 201.094C70.4327 202.282 69.9827 203.254 69.0827 204.01C68.1827 204.766 67.0907 205.144 65.8067 205.144C64.5347 205.144 63.5567 204.988 62.8727 204.676C62.1887 204.352 61.8467 203.902 61.8467 203.326C61.8467 202.894 62.0987 202.594 62.6027 202.426C62.7587 202.894 63.1307 203.242 63.7187 203.47C64.3187 203.686 65.0387 203.794 65.8787 203.794C66.7307 203.794 67.4687 203.56 68.0927 203.092C68.7167 202.624 69.0287 201.988 69.0287 201.184C69.0287 200.368 68.7527 199.768 68.2007 199.384C67.6607 199 67.0187 198.808 66.2747 198.808C65.5307 198.808 64.7327 198.934 63.8807 199.186C63.7727 199.222 63.6347 199.24 63.4667 199.24C63.3107 199.24 63.1547 199.168 62.9987 199.024C62.8427 198.868 62.7647 198.67 62.7647 198.43L63.1607 193.444C63.1847 193.204 63.2447 193.036 63.3407 192.94C63.4487 192.832 63.6347 192.778 63.8987 192.778ZM73.1245 196.126H73.2505C73.7065 196.126 73.9345 196.336 73.9345 196.756V197.458C74.1865 197.038 74.5645 196.684 75.0685 196.396C75.5725 196.108 76.1185 195.964 76.7065 195.964C77.8225 195.964 78.7225 196.342 79.4065 197.098C80.1025 197.842 80.4505 198.982 80.4505 200.518C80.4505 202.042 80.0425 203.194 79.2265 203.974C78.4225 204.754 77.4325 205.144 76.2565 205.144C75.4525 205.144 74.6785 204.94 73.9345 204.532V208.402C73.9345 208.846 73.7065 209.068 73.2505 209.068H73.1245C72.6685 209.068 72.4405 208.846 72.4405 208.402V196.792C72.4405 196.348 72.6685 196.126 73.1245 196.126ZM78.9565 200.5C78.9565 199.36 78.7165 198.532 78.2365 198.016C77.7565 197.488 77.1085 197.224 76.2925 197.224C75.4765 197.224 74.8765 197.584 74.4925 198.304C74.1205 199.024 73.9345 199.96 73.9345 201.112V203.362C74.0545 203.446 74.3485 203.56 74.8165 203.704C75.2965 203.836 75.7765 203.902 76.2565 203.902C77.0605 203.902 77.7085 203.62 78.2005 203.056C78.7045 202.492 78.9565 201.64 78.9565 200.5ZM82.9042 196.126H83.4622C83.7622 196.126 84.0082 196.27 84.2002 196.558L86.2342 199.672C86.7502 199.036 87.4402 197.998 88.3042 196.558C88.4842 196.27 88.7182 196.126 89.0062 196.126H89.3302C89.6782 196.126 89.8522 196.264 89.8522 196.54C89.8522 196.636 89.8282 196.726 89.7802 196.81C89.0962 197.974 88.1842 199.222 87.0442 200.554L89.8702 204.316C89.9662 204.448 90.0142 204.568 90.0142 204.676C90.0142 204.892 89.8882 205 89.6362 205H88.9342C88.6342 205 88.3642 204.832 88.1242 204.496L86.0902 201.562C85.8982 201.754 85.6762 202.036 85.4242 202.408C85.1722 202.78 84.9862 203.05 84.8662 203.218C84.5062 203.758 84.2182 204.208 84.0022 204.568C83.8102 204.856 83.5642 205 83.2642 205H82.9402C82.7962 205 82.6762 204.952 82.5802 204.856C82.4842 204.76 82.4362 204.658 82.4362 204.55C82.4362 204.43 82.4722 204.316 82.5442 204.208C83.3602 203.008 84.2902 201.826 85.3342 200.662L82.5262 196.81C82.4542 196.726 82.4182 196.63 82.4182 196.522C82.4182 196.414 82.4602 196.324 82.5442 196.252C82.6402 196.168 82.7602 196.126 82.9042 196.126Z" fill="black"/>
<path d="M126.44 192.778H133.604C134.096 192.778 134.342 193.012 134.342 193.48C134.342 193.684 134.126 194.2 133.694 195.028C131.918 198.532 130.328 201.682 128.924 204.478C128.744 204.826 128.438 205 128.006 205H127.736C127.352 205 127.16 204.862 127.16 204.586C127.16 204.37 127.232 204.142 127.376 203.902C127.664 203.422 129.35 200.176 132.434 194.164H126.44C125.96 194.164 125.72 193.936 125.72 193.48C125.72 193.012 125.96 192.778 126.44 192.778ZM137.899 192.778H143.407C143.887 192.778 144.127 193.006 144.127 193.462C144.127 193.918 143.887 194.146 143.407 194.146H138.439L138.169 197.728C138.745 197.56 139.465 197.476 140.329 197.476C141.529 197.476 142.513 197.782 143.281 198.394C144.049 199.006 144.433 199.906 144.433 201.094C144.433 202.282 143.983 203.254 143.083 204.01C142.183 204.766 141.091 205.144 139.807 205.144C138.535 205.144 137.557 204.988 136.873 204.676C136.189 204.352 135.847 203.902 135.847 203.326C135.847 202.894 136.099 202.594 136.603 202.426C136.759 202.894 137.131 203.242 137.719 203.47C138.319 203.686 139.039 203.794 139.879 203.794C140.731 203.794 141.469 203.56 142.093 203.092C142.717 202.624 143.029 201.988 143.029 201.184C143.029 200.368 142.753 199.768 142.201 199.384C141.661 199 141.019 198.808 140.275 198.808C139.531 198.808 138.733 198.934 137.881 199.186C137.773 199.222 137.635 199.24 137.467 199.24C137.311 199.24 137.155 199.168 136.999 199.024C136.843 198.868 136.765 198.67 136.765 198.43L137.161 193.444C137.185 193.204 137.245 193.036 137.341 192.94C137.449 192.832 137.635 192.778 137.899 192.778ZM147.125 196.126H147.251C147.707 196.126 147.935 196.336 147.935 196.756V197.458C148.187 197.038 148.565 196.684 149.069 196.396C149.573 196.108 150.119 195.964 150.707 195.964C151.823 195.964 152.723 196.342 153.407 197.098C154.103 197.842 154.451 198.982 154.451 200.518C154.451 202.042 154.043 203.194 153.227 203.974C152.423 204.754 151.433 205.144 150.257 205.144C149.453 205.144 148.679 204.94 147.935 204.532V208.402C147.935 208.846 147.707 209.068 147.251 209.068H147.125C146.669 209.068 146.441 208.846 146.441 208.402V196.792C146.441 196.348 146.669 196.126 147.125 196.126ZM152.957 200.5C152.957 199.36 152.717 198.532 152.237 198.016C151.757 197.488 151.109 197.224 150.293 197.224C149.477 197.224 148.877 197.584 148.493 198.304C148.121 199.024 147.935 199.96 147.935 201.112V203.362C148.055 203.446 148.349 203.56 148.817 203.704C149.297 203.836 149.777 203.902 150.257 203.902C151.061 203.902 151.709 203.62 152.201 203.056C152.705 202.492 152.957 201.64 152.957 200.5ZM156.904 196.126H157.462C157.762 196.126 158.008 196.27 158.2 196.558L160.234 199.672C160.75 199.036 161.44 197.998 162.304 196.558C162.484 196.27 162.718 196.126 163.006 196.126H163.33C163.678 196.126 163.852 196.264 163.852 196.54C163.852 196.636 163.828 196.726 163.78 196.81C163.096 197.974 162.184 199.222 161.044 200.554L163.87 204.316C163.966 204.448 164.014 204.568 164.014 204.676C164.014 204.892 163.888 205 163.636 205H162.934C162.634 205 162.364 204.832 162.124 204.496L160.09 201.562C159.898 201.754 159.676 202.036 159.424 202.408C159.172 202.78 158.986 203.05 158.866 203.218C158.506 203.758 158.218 204.208 158.002 204.568C157.81 204.856 157.564 205 157.264 205H156.94C156.796 205 156.676 204.952 156.58 204.856C156.484 204.76 156.436 204.658 156.436 204.55C156.436 204.43 156.472 204.316 156.544 204.208C157.36 203.008 158.29 201.826 159.334 200.662L156.526 196.81C156.454 196.726 156.418 196.63 156.418 196.522C156.418 196.414 156.46 196.324 156.544 196.252C156.64 196.168 156.76 196.126 156.904 196.126Z" fill="black"/>
<path d="M200.44 191.778H207.604C208.096 191.778 208.342 192.012 208.342 192.48C208.342 192.684 208.126 193.2 207.694 194.028C205.918 197.532 204.328 200.682 202.924 203.478C202.744 203.826 202.438 204 202.006 204H201.736C201.352 204 201.16 203.862 201.16 203.586C201.16 203.37 201.232 203.142 201.376 202.902C201.664 202.422 203.35 199.176 206.434 193.164H200.44C199.96 193.164 199.72 192.936 199.72 192.48C199.72 192.012 199.96 191.778 200.44 191.778ZM211.899 191.778H217.407C217.887 191.778 218.127 192.006 218.127 192.462C218.127 192.918 217.887 193.146 217.407 193.146H212.439L212.169 196.728C212.745 196.56 213.465 196.476 214.329 196.476C215.529 196.476 216.513 196.782 217.281 197.394C218.049 198.006 218.433 198.906 218.433 200.094C218.433 201.282 217.983 202.254 217.083 203.01C216.183 203.766 215.091 204.144 213.807 204.144C212.535 204.144 211.557 203.988 210.873 203.676C210.189 203.352 209.847 202.902 209.847 202.326C209.847 201.894 210.099 201.594 210.603 201.426C210.759 201.894 211.131 202.242 211.719 202.47C212.319 202.686 213.039 202.794 213.879 202.794C214.731 202.794 215.469 202.56 216.093 202.092C216.717 201.624 217.029 200.988 217.029 200.184C217.029 199.368 216.753 198.768 216.201 198.384C215.661 198 215.019 197.808 214.275 197.808C213.531 197.808 212.733 197.934 211.881 198.186C211.773 198.222 211.635 198.24 211.467 198.24C211.311 198.24 211.155 198.168 210.999 198.024C210.843 197.868 210.765 197.67 210.765 197.43L211.161 192.444C211.185 192.204 211.245 192.036 211.341 191.94C211.449 191.832 211.635 191.778 211.899 191.778ZM221.125 195.126H221.251C221.707 195.126 221.935 195.336 221.935 195.756V196.458C222.187 196.038 222.565 195.684 223.069 195.396C223.573 195.108 224.119 194.964 224.707 194.964C225.823 194.964 226.723 195.342 227.407 196.098C228.103 196.842 228.451 197.982 228.451 199.518C228.451 201.042 228.043 202.194 227.227 202.974C226.423 203.754 225.433 204.144 224.257 204.144C223.453 204.144 222.679 203.94 221.935 203.532V207.402C221.935 207.846 221.707 208.068 221.251 208.068H221.125C220.669 208.068 220.441 207.846 220.441 207.402V195.792C220.441 195.348 220.669 195.126 221.125 195.126ZM226.957 199.5C226.957 198.36 226.717 197.532 226.237 197.016C225.757 196.488 225.109 196.224 224.293 196.224C223.477 196.224 222.877 196.584 222.493 197.304C222.121 198.024 221.935 198.96 221.935 200.112V202.362C222.055 202.446 222.349 202.56 222.817 202.704C223.297 202.836 223.777 202.902 224.257 202.902C225.061 202.902 225.709 202.62 226.201 202.056C226.705 201.492 226.957 200.64 226.957 199.5ZM230.904 195.126H231.462C231.762 195.126 232.008 195.27 232.2 195.558L234.234 198.672C234.75 198.036 235.44 196.998 236.304 195.558C236.484 195.27 236.718 195.126 237.006 195.126H237.33C237.678 195.126 237.852 195.264 237.852 195.54C237.852 195.636 237.828 195.726 237.78 195.81C237.096 196.974 236.184 198.222 235.044 199.554L237.87 203.316C237.966 203.448 238.014 203.568 238.014 203.676C238.014 203.892 237.888 204 237.636 204H236.934C236.634 204 236.364 203.832 236.124 203.496L234.09 200.562C233.898 200.754 233.676 201.036 233.424 201.408C233.172 201.78 232.986 202.05 232.866 202.218C232.506 202.758 232.218 203.208 232.002 203.568C231.81 203.856 231.564 204 231.264 204H230.94C230.796 204 230.676 203.952 230.58 203.856C230.484 203.76 230.436 203.658 230.436 203.55C230.436 203.43 230.472 203.316 230.544 203.208C231.36 202.008 232.29 200.826 233.334 199.662L230.526 195.81C230.454 195.726 230.418 195.63 230.418 195.522C230.418 195.414 230.46 195.324 230.544 195.252C230.64 195.168 230.76 195.126 230.904 195.126Z" fill="black"/>
<path d="M276.44 191.778H283.604C284.096 191.778 284.342 192.012 284.342 192.48C284.342 192.684 284.126 193.2 283.694 194.028C281.918 197.532 280.328 200.682 278.924 203.478C278.744 203.826 278.438 204 278.006 204H277.736C277.352 204 277.16 203.862 277.16 203.586C277.16 203.37 277.232 203.142 277.376 202.902C277.664 202.422 279.35 199.176 282.434 193.164H276.44C275.96 193.164 275.72 192.936 275.72 192.48C275.72 192.012 275.96 191.778 276.44 191.778ZM287.899 191.778H293.407C293.887 191.778 294.127 192.006 294.127 192.462C294.127 192.918 293.887 193.146 293.407 193.146H288.439L288.169 196.728C288.745 196.56 289.465 196.476 290.329 196.476C291.529 196.476 292.513 196.782 293.281 197.394C294.049 198.006 294.433 198.906 294.433 200.094C294.433 201.282 293.983 202.254 293.083 203.01C292.183 203.766 291.091 204.144 289.807 204.144C288.535 204.144 287.557 203.988 286.873 203.676C286.189 203.352 285.847 202.902 285.847 202.326C285.847 201.894 286.099 201.594 286.603 201.426C286.759 201.894 287.131 202.242 287.719 202.47C288.319 202.686 289.039 202.794 289.879 202.794C290.731 202.794 291.469 202.56 292.093 202.092C292.717 201.624 293.029 200.988 293.029 200.184C293.029 199.368 292.753 198.768 292.201 198.384C291.661 198 291.019 197.808 290.275 197.808C289.531 197.808 288.733 197.934 287.881 198.186C287.773 198.222 287.635 198.24 287.467 198.24C287.311 198.24 287.155 198.168 286.999 198.024C286.843 197.868 286.765 197.67 286.765 197.43L287.161 192.444C287.185 192.204 287.245 192.036 287.341 191.94C287.449 191.832 287.635 191.778 287.899 191.778ZM297.125 195.126H297.251C297.707 195.126 297.935 195.336 297.935 195.756V196.458C298.187 196.038 298.565 195.684 299.069 195.396C299.573 195.108 300.119 194.964 300.707 194.964C301.823 194.964 302.723 195.342 303.407 196.098C304.103 196.842 304.451 197.982 304.451 199.518C304.451 201.042 304.043 202.194 303.227 202.974C302.423 203.754 301.433 204.144 300.257 204.144C299.453 204.144 298.679 203.94 297.935 203.532V207.402C297.935 207.846 297.707 208.068 297.251 208.068H297.125C296.669 208.068 296.441 207.846 296.441 207.402V195.792C296.441 195.348 296.669 195.126 297.125 195.126ZM302.957 199.5C302.957 198.36 302.717 197.532 302.237 197.016C301.757 196.488 301.109 196.224 300.293 196.224C299.477 196.224 298.877 196.584 298.493 197.304C298.121 198.024 297.935 198.96 297.935 200.112V202.362C298.055 202.446 298.349 202.56 298.817 202.704C299.297 202.836 299.777 202.902 300.257 202.902C301.061 202.902 301.709 202.62 302.201 202.056C302.705 201.492 302.957 200.64 302.957 199.5ZM306.904 195.126H307.462C307.762 195.126 308.008 195.27 308.2 195.558L310.234 198.672C310.75 198.036 311.44 196.998 312.304 195.558C312.484 195.27 312.718 195.126 313.006 195.126H313.33C313.678 195.126 313.852 195.264 313.852 195.54C313.852 195.636 313.828 195.726 313.78 195.81C313.096 196.974 312.184 198.222 311.044 199.554L313.87 203.316C313.966 203.448 314.014 203.568 314.014 203.676C314.014 203.892 313.888 204 313.636 204H312.934C312.634 204 312.364 203.832 312.124 203.496L310.09 200.562C309.898 200.754 309.676 201.036 309.424 201.408C309.172 201.78 308.986 202.05 308.866 202.218C308.506 202.758 308.218 203.208 308.002 203.568C307.81 203.856 307.564 204 307.264 204H306.94C306.796 204 306.676 203.952 306.58 203.856C306.484 203.76 306.436 203.658 306.436 203.55C306.436 203.43 306.472 203.316 306.544 203.208C307.36 202.008 308.29 200.826 309.334 199.662L306.526 195.81C306.454 195.726 306.418 195.63 306.418 195.522C306.418 195.414 306.46 195.324 306.544 195.252C306.64 195.168 306.76 195.126 306.904 195.126Z" fill="black"/>
<path d="M84.4 48.86C84.4 48.2733 84.7467 47.6933 85.44 47.12C86.1333 46.5333 87.2067 46.24 88.66 46.24C90.1133 46.24 91.1867 46.58 91.88 47.26C92.5733 47.94 92.92 48.6933 92.92 49.52C92.92 50.3467 92.7 51.0467 92.26 51.62C91.8333 52.18 91.2867 52.5533 90.62 52.74C91.4467 52.9133 92.1533 53.2733 92.74 53.82C93.3267 54.3667 93.62 55.0933 93.62 56C93.62 57.2267 93.0933 58.2267 92.04 59C91 59.7733 89.7667 60.16 88.34 60.16C86.9267 60.16 85.8133 59.9733 85 59.6C84.2 59.2267 83.8 58.7667 83.8 58.22C83.8 57.6733 84.1 57.3133 84.7 57.14C85.0867 58.1533 86.24 58.66 88.16 58.66C89.16 58.66 90.04 58.4333 90.8 57.98C91.56 57.5267 91.94 56.9067 91.94 56.12C91.94 55.32 91.5867 54.7267 90.88 54.34C90.1733 53.94 89.3267 53.74 88.34 53.74H87.5C86.9 53.74 86.6 53.5 86.6 53.02C86.6 52.5 86.9 52.24 87.5 52.24H88.34C89.1667 52.24 89.8533 52.0333 90.4 51.62C90.96 51.1933 91.24 50.66 91.24 50.02C91.24 49.3667 91.0067 48.8267 90.54 48.4C90.0867 47.96 89.4267 47.74 88.56 47.74C87.7067 47.74 87.02 47.92 86.5 48.28C85.9933 48.64 85.6467 49.1267 85.46 49.74C84.7533 49.74 84.4 49.4467 84.4 48.86ZM97.3239 48.04C98.4039 46.84 99.7706 46.24 101.424 46.24C103.077 46.24 104.437 46.84 105.504 48.04C106.571 49.2267 107.104 50.9333 107.104 53.16C107.104 55.3733 106.564 57.0933 105.484 58.32C104.417 59.5467 103.064 60.16 101.424 60.16C99.7839 60.16 98.4172 59.5467 97.3239 58.32C96.2439 57.0933 95.7039 55.3733 95.7039 53.16C95.7039 50.9467 96.2439 49.24 97.3239 48.04ZM105.224 53.22C105.224 51.5133 104.857 50.1867 104.124 49.24C103.404 48.28 102.497 47.8 101.404 47.8C100.311 47.8 99.4039 48.28 98.6839 49.24C97.9772 50.1867 97.6239 51.5133 97.6239 53.22C97.6239 54.9133 97.9572 56.24 98.6239 57.2C99.2906 58.1467 100.217 58.62 101.404 58.62C102.604 58.62 103.537 58.1467 104.204 57.2C104.884 56.24 105.224 54.9133 105.224 53.22ZM111.133 48.04C112.213 46.84 113.579 46.24 115.233 46.24C116.886 46.24 118.246 46.84 119.313 48.04C120.379 49.2267 120.913 50.9333 120.913 53.16C120.913 55.3733 120.373 57.0933 119.293 58.32C118.226 59.5467 116.873 60.16 115.233 60.16C113.593 60.16 112.226 59.5467 111.133 58.32C110.053 57.0933 109.513 55.3733 109.513 53.16C109.513 50.9467 110.053 49.24 111.133 48.04ZM119.033 53.22C119.033 51.5133 118.666 50.1867 117.933 49.24C117.213 48.28 116.306 47.8 115.213 47.8C114.119 47.8 113.213 48.28 112.493 49.24C111.786 50.1867 111.433 51.5133 111.433 53.22C111.433 54.9133 111.766 56.24 112.433 57.2C113.099 58.1467 114.026 58.62 115.213 58.62C116.413 58.62 117.346 58.1467 118.013 57.2C118.693 56.24 119.033 54.9133 119.033 53.22ZM124.321 50.14H124.461C124.968 50.14 125.221 50.3733 125.221 50.84V51.62C125.501 51.1533 125.921 50.76 126.481 50.44C127.041 50.12 127.648 49.96 128.301 49.96C129.541 49.96 130.541 50.38 131.301 51.22C132.074 52.0467 132.461 53.3133 132.461 55.02C132.461 56.7133 132.008 57.9933 131.101 58.86C130.208 59.7267 129.108 60.16 127.801 60.16C126.908 60.16 126.048 59.9333 125.221 59.48V63.78C125.221 64.2733 124.968 64.52 124.461 64.52H124.321C123.814 64.52 123.561 64.2733 123.561 63.78V50.88C123.561 50.3867 123.814 50.14 124.321 50.14ZM130.801 55C130.801 53.7333 130.534 52.8133 130.001 52.24C129.468 51.6533 128.748 51.36 127.841 51.36C126.934 51.36 126.268 51.76 125.841 52.56C125.428 53.36 125.221 54.4 125.221 55.68V58.18C125.354 58.2733 125.681 58.4 126.201 58.56C126.734 58.7067 127.268 58.78 127.801 58.78C128.694 58.78 129.414 58.4667 129.961 57.84C130.521 57.2133 130.801 56.2667 130.801 55ZM135.187 50.14H135.807C136.141 50.14 136.414 50.3 136.627 50.62L138.887 54.08C139.461 53.3733 140.227 52.22 141.187 50.62C141.387 50.3 141.647 50.14 141.967 50.14H142.327C142.714 50.14 142.907 50.2933 142.907 50.6C142.907 50.7067 142.881 50.8067 142.827 50.9C142.067 52.1933 141.054 53.58 139.787 55.06L142.927 59.24C143.034 59.3867 143.087 59.52 143.087 59.64C143.087 59.88 142.947 60 142.667 60H141.887C141.554 60 141.254 59.8133 140.987 59.44L138.727 56.18C138.514 56.3933 138.267 56.7067 137.987 57.12C137.707 57.5333 137.501 57.8333 137.367 58.02C136.967 58.62 136.647 59.12 136.407 59.52C136.194 59.84 135.921 60 135.587 60H135.227C135.067 60 134.934 59.9467 134.827 59.84C134.721 59.7333 134.667 59.62 134.667 59.5C134.667 59.3667 134.707 59.24 134.787 59.12C135.694 57.7867 136.727 56.4733 137.887 55.18L134.767 50.9C134.687 50.8067 134.647 50.7 134.647 50.58C134.647 50.46 134.694 50.36 134.787 50.28C134.894 50.1867 135.027 50.14 135.187 50.14ZM151.034 46.36C151.034 46.48 151.014 46.6 150.974 46.72L146.034 59.66C145.887 60.0067 145.694 60.18 145.454 60.18C145.227 60.18 145.047 60.12 144.914 60C144.78 59.8667 144.714 59.7333 144.714 59.6C144.714 59.4533 144.74 59.32 144.794 59.2L149.714 46.26C149.834 45.9133 150.04 45.74 150.334 45.74C150.414 45.74 150.507 45.76 150.614 45.8C150.894 45.8933 151.034 46.08 151.034 46.36ZM157.653 63.1C157.826 63.2333 157.913 63.42 157.913 63.66C157.913 63.9133 157.833 64.12 157.673 64.28C157.513 64.44 157.313 64.52 157.073 64.52C156.833 64.52 156.519 64.3133 156.133 63.9C154.093 61.7933 153.073 59.08 153.073 55.76V54.72C153.073 52.92 153.373 51.2933 153.973 49.84C154.586 48.3733 155.426 47.1533 156.493 46.18C156.679 46.0333 156.879 45.96 157.093 45.96C157.319 45.96 157.513 46.04 157.673 46.2C157.833 46.36 157.913 46.56 157.913 46.8C157.913 47.0267 157.826 47.22 157.653 47.38C155.786 49.14 154.853 51.5867 154.853 54.72V55.76C154.853 58.8933 155.786 61.34 157.653 63.1ZM160.825 46.42H162.885C163.445 46.42 163.725 46.66 163.725 47.14V59.24C163.725 59.7467 163.445 60 162.885 60H162.745C162.185 60 161.905 59.7467 161.905 59.24V47.92H160.825C160.279 47.92 160.005 47.6733 160.005 47.18C160.005 46.6733 160.279 46.42 160.825 46.42ZM170.209 51.02C170.209 50.5267 170.429 50.28 170.869 50.28C171.309 50.28 171.529 50.5267 171.529 51.02V54.36H174.929C175.422 54.36 175.669 54.58 175.669 55.02C175.669 55.46 175.422 55.68 174.929 55.68H171.529V59.08C171.529 59.5733 171.309 59.82 170.869 59.82C170.429 59.82 170.209 59.5733 170.209 59.08V55.68H166.869C166.376 55.68 166.129 55.46 166.129 55.02C166.129 54.58 166.376 54.36 166.869 54.36H170.209V51.02ZM178.697 46.42H180.757C181.317 46.42 181.597 46.66 181.597 47.14V59.24C181.597 59.7467 181.317 60 180.757 60H180.617C180.057 60 179.777 59.7467 179.777 59.24V47.92H178.697C178.15 47.92 177.877 47.6733 177.877 47.18C177.877 46.6733 178.15 46.42 178.697 46.42ZM188.08 51.02C188.08 50.5267 188.3 50.28 188.74 50.28C189.18 50.28 189.4 50.5267 189.4 51.02V54.36H192.8C193.293 54.36 193.54 54.58 193.54 55.02C193.54 55.46 193.293 55.68 192.8 55.68H189.4V59.08C189.4 59.5733 189.18 59.82 188.74 59.82C188.3 59.82 188.08 59.5733 188.08 59.08V55.68H184.74C184.247 55.68 184 55.46 184 55.02C184 54.58 184.247 54.36 184.74 54.36H188.08V51.02ZM196.568 46.42H198.628C199.188 46.42 199.468 46.66 199.468 47.14V59.24C199.468 59.7467 199.188 60 198.628 60H198.488C197.928 60 197.648 59.7467 197.648 59.24V47.92H196.568C196.021 47.92 195.748 47.6733 195.748 47.18C195.748 46.6733 196.021 46.42 196.568 46.42ZM205.951 51.02C205.951 50.5267 206.171 50.28 206.611 50.28C207.051 50.28 207.271 50.5267 207.271 51.02V54.36H210.671C211.164 54.36 211.411 54.58 211.411 55.02C211.411 55.46 211.164 55.68 210.671 55.68H207.271V59.08C207.271 59.5733 207.051 59.82 206.611 59.82C206.171 59.82 205.951 59.5733 205.951 59.08V55.68H202.611C202.118 55.68 201.871 55.46 201.871 55.02C201.871 54.58 202.118 54.36 202.611 54.36H205.951V51.02ZM214.439 46.42H216.499C217.059 46.42 217.339 46.66 217.339 47.14V59.24C217.339 59.7467 217.059 60 216.499 60H216.359C215.799 60 215.519 59.7467 215.519 59.24V47.92H214.439C213.892 47.92 213.619 47.6733 213.619 47.18C213.619 46.6733 213.892 46.42 214.439 46.42ZM222.482 55.76V54.72C222.482 51.56 221.549 49.1133 219.682 47.38C219.509 47.2067 219.422 47.0067 219.422 46.78C219.422 46.54 219.502 46.3467 219.662 46.2C219.822 46.04 219.982 45.96 220.142 45.96C220.302 45.96 220.416 45.9733 220.482 46C220.562 46.0133 220.636 46.0467 220.702 46.1C220.782 46.1533 220.836 46.1933 220.862 46.22C220.902 46.2467 220.962 46.3067 221.042 46.4C221.136 46.4933 221.196 46.5533 221.222 46.58C222.182 47.5533 222.929 48.7333 223.462 50.12C224.009 51.5067 224.282 53.04 224.282 54.72V55.76C224.282 59.08 223.262 61.7933 221.222 63.9C220.809 64.3133 220.482 64.52 220.242 64.52C220.016 64.52 219.822 64.44 219.662 64.28C219.502 64.12 219.422 63.92 219.422 63.68C219.422 63.44 219.509 63.2467 219.682 63.1C221.549 61.3667 222.482 58.92 222.482 55.76ZM233.822 52.18H240.882C241.375 52.18 241.622 52.4 241.622 52.84C241.622 53.28 241.375 53.5 240.882 53.5H233.822C233.329 53.5 233.082 53.28 233.082 52.84C233.082 52.4 233.329 52.18 233.822 52.18ZM233.822 55.72H240.882C241.375 55.72 241.622 55.94 241.622 56.38C241.622 56.82 241.375 57.04 240.882 57.04H233.822C233.329 57.04 233.082 56.82 233.082 56.38C233.082 55.94 233.329 55.72 233.822 55.72ZM250.596 46.42H258.556C259.103 46.42 259.376 46.68 259.376 47.2C259.376 47.4267 259.136 48 258.656 48.92C256.683 52.8133 254.916 56.3133 253.356 59.42C253.156 59.8067 252.816 60 252.336 60H252.036C251.609 60 251.396 59.8467 251.396 59.54C251.396 59.3 251.476 59.0467 251.636 58.78C251.956 58.2467 253.829 54.64 257.256 47.96H250.596C250.063 47.96 249.796 47.7067 249.796 47.2C249.796 46.68 250.063 46.42 250.596 46.42ZM263.328 46.42H269.448C269.981 46.42 270.248 46.6733 270.248 47.18C270.248 47.6867 269.981 47.94 269.448 47.94H263.928L263.628 51.92C264.268 51.7333 265.068 51.64 266.028 51.64C267.361 51.64 268.455 51.98 269.308 52.66C270.161 53.34 270.588 54.34 270.588 55.66C270.588 56.98 270.088 58.06 269.088 58.9C268.088 59.74 266.875 60.16 265.448 60.16C264.035 60.16 262.948 59.9867 262.188 59.64C261.428 59.28 261.048 58.78 261.048 58.14C261.048 57.66 261.328 57.3267 261.888 57.14C262.061 57.66 262.475 58.0467 263.128 58.3C263.795 58.54 264.595 58.66 265.528 58.66C266.475 58.66 267.295 58.4 267.988 57.88C268.681 57.36 269.028 56.6533 269.028 55.76C269.028 54.8533 268.721 54.1867 268.108 53.76C267.508 53.3333 266.795 53.12 265.968 53.12C265.141 53.12 264.255 53.26 263.308 53.54C263.188 53.58 263.035 53.6 262.848 53.6C262.675 53.6 262.501 53.52 262.328 53.36C262.155 53.1867 262.068 52.9667 262.068 52.7L262.508 47.16C262.535 46.8933 262.601 46.7067 262.708 46.6C262.828 46.48 263.035 46.42 263.328 46.42ZM273.579 50.14H273.719C274.226 50.14 274.479 50.3733 274.479 50.84V51.62C274.759 51.1533 275.179 50.76 275.739 50.44C276.299 50.12 276.906 49.96 277.559 49.96C278.799 49.96 279.799 50.38 280.559 51.22C281.332 52.0467 281.719 53.3133 281.719 55.02C281.719 56.7133 281.266 57.9933 280.359 58.86C279.466 59.7267 278.366 60.16 277.059 60.16C276.166 60.16 275.306 59.9333 274.479 59.48V63.78C274.479 64.2733 274.226 64.52 273.719 64.52H273.579C273.072 64.52 272.819 64.2733 272.819 63.78V50.88C272.819 50.3867 273.072 50.14 273.579 50.14ZM280.059 55C280.059 53.7333 279.792 52.8133 279.259 52.24C278.726 51.6533 278.006 51.36 277.099 51.36C276.192 51.36 275.526 51.76 275.099 52.56C274.686 53.36 274.479 54.4 274.479 55.68V58.18C274.612 58.2733 274.939 58.4 275.459 58.56C275.992 58.7067 276.526 58.78 277.059 58.78C277.952 58.78 278.672 58.4667 279.219 57.84C279.779 57.2133 280.059 56.2667 280.059 55ZM284.445 50.14H285.065C285.398 50.14 285.672 50.3 285.885 50.62L288.145 54.08C288.718 53.3733 289.485 52.22 290.445 50.62C290.645 50.3 290.905 50.14 291.225 50.14H291.585C291.972 50.14 292.165 50.2933 292.165 50.6C292.165 50.7067 292.138 50.8067 292.085 50.9C291.325 52.1933 290.312 53.58 289.045 55.06L292.185 59.24C292.292 59.3867 292.345 59.52 292.345 59.64C292.345 59.88 292.205 60 291.925 60H291.145C290.812 60 290.512 59.8133 290.245 59.44L287.985 56.18C287.772 56.3933 287.525 56.7067 287.245 57.12C286.965 57.5333 286.758 57.8333 286.625 58.02C286.225 58.62 285.905 59.12 285.665 59.52C285.452 59.84 285.178 60 284.845 60H284.485C284.325 60 284.192 59.9467 284.085 59.84C283.978 59.7333 283.925 59.62 283.925 59.5C283.925 59.3667 283.965 59.24 284.045 59.12C284.952 57.7867 285.985 56.4733 287.145 55.18L284.025 50.9C283.945 50.8067 283.905 50.7 283.905 50.58C283.905 50.46 283.952 50.36 284.045 50.28C284.152 50.1867 284.285 50.14 284.445 50.14Z" fill="black"/>
<defs>
<filter id="filter0_d" x="177" y="174" width="83" height="58" filterUnits="userSpaceOnUse" color-interpolation-filters="sRGB">
<feFlood flood-opacity="0" result="BackgroundImageFix"/>
<feColorMatrix in="SourceAlpha" type="matrix" values="0 0 0 0 0 0 0 0 0 0 0 0 0 0 0 0 0 0 127 0"/>
<feOffset dy="4"/>
<feGaussianBlur stdDeviation="2"/>
<feColorMatrix type="matrix" values="0 0 0 0 0 0 0 0 0 0 0 0 0 0 0 0 0 0 0.25 0"/>
<feBlend mode="normal" in2="BackgroundImageFix" result="effect1_dropShadow"/>
<feBlend mode="normal" in="SourceGraphic" in2="effect1_dropShadow" result="shape"/>
</filter>
<filter id="filter1_d" x="251" y="174" width="83" height="58" filterUnits="userSpaceOnUse" color-interpolation-filters="sRGB">
<feFlood flood-opacity="0" result="BackgroundImageFix"/>
<feColorMatrix in="SourceAlpha" type="matrix" values="0 0 0 0 0 0 0 0 0 0 0 0 0 0 0 0 0 0 127 0"/>
<feOffset dy="4"/>
<feGaussianBlur stdDeviation="2"/>
<feColorMatrix type="matrix" values="0 0 0 0 0 0 0 0 0 0 0 0 0 0 0 0 0 0 0.25 0"/>
<feBlend mode="normal" in2="BackgroundImageFix" result="effect1_dropShadow"/>
<feBlend mode="normal" in="SourceGraphic" in2="effect1_dropShadow" result="shape"/>
</filter>
<filter id="filter2_d" x="103" y="174" width="83" height="58" filterUnits="userSpaceOnUse" color-interpolation-filters="sRGB">
<feFlood flood-opacity="0" result="BackgroundImageFix"/>
<feColorMatrix in="SourceAlpha" type="matrix" values="0 0 0 0 0 0 0 0 0 0 0 0 0 0 0 0 0 0 127 0"/>
<feOffset dy="4"/>
<feGaussianBlur stdDeviation="2"/>
<feColorMatrix type="matrix" values="0 0 0 0 0 0 0 0 0 0 0 0 0 0 0 0 0 0 0.25 0"/>
<feBlend mode="normal" in2="BackgroundImageFix" result="effect1_dropShadow"/>
<feBlend mode="normal" in="SourceGraphic" in2="effect1_dropShadow" result="shape"/>
</filter>
<filter id="filter3_d" x="30" y="174" width="83" height="58" filterUnits="userSpaceOnUse" color-interpolation-filters="sRGB">
<feFlood flood-opacity="0" result="BackgroundImageFix"/>
<feColorMatrix in="SourceAlpha" type="matrix" values="0 0 0 0 0 0 0 0 0 0 0 0 0 0 0 0 0 0 127 0"/>
<feOffset dy="4"/>
<feGaussianBlur stdDeviation="2"/>
<feColorMatrix type="matrix" values="0 0 0 0 0 0 0 0 0 0 0 0 0 0 0 0 0 0 0.25 0"/>
<feBlend mode="normal" in2="BackgroundImageFix" result="effect1_dropShadow"/>
<feBlend mode="normal" in="SourceGraphic" in2="effect1_dropShadow" result="shape"/>
</filter>
</defs>
</svg>
