<svg width="1544" height="847" viewBox="0 0 1544 847" fill="none" xmlns="http://www.w3.org/2000/svg">
<rect width="1544" height="847" fill="white"/>
<path d="M1407 723.886C1408.22 721.17 1413.79 707.973 1413.84 710.162C1413.91 713.058 1412.62 725.34 1415.81 723.754C1417.67 722.835 1424.47 702.555 1424.78 717.288C1424.87 721.654 1425.29 737.831 1428.27 729.692C1430.15 724.581 1432.99 707.402 1432.99 713.461C1432.99 717.874 1436.99 740.676 1440.13 735.235C1442.95 730.333 1444.95 724.529 1446.97 718.607C1447.27 717.719 1450.48 707.376 1450.69 708.974C1451.13 712.413 1452.62 739.228 1453.8 739.458C1458.91 740.443 1458.7 711.096 1462.01 709.37C1462.61 709.057 1463.5 730.563 1465.28 726.789C1468.44 720.081 1469.4 710.876 1471.81 703.432C1472.38 701.681 1475.74 723.275 1476.14 726.525C1478.88 748.704 1480.68 722.881 1482.14 713.329C1485.41 692.063 1483.61 708.764 1485.64 717.948C1486.22 720.576 1485.85 725.168 1487.01 727.185C1487.71 728.41 1490.34 708.353 1491.49 716.76C1491.95 720.099 1492.97 745 1493.85 745C1496.74 745 1499.66 725.096 1500 721.511" stroke="#93227E" stroke-width="16" stroke-linecap="round" stroke-linejoin="round"/>
<path d="M1506.61 551.828C1508 554.298 1514.82 565.658 1513.56 565.455C1511.89 565.187 1505.02 561.317 1505.5 567.04C1505.78 570.355 1516.49 584.793 1508 583.362C1505.49 582.937 1496.15 581.494 1500.42 587.725C1503.1 591.639 1512.57 598.832 1509.09 598.02C1506.56 597.429 1492.95 601.286 1495.65 607.416C1498.08 612.937 1501.14 617.165 1504.26 621.431C1504.73 622.071 1510.23 629.001 1509.29 629.14C1507.26 629.437 1491.68 628.409 1491.39 630.426C1490.14 639.094 1506.99 642.661 1507.54 648.603C1507.64 649.679 1495.18 648.331 1497.11 651.901C1500.53 658.248 1505.68 661.141 1509.63 666.295C1510.55 667.507 1497.72 670.411 1495.8 670.667C1482.72 672.413 1497.28 678.974 1502.56 682.782C1514.32 691.259 1504.98 685.913 1499.44 688.189C1497.86 688.84 1495.27 687.577 1493.96 689.309C1493.16 690.361 1504.31 697.573 1499.34 698.433C1497.36 698.775 1482.95 697.196 1482.83 698.711C1482.44 703.705 1493.46 711.393 1495.47 712.467" stroke="#93227E" stroke-width="16" stroke-linecap="round" stroke-linejoin="round"/>
<path d="M939.968 735.983C940.924 732.953 945.197 718.336 945.455 720.484C945.797 723.326 945.675 735.829 948.695 733.356C950.444 731.923 955.276 709.957 956.975 724.426C957.479 728.714 959.42 744.582 961.61 735.694C962.985 730.112 964.18 712.333 964.751 718.32C965.167 722.681 971.291 744.078 973.885 737.814C976.221 732.171 977.659 725.868 979.098 719.446C979.314 718.482 981.529 707.35 981.882 708.872C982.642 712.145 986.644 738.222 987.843 738.113C992.998 737.64 990.023 708.7 993.145 706.056C993.711 705.577 996.618 726.577 998.026 722.344C1000.53 714.82 1000.61 705.451 1002.3 697.411C1002.7 695.521 1008.07 715.907 1008.77 719.005C1013.58 740.147 1012.93 714.119 1013.48 704.265C1014.72 682.325 1014.5 699.339 1017.38 707.839C1018.21 710.271 1018.27 714.916 1019.61 716.58C1020.42 717.591 1021.14 697.027 1023.07 705.008C1023.84 708.178 1027.2 732.496 1028.07 732.247C1030.94 731.426 1031.95 710.932 1031.96 707.292" stroke="#93227E" stroke-width="16" stroke-linecap="round" stroke-linejoin="round"/>
<path d="M818.968 735.983C819.924 732.953 824.197 718.336 824.455 720.484C824.797 723.326 824.675 735.829 827.695 733.356C829.444 731.923 834.276 709.957 835.975 724.426C836.479 728.714 838.42 744.582 840.61 735.694C841.985 730.112 843.18 712.333 843.751 718.32C844.167 722.681 850.291 744.078 852.885 737.814C855.221 732.171 856.659 725.868 858.098 719.446C858.314 718.482 860.529 707.35 860.882 708.872C861.642 712.145 865.644 738.222 866.843 738.113C871.998 737.64 869.023 708.7 872.145 706.056C872.711 705.577 875.618 726.577 877.026 722.344C879.527 714.82 879.615 705.451 881.304 697.411C881.701 695.521 887.07 715.907 887.774 719.005C892.577 740.147 891.928 714.119 892.482 704.265C893.716 682.325 893.501 699.339 896.383 707.839C897.208 710.271 897.268 714.916 898.61 716.58C899.425 717.591 900.137 697.027 902.072 705.008C902.841 708.178 906.197 732.496 907.069 732.247C909.941 731.426 910.954 710.932 910.958 707.292" stroke="#93227E" stroke-width="16" stroke-linecap="round" stroke-linejoin="round"/>
<rect x="808.5" y="534.5" width="701" height="204" rx="7.5" fill="#93227E" stroke="black" stroke-width="5"/>
<path d="M624 349.085C625.228 347.513 630.819 339.878 630.872 341.144C630.942 342.82 629.645 349.927 632.857 349.009C634.718 348.477 641.552 336.743 641.868 345.267C641.961 347.793 642.383 357.154 645.38 352.445C647.262 349.487 650.114 339.547 650.114 343.053C650.114 345.606 654.143 358.8 657.292 355.652C660.128 352.816 662.139 349.457 664.164 346.031C664.468 345.517 667.7 339.532 667.905 340.457C668.347 342.446 669.842 357.963 671.036 358.095C676.166 358.665 675.954 341.684 679.282 340.686C679.886 340.505 680.779 352.949 682.566 350.765C685.742 346.883 686.71 341.557 689.133 337.25C689.702 336.237 693.082 348.731 693.485 350.612C696.235 363.445 698.043 348.504 699.517 342.977C702.798 330.672 700.986 340.335 703.03 345.649C703.614 347.17 703.237 349.827 704.404 350.994C705.113 351.703 707.751 340.097 708.909 344.962C709.369 346.894 710.393 361.302 711.276 361.302C714.188 361.302 717.115 349.785 717.461 347.711" stroke="#93227E" stroke-width="16" stroke-linecap="round" stroke-linejoin="round"/>
<path d="M35.968 356.143C36.9235 354.393 41.1969 345.948 41.4552 347.189C41.797 348.831 41.6746 356.054 44.6947 354.626C46.444 353.798 51.2756 341.108 52.9753 349.467C53.479 351.944 55.4197 361.111 57.6097 355.977C58.9851 352.752 60.1803 342.48 60.7512 345.939C61.167 348.458 67.2908 360.82 69.8846 357.201C72.221 353.941 73.6587 350.3 75.0983 346.589C75.3143 346.033 77.5288 339.601 77.8822 340.48C78.6424 342.371 82.6439 357.437 83.8433 357.374C88.9976 357.101 86.0229 340.381 89.1448 338.854C89.7106 338.577 92.6184 350.709 94.0256 348.264C96.5269 343.917 96.6146 338.504 98.3038 333.86C98.7011 332.767 104.07 344.545 104.774 346.335C109.577 358.549 108.928 343.512 109.482 337.819C110.716 325.144 110.501 334.973 113.383 339.884C114.208 341.289 114.268 343.972 115.61 344.933C116.425 345.518 117.137 333.637 119.072 338.248C119.841 340.079 123.197 354.129 124.069 353.985C126.941 353.511 127.954 341.671 127.958 339.568" stroke="#93227E" stroke-width="16" stroke-linecap="round" stroke-linejoin="round"/>
<path d="M156.968 356.143C157.924 354.393 162.197 345.948 162.455 347.189C162.797 348.831 162.675 356.054 165.695 354.626C167.444 353.798 172.276 341.108 173.975 349.467C174.479 351.944 176.42 361.111 178.61 355.977C179.985 352.752 181.18 342.48 181.751 345.939C182.167 348.458 188.291 360.82 190.885 357.201C193.221 353.941 194.659 350.3 196.098 346.589C196.314 346.033 198.529 339.601 198.882 340.48C199.642 342.371 203.644 357.437 204.843 357.374C209.998 357.101 207.023 340.381 210.145 338.854C210.711 338.577 213.618 350.709 215.026 348.264C217.527 343.917 217.615 338.504 219.304 333.86C219.701 332.767 225.07 344.545 225.774 346.335C230.577 358.549 229.928 343.512 230.482 337.819C231.716 325.144 231.501 334.973 234.383 339.884C235.208 341.289 235.268 343.972 236.61 344.933C237.425 345.518 238.137 333.637 240.072 338.248C240.841 340.079 244.197 354.129 245.069 353.985C247.941 353.511 248.954 341.671 248.958 339.568" stroke="#93227E" stroke-width="16" stroke-linecap="round" stroke-linejoin="round"/>
<path d="M723.607 249.634C725.001 251.061 731.82 257.624 730.558 257.506C728.888 257.352 722.019 255.116 722.499 258.422C722.776 260.337 733.491 268.679 725.001 267.852C722.485 267.606 713.152 266.773 717.418 270.373C720.098 272.633 729.567 276.789 726.093 276.32C723.562 275.979 709.948 278.207 712.647 281.748C715.078 284.938 718.138 287.381 721.263 289.845C721.731 290.215 727.23 294.219 726.286 294.299C724.255 294.471 708.679 293.877 708.387 295.042C707.136 300.05 723.993 302.111 724.537 305.543C724.636 306.165 712.185 305.386 714.11 307.449C717.532 311.115 722.68 312.787 726.625 315.764C727.553 316.465 714.719 318.142 712.801 318.29C699.715 319.299 714.281 323.09 719.561 325.29C731.316 330.187 721.982 327.098 716.443 328.413C714.857 328.789 712.274 328.06 710.962 329.06C710.164 329.668 721.313 333.834 716.337 334.332C714.361 334.529 699.945 333.617 699.827 334.492C699.438 337.377 710.46 341.819 712.469 342.439" stroke="#93227E" stroke-width="16" stroke-linecap="round" stroke-linejoin="round"/>
<rect x="25.5" y="240.5" width="701" height="116" rx="7.5" fill="#93227E" stroke="black" stroke-width="5"/>
<path d="M34 344C37.133 340.433 38.1394 336.765 38.1394 332.966C38.1394 330.277 36.8752 326.85 39.2126 324.383C42.4331 320.985 34 313.63 39.5192 310.42C39.5192 306.799 34 299.556 39.5192 299.556C39.5192 295.302 34 293.688 34 289.344C34 286.619 41.4004 279.422 38.8293 276.909C34.9793 273.145 38.1394 266.973 38.1394 262.775C38.1394 259.029 34.9556 254.956 36.8363 251.196C37.4675 249.934 96.1666 251.196 102.158 251.196C168.606 251.196 203.784 248.505 268.635 251.196C281.651 251.196 309.882 251.196 309.882 251.196C343.177 251.196 351.507 251.196 372 251.196C408.812 251.196 448.57 251.196 485.304 251.196C538.682 251.196 602.583 251.196 602.583 251.196C609.531 251.196 652.278 251.196 652.278 251.196L685.878 251.741C690.838 250.739 696.762 251.853 701.822 252.013C707.642 252.198 711.576 251.434 717 251.434" stroke="#721861" stroke-width="17" stroke-linecap="round" stroke-linejoin="round"/>
<g filter="url(#filter0_d)">
<rect x="68" y="274" width="50" height="50" fill="#ED8B00"/>
<rect x="69" y="275" width="48" height="48" stroke="black" stroke-width="2"/>
</g>
<path d="M74 281C72.272 292.839 73.3081 305.93 73.3081 318" stroke="#FFB200" stroke-width="7" stroke-linecap="round" stroke-linejoin="round"/>
<path d="M74 280C86.6773 280 99.5225 279 112 279" stroke="#FFB200" stroke-width="7" stroke-linecap="round" stroke-linejoin="round"/>
<g filter="url(#filter1_d)">
<rect x="320" y="275" width="50" height="50" fill="#ED8B00"/>
<rect x="321" y="276" width="48" height="48" stroke="black" stroke-width="2"/>
</g>
<path d="M326 282C324.272 293.839 325.308 306.93 325.308 319" stroke="#FFB200" stroke-width="7" stroke-linecap="round" stroke-linejoin="round"/>
<path d="M326 281C338.677 281 351.523 280 364 280" stroke="#FFB200" stroke-width="7" stroke-linecap="round" stroke-linejoin="round"/>
<g filter="url(#filter2_d)">
<rect x="150" y="275" width="50" height="50" fill="#ED8B00"/>
<rect x="151" y="276" width="48" height="48" stroke="black" stroke-width="2"/>
</g>
<path d="M156 282C154.272 293.839 155.308 306.93 155.308 319" stroke="#FFB200" stroke-width="7" stroke-linecap="round" stroke-linejoin="round"/>
<path d="M156 281C168.677 281 181.523 280 194 280" stroke="#FFB200" stroke-width="7" stroke-linecap="round" stroke-linejoin="round"/>
<g filter="url(#filter3_d)">
<rect x="232" y="275" width="50" height="50" fill="#ED8B00"/>
<rect x="233" y="276" width="48" height="48" stroke="black" stroke-width="2"/>
</g>
<path d="M238 282C236.272 293.839 237.308 306.93 237.308 319" stroke="#FFB200" stroke-width="7" stroke-linecap="round" stroke-linejoin="round"/>
<path d="M238 281C250.677 281 263.523 280 276 280" stroke="#FFB200" stroke-width="7" stroke-linecap="round" stroke-linejoin="round"/>
<path d="M73.4977 357C76.0627 360.386 86.3268 369.37 78.3082 369.37C74.6561 369.37 69.5455 374.525 68 377.616" stroke="white" stroke-width="2" stroke-linecap="round" stroke-linejoin="round"/>
<path d="M61 308.974C123.839 303.692 190.386 306.514 253.638 306.272C328.992 305.984 404.016 304.861 479.275 302.721C522.423 301.494 564.842 300.597 607.784 297.934C635.717 296.202 662.779 297.857 690.841 297.857M670.104 285C676.502 290.241 683.508 293.732 690.437 298.167C693.686 300.247 682.006 300.572 677.564 301.324C673.147 302.072 661.879 307.368 658.055 309" stroke="black" stroke-width="4" stroke-linecap="round" stroke-linejoin="round"/>
<path d="M1410 400.886C1411.22 398.17 1416.79 384.973 1416.84 387.162C1416.91 390.058 1415.62 402.34 1418.81 400.754C1420.67 399.835 1427.47 379.555 1427.78 394.288C1427.87 398.654 1428.29 414.831 1431.27 406.692C1433.15 401.581 1435.99 384.402 1435.99 390.461C1435.99 394.874 1439.99 417.676 1443.13 412.235C1445.95 407.333 1447.95 401.529 1449.97 395.607C1450.27 394.719 1453.48 384.376 1453.69 385.974C1454.13 389.413 1455.62 416.228 1456.8 416.458C1461.91 417.443 1461.7 388.096 1465.01 386.37C1465.61 386.057 1466.5 407.563 1468.28 403.789C1471.44 397.081 1472.4 387.876 1474.81 380.432C1475.38 378.681 1478.74 400.275 1479.14 403.525C1481.88 425.704 1483.68 399.881 1485.14 390.329C1488.41 369.063 1486.61 385.764 1488.64 394.948C1489.22 397.576 1488.85 402.168 1490.01 404.185C1490.71 405.41 1493.34 385.353 1494.49 393.76C1494.95 397.099 1495.97 422 1496.85 422C1499.74 422 1502.66 402.096 1503 398.511" stroke="#93227E" stroke-width="16" stroke-linecap="round" stroke-linejoin="round"/>
<path d="M821.968 413.122C822.924 410.092 827.197 395.475 827.455 397.623C827.797 400.466 827.675 412.968 830.695 410.495C832.444 409.063 837.276 387.097 838.975 401.566C839.479 405.854 841.42 421.721 843.61 412.834C844.985 407.252 846.18 389.472 846.751 395.46C847.167 399.82 853.291 421.218 855.885 414.953C858.221 409.31 859.659 403.007 861.098 396.585C861.314 395.622 863.529 384.49 863.882 386.011C864.642 389.284 868.644 415.362 869.843 415.252C874.998 414.779 872.023 385.839 875.145 383.195C875.711 382.716 878.618 403.716 880.026 399.483C882.527 391.959 882.615 382.59 884.304 374.551C884.701 372.66 890.07 393.046 890.774 396.145C895.577 417.286 894.928 391.259 895.482 381.404C896.716 359.465 896.501 376.479 899.383 384.978C900.208 387.41 900.268 392.055 901.61 393.719C902.425 394.73 903.137 374.166 905.072 382.147C905.841 385.317 909.197 409.635 910.069 409.386C912.941 408.566 913.954 388.071 913.958 384.431" stroke="#93227E" stroke-width="16" stroke-linecap="round" stroke-linejoin="round"/>
<path d="M942.968 413.122C943.924 410.092 948.197 395.475 948.455 397.623C948.797 400.466 948.675 412.968 951.695 410.495C953.444 409.063 958.276 387.097 959.975 401.566C960.479 405.854 962.42 421.721 964.61 412.834C965.985 407.252 967.18 389.472 967.751 395.46C968.167 399.82 974.291 421.218 976.885 414.953C979.221 409.31 980.659 403.007 982.098 396.585C982.314 395.622 984.529 384.49 984.882 386.011C985.642 389.284 989.644 415.362 990.843 415.252C995.998 414.779 993.023 385.839 996.145 383.195C996.711 382.716 999.618 403.716 1001.03 399.483C1003.53 391.959 1003.61 382.59 1005.3 374.551C1005.7 372.66 1011.07 393.046 1011.77 396.145C1016.58 417.286 1015.93 391.259 1016.48 381.404C1017.72 359.465 1017.5 376.479 1020.38 384.978C1021.21 387.41 1021.27 392.055 1022.61 393.719C1023.42 394.73 1024.14 374.166 1026.07 382.147C1026.84 385.317 1030.2 409.635 1031.07 409.386C1033.94 408.566 1034.95 388.071 1034.96 384.431" stroke="#93227E" stroke-width="16" stroke-linecap="round" stroke-linejoin="round"/>
<path d="M1509.61 228.763C1511 231.233 1517.82 242.593 1516.56 242.39C1514.89 242.122 1508.02 238.252 1508.5 243.975C1508.78 247.289 1519.49 261.728 1511 260.297C1508.49 259.872 1499.15 258.429 1503.42 264.66C1506.1 268.573 1515.57 275.767 1512.09 274.955C1509.56 274.364 1495.95 278.221 1498.65 284.35C1501.08 289.872 1504.14 294.1 1507.26 298.366C1507.73 299.006 1513.23 305.936 1512.29 306.075C1510.26 306.372 1494.68 305.344 1494.39 307.361C1493.14 316.029 1509.99 319.596 1510.54 325.538C1510.64 326.614 1498.18 325.266 1500.11 328.836C1503.53 335.183 1508.68 338.076 1512.63 343.23C1513.55 344.442 1500.72 347.346 1498.8 347.602C1485.72 349.348 1500.28 355.909 1505.56 359.717C1517.32 368.194 1507.98 362.848 1502.44 365.123C1500.86 365.775 1498.27 364.512 1496.96 366.244C1496.16 367.296 1507.31 374.507 1502.34 375.368C1500.36 375.71 1485.95 374.131 1485.83 375.646C1485.44 380.64 1496.46 388.328 1498.47 389.401" stroke="#93227E" stroke-width="16" stroke-linecap="round" stroke-linejoin="round"/>
<rect x="811.5" y="211.5" width="701" height="204" rx="7.5" fill="#93227E" stroke="black" stroke-width="5"/>
<path d="M821 408C824.133 401.018 825.139 393.838 825.139 386.401C825.139 381.137 823.875 374.429 826.213 369.602C829.433 362.95 821 348.552 826.519 342.269C826.519 335.181 821 321.004 826.519 321.004C826.519 312.677 821 309.518 821 301.013C821 295.679 828.4 281.591 825.829 276.672C821.979 269.306 825.139 257.223 825.139 249.006C825.139 241.675 821.956 233.7 823.836 226.341C824.467 223.87 883.167 226.341 889.158 226.341C955.606 226.341 990.784 221.074 1055.63 226.341C1068.65 226.341 1096.88 226.341 1096.88 226.341C1130.18 226.341 1138.51 226.341 1159 226.341C1195.81 226.341 1235.57 226.341 1272.3 226.341C1325.68 226.341 1389.58 226.341 1389.58 226.341C1396.53 226.341 1439.28 226.341 1439.28 226.341L1472.88 227.407C1477.84 225.447 1483.76 227.626 1488.82 227.941C1494.64 228.302 1498.58 226.807 1504 226.807" stroke="#721861" stroke-width="17" stroke-linecap="round" stroke-linejoin="round"/>
<g filter="url(#filter4_d)">
<rect x="854" y="246" width="50" height="38.0612" fill="#ED8B00"/>
<rect x="855" y="247" width="48" height="36.0612" stroke="black" stroke-width="2"/>
</g>
<path d="M861 251.329C859.272 260.341 860.308 270.306 860.308 279.494" stroke="#FFB200" stroke-width="7" stroke-linecap="round" stroke-linejoin="round"/>
<path d="M860 249.248C872.677 249.248 885.523 248.487 898 248.487" stroke="#FFB200" stroke-width="7" stroke-linecap="round" stroke-linejoin="round"/>
<g filter="url(#filter5_d)">
<rect x="855" y="686" width="50" height="38.0612" fill="#ED8B00"/>
<rect x="856" y="687" width="48" height="36.0612" stroke="black" stroke-width="2"/>
</g>
<path d="M862 691.329C860.272 700.341 861.308 710.306 861.308 719.494" stroke="#FFB200" stroke-width="7" stroke-linecap="round" stroke-linejoin="round"/>
<path d="M861 689.248C873.677 689.248 886.523 688.487 899 688.487" stroke="#FFB200" stroke-width="7" stroke-linecap="round" stroke-linejoin="round"/>
<g filter="url(#filter6_d)">
<rect x="942" y="246" width="50" height="118" fill="#ED8B00"/>
<rect x="943" y="247" width="48" height="116" stroke="black" stroke-width="2"/>
</g>
<path d="M949 259.7C947.272 290.462 948.308 324.479 948.308 355.84" stroke="#FFB200" stroke-width="7" stroke-linecap="round" stroke-linejoin="round"/>
<path d="M948 252.598C960.677 252.598 973.523 250 986 250" stroke="#FFB200" stroke-width="7" stroke-linecap="round" stroke-linejoin="round"/>
<g filter="url(#filter7_d)">
<rect x="947" y="606" width="50" height="118" fill="#ED8B00"/>
<rect x="948" y="607" width="48" height="116" stroke="black" stroke-width="2"/>
</g>
<path d="M954 619.7C952.272 650.462 953.308 684.479 953.308 715.84" stroke="#FFB200" stroke-width="7" stroke-linecap="round" stroke-linejoin="round"/>
<path d="M953 612.598C965.677 612.598 978.523 610 991 610" stroke="#FFB200" stroke-width="7" stroke-linecap="round" stroke-linejoin="round"/>
<g filter="url(#filter8_d)">
<rect x="1030" y="246" width="50" height="82.5059" fill="#ED8B00"/>
<path d="M1037 258.462C1035.27 278.954 1036.31 301.614 1036.31 322.506" stroke="#FFB200" stroke-width="7" stroke-linecap="round" stroke-linejoin="round"/>
<path d="M1036 253.731C1048.68 253.731 1061.52 252 1074 252" stroke="#FFB200" stroke-width="7" stroke-linecap="round" stroke-linejoin="round"/>
<rect x="1031" y="247" width="48" height="80.5059" stroke="black" stroke-width="2"/>
</g>
<g filter="url(#filter9_d)">
<rect x="1030" y="641" width="50" height="82.5059" fill="#ED8B00"/>
<path d="M1037 653.462C1035.27 673.954 1036.31 696.614 1036.31 717.506" stroke="#FFB200" stroke-width="7" stroke-linecap="round" stroke-linejoin="round"/>
<path d="M1036 648.731C1048.68 648.731 1061.52 647 1074 647" stroke="#FFB200" stroke-width="7" stroke-linecap="round" stroke-linejoin="round"/>
<rect x="1031" y="642" width="48" height="80.5059" stroke="black" stroke-width="2"/>
</g>
<g filter="url(#filter10_d)">
<rect x="1117" y="247" width="50" height="57" fill="#ED8B00"/>
<rect x="1118" y="248" width="48" height="55" stroke="black" stroke-width="2"/>
</g>
<path d="M1124 254.98C1122.27 268.476 1123.31 283.401 1123.31 297.16" stroke="#FFB200" stroke-width="7" stroke-linecap="round" stroke-linejoin="round"/>
<path d="M1123 251.864C1135.68 251.864 1148.52 250.724 1161 250.724" stroke="#FFB200" stroke-width="7" stroke-linecap="round" stroke-linejoin="round"/>
<g filter="url(#filter11_d)">
<rect x="1117" y="666" width="50" height="57" fill="#ED8B00"/>
<rect x="1118" y="667" width="48" height="55" stroke="black" stroke-width="2"/>
</g>
<path d="M1124 673.98C1122.27 687.476 1123.31 702.401 1123.31 716.16" stroke="#FFB200" stroke-width="7" stroke-linecap="round" stroke-linejoin="round"/>
<path d="M1123 670.864C1135.68 670.864 1148.52 669.724 1161 669.724" stroke="#FFB200" stroke-width="7" stroke-linecap="round" stroke-linejoin="round"/>
<path d="M859.367 415C861.871 420.748 871.891 436 864.063 436C860.498 436 855.509 444.753 854 450" stroke="white" stroke-width="2" stroke-linecap="round" stroke-linejoin="round"/>
<path d="M817 724C820.133 717.322 821.139 710.454 821.139 703.34C821.139 698.305 819.875 691.889 822.213 687.271C825.433 680.908 817 667.137 822.519 661.127C822.519 654.347 817 640.786 822.519 640.786C822.519 632.821 817 629.8 817 621.665C817 616.563 824.4 603.087 821.829 598.382C817.979 591.336 821.139 579.778 821.139 571.919C821.139 564.906 817.956 557.279 819.836 550.239C820.467 547.876 879.167 550.239 885.158 550.239C951.606 550.239 986.784 545.201 1051.63 550.239C1064.65 550.239 1092.88 550.239 1092.88 550.239C1126.18 550.239 1134.51 550.239 1155 550.239C1191.81 550.239 1231.57 550.239 1268.3 550.239C1321.68 550.239 1385.58 550.239 1385.58 550.239C1392.53 550.239 1435.28 550.239 1435.28 550.239L1468.88 551.259C1473.84 549.384 1479.76 551.469 1484.82 551.769C1490.64 552.115 1494.58 550.685 1500 550.685" stroke="#721861" stroke-width="17" stroke-linecap="round" stroke-linejoin="round"/>
<path d="M856.367 738C858.871 743.748 868.891 759 861.063 759C857.498 759 852.509 767.753 851 773" stroke="white" stroke-width="2" stroke-linecap="round" stroke-linejoin="round"/>
<path d="M1175.03 160C1180.31 188.128 1177.49 217.916 1177.73 246.229C1178.02 279.958 1179.14 313.541 1181.28 347.228C1182.51 366.542 1183.4 385.529 1186.07 404.751C1187.8 417.254 1186.14 429.368 1186.14 441.929M1199 432.647C1193.76 435.51 1190.27 438.646 1185.83 441.748C1183.75 443.202 1183.43 437.974 1182.68 435.986C1181.93 434.009 1176.63 428.965 1175 427.253" stroke="black" stroke-width="4" stroke-linecap="round" stroke-linejoin="round"/>
<path d="M1205.97 788C1200.69 759.872 1203.51 730.084 1203.27 701.771C1202.98 668.042 1201.86 634.459 1199.72 600.772C1198.49 581.458 1197.6 562.471 1194.93 543.249C1193.2 530.746 1194.86 518.632 1194.86 506.071M1182 515.353C1187.24 512.49 1190.73 509.354 1195.17 506.252C1197.25 504.798 1197.57 510.026 1198.32 512.014C1199.07 513.991 1204.37 519.035 1206 520.747" stroke="black" stroke-width="4" stroke-linecap="round" stroke-linejoin="round"/>
<path d="M624 566.085C625.228 564.513 630.819 556.878 630.872 558.144C630.942 559.82 629.645 566.927 632.857 566.009C634.718 565.477 641.552 553.743 641.868 562.267C641.961 564.793 642.383 574.154 645.38 569.445C647.262 566.487 650.114 556.547 650.114 560.053C650.114 562.606 654.143 575.8 657.292 572.652C660.128 569.816 662.139 566.457 664.164 563.031C664.468 562.517 667.7 556.532 667.905 557.457C668.347 559.446 669.842 574.963 671.036 575.095C676.166 575.665 675.954 558.684 679.282 557.686C679.886 557.505 680.779 569.949 682.566 567.765C685.742 563.883 686.71 558.557 689.133 554.25C689.702 553.237 693.082 565.731 693.485 567.612C696.235 580.445 698.043 565.504 699.517 559.977C702.798 547.672 700.986 557.335 703.03 562.649C703.614 564.17 703.237 566.827 704.404 567.994C705.113 568.703 707.751 557.097 708.909 561.962C709.369 563.894 710.393 578.302 711.276 578.302C714.188 578.302 717.115 566.785 717.461 564.711" stroke="#93227E" stroke-width="16" stroke-linecap="round" stroke-linejoin="round"/>
<path d="M35.968 573.143C36.9235 571.393 41.1969 562.948 41.4552 564.189C41.797 565.831 41.6746 573.054 44.6947 571.626C46.444 570.798 51.2756 558.108 52.9753 566.467C53.479 568.944 55.4197 578.111 57.6097 572.977C58.9851 569.752 60.1803 559.48 60.7512 562.939C61.167 565.458 67.2908 577.82 69.8846 574.201C72.221 570.941 73.6587 567.3 75.0983 563.589C75.3143 563.033 77.5288 556.601 77.8822 557.48C78.6424 559.371 82.6439 574.437 83.8433 574.374C88.9976 574.101 86.0229 557.381 89.1448 555.854C89.7106 555.577 92.6184 567.709 94.0256 565.264C96.5269 560.917 96.6146 555.504 98.3038 550.86C98.7011 549.767 104.07 561.545 104.774 563.335C109.577 575.549 108.928 560.512 109.482 554.819C110.716 542.144 110.501 551.973 113.383 556.884C114.208 558.289 114.268 560.972 115.61 561.933C116.425 562.518 117.137 550.637 119.072 555.248C119.841 557.079 123.197 571.129 124.069 570.985C126.941 570.511 127.954 558.671 127.958 556.568" stroke="#93227E" stroke-width="16" stroke-linecap="round" stroke-linejoin="round"/>
<path d="M156.968 573.143C157.924 571.393 162.197 562.948 162.455 564.189C162.797 565.831 162.675 573.054 165.695 571.626C167.444 570.798 172.276 558.108 173.975 566.467C174.479 568.944 176.42 578.111 178.61 572.977C179.985 569.752 181.18 559.48 181.751 562.939C182.167 565.458 188.291 577.82 190.885 574.201C193.221 570.941 194.659 567.3 196.098 563.589C196.314 563.033 198.529 556.601 198.882 557.48C199.642 559.371 203.644 574.437 204.843 574.374C209.998 574.101 207.023 557.381 210.145 555.854C210.711 555.577 213.618 567.709 215.026 565.264C217.527 560.917 217.615 555.504 219.304 550.86C219.701 549.767 225.07 561.545 225.774 563.335C230.577 575.549 229.928 560.512 230.482 554.819C231.716 542.144 231.501 551.973 234.383 556.884C235.208 558.289 235.268 560.972 236.61 561.933C237.425 562.518 238.137 550.637 240.072 555.248C240.841 557.079 244.197 571.129 245.069 570.985C247.941 570.511 248.954 558.671 248.958 556.568" stroke="#93227E" stroke-width="16" stroke-linecap="round" stroke-linejoin="round"/>
<path d="M723.607 466.634C725.001 468.061 731.82 474.624 730.558 474.506C728.888 474.352 722.019 472.116 722.499 475.422C722.776 477.337 733.491 485.679 725.001 484.852C722.485 484.606 713.152 483.773 717.418 487.373C720.098 489.633 729.567 493.789 726.093 493.32C723.562 492.979 709.948 495.207 712.647 498.748C715.078 501.938 718.138 504.381 721.263 506.845C721.731 507.215 727.23 511.219 726.286 511.299C724.255 511.471 708.679 510.877 708.387 512.042C707.136 517.05 723.993 519.111 724.537 522.543C724.636 523.165 712.185 522.386 714.11 524.449C717.532 528.115 722.68 529.787 726.625 532.764C727.553 533.465 714.719 535.142 712.801 535.29C699.715 536.299 714.281 540.09 719.561 542.29C731.316 547.187 721.982 544.098 716.443 545.413C714.857 545.789 712.274 545.06 710.962 546.06C710.164 546.668 721.313 550.834 716.337 551.332C714.361 551.529 699.945 550.617 699.827 551.492C699.438 554.377 710.46 558.819 712.469 559.439" stroke="#93227E" stroke-width="16" stroke-linecap="round" stroke-linejoin="round"/>
<rect x="25.5" y="457.5" width="701" height="116" rx="7.5" fill="#93227E" stroke="black" stroke-width="5"/>
<path d="M34 561C37.133 557.433 38.1394 553.765 38.1394 549.966C38.1394 547.277 36.8752 543.85 39.2126 541.383C42.4331 537.985 34 530.63 39.5192 527.42C39.5192 523.799 34 516.556 39.5192 516.556C39.5192 512.302 34 510.688 34 506.344C34 503.619 41.4004 496.422 38.8293 493.909C34.9793 490.145 38.1394 483.973 38.1394 479.775C38.1394 476.029 34.9556 471.956 36.8363 468.196C37.4675 466.934 96.1666 468.196 102.158 468.196C168.606 468.196 203.784 465.505 268.635 468.196C281.651 468.196 309.882 468.196 309.882 468.196C343.177 468.196 351.507 468.196 372 468.196C408.812 468.196 448.57 468.196 485.304 468.196C538.682 468.196 602.583 468.196 602.583 468.196C609.531 468.196 652.278 468.196 652.278 468.196L685.878 468.741C690.838 467.739 696.762 468.853 701.822 469.013C707.642 469.198 711.576 468.434 717 468.434" stroke="#721861" stroke-width="17" stroke-linecap="round" stroke-linejoin="round"/>
<g filter="url(#filter12_d)">
<rect x="380" y="488" width="50" height="50" fill="#ED8B00"/>
<rect x="381" y="489" width="48" height="48" stroke="black" stroke-width="2"/>
</g>
<path d="M386 495C384.272 506.839 385.308 519.93 385.308 532" stroke="#FFB200" stroke-width="7" stroke-linecap="round" stroke-linejoin="round"/>
<path d="M386 494C398.677 494 411.523 493 424 493" stroke="#FFB200" stroke-width="7" stroke-linecap="round" stroke-linejoin="round"/>
<g filter="url(#filter13_d)">
<rect x="641" y="492" width="50" height="50" fill="#ED8B00"/>
<rect x="642" y="493" width="48" height="48" stroke="black" stroke-width="2"/>
</g>
<path d="M647 499C645.272 510.839 646.308 523.93 646.308 536" stroke="#FFB200" stroke-width="7" stroke-linecap="round" stroke-linejoin="round"/>
<path d="M647 498C659.677 498 672.523 497 685 497" stroke="#FFB200" stroke-width="7" stroke-linecap="round" stroke-linejoin="round"/>
<g filter="url(#filter14_d)">
<rect x="467" y="489" width="50" height="50" fill="#ED8B00"/>
<rect x="468" y="490" width="48" height="48" stroke="black" stroke-width="2"/>
</g>
<path d="M473 496C471.272 507.839 472.308 520.93 472.308 533" stroke="#FFB200" stroke-width="7" stroke-linecap="round" stroke-linejoin="round"/>
<path d="M473 495C485.677 495 498.523 494 511 494" stroke="#FFB200" stroke-width="7" stroke-linecap="round" stroke-linejoin="round"/>
<g filter="url(#filter15_d)">
<rect x="554" y="492" width="50" height="50" fill="#ED8B00"/>
<rect x="555" y="493" width="48" height="48" stroke="black" stroke-width="2"/>
</g>
<path d="M560 499C558.272 510.839 559.308 523.93 559.308 536" stroke="#FFB200" stroke-width="7" stroke-linecap="round" stroke-linejoin="round"/>
<path d="M560 498C572.677 498 585.523 497 598 497" stroke="#FFB200" stroke-width="7" stroke-linecap="round" stroke-linejoin="round"/>
<path d="M691 502.026C628.161 507.308 561.614 504.486 498.362 504.728C423.008 505.016 347.984 506.139 272.725 508.279C229.577 509.506 187.158 510.403 144.216 513.066C116.283 514.798 89.2213 513.143 61.1587 513.143M81.8957 526C75.4979 520.759 68.4924 517.268 61.5631 512.833C58.3137 510.753 69.9941 510.428 74.4364 509.676C78.8532 508.928 90.1206 503.632 93.9448 502" stroke="black" stroke-width="4" stroke-linecap="round" stroke-linejoin="round"/>
<path d="M28.328 90.288H28.544C29.456 90.288 29.912 90.732 29.912 91.62V107.208C29.912 109.992 29.48 112.068 28.616 113.436C27.776 114.828 26.312 115.524 24.224 115.524C23.024 115.524 22.136 115.332 21.56 114.948C20.984 114.588 20.696 114.084 20.696 113.436C20.696 112.788 20.996 112.272 21.596 111.888C21.74 112.104 22.076 112.32 22.604 112.536C23.132 112.776 23.684 112.896 24.26 112.896C25.34 112.896 26.048 112.44 26.384 111.528C26.744 110.64 26.924 109.2 26.924 107.208V91.62C26.924 90.732 27.392 90.288 28.328 90.288ZM26.456 85.212C26.456 84.66 26.648 84.192 27.032 83.808C27.416 83.4 27.872 83.196 28.4 83.196C28.952 83.196 29.42 83.4 29.804 83.808C30.188 84.192 30.38 84.66 30.38 85.212C30.38 85.74 30.188 86.196 29.804 86.58C29.42 86.964 28.952 87.156 28.4 87.156C27.872 87.156 27.416 86.964 27.032 86.58C26.648 86.196 26.456 85.74 26.456 85.212ZM36.7242 90.288H36.9762C37.8882 90.288 38.3442 90.732 38.3442 91.62V100.872C38.3442 104.16 39.7962 105.804 42.7002 105.804C43.8042 105.804 44.7282 105.48 45.4722 104.832C46.8162 103.68 47.4882 101.952 47.4882 99.648V91.62C47.4882 90.732 47.9562 90.288 48.8922 90.288H49.1442C49.6242 90.288 49.9602 90.396 50.1522 90.612C50.3682 90.804 50.4762 91.14 50.4762 91.62V106.668C50.4762 107.148 50.3682 107.496 50.1522 107.712C49.9362 107.904 49.5882 108 49.1082 108H48.8922C47.9562 108 47.4882 107.556 47.4882 106.668V104.868C47.1522 105.636 46.4322 106.404 45.3282 107.172C44.2482 107.916 43.0842 108.288 41.8362 108.288C37.5162 108.288 35.3562 105.876 35.3562 101.052V91.62C35.3562 90.732 35.8122 90.288 36.7242 90.288ZM55.1775 95.184C55.1775 93.552 55.8735 92.268 57.2655 91.332C58.6815 90.372 60.2535 89.892 61.9815 89.892C63.7095 89.892 65.0415 90.144 65.9775 90.648C66.9375 91.128 67.4175 91.704 67.4175 92.376C67.4175 93.048 66.9495 93.54 66.0135 93.852C65.8455 93.468 65.3775 93.108 64.6095 92.772C63.8655 92.436 62.9415 92.268 61.8375 92.268C60.7335 92.268 59.8215 92.484 59.1015 92.916C58.4055 93.324 58.0575 93.912 58.0575 94.68C58.0575 95.424 58.3215 96 58.8495 96.408C59.3775 96.816 60.6135 97.248 62.5575 97.704C64.5255 98.136 66.0255 98.772 67.0575 99.612C68.0895 100.452 68.6055 101.628 68.6055 103.14C68.6055 104.652 67.9095 105.888 66.5175 106.848C65.1255 107.784 63.4095 108.252 61.3695 108.252C59.3535 108.252 57.7335 108 56.5095 107.496C55.3095 106.968 54.7095 106.284 54.7095 105.444C54.7095 104.604 55.1055 103.992 55.8975 103.608C56.2335 104.256 56.8815 104.808 57.8415 105.264C58.8015 105.72 60.0015 105.948 61.4415 105.948C62.8815 105.948 63.9735 105.684 64.7175 105.156C65.4855 104.628 65.8695 103.98 65.8695 103.212C65.8695 102.42 65.5215 101.808 64.8255 101.376C64.1535 100.92 62.8215 100.476 60.8295 100.044C58.8615 99.612 57.4215 99 56.5095 98.208C55.6215 97.392 55.1775 96.384 55.1775 95.184ZM75.4776 85.464H75.7296C76.6416 85.464 77.0976 85.908 77.0976 86.796V90.36H82.0656C83.0016 90.36 83.4696 90.768 83.4696 91.584C83.4696 92.4 83.0016 92.808 82.0656 92.808H77.0976V101.88C77.0976 103.392 77.3856 104.46 77.9616 105.084C78.5616 105.684 79.4256 105.984 80.5536 105.984C81.7056 105.984 82.5576 105.708 83.1096 105.156C83.7096 105.348 84.0096 105.732 84.0096 106.308C84.0096 106.884 83.6136 107.364 82.8216 107.748C82.0296 108.108 81.0816 108.288 79.9776 108.288C76.0656 108.288 74.1096 106.152 74.1096 101.88V92.808H72.3456C71.8176 92.808 71.4336 92.724 71.1936 92.556C70.9536 92.388 70.8336 92.064 70.8336 91.584C70.8336 90.768 71.3376 90.36 72.3456 90.36H74.1096V86.796C74.1096 85.908 74.5656 85.464 75.4776 85.464ZM88.9908 90.252H89.2068C90.1188 90.252 90.5748 90.696 90.5748 91.584V106.632C90.5748 107.544 90.1188 108 89.2068 108H88.9908C88.0788 108 87.6228 107.544 87.6228 106.632V91.584C87.6228 90.696 88.0788 90.252 88.9908 90.252ZM87.1188 85.176C87.1188 84.624 87.3108 84.156 87.6948 83.772C88.0788 83.364 88.5348 83.16 89.0628 83.16C89.6148 83.16 90.0828 83.364 90.4668 83.772C90.8748 84.156 91.0788 84.624 91.0788 85.176C91.0788 85.704 90.8868 86.172 90.5028 86.58C90.1188 86.964 89.6508 87.156 89.0988 87.156C88.5468 87.156 88.0788 86.964 87.6948 86.58C87.3108 86.196 87.1188 85.728 87.1188 85.176ZM105.037 82.152C106.141 82.152 107.053 82.404 107.773 82.908C108.517 83.412 108.889 84.048 108.889 84.816C108.889 85.56 108.505 86.064 107.737 86.328C107.137 85.32 106.177 84.816 104.857 84.816C102.361 84.816 101.113 86.544 101.113 90V90.36H105.541C106.453 90.36 106.909 90.768 106.909 91.584C106.909 92.376 106.453 92.772 105.541 92.772H101.113V106.812C101.113 107.292 101.005 107.64 100.789 107.856C100.573 108.048 100.225 108.144 99.7447 108.144H99.5647C99.0607 108.144 98.7007 108.048 98.4847 107.856C98.2687 107.64 98.1607 107.292 98.1607 106.812V92.772H96.2887C95.7847 92.772 95.4247 92.7 95.2087 92.556C95.0167 92.388 94.9207 92.064 94.9207 91.584C94.9207 91.104 95.0287 90.78 95.2447 90.612C95.4607 90.444 95.8087 90.36 96.2887 90.36H98.1607V89.208C98.1607 86.976 98.7727 85.248 99.9967 84.024C101.221 82.776 102.901 82.152 105.037 82.152ZM109.358 90.288H110.042C110.81 90.288 111.278 90.66 111.446 91.404C112.91 97.164 114.53 101.82 116.306 105.372H116.63C118.646 100.404 120.266 95.748 121.49 91.404C121.706 90.66 122.174 90.288 122.894 90.288H123.47C124.214 90.288 124.586 90.552 124.586 91.08C124.586 91.224 124.55 91.392 124.478 91.584C121.694 100.272 118.67 108.072 115.406 114.984C115.214 115.392 115.01 115.68 114.794 115.848C114.602 116.04 114.29 116.136 113.858 116.136H112.958C112.382 116.136 112.094 115.86 112.094 115.308C112.094 115.14 112.226 114.792 112.49 114.264C114.266 110.832 115.31 108.732 115.622 107.964H115.55C115.118 107.892 114.842 107.796 114.722 107.676C114.602 107.532 114.518 107.448 114.47 107.424C114.422 107.376 114.362 107.292 114.29 107.172C114.218 107.028 114.17 106.944 114.146 106.92C114.122 106.872 114.062 106.764 113.966 106.596C113.894 106.404 113.846 106.284 113.822 106.236C111.974 102.54 110.15 97.656 108.35 91.584C108.278 91.392 108.242 91.224 108.242 91.08C108.242 90.552 108.614 90.288 109.358 90.288ZM128.999 96.228H138.575C139.463 96.228 139.907 96.624 139.907 97.416C139.907 98.208 139.463 98.604 138.575 98.604H128.999C128.111 98.604 127.667 98.208 127.667 97.416C127.667 96.624 128.111 96.228 128.999 96.228ZM146.079 91.98C146.967 91.284 147.915 90.768 148.923 90.432C149.931 90.096 151.155 89.928 152.595 89.928C154.035 89.928 155.295 90.252 156.375 90.9C157.479 91.548 158.031 92.244 158.031 92.988C158.031 93.9 157.515 94.416 156.483 94.536C156.243 94.008 155.703 93.528 154.863 93.096C154.023 92.64 153.027 92.412 151.875 92.412C150.267 92.412 148.935 92.988 147.879 94.14C146.823 95.268 146.295 96.924 146.295 99.108C146.295 101.292 146.835 102.96 147.915 104.112C148.995 105.264 150.291 105.84 151.803 105.84C154.203 105.84 155.823 105.06 156.663 103.5C157.119 103.5 157.503 103.644 157.815 103.932C158.127 104.196 158.283 104.544 158.283 104.976C158.283 105.816 157.707 106.584 156.555 107.28C155.403 107.952 154.083 108.288 152.595 108.288C151.131 108.288 149.883 108.12 148.851 107.784C147.843 107.424 146.907 106.896 146.043 106.2C145.179 105.48 144.495 104.52 143.991 103.32C143.487 102.12 143.235 100.728 143.235 99.144C143.235 97.536 143.487 96.12 143.991 94.896C144.519 93.648 145.215 92.676 146.079 91.98ZM163.615 92.34C165.319 90.732 167.407 89.928 169.879 89.928C172.351 89.928 174.439 90.732 176.143 92.34C177.847 93.948 178.699 96.216 178.699 99.144C178.699 102.072 177.847 104.328 176.143 105.912C174.439 107.496 172.351 108.288 169.879 108.288C167.407 108.288 165.319 107.496 163.615 105.912C161.911 104.328 161.059 102.072 161.059 99.144C161.059 96.216 161.911 93.948 163.615 92.34ZM174.019 94.176C172.963 93 171.583 92.412 169.879 92.412C168.175 92.412 166.783 93 165.703 94.176C164.647 95.328 164.119 96.984 164.119 99.144C164.119 101.28 164.647 102.936 165.703 104.112C166.783 105.264 168.175 105.84 169.879 105.84C171.583 105.84 172.963 105.264 174.019 104.112C175.099 102.936 175.639 101.28 175.639 99.144C175.639 96.984 175.099 95.328 174.019 94.176ZM184.215 90.252H184.467C185.379 90.252 185.835 90.708 185.835 91.62V93.384C186.291 92.472 187.011 91.668 187.995 90.972C188.979 90.276 190.107 89.928 191.379 89.928C193.323 89.928 194.907 90.516 196.131 91.692C197.379 92.844 198.003 94.68 198.003 97.2V106.632C198.003 107.112 197.895 107.46 197.679 107.676C197.463 107.892 197.115 108 196.635 108H196.347C195.459 108 195.015 107.544 195.015 106.632V97.308C195.015 95.556 194.643 94.308 193.899 93.564C193.155 92.82 192.075 92.448 190.659 92.448C189.243 92.448 188.091 93.024 187.203 94.176C186.315 95.328 185.871 96.852 185.871 98.748V106.632C185.871 107.544 185.403 108 184.467 108H184.215C183.735 108 183.387 107.892 183.171 107.676C182.955 107.46 182.847 107.112 182.847 106.632V91.62C182.847 90.708 183.303 90.252 184.215 90.252ZM205.802 85.464H206.054C206.966 85.464 207.422 85.908 207.422 86.796V90.36H212.39C213.326 90.36 213.794 90.768 213.794 91.584C213.794 92.4 213.326 92.808 212.39 92.808H207.422V101.88C207.422 103.392 207.71 104.46 208.286 105.084C208.886 105.684 209.75 105.984 210.878 105.984C212.03 105.984 212.882 105.708 213.434 105.156C214.034 105.348 214.334 105.732 214.334 106.308C214.334 106.884 213.938 107.364 213.146 107.748C212.354 108.108 211.406 108.288 210.302 108.288C206.39 108.288 204.434 106.152 204.434 101.88V92.808H202.67C202.142 92.808 201.758 92.724 201.518 92.556C201.278 92.388 201.158 92.064 201.158 91.584C201.158 90.768 201.662 90.36 202.67 90.36H204.434V86.796C204.434 85.908 204.89 85.464 205.802 85.464ZM216.219 99.18C216.219 96.18 217.059 93.888 218.739 92.304C220.419 90.72 222.351 89.928 224.535 89.928C226.719 89.928 228.447 90.492 229.719 91.62C230.991 92.724 231.627 94.104 231.627 95.76C231.627 97.416 230.967 98.712 229.647 99.648C228.351 100.56 226.671 101.016 224.607 101.016C222.543 101.016 220.683 100.692 219.027 100.044C219.027 101.796 219.627 103.212 220.827 104.292C222.027 105.348 223.491 105.876 225.219 105.876C227.907 105.876 229.587 105.048 230.259 103.392C230.667 103.392 231.015 103.512 231.303 103.752C231.591 103.968 231.735 104.292 231.735 104.724C231.735 105.564 231.111 106.368 229.863 107.136C228.639 107.904 227.079 108.288 225.183 108.288C222.639 108.288 220.503 107.52 218.775 105.984C217.071 104.448 216.219 102.18 216.219 99.18ZM228.891 95.652C228.891 94.716 228.483 93.924 227.667 93.276C226.875 92.628 225.771 92.304 224.355 92.304C222.963 92.304 221.739 92.868 220.683 93.996C219.627 95.124 219.087 96.396 219.063 97.812C220.791 98.388 222.507 98.676 224.211 98.676C227.331 98.676 228.891 97.668 228.891 95.652ZM237.23 90.252H237.482C238.394 90.252 238.85 90.708 238.85 91.62V93.384C239.306 92.472 240.026 91.668 241.01 90.972C241.994 90.276 243.122 89.928 244.394 89.928C246.338 89.928 247.922 90.516 249.146 91.692C250.394 92.844 251.018 94.68 251.018 97.2V106.632C251.018 107.112 250.91 107.46 250.694 107.676C250.478 107.892 250.13 108 249.65 108H249.362C248.474 108 248.03 107.544 248.03 106.632V97.308C248.03 95.556 247.658 94.308 246.914 93.564C246.17 92.82 245.09 92.448 243.674 92.448C242.258 92.448 241.106 93.024 240.218 94.176C239.33 95.328 238.886 96.852 238.886 98.748V106.632C238.886 107.544 238.418 108 237.482 108H237.23C236.75 108 236.402 107.892 236.186 107.676C235.97 107.46 235.862 107.112 235.862 106.632V91.62C235.862 90.708 236.318 90.252 237.23 90.252ZM258.817 85.464H259.069C259.981 85.464 260.437 85.908 260.437 86.796V90.36H265.405C266.341 90.36 266.809 90.768 266.809 91.584C266.809 92.4 266.341 92.808 265.405 92.808H260.437V101.88C260.437 103.392 260.725 104.46 261.301 105.084C261.901 105.684 262.765 105.984 263.893 105.984C265.045 105.984 265.897 105.708 266.449 105.156C267.049 105.348 267.349 105.732 267.349 106.308C267.349 106.884 266.953 107.364 266.161 107.748C265.369 108.108 264.421 108.288 263.317 108.288C259.405 108.288 257.449 106.152 257.449 101.88V92.808H255.685C255.157 92.808 254.773 92.724 254.533 92.556C254.293 92.388 254.173 92.064 254.173 91.584C254.173 90.768 254.677 90.36 255.685 90.36H257.449V86.796C257.449 85.908 257.905 85.464 258.817 85.464Z" fill="black"/>
<path d="M1146.93 89.964C1152.02 89.964 1154.56 92.328 1154.56 97.056V104.184C1154.56 105.504 1155.06 106.344 1156.07 106.704C1155.71 107.616 1155.04 108.072 1154.06 108.072C1153.34 108.072 1152.76 107.82 1152.33 107.316C1151.92 106.788 1151.72 106.104 1151.72 105.264C1150.2 107.28 1148.25 108.288 1145.85 108.288C1143.9 108.288 1142.37 107.796 1141.24 106.812C1140.14 105.804 1139.58 104.46 1139.58 102.78C1139.58 101.076 1140.23 99.696 1141.53 98.64C1142.85 97.584 1144.62 97.056 1146.86 97.056C1148.2 97.056 1149.33 97.2 1150.24 97.488C1150.98 97.752 1151.43 97.92 1151.57 97.992V96.408C1151.57 94.944 1151.2 93.912 1150.46 93.312C1149.71 92.688 1148.58 92.376 1147.07 92.376C1144.94 92.376 1143.28 93.192 1142.1 94.824C1141.1 94.68 1140.59 94.212 1140.59 93.42C1140.59 92.508 1141.22 91.704 1142.46 91.008C1143.71 90.312 1145.2 89.964 1146.93 89.964ZM1151.57 100.296C1150.06 99.624 1148.57 99.288 1147.11 99.288C1145.64 99.288 1144.52 99.6 1143.72 100.224C1142.93 100.848 1142.54 101.664 1142.54 102.672C1142.54 103.656 1142.87 104.448 1143.54 105.048C1144.24 105.624 1145.25 105.912 1146.57 105.912C1147.91 105.912 1149.08 105.432 1150.06 104.472C1151.07 103.512 1151.57 102.348 1151.57 100.98V100.296ZM1161.44 82.764H1161.69C1162.61 82.764 1163.06 83.208 1163.06 84.096V106.632C1163.06 107.544 1162.61 108 1161.69 108H1161.44C1160.94 108 1160.58 107.892 1160.36 107.676C1160.17 107.46 1160.07 107.112 1160.07 106.632V84.096C1160.07 83.616 1160.17 83.28 1160.36 83.088C1160.58 82.872 1160.94 82.764 1161.44 82.764ZM1170.52 90.252H1170.74C1171.65 90.252 1172.11 90.696 1172.11 91.584V106.632C1172.11 107.544 1171.65 108 1170.74 108H1170.52C1169.61 108 1169.15 107.544 1169.15 106.632V91.584C1169.15 90.696 1169.61 90.252 1170.52 90.252ZM1168.65 85.176C1168.65 84.624 1168.84 84.156 1169.23 83.772C1169.61 83.364 1170.07 83.16 1170.59 83.16C1171.15 83.16 1171.61 83.364 1172 83.772C1172.41 84.156 1172.61 84.624 1172.61 85.176C1172.61 85.704 1172.42 86.172 1172.03 86.58C1171.65 86.964 1171.18 87.156 1170.63 87.156C1170.08 87.156 1169.61 86.964 1169.23 86.58C1168.84 86.196 1168.65 85.728 1168.65 85.176ZM1184.37 102.852L1182.75 102.78C1182.18 102.78 1181.68 102.936 1181.28 103.248C1180.87 103.536 1180.66 103.86 1180.66 104.22C1180.66 105.132 1181.43 105.588 1182.97 105.588H1185.63C1190.74 105.588 1193.3 107.16 1193.3 110.304C1193.3 111.96 1192.5 113.304 1190.89 114.336C1189.3 115.368 1187.26 115.932 1184.77 116.028H1183.9C1181.86 116.028 1180.12 115.62 1178.68 114.804C1177.24 113.988 1176.52 113.028 1176.52 111.924C1176.52 111.396 1176.64 110.976 1176.88 110.664C1177.15 110.352 1177.48 110.172 1177.89 110.124C1178.35 111.06 1179.15 111.84 1180.3 112.464C1181.46 113.088 1182.81 113.4 1184.37 113.4H1184.62C1186.42 113.4 1187.83 113.124 1188.84 112.572C1189.87 112.02 1190.38 111.324 1190.38 110.484C1190.38 109.668 1189.93 109.068 1189.02 108.684C1188.13 108.324 1186.58 108.144 1184.37 108.144C1182.19 108.144 1180.54 107.928 1179.44 107.496C1178.34 107.064 1177.78 106.224 1177.78 104.976C1177.78 103.728 1178.66 102.744 1180.41 102.024C1178.32 100.848 1177.28 98.976 1177.28 96.408C1177.28 94.368 1177.98 92.784 1179.37 91.656C1180.76 90.528 1182.48 89.964 1184.52 89.964C1185.55 89.964 1186.5 90.18 1187.36 90.612C1188.25 91.044 1188.92 91.512 1189.38 92.016C1190.29 91.416 1190.74 90.324 1190.74 88.74C1191.39 88.74 1191.97 88.944 1192.47 89.352C1192.98 89.736 1193.23 90.228 1193.23 90.828C1193.23 92.028 1192.34 92.892 1190.56 93.42C1191.09 94.14 1191.36 95.196 1191.36 96.588C1191.36 98.628 1190.68 100.188 1189.34 101.268C1188.02 102.324 1186.36 102.852 1184.37 102.852ZM1187.4 93.312C1186.6 92.616 1185.6 92.268 1184.37 92.268C1183.15 92.268 1182.13 92.616 1181.31 93.312C1180.5 93.984 1180.09 95.028 1180.09 96.444C1180.09 97.86 1180.5 98.916 1181.31 99.612C1182.13 100.284 1183.15 100.62 1184.37 100.62C1185.6 100.62 1186.6 100.284 1187.4 99.612C1188.21 98.916 1188.62 97.86 1188.62 96.444C1188.62 95.028 1188.21 93.984 1187.4 93.312ZM1198.35 90.252H1198.6C1199.52 90.252 1199.97 90.708 1199.97 91.62V93.384C1200.43 92.472 1201.15 91.668 1202.13 90.972C1203.12 90.276 1204.24 89.928 1205.52 89.928C1207.46 89.928 1209.04 90.516 1210.27 91.692C1211.52 92.844 1212.14 94.68 1212.14 97.2V106.632C1212.14 107.112 1212.03 107.46 1211.82 107.676C1211.6 107.892 1211.25 108 1210.77 108H1210.48C1209.6 108 1209.15 107.544 1209.15 106.632V97.308C1209.15 95.556 1208.78 94.308 1208.04 93.564C1207.29 92.82 1206.21 92.448 1204.8 92.448C1203.38 92.448 1202.23 93.024 1201.34 94.176C1200.45 95.328 1200.01 96.852 1200.01 98.748V106.632C1200.01 107.544 1199.54 108 1198.6 108H1198.35C1197.87 108 1197.52 107.892 1197.31 107.676C1197.09 107.46 1196.98 107.112 1196.98 106.632V91.62C1196.98 90.708 1197.44 90.252 1198.35 90.252ZM1217.53 96.228H1227.1C1227.99 96.228 1228.43 96.624 1228.43 97.416C1228.43 98.208 1227.99 98.604 1227.1 98.604H1217.53C1216.64 98.604 1216.19 98.208 1216.19 97.416C1216.19 96.624 1216.64 96.228 1217.53 96.228ZM1234.86 90.252H1235.07C1235.99 90.252 1236.44 90.696 1236.44 91.584V106.632C1236.44 107.544 1235.99 108 1235.07 108H1234.86C1233.95 108 1233.49 107.544 1233.49 106.632V91.584C1233.49 90.696 1233.95 90.252 1234.86 90.252ZM1232.99 85.176C1232.99 84.624 1233.18 84.156 1233.56 83.772C1233.95 83.364 1234.4 83.16 1234.93 83.16C1235.48 83.16 1235.95 83.364 1236.33 83.772C1236.74 84.156 1236.95 84.624 1236.95 85.176C1236.95 85.704 1236.75 86.172 1236.37 86.58C1235.99 86.964 1235.52 87.156 1234.97 87.156C1234.41 87.156 1233.95 86.964 1233.56 86.58C1233.18 86.196 1232.99 85.728 1232.99 85.176ZM1245.22 85.464H1245.47C1246.38 85.464 1246.84 85.908 1246.84 86.796V90.36H1251.8C1252.74 90.36 1253.21 90.768 1253.21 91.584C1253.21 92.4 1252.74 92.808 1251.8 92.808H1246.84V101.88C1246.84 103.392 1247.12 104.46 1247.7 105.084C1248.3 105.684 1249.16 105.984 1250.29 105.984C1251.44 105.984 1252.3 105.708 1252.85 105.156C1253.45 105.348 1253.75 105.732 1253.75 106.308C1253.75 106.884 1253.35 107.364 1252.56 107.748C1251.77 108.108 1250.82 108.288 1249.72 108.288C1245.8 108.288 1243.85 106.152 1243.85 101.88V92.808H1242.08C1241.56 92.808 1241.17 92.724 1240.93 92.556C1240.69 92.388 1240.57 92.064 1240.57 91.584C1240.57 90.768 1241.08 90.36 1242.08 90.36H1243.85V86.796C1243.85 85.908 1244.3 85.464 1245.22 85.464ZM1255.63 99.18C1255.63 96.18 1256.47 93.888 1258.15 92.304C1259.83 90.72 1261.77 89.928 1263.95 89.928C1266.13 89.928 1267.86 90.492 1269.13 91.62C1270.41 92.724 1271.04 94.104 1271.04 95.76C1271.04 97.416 1270.38 98.712 1269.06 99.648C1267.77 100.56 1266.09 101.016 1264.02 101.016C1261.96 101.016 1260.1 100.692 1258.44 100.044C1258.44 101.796 1259.04 103.212 1260.24 104.292C1261.44 105.348 1262.91 105.876 1264.63 105.876C1267.32 105.876 1269 105.048 1269.67 103.392C1270.08 103.392 1270.43 103.512 1270.72 103.752C1271.01 103.968 1271.15 104.292 1271.15 104.724C1271.15 105.564 1270.53 106.368 1269.28 107.136C1268.05 107.904 1266.49 108.288 1264.6 108.288C1262.05 108.288 1259.92 107.52 1258.19 105.984C1256.49 104.448 1255.63 102.18 1255.63 99.18ZM1268.31 95.652C1268.31 94.716 1267.9 93.924 1267.08 93.276C1266.29 92.628 1265.19 92.304 1263.77 92.304C1262.38 92.304 1261.15 92.868 1260.1 93.996C1259.04 95.124 1258.5 96.396 1258.48 97.812C1260.21 98.388 1261.92 98.676 1263.63 98.676C1266.75 98.676 1268.31 97.668 1268.31 95.652ZM1276.64 90.252H1276.86C1277.8 90.252 1278.26 90.708 1278.26 91.62V93.132C1279.37 91.044 1281.06 90 1283.34 90C1284.8 90 1286.02 90.396 1286.98 91.188C1287.96 91.956 1288.63 93.036 1288.99 94.428C1289.38 93.036 1290.08 91.944 1291.12 91.152C1292.15 90.36 1293.34 89.964 1294.68 89.964C1298.81 89.964 1300.87 92.376 1300.87 97.2V106.668C1300.87 107.556 1300.39 108 1299.43 108H1299.22C1298.3 108 1297.85 107.556 1297.85 106.668V97.38C1297.85 94.092 1296.6 92.448 1294.1 92.448C1292.35 92.448 1291.15 93.084 1290.5 94.356C1289.88 95.628 1289.57 97.356 1289.57 99.54V106.668C1289.57 107.556 1289.1 108 1288.16 108H1287.91C1287 108 1286.54 107.556 1286.54 106.668V97.38C1286.54 94.092 1285.28 92.448 1282.76 92.448C1279.76 92.448 1278.26 94.776 1278.26 99.432V106.668C1278.26 107.556 1277.8 108 1276.86 108H1276.64C1275.73 108 1275.28 107.556 1275.28 106.668V91.62C1275.28 90.708 1275.73 90.252 1276.64 90.252ZM1305.04 95.184C1305.04 93.552 1305.73 92.268 1307.12 91.332C1308.54 90.372 1310.11 89.892 1311.84 89.892C1313.57 89.892 1314.9 90.144 1315.84 90.648C1316.8 91.128 1317.28 91.704 1317.28 92.376C1317.28 93.048 1316.81 93.54 1315.87 93.852C1315.7 93.468 1315.24 93.108 1314.47 92.772C1313.72 92.436 1312.8 92.268 1311.7 92.268C1310.59 92.268 1309.68 92.484 1308.96 92.916C1308.26 93.324 1307.92 93.912 1307.92 94.68C1307.92 95.424 1308.18 96 1308.71 96.408C1309.24 96.816 1310.47 97.248 1312.42 97.704C1314.38 98.136 1315.88 98.772 1316.92 99.612C1317.95 100.452 1318.46 101.628 1318.46 103.14C1318.46 104.652 1317.77 105.888 1316.38 106.848C1314.98 107.784 1313.27 108.252 1311.23 108.252C1309.21 108.252 1307.59 108 1306.37 107.496C1305.17 106.968 1304.57 106.284 1304.57 105.444C1304.57 104.604 1304.96 103.992 1305.76 103.608C1306.09 104.256 1306.74 104.808 1307.7 105.264C1308.66 105.72 1309.86 105.948 1311.3 105.948C1312.74 105.948 1313.83 105.684 1314.58 105.156C1315.34 104.628 1315.73 103.98 1315.73 103.212C1315.73 102.42 1315.38 101.808 1314.68 101.376C1314.01 100.92 1312.68 100.476 1310.69 100.044C1308.72 99.612 1307.28 99 1306.37 98.208C1305.48 97.392 1305.04 96.384 1305.04 95.184Z" fill="black"/>
<path d="M40.24 200.64C40.8533 200.64 41.36 200.78 41.76 201.06C42.1733 201.34 42.38 201.693 42.38 202.12C42.38 202.533 42.1667 202.813 41.74 202.96C41.4067 202.4 40.8733 202.12 40.14 202.12C38.7533 202.12 38.06 203.08 38.06 205V205.2H40.52C41.0267 205.2 41.28 205.427 41.28 205.88C41.28 206.32 41.0267 206.54 40.52 206.54H38.06V214.34C38.06 214.607 38 214.8 37.88 214.92C37.76 215.027 37.5667 215.08 37.3 215.08H37.2C36.92 215.08 36.72 215.027 36.6 214.92C36.48 214.8 36.42 214.607 36.42 214.34V206.54H35.38C35.1 206.54 34.9 206.5 34.78 206.42C34.6733 206.327 34.62 206.147 34.62 205.88C34.62 205.613 34.68 205.433 34.8 205.34C34.92 205.247 35.1133 205.2 35.38 205.2H36.42V204.56C36.42 203.32 36.76 202.36 37.44 201.68C38.12 200.987 39.0533 200.64 40.24 200.64ZM43.8205 200.98H43.9605C44.4671 200.98 44.7205 201.227 44.7205 201.72V214.24C44.7205 214.747 44.4671 215 43.9605 215H43.8205C43.5405 215 43.3405 214.94 43.2205 214.82C43.1138 214.7 43.0605 214.507 43.0605 214.24V201.72C43.0605 201.453 43.1138 201.267 43.2205 201.16C43.3405 201.04 43.5405 200.98 43.8205 200.98ZM47.1447 210.1C47.1447 208.433 47.6114 207.16 48.5447 206.28C49.478 205.4 50.5514 204.96 51.7647 204.96C52.978 204.96 53.938 205.273 54.6447 205.9C55.3514 206.513 55.7047 207.28 55.7047 208.2C55.7047 209.12 55.338 209.84 54.6047 210.36C53.8847 210.867 52.9514 211.12 51.8047 211.12C50.658 211.12 49.6247 210.94 48.7047 210.58C48.7047 211.553 49.038 212.34 49.7047 212.94C50.3714 213.527 51.1847 213.82 52.1447 213.82C53.638 213.82 54.5714 213.36 54.9447 212.44C55.1714 212.44 55.3647 212.507 55.5247 212.64C55.6847 212.76 55.7647 212.94 55.7647 213.18C55.7647 213.647 55.418 214.093 54.7247 214.52C54.0447 214.947 53.178 215.16 52.1247 215.16C50.7114 215.16 49.5247 214.733 48.5647 213.88C47.618 213.027 47.1447 211.767 47.1447 210.1ZM54.1847 208.14C54.1847 207.62 53.958 207.18 53.5047 206.82C53.0647 206.46 52.4514 206.28 51.6647 206.28C50.8914 206.28 50.2114 206.593 49.6247 207.22C49.038 207.847 48.738 208.553 48.7247 209.34C49.6847 209.66 50.638 209.82 51.5847 209.82C53.318 209.82 54.1847 209.26 54.1847 208.14ZM58.2577 205.14H58.8777C59.211 205.14 59.4843 205.3 59.6977 205.62L61.9577 209.08C62.531 208.373 63.2977 207.22 64.2577 205.62C64.4577 205.3 64.7177 205.14 65.0377 205.14H65.3977C65.7843 205.14 65.9777 205.293 65.9777 205.6C65.9777 205.707 65.951 205.807 65.8977 205.9C65.1377 207.193 64.1243 208.58 62.8577 210.06L65.9977 214.24C66.1043 214.387 66.1577 214.52 66.1577 214.64C66.1577 214.88 66.0177 215 65.7377 215H64.9577C64.6243 215 64.3243 214.813 64.0577 214.44L61.7977 211.18C61.5843 211.393 61.3377 211.707 61.0577 212.12C60.7777 212.533 60.571 212.833 60.4377 213.02C60.0377 213.62 59.7177 214.12 59.4777 214.52C59.2643 214.84 58.991 215 58.6577 215H58.2977C58.1377 215 58.0043 214.947 57.8977 214.84C57.791 214.733 57.7377 214.62 57.7377 214.5C57.7377 214.367 57.7777 214.24 57.8577 214.12C58.7643 212.787 59.7977 211.473 60.9577 210.18L57.8377 205.9C57.7577 205.807 57.7177 205.7 57.7177 205.58C57.7177 205.46 57.7643 205.36 57.8577 205.28C57.9643 205.187 58.0977 205.14 58.2577 205.14ZM68.9041 208.46H74.2241C74.7174 208.46 74.9641 208.68 74.9641 209.12C74.9641 209.56 74.7174 209.78 74.2241 209.78H68.9041C68.4107 209.78 68.1641 209.56 68.1641 209.12C68.1641 208.68 68.4107 208.46 68.9041 208.46ZM77.0327 207.88C77.0327 206.973 77.4193 206.26 78.1927 205.74C78.9793 205.207 79.8527 204.94 80.8127 204.94C81.7727 204.94 82.5127 205.08 83.0327 205.36C83.566 205.627 83.8327 205.947 83.8327 206.32C83.8327 206.693 83.5727 206.967 83.0527 207.14C82.9593 206.927 82.6993 206.727 82.2727 206.54C81.8593 206.353 81.346 206.26 80.7327 206.26C80.1193 206.26 79.6127 206.38 79.2127 206.62C78.826 206.847 78.6327 207.173 78.6327 207.6C78.6327 208.013 78.7793 208.333 79.0727 208.56C79.366 208.787 80.0527 209.027 81.1327 209.28C82.226 209.52 83.0593 209.873 83.6327 210.34C84.206 210.807 84.4927 211.46 84.4927 212.3C84.4927 213.14 84.106 213.827 83.3327 214.36C82.5593 214.88 81.606 215.14 80.4727 215.14C79.3527 215.14 78.4527 215 77.7727 214.72C77.106 214.427 76.7727 214.047 76.7727 213.58C76.7727 213.113 76.9927 212.773 77.4327 212.56C77.6193 212.92 77.9793 213.227 78.5127 213.48C79.046 213.733 79.7127 213.86 80.5127 213.86C81.3127 213.86 81.9193 213.713 82.3327 213.42C82.7593 213.127 82.9727 212.767 82.9727 212.34C82.9727 211.9 82.7793 211.56 82.3927 211.32C82.0193 211.067 81.2793 210.82 80.1727 210.58C79.0793 210.34 78.2793 210 77.7727 209.56C77.2793 209.107 77.0327 208.547 77.0327 207.88ZM88.3105 202.48H88.4505C88.9571 202.48 89.2105 202.727 89.2105 203.22V205.2H91.9705C92.4905 205.2 92.7505 205.427 92.7505 205.88C92.7505 206.333 92.4905 206.56 91.9705 206.56H89.2105V211.6C89.2105 212.44 89.3705 213.033 89.6905 213.38C90.0238 213.713 90.5038 213.88 91.1305 213.88C91.7705 213.88 92.2438 213.727 92.5505 213.42C92.8838 213.527 93.0505 213.74 93.0505 214.06C93.0505 214.38 92.8305 214.647 92.3905 214.86C91.9505 215.06 91.4238 215.16 90.8105 215.16C88.6371 215.16 87.5505 213.973 87.5505 211.6V206.56H86.5705C86.2771 206.56 86.0638 206.513 85.9305 206.42C85.7971 206.327 85.7305 206.147 85.7305 205.88C85.7305 205.427 86.0105 205.2 86.5705 205.2H87.5505V203.22C87.5505 202.727 87.8038 202.48 88.3105 202.48ZM98.2178 204.98C101.044 204.98 102.458 206.293 102.458 208.92V212.88C102.458 213.613 102.738 214.08 103.298 214.28C103.098 214.787 102.724 215.04 102.178 215.04C101.778 215.04 101.458 214.9 101.218 214.62C100.991 214.327 100.878 213.947 100.878 213.48C100.038 214.6 98.9511 215.16 97.6178 215.16C96.5378 215.16 95.6845 214.887 95.0578 214.34C94.4445 213.78 94.1378 213.033 94.1378 212.1C94.1378 211.153 94.4978 210.387 95.2178 209.8C95.9511 209.213 96.9378 208.92 98.1778 208.92C98.9245 208.92 99.5511 209 100.058 209.16C100.471 209.307 100.718 209.4 100.798 209.44V208.56C100.798 207.747 100.591 207.173 100.178 206.84C99.7645 206.493 99.1378 206.32 98.2978 206.32C97.1111 206.32 96.1911 206.773 95.5378 207.68C94.9778 207.6 94.6978 207.34 94.6978 206.9C94.6978 206.393 95.0445 205.947 95.7378 205.56C96.4311 205.173 97.2578 204.98 98.2178 204.98ZM100.798 210.72C99.9578 210.347 99.1311 210.16 98.3178 210.16C97.5045 210.16 96.8778 210.333 96.4378 210.68C95.9978 211.027 95.7778 211.48 95.7778 212.04C95.7778 212.587 95.9645 213.027 96.3378 213.36C96.7245 213.68 97.2845 213.84 98.0178 213.84C98.7645 213.84 99.4111 213.573 99.9578 213.04C100.518 212.507 100.798 211.86 100.798 211.1V210.72ZM106.161 205.14H106.281C106.788 205.14 107.041 205.387 107.041 205.88V206.96C107.268 206.453 107.628 206 108.121 205.6C108.628 205.2 109.168 205 109.741 205C110.315 205 110.748 205.113 111.041 205.34C111.348 205.567 111.501 205.847 111.501 206.18C111.501 206.5 111.361 206.753 111.081 206.94C110.668 206.593 110.228 206.42 109.761 206.42C108.935 206.42 108.281 206.76 107.801 207.44C107.321 208.107 107.081 208.947 107.081 209.96V214.24C107.081 214.507 107.021 214.7 106.901 214.82C106.781 214.94 106.588 215 106.321 215H106.161C105.895 215 105.701 214.94 105.581 214.82C105.461 214.7 105.401 214.507 105.401 214.24V205.88C105.401 205.387 105.655 205.14 106.161 205.14ZM115.146 202.48H115.286C115.793 202.48 116.046 202.727 116.046 203.22V205.2H118.806C119.326 205.2 119.586 205.427 119.586 205.88C119.586 206.333 119.326 206.56 118.806 206.56H116.046V211.6C116.046 212.44 116.206 213.033 116.526 213.38C116.86 213.713 117.34 213.88 117.966 213.88C118.606 213.88 119.08 213.727 119.386 213.42C119.72 213.527 119.886 213.74 119.886 214.06C119.886 214.38 119.666 214.647 119.226 214.86C118.786 215.06 118.26 215.16 117.646 215.16C115.473 215.16 114.386 213.973 114.386 211.6V206.56H113.406C113.113 206.56 112.9 206.513 112.766 206.42C112.633 206.327 112.566 206.147 112.566 205.88C112.566 205.427 112.846 205.2 113.406 205.2H114.386V203.22C114.386 202.727 114.64 202.48 115.146 202.48Z" fill="black"/>
<path d="M820.24 168.64C820.853 168.64 821.36 168.78 821.76 169.06C822.173 169.34 822.38 169.693 822.38 170.12C822.38 170.533 822.167 170.813 821.74 170.96C821.407 170.4 820.873 170.12 820.14 170.12C818.753 170.12 818.06 171.08 818.06 173V173.2H820.52C821.027 173.2 821.28 173.427 821.28 173.88C821.28 174.32 821.027 174.54 820.52 174.54H818.06V182.34C818.06 182.607 818 182.8 817.88 182.92C817.76 183.027 817.567 183.08 817.3 183.08H817.2C816.92 183.08 816.72 183.027 816.6 182.92C816.48 182.8 816.42 182.607 816.42 182.34V174.54H815.38C815.1 174.54 814.9 174.5 814.78 174.42C814.673 174.327 814.62 174.147 814.62 173.88C814.62 173.613 814.68 173.433 814.8 173.34C814.92 173.247 815.113 173.2 815.38 173.2H816.42V172.56C816.42 171.32 816.76 170.36 817.44 169.68C818.12 168.987 819.053 168.64 820.24 168.64ZM823.82 168.98H823.96C824.467 168.98 824.72 169.227 824.72 169.72V182.24C824.72 182.747 824.467 183 823.96 183H823.82C823.54 183 823.34 182.94 823.22 182.82C823.114 182.7 823.06 182.507 823.06 182.24V169.72C823.06 169.453 823.114 169.267 823.22 169.16C823.34 169.04 823.54 168.98 823.82 168.98ZM827.145 178.1C827.145 176.433 827.611 175.16 828.545 174.28C829.478 173.4 830.551 172.96 831.765 172.96C832.978 172.96 833.938 173.273 834.645 173.9C835.351 174.513 835.705 175.28 835.705 176.2C835.705 177.12 835.338 177.84 834.605 178.36C833.885 178.867 832.951 179.12 831.805 179.12C830.658 179.12 829.625 178.94 828.705 178.58C828.705 179.553 829.038 180.34 829.705 180.94C830.371 181.527 831.185 181.82 832.145 181.82C833.638 181.82 834.571 181.36 834.945 180.44C835.171 180.44 835.365 180.507 835.525 180.64C835.685 180.76 835.765 180.94 835.765 181.18C835.765 181.647 835.418 182.093 834.725 182.52C834.045 182.947 833.178 183.16 832.125 183.16C830.711 183.16 829.525 182.733 828.565 181.88C827.618 181.027 827.145 179.767 827.145 178.1ZM834.185 176.14C834.185 175.62 833.958 175.18 833.505 174.82C833.065 174.46 832.451 174.28 831.665 174.28C830.891 174.28 830.211 174.593 829.625 175.22C829.038 175.847 828.738 176.553 828.725 177.34C829.685 177.66 830.638 177.82 831.585 177.82C833.318 177.82 834.185 177.26 834.185 176.14ZM838.258 173.14H838.878C839.211 173.14 839.484 173.3 839.698 173.62L841.958 177.08C842.531 176.373 843.298 175.22 844.258 173.62C844.458 173.3 844.718 173.14 845.038 173.14H845.398C845.784 173.14 845.978 173.293 845.978 173.6C845.978 173.707 845.951 173.807 845.898 173.9C845.138 175.193 844.124 176.58 842.858 178.06L845.998 182.24C846.104 182.387 846.158 182.52 846.158 182.64C846.158 182.88 846.018 183 845.738 183H844.958C844.624 183 844.324 182.813 844.058 182.44L841.798 179.18C841.584 179.393 841.338 179.707 841.058 180.12C840.778 180.533 840.571 180.833 840.438 181.02C840.038 181.62 839.718 182.12 839.478 182.52C839.264 182.84 838.991 183 838.658 183H838.298C838.138 183 838.004 182.947 837.898 182.84C837.791 182.733 837.738 182.62 837.738 182.5C837.738 182.367 837.778 182.24 837.858 182.12C838.764 180.787 839.798 179.473 840.958 178.18L837.838 173.9C837.758 173.807 837.718 173.7 837.718 173.58C837.718 173.46 837.764 173.36 837.858 173.28C837.964 173.187 838.098 173.14 838.258 173.14ZM848.904 176.46H854.224C854.717 176.46 854.964 176.68 854.964 177.12C854.964 177.56 854.717 177.78 854.224 177.78H848.904C848.411 177.78 848.164 177.56 848.164 177.12C848.164 176.68 848.411 176.46 848.904 176.46ZM857.033 175.88C857.033 174.973 857.419 174.26 858.193 173.74C858.979 173.207 859.853 172.94 860.813 172.94C861.773 172.94 862.513 173.08 863.033 173.36C863.566 173.627 863.833 173.947 863.833 174.32C863.833 174.693 863.573 174.967 863.053 175.14C862.959 174.927 862.699 174.727 862.273 174.54C861.859 174.353 861.346 174.26 860.733 174.26C860.119 174.26 859.613 174.38 859.213 174.62C858.826 174.847 858.633 175.173 858.633 175.6C858.633 176.013 858.779 176.333 859.073 176.56C859.366 176.787 860.053 177.027 861.133 177.28C862.226 177.52 863.059 177.873 863.633 178.34C864.206 178.807 864.493 179.46 864.493 180.3C864.493 181.14 864.106 181.827 863.333 182.36C862.559 182.88 861.606 183.14 860.473 183.14C859.353 183.14 858.453 183 857.773 182.72C857.106 182.427 856.773 182.047 856.773 181.58C856.773 181.113 856.993 180.773 857.433 180.56C857.619 180.92 857.979 181.227 858.513 181.48C859.046 181.733 859.713 181.86 860.513 181.86C861.313 181.86 861.919 181.713 862.333 181.42C862.759 181.127 862.973 180.767 862.973 180.34C862.973 179.9 862.779 179.56 862.393 179.32C862.019 179.067 861.279 178.82 860.173 178.58C859.079 178.34 858.279 178 857.773 177.56C857.279 177.107 857.033 176.547 857.033 175.88ZM868.31 170.48H868.45C868.957 170.48 869.21 170.727 869.21 171.22V173.2H871.97C872.49 173.2 872.75 173.427 872.75 173.88C872.75 174.333 872.49 174.56 871.97 174.56H869.21V179.6C869.21 180.44 869.37 181.033 869.69 181.38C870.024 181.713 870.504 181.88 871.13 181.88C871.77 181.88 872.244 181.727 872.55 181.42C872.884 181.527 873.05 181.74 873.05 182.06C873.05 182.38 872.83 182.647 872.39 182.86C871.95 183.06 871.424 183.16 870.81 183.16C868.637 183.16 867.55 181.973 867.55 179.6V174.56H866.57C866.277 174.56 866.064 174.513 865.93 174.42C865.797 174.327 865.73 174.147 865.73 173.88C865.73 173.427 866.01 173.2 866.57 173.2H867.55V171.22C867.55 170.727 867.804 170.48 868.31 170.48ZM878.218 172.98C881.044 172.98 882.458 174.293 882.458 176.92V180.88C882.458 181.613 882.738 182.08 883.298 182.28C883.098 182.787 882.724 183.04 882.178 183.04C881.778 183.04 881.458 182.9 881.218 182.62C880.991 182.327 880.878 181.947 880.878 181.48C880.038 182.6 878.951 183.16 877.618 183.16C876.538 183.16 875.684 182.887 875.058 182.34C874.444 181.78 874.138 181.033 874.138 180.1C874.138 179.153 874.498 178.387 875.218 177.8C875.951 177.213 876.938 176.92 878.178 176.92C878.924 176.92 879.551 177 880.058 177.16C880.471 177.307 880.718 177.4 880.798 177.44V176.56C880.798 175.747 880.591 175.173 880.178 174.84C879.764 174.493 879.138 174.32 878.298 174.32C877.111 174.32 876.191 174.773 875.538 175.68C874.978 175.6 874.698 175.34 874.698 174.9C874.698 174.393 875.044 173.947 875.738 173.56C876.431 173.173 877.258 172.98 878.218 172.98ZM880.798 178.72C879.958 178.347 879.131 178.16 878.318 178.16C877.504 178.16 876.878 178.333 876.438 178.68C875.998 179.027 875.778 179.48 875.778 180.04C875.778 180.587 875.964 181.027 876.338 181.36C876.724 181.68 877.284 181.84 878.018 181.84C878.764 181.84 879.411 181.573 879.958 181.04C880.518 180.507 880.798 179.86 880.798 179.1V178.72ZM886.161 173.14H886.281C886.788 173.14 887.041 173.387 887.041 173.88V174.96C887.268 174.453 887.628 174 888.121 173.6C888.628 173.2 889.168 173 889.741 173C890.315 173 890.748 173.113 891.041 173.34C891.348 173.567 891.501 173.847 891.501 174.18C891.501 174.5 891.361 174.753 891.081 174.94C890.668 174.593 890.228 174.42 889.761 174.42C888.935 174.42 888.281 174.76 887.801 175.44C887.321 176.107 887.081 176.947 887.081 177.96V182.24C887.081 182.507 887.021 182.7 886.901 182.82C886.781 182.94 886.588 183 886.321 183H886.161C885.895 183 885.701 182.94 885.581 182.82C885.461 182.7 885.401 182.507 885.401 182.24V173.88C885.401 173.387 885.655 173.14 886.161 173.14ZM895.146 170.48H895.286C895.793 170.48 896.046 170.727 896.046 171.22V173.2H898.806C899.326 173.2 899.586 173.427 899.586 173.88C899.586 174.333 899.326 174.56 898.806 174.56H896.046V179.6C896.046 180.44 896.206 181.033 896.526 181.38C896.86 181.713 897.34 181.88 897.966 181.88C898.606 181.88 899.08 181.727 899.386 181.42C899.72 181.527 899.886 181.74 899.886 182.06C899.886 182.38 899.666 182.647 899.226 182.86C898.786 183.06 898.26 183.16 897.646 183.16C895.473 183.16 894.386 181.973 894.386 179.6V174.56H893.406C893.113 174.56 892.9 174.513 892.766 174.42C892.633 174.327 892.566 174.147 892.566 173.88C892.566 173.427 892.846 173.2 893.406 173.2H894.386V171.22C894.386 170.727 894.64 170.48 895.146 170.48Z" fill="black"/>
<path d="M820.24 499.64C820.853 499.64 821.36 499.78 821.76 500.06C822.173 500.34 822.38 500.693 822.38 501.12C822.38 501.533 822.167 501.813 821.74 501.96C821.407 501.4 820.873 501.12 820.14 501.12C818.753 501.12 818.06 502.08 818.06 504V504.2H820.52C821.027 504.2 821.28 504.427 821.28 504.88C821.28 505.32 821.027 505.54 820.52 505.54H818.06V513.34C818.06 513.607 818 513.8 817.88 513.92C817.76 514.027 817.567 514.08 817.3 514.08H817.2C816.92 514.08 816.72 514.027 816.6 513.92C816.48 513.8 816.42 513.607 816.42 513.34V505.54H815.38C815.1 505.54 814.9 505.5 814.78 505.42C814.673 505.327 814.62 505.147 814.62 504.88C814.62 504.613 814.68 504.433 814.8 504.34C814.92 504.247 815.113 504.2 815.38 504.2H816.42V503.56C816.42 502.32 816.76 501.36 817.44 500.68C818.12 499.987 819.053 499.64 820.24 499.64ZM823.82 499.98H823.96C824.467 499.98 824.72 500.227 824.72 500.72V513.24C824.72 513.747 824.467 514 823.96 514H823.82C823.54 514 823.34 513.94 823.22 513.82C823.114 513.7 823.06 513.507 823.06 513.24V500.72C823.06 500.453 823.114 500.267 823.22 500.16C823.34 500.04 823.54 499.98 823.82 499.98ZM827.145 509.1C827.145 507.433 827.611 506.16 828.545 505.28C829.478 504.4 830.551 503.96 831.765 503.96C832.978 503.96 833.938 504.273 834.645 504.9C835.351 505.513 835.705 506.28 835.705 507.2C835.705 508.12 835.338 508.84 834.605 509.36C833.885 509.867 832.951 510.12 831.805 510.12C830.658 510.12 829.625 509.94 828.705 509.58C828.705 510.553 829.038 511.34 829.705 511.94C830.371 512.527 831.185 512.82 832.145 512.82C833.638 512.82 834.571 512.36 834.945 511.44C835.171 511.44 835.365 511.507 835.525 511.64C835.685 511.76 835.765 511.94 835.765 512.18C835.765 512.647 835.418 513.093 834.725 513.52C834.045 513.947 833.178 514.16 832.125 514.16C830.711 514.16 829.525 513.733 828.565 512.88C827.618 512.027 827.145 510.767 827.145 509.1ZM834.185 507.14C834.185 506.62 833.958 506.18 833.505 505.82C833.065 505.46 832.451 505.28 831.665 505.28C830.891 505.28 830.211 505.593 829.625 506.22C829.038 506.847 828.738 507.553 828.725 508.34C829.685 508.66 830.638 508.82 831.585 508.82C833.318 508.82 834.185 508.26 834.185 507.14ZM838.258 504.14H838.878C839.211 504.14 839.484 504.3 839.698 504.62L841.958 508.08C842.531 507.373 843.298 506.22 844.258 504.62C844.458 504.3 844.718 504.14 845.038 504.14H845.398C845.784 504.14 845.978 504.293 845.978 504.6C845.978 504.707 845.951 504.807 845.898 504.9C845.138 506.193 844.124 507.58 842.858 509.06L845.998 513.24C846.104 513.387 846.158 513.52 846.158 513.64C846.158 513.88 846.018 514 845.738 514H844.958C844.624 514 844.324 513.813 844.058 513.44L841.798 510.18C841.584 510.393 841.338 510.707 841.058 511.12C840.778 511.533 840.571 511.833 840.438 512.02C840.038 512.62 839.718 513.12 839.478 513.52C839.264 513.84 838.991 514 838.658 514H838.298C838.138 514 838.004 513.947 837.898 513.84C837.791 513.733 837.738 513.62 837.738 513.5C837.738 513.367 837.778 513.24 837.858 513.12C838.764 511.787 839.798 510.473 840.958 509.18L837.838 504.9C837.758 504.807 837.718 504.7 837.718 504.58C837.718 504.46 837.764 504.36 837.858 504.28C837.964 504.187 838.098 504.14 838.258 504.14ZM848.904 507.46H854.224C854.717 507.46 854.964 507.68 854.964 508.12C854.964 508.56 854.717 508.78 854.224 508.78H848.904C848.411 508.78 848.164 508.56 848.164 508.12C848.164 507.68 848.411 507.46 848.904 507.46ZM856.813 509.1C856.813 507.433 857.279 506.16 858.213 505.28C859.146 504.4 860.219 503.96 861.433 503.96C862.646 503.96 863.606 504.273 864.313 504.9C865.019 505.513 865.373 506.28 865.373 507.2C865.373 508.12 865.006 508.84 864.273 509.36C863.553 509.867 862.619 510.12 861.473 510.12C860.326 510.12 859.293 509.94 858.373 509.58C858.373 510.553 858.706 511.34 859.373 511.94C860.039 512.527 860.853 512.82 861.813 512.82C863.306 512.82 864.239 512.36 864.613 511.44C864.839 511.44 865.033 511.507 865.193 511.64C865.353 511.76 865.433 511.94 865.433 512.18C865.433 512.647 865.086 513.093 864.393 513.52C863.713 513.947 862.846 514.16 861.793 514.16C860.379 514.16 859.193 513.733 858.233 512.88C857.286 512.027 856.813 510.767 856.813 509.1ZM863.853 507.14C863.853 506.62 863.626 506.18 863.173 505.82C862.733 505.46 862.119 505.28 861.333 505.28C860.559 505.28 859.879 505.593 859.293 506.22C858.706 506.847 858.406 507.553 858.393 508.34C859.353 508.66 860.306 508.82 861.253 508.82C862.986 508.82 863.853 508.26 863.853 507.14ZM868.486 504.14H868.626C869.132 504.14 869.386 504.393 869.386 504.9V505.88C869.639 505.373 870.039 504.927 870.586 504.54C871.132 504.153 871.759 503.96 872.466 503.96C873.546 503.96 874.426 504.287 875.106 504.94C875.799 505.58 876.146 506.6 876.146 508V513.24C876.146 513.507 876.086 513.7 875.966 513.82C875.846 513.94 875.652 514 875.386 514H875.226C874.732 514 874.486 513.747 874.486 513.24V508.06C874.486 507.087 874.279 506.393 873.866 505.98C873.452 505.567 872.852 505.36 872.066 505.36C871.279 505.36 870.639 505.68 870.146 506.32C869.652 506.96 869.406 507.807 869.406 508.86V513.24C869.406 513.747 869.146 514 868.626 514H868.486C868.219 514 868.026 513.94 867.906 513.82C867.786 513.7 867.726 513.507 867.726 513.24V504.9C867.726 504.393 867.979 504.14 868.486 504.14ZM886.358 499.58H886.518C887.025 499.58 887.278 499.82 887.278 500.3V513.28C887.278 513.76 887.025 514 886.518 514H886.358C885.852 514 885.598 513.773 885.598 513.32V512.34C885.305 512.86 884.885 513.293 884.338 513.64C883.792 513.973 883.172 514.14 882.478 514.14C881.292 514.14 880.312 513.733 879.538 512.92C878.765 512.107 878.378 510.86 878.378 509.18C878.378 507.487 878.805 506.193 879.658 505.3C880.512 504.393 881.598 503.94 882.918 503.94C883.958 503.94 884.852 504.247 885.598 504.86V500.3C885.598 499.82 885.852 499.58 886.358 499.58ZM885.598 506.5C884.892 505.767 884.045 505.4 883.058 505.4C882.072 505.4 881.318 505.72 880.798 506.36C880.278 506.987 880.018 507.933 880.018 509.2C880.018 510.467 880.285 511.38 880.818 511.94C881.352 512.5 882.058 512.78 882.938 512.78C883.832 512.78 884.498 512.447 884.938 511.78C885.378 511.113 885.598 510.287 885.598 509.3V506.5Z" fill="black"/>
<path d="M40.24 421.64C40.8533 421.64 41.36 421.78 41.76 422.06C42.1733 422.34 42.38 422.693 42.38 423.12C42.38 423.533 42.1667 423.813 41.74 423.96C41.4067 423.4 40.8733 423.12 40.14 423.12C38.7533 423.12 38.06 424.08 38.06 426V426.2H40.52C41.0267 426.2 41.28 426.427 41.28 426.88C41.28 427.32 41.0267 427.54 40.52 427.54H38.06V435.34C38.06 435.607 38 435.8 37.88 435.92C37.76 436.027 37.5667 436.08 37.3 436.08H37.2C36.92 436.08 36.72 436.027 36.6 435.92C36.48 435.8 36.42 435.607 36.42 435.34V427.54H35.38C35.1 427.54 34.9 427.5 34.78 427.42C34.6733 427.327 34.62 427.147 34.62 426.88C34.62 426.613 34.68 426.433 34.8 426.34C34.92 426.247 35.1133 426.2 35.38 426.2H36.42V425.56C36.42 424.32 36.76 423.36 37.44 422.68C38.12 421.987 39.0533 421.64 40.24 421.64ZM43.8205 421.98H43.9605C44.4671 421.98 44.7205 422.227 44.7205 422.72V435.24C44.7205 435.747 44.4671 436 43.9605 436H43.8205C43.5405 436 43.3405 435.94 43.2205 435.82C43.1138 435.7 43.0605 435.507 43.0605 435.24V422.72C43.0605 422.453 43.1138 422.267 43.2205 422.16C43.3405 422.04 43.5405 421.98 43.8205 421.98ZM47.1447 431.1C47.1447 429.433 47.6114 428.16 48.5447 427.28C49.478 426.4 50.5514 425.96 51.7647 425.96C52.978 425.96 53.938 426.273 54.6447 426.9C55.3514 427.513 55.7047 428.28 55.7047 429.2C55.7047 430.12 55.338 430.84 54.6047 431.36C53.8847 431.867 52.9514 432.12 51.8047 432.12C50.658 432.12 49.6247 431.94 48.7047 431.58C48.7047 432.553 49.038 433.34 49.7047 433.94C50.3714 434.527 51.1847 434.82 52.1447 434.82C53.638 434.82 54.5714 434.36 54.9447 433.44C55.1714 433.44 55.3647 433.507 55.5247 433.64C55.6847 433.76 55.7647 433.94 55.7647 434.18C55.7647 434.647 55.418 435.093 54.7247 435.52C54.0447 435.947 53.178 436.16 52.1247 436.16C50.7114 436.16 49.5247 435.733 48.5647 434.88C47.618 434.027 47.1447 432.767 47.1447 431.1ZM54.1847 429.14C54.1847 428.62 53.958 428.18 53.5047 427.82C53.0647 427.46 52.4514 427.28 51.6647 427.28C50.8914 427.28 50.2114 427.593 49.6247 428.22C49.038 428.847 48.738 429.553 48.7247 430.34C49.6847 430.66 50.638 430.82 51.5847 430.82C53.318 430.82 54.1847 430.26 54.1847 429.14ZM58.2577 426.14H58.8777C59.211 426.14 59.4843 426.3 59.6977 426.62L61.9577 430.08C62.531 429.373 63.2977 428.22 64.2577 426.62C64.4577 426.3 64.7177 426.14 65.0377 426.14H65.3977C65.7843 426.14 65.9777 426.293 65.9777 426.6C65.9777 426.707 65.951 426.807 65.8977 426.9C65.1377 428.193 64.1243 429.58 62.8577 431.06L65.9977 435.24C66.1043 435.387 66.1577 435.52 66.1577 435.64C66.1577 435.88 66.0177 436 65.7377 436H64.9577C64.6243 436 64.3243 435.813 64.0577 435.44L61.7977 432.18C61.5843 432.393 61.3377 432.707 61.0577 433.12C60.7777 433.533 60.571 433.833 60.4377 434.02C60.0377 434.62 59.7177 435.12 59.4777 435.52C59.2643 435.84 58.991 436 58.6577 436H58.2977C58.1377 436 58.0043 435.947 57.8977 435.84C57.791 435.733 57.7377 435.62 57.7377 435.5C57.7377 435.367 57.7777 435.24 57.8577 435.12C58.7643 433.787 59.7977 432.473 60.9577 431.18L57.8377 426.9C57.7577 426.807 57.7177 426.7 57.7177 426.58C57.7177 426.46 57.7643 426.36 57.8577 426.28C57.9643 426.187 58.0977 426.14 58.2577 426.14ZM68.9041 429.46H74.2241C74.7174 429.46 74.9641 429.68 74.9641 430.12C74.9641 430.56 74.7174 430.78 74.2241 430.78H68.9041C68.4107 430.78 68.1641 430.56 68.1641 430.12C68.1641 429.68 68.4107 429.46 68.9041 429.46ZM76.8127 431.1C76.8127 429.433 77.2793 428.16 78.2127 427.28C79.146 426.4 80.2193 425.96 81.4327 425.96C82.646 425.96 83.606 426.273 84.3127 426.9C85.0193 427.513 85.3727 428.28 85.3727 429.2C85.3727 430.12 85.006 430.84 84.2727 431.36C83.5527 431.867 82.6193 432.12 81.4727 432.12C80.326 432.12 79.2927 431.94 78.3727 431.58C78.3727 432.553 78.706 433.34 79.3727 433.94C80.0393 434.527 80.8527 434.82 81.8127 434.82C83.306 434.82 84.2393 434.36 84.6127 433.44C84.8393 433.44 85.0327 433.507 85.1927 433.64C85.3527 433.76 85.4327 433.94 85.4327 434.18C85.4327 434.647 85.086 435.093 84.3927 435.52C83.7127 435.947 82.846 436.16 81.7927 436.16C80.3793 436.16 79.1927 435.733 78.2327 434.88C77.286 434.027 76.8127 432.767 76.8127 431.1ZM83.8527 429.14C83.8527 428.62 83.626 428.18 83.1727 427.82C82.7327 427.46 82.1193 427.28 81.3327 427.28C80.5593 427.28 79.8793 427.593 79.2927 428.22C78.706 428.847 78.406 429.553 78.3927 430.34C79.3527 430.66 80.306 430.82 81.2527 430.82C82.986 430.82 83.8527 430.26 83.8527 429.14ZM88.4856 426.14H88.6256C89.1323 426.14 89.3856 426.393 89.3856 426.9V427.88C89.639 427.373 90.039 426.927 90.5856 426.54C91.1323 426.153 91.759 425.96 92.4656 425.96C93.5456 425.96 94.4256 426.287 95.1056 426.94C95.799 427.58 96.1456 428.6 96.1456 430V435.24C96.1456 435.507 96.0856 435.7 95.9656 435.82C95.8456 435.94 95.6523 436 95.3856 436H95.2256C94.7323 436 94.4856 435.747 94.4856 435.24V430.06C94.4856 429.087 94.279 428.393 93.8656 427.98C93.4523 427.567 92.8523 427.36 92.0656 427.36C91.279 427.36 90.639 427.68 90.1456 428.32C89.6523 428.96 89.4056 429.807 89.4056 430.86V435.24C89.4056 435.747 89.1456 436 88.6256 436H88.4856C88.219 436 88.0256 435.94 87.9056 435.82C87.7856 435.7 87.7256 435.507 87.7256 435.24V426.9C87.7256 426.393 87.979 426.14 88.4856 426.14ZM106.358 421.58H106.518C107.025 421.58 107.278 421.82 107.278 422.3V435.28C107.278 435.76 107.025 436 106.518 436H106.358C105.852 436 105.598 435.773 105.598 435.32V434.34C105.305 434.86 104.885 435.293 104.338 435.64C103.792 435.973 103.172 436.14 102.478 436.14C101.292 436.14 100.312 435.733 99.5384 434.92C98.7651 434.107 98.3784 432.86 98.3784 431.18C98.3784 429.487 98.8051 428.193 99.6584 427.3C100.512 426.393 101.598 425.94 102.918 425.94C103.958 425.94 104.852 426.247 105.598 426.86V422.3C105.598 421.82 105.852 421.58 106.358 421.58ZM105.598 428.5C104.892 427.767 104.045 427.4 103.058 427.4C102.072 427.4 101.318 427.72 100.798 428.36C100.278 428.987 100.018 429.933 100.018 431.2C100.018 432.467 100.285 433.38 100.818 433.94C101.352 434.5 102.058 434.78 102.938 434.78C103.832 434.78 104.498 434.447 104.938 433.78C105.378 433.113 105.598 432.287 105.598 431.3V428.5Z" fill="black"/>
<defs>
<filter id="filter0_d" x="64" y="274" width="58" height="58" filterUnits="userSpaceOnUse" color-interpolation-filters="sRGB">
<feFlood flood-opacity="0" result="BackgroundImageFix"/>
<feColorMatrix in="SourceAlpha" type="matrix" values="0 0 0 0 0 0 0 0 0 0 0 0 0 0 0 0 0 0 127 0"/>
<feOffset dy="4"/>
<feGaussianBlur stdDeviation="2"/>
<feColorMatrix type="matrix" values="0 0 0 0 0 0 0 0 0 0 0 0 0 0 0 0 0 0 0.25 0"/>
<feBlend mode="normal" in2="BackgroundImageFix" result="effect1_dropShadow"/>
<feBlend mode="normal" in="SourceGraphic" in2="effect1_dropShadow" result="shape"/>
</filter>
<filter id="filter1_d" x="316" y="275" width="58" height="58" filterUnits="userSpaceOnUse" color-interpolation-filters="sRGB">
<feFlood flood-opacity="0" result="BackgroundImageFix"/>
<feColorMatrix in="SourceAlpha" type="matrix" values="0 0 0 0 0 0 0 0 0 0 0 0 0 0 0 0 0 0 127 0"/>
<feOffset dy="4"/>
<feGaussianBlur stdDeviation="2"/>
<feColorMatrix type="matrix" values="0 0 0 0 0 0 0 0 0 0 0 0 0 0 0 0 0 0 0.25 0"/>
<feBlend mode="normal" in2="BackgroundImageFix" result="effect1_dropShadow"/>
<feBlend mode="normal" in="SourceGraphic" in2="effect1_dropShadow" result="shape"/>
</filter>
<filter id="filter2_d" x="146" y="275" width="58" height="58" filterUnits="userSpaceOnUse" color-interpolation-filters="sRGB">
<feFlood flood-opacity="0" result="BackgroundImageFix"/>
<feColorMatrix in="SourceAlpha" type="matrix" values="0 0 0 0 0 0 0 0 0 0 0 0 0 0 0 0 0 0 127 0"/>
<feOffset dy="4"/>
<feGaussianBlur stdDeviation="2"/>
<feColorMatrix type="matrix" values="0 0 0 0 0 0 0 0 0 0 0 0 0 0 0 0 0 0 0.25 0"/>
<feBlend mode="normal" in2="BackgroundImageFix" result="effect1_dropShadow"/>
<feBlend mode="normal" in="SourceGraphic" in2="effect1_dropShadow" result="shape"/>
</filter>
<filter id="filter3_d" x="228" y="275" width="58" height="58" filterUnits="userSpaceOnUse" color-interpolation-filters="sRGB">
<feFlood flood-opacity="0" result="BackgroundImageFix"/>
<feColorMatrix in="SourceAlpha" type="matrix" values="0 0 0 0 0 0 0 0 0 0 0 0 0 0 0 0 0 0 127 0"/>
<feOffset dy="4"/>
<feGaussianBlur stdDeviation="2"/>
<feColorMatrix type="matrix" values="0 0 0 0 0 0 0 0 0 0 0 0 0 0 0 0 0 0 0.25 0"/>
<feBlend mode="normal" in2="BackgroundImageFix" result="effect1_dropShadow"/>
<feBlend mode="normal" in="SourceGraphic" in2="effect1_dropShadow" result="shape"/>
</filter>
<filter id="filter4_d" x="850" y="246" width="58" height="46.0612" filterUnits="userSpaceOnUse" color-interpolation-filters="sRGB">
<feFlood flood-opacity="0" result="BackgroundImageFix"/>
<feColorMatrix in="SourceAlpha" type="matrix" values="0 0 0 0 0 0 0 0 0 0 0 0 0 0 0 0 0 0 127 0"/>
<feOffset dy="4"/>
<feGaussianBlur stdDeviation="2"/>
<feColorMatrix type="matrix" values="0 0 0 0 0 0 0 0 0 0 0 0 0 0 0 0 0 0 0.25 0"/>
<feBlend mode="normal" in2="BackgroundImageFix" result="effect1_dropShadow"/>
<feBlend mode="normal" in="SourceGraphic" in2="effect1_dropShadow" result="shape"/>
</filter>
<filter id="filter5_d" x="851" y="686" width="58" height="46.0612" filterUnits="userSpaceOnUse" color-interpolation-filters="sRGB">
<feFlood flood-opacity="0" result="BackgroundImageFix"/>
<feColorMatrix in="SourceAlpha" type="matrix" values="0 0 0 0 0 0 0 0 0 0 0 0 0 0 0 0 0 0 127 0"/>
<feOffset dy="4"/>
<feGaussianBlur stdDeviation="2"/>
<feColorMatrix type="matrix" values="0 0 0 0 0 0 0 0 0 0 0 0 0 0 0 0 0 0 0.25 0"/>
<feBlend mode="normal" in2="BackgroundImageFix" result="effect1_dropShadow"/>
<feBlend mode="normal" in="SourceGraphic" in2="effect1_dropShadow" result="shape"/>
</filter>
<filter id="filter6_d" x="938" y="246" width="58" height="126" filterUnits="userSpaceOnUse" color-interpolation-filters="sRGB">
<feFlood flood-opacity="0" result="BackgroundImageFix"/>
<feColorMatrix in="SourceAlpha" type="matrix" values="0 0 0 0 0 0 0 0 0 0 0 0 0 0 0 0 0 0 127 0"/>
<feOffset dy="4"/>
<feGaussianBlur stdDeviation="2"/>
<feColorMatrix type="matrix" values="0 0 0 0 0 0 0 0 0 0 0 0 0 0 0 0 0 0 0.25 0"/>
<feBlend mode="normal" in2="BackgroundImageFix" result="effect1_dropShadow"/>
<feBlend mode="normal" in="SourceGraphic" in2="effect1_dropShadow" result="shape"/>
</filter>
<filter id="filter7_d" x="943" y="606" width="58" height="126" filterUnits="userSpaceOnUse" color-interpolation-filters="sRGB">
<feFlood flood-opacity="0" result="BackgroundImageFix"/>
<feColorMatrix in="SourceAlpha" type="matrix" values="0 0 0 0 0 0 0 0 0 0 0 0 0 0 0 0 0 0 127 0"/>
<feOffset dy="4"/>
<feGaussianBlur stdDeviation="2"/>
<feColorMatrix type="matrix" values="0 0 0 0 0 0 0 0 0 0 0 0 0 0 0 0 0 0 0.25 0"/>
<feBlend mode="normal" in2="BackgroundImageFix" result="effect1_dropShadow"/>
<feBlend mode="normal" in="SourceGraphic" in2="effect1_dropShadow" result="shape"/>
</filter>
<filter id="filter8_d" x="1026" y="246" width="58" height="90.5059" filterUnits="userSpaceOnUse" color-interpolation-filters="sRGB">
<feFlood flood-opacity="0" result="BackgroundImageFix"/>
<feColorMatrix in="SourceAlpha" type="matrix" values="0 0 0 0 0 0 0 0 0 0 0 0 0 0 0 0 0 0 127 0"/>
<feOffset dy="4"/>
<feGaussianBlur stdDeviation="2"/>
<feColorMatrix type="matrix" values="0 0 0 0 0 0 0 0 0 0 0 0 0 0 0 0 0 0 0.25 0"/>
<feBlend mode="normal" in2="BackgroundImageFix" result="effect1_dropShadow"/>
<feBlend mode="normal" in="SourceGraphic" in2="effect1_dropShadow" result="shape"/>
</filter>
<filter id="filter9_d" x="1026" y="641" width="58" height="90.5059" filterUnits="userSpaceOnUse" color-interpolation-filters="sRGB">
<feFlood flood-opacity="0" result="BackgroundImageFix"/>
<feColorMatrix in="SourceAlpha" type="matrix" values="0 0 0 0 0 0 0 0 0 0 0 0 0 0 0 0 0 0 127 0"/>
<feOffset dy="4"/>
<feGaussianBlur stdDeviation="2"/>
<feColorMatrix type="matrix" values="0 0 0 0 0 0 0 0 0 0 0 0 0 0 0 0 0 0 0.25 0"/>
<feBlend mode="normal" in2="BackgroundImageFix" result="effect1_dropShadow"/>
<feBlend mode="normal" in="SourceGraphic" in2="effect1_dropShadow" result="shape"/>
</filter>
<filter id="filter10_d" x="1113" y="247" width="58" height="65" filterUnits="userSpaceOnUse" color-interpolation-filters="sRGB">
<feFlood flood-opacity="0" result="BackgroundImageFix"/>
<feColorMatrix in="SourceAlpha" type="matrix" values="0 0 0 0 0 0 0 0 0 0 0 0 0 0 0 0 0 0 127 0"/>
<feOffset dy="4"/>
<feGaussianBlur stdDeviation="2"/>
<feColorMatrix type="matrix" values="0 0 0 0 0 0 0 0 0 0 0 0 0 0 0 0 0 0 0.25 0"/>
<feBlend mode="normal" in2="BackgroundImageFix" result="effect1_dropShadow"/>
<feBlend mode="normal" in="SourceGraphic" in2="effect1_dropShadow" result="shape"/>
</filter>
<filter id="filter11_d" x="1113" y="666" width="58" height="65" filterUnits="userSpaceOnUse" color-interpolation-filters="sRGB">
<feFlood flood-opacity="0" result="BackgroundImageFix"/>
<feColorMatrix in="SourceAlpha" type="matrix" values="0 0 0 0 0 0 0 0 0 0 0 0 0 0 0 0 0 0 127 0"/>
<feOffset dy="4"/>
<feGaussianBlur stdDeviation="2"/>
<feColorMatrix type="matrix" values="0 0 0 0 0 0 0 0 0 0 0 0 0 0 0 0 0 0 0.25 0"/>
<feBlend mode="normal" in2="BackgroundImageFix" result="effect1_dropShadow"/>
<feBlend mode="normal" in="SourceGraphic" in2="effect1_dropShadow" result="shape"/>
</filter>
<filter id="filter12_d" x="376" y="488" width="58" height="58" filterUnits="userSpaceOnUse" color-interpolation-filters="sRGB">
<feFlood flood-opacity="0" result="BackgroundImageFix"/>
<feColorMatrix in="SourceAlpha" type="matrix" values="0 0 0 0 0 0 0 0 0 0 0 0 0 0 0 0 0 0 127 0"/>
<feOffset dy="4"/>
<feGaussianBlur stdDeviation="2"/>
<feColorMatrix type="matrix" values="0 0 0 0 0 0 0 0 0 0 0 0 0 0 0 0 0 0 0.25 0"/>
<feBlend mode="normal" in2="BackgroundImageFix" result="effect1_dropShadow"/>
<feBlend mode="normal" in="SourceGraphic" in2="effect1_dropShadow" result="shape"/>
</filter>
<filter id="filter13_d" x="637" y="492" width="58" height="58" filterUnits="userSpaceOnUse" color-interpolation-filters="sRGB">
<feFlood flood-opacity="0" result="BackgroundImageFix"/>
<feColorMatrix in="SourceAlpha" type="matrix" values="0 0 0 0 0 0 0 0 0 0 0 0 0 0 0 0 0 0 127 0"/>
<feOffset dy="4"/>
<feGaussianBlur stdDeviation="2"/>
<feColorMatrix type="matrix" values="0 0 0 0 0 0 0 0 0 0 0 0 0 0 0 0 0 0 0.25 0"/>
<feBlend mode="normal" in2="BackgroundImageFix" result="effect1_dropShadow"/>
<feBlend mode="normal" in="SourceGraphic" in2="effect1_dropShadow" result="shape"/>
</filter>
<filter id="filter14_d" x="463" y="489" width="58" height="58" filterUnits="userSpaceOnUse" color-interpolation-filters="sRGB">
<feFlood flood-opacity="0" result="BackgroundImageFix"/>
<feColorMatrix in="SourceAlpha" type="matrix" values="0 0 0 0 0 0 0 0 0 0 0 0 0 0 0 0 0 0 127 0"/>
<feOffset dy="4"/>
<feGaussianBlur stdDeviation="2"/>
<feColorMatrix type="matrix" values="0 0 0 0 0 0 0 0 0 0 0 0 0 0 0 0 0 0 0.25 0"/>
<feBlend mode="normal" in2="BackgroundImageFix" result="effect1_dropShadow"/>
<feBlend mode="normal" in="SourceGraphic" in2="effect1_dropShadow" result="shape"/>
</filter>
<filter id="filter15_d" x="550" y="492" width="58" height="58" filterUnits="userSpaceOnUse" color-interpolation-filters="sRGB">
<feFlood flood-opacity="0" result="BackgroundImageFix"/>
<feColorMatrix in="SourceAlpha" type="matrix" values="0 0 0 0 0 0 0 0 0 0 0 0 0 0 0 0 0 0 127 0"/>
<feOffset dy="4"/>
<feGaussianBlur stdDeviation="2"/>
<feColorMatrix type="matrix" values="0 0 0 0 0 0 0 0 0 0 0 0 0 0 0 0 0 0 0.25 0"/>
<feBlend mode="normal" in2="BackgroundImageFix" result="effect1_dropShadow"/>
<feBlend mode="normal" in="SourceGraphic" in2="effect1_dropShadow" result="shape"/>
</filter>
</defs>
</svg>
