<svg width="763" height="606" viewBox="0 0 763 606" fill="none" xmlns="http://www.w3.org/2000/svg">
<rect width="763" height="606" fill="white"/>
<path d="M624 242.085C625.228 240.513 630.819 232.878 630.872 234.144C630.942 235.82 629.645 242.927 632.857 242.009C634.718 241.477 641.552 229.743 641.868 238.267C641.961 240.793 642.383 250.154 645.38 245.445C647.262 242.487 650.114 232.547 650.114 236.053C650.114 238.606 654.143 251.8 657.292 248.652C660.128 245.816 662.139 242.457 664.164 239.031C664.468 238.517 667.7 232.532 667.905 233.457C668.347 235.446 669.842 250.963 671.036 251.095C676.166 251.665 675.954 234.684 679.282 233.686C679.886 233.505 680.779 245.949 682.566 243.765C685.742 239.883 686.71 234.557 689.133 230.25C689.702 229.237 693.082 241.731 693.485 243.612C696.235 256.445 698.043 241.504 699.517 235.977C702.798 223.672 700.986 233.335 703.03 238.649C703.614 240.17 703.237 242.827 704.404 243.994C705.113 244.703 707.751 233.097 708.909 237.962C709.369 239.894 710.393 254.302 711.276 254.302C714.188 254.302 717.115 242.785 717.461 240.711" stroke="#93227E" stroke-width="16" stroke-linecap="round" stroke-linejoin="round"/>
<path d="M35.968 249.143C36.9235 247.393 41.1969 238.948 41.4552 240.189C41.797 241.831 41.6746 249.054 44.6947 247.626C46.444 246.798 51.2756 234.108 52.9753 242.467C53.479 244.944 55.4197 254.111 57.6097 248.977C58.9851 245.752 60.1803 235.48 60.7512 238.939C61.167 241.458 67.2908 253.82 69.8846 250.201C72.221 246.941 73.6587 243.3 75.0983 239.589C75.3143 239.033 77.5288 232.601 77.8822 233.48C78.6424 235.371 82.6439 250.437 83.8433 250.374C88.9976 250.101 86.0229 233.381 89.1448 231.854C89.7106 231.577 92.6184 243.709 94.0256 241.264C96.5269 236.917 96.6146 231.504 98.3038 226.86C98.7011 225.767 104.07 237.545 104.774 239.335C109.577 251.549 108.928 236.512 109.482 230.819C110.716 218.144 110.501 227.973 113.383 232.884C114.208 234.289 114.268 236.972 115.61 237.933C116.425 238.518 117.137 226.637 119.072 231.248C119.841 233.079 123.197 247.129 124.069 246.985C126.941 246.511 127.954 234.671 127.958 232.568" stroke="#93227E" stroke-width="16" stroke-linecap="round" stroke-linejoin="round"/>
<path d="M156.968 249.143C157.924 247.393 162.197 238.948 162.455 240.189C162.797 241.831 162.675 249.054 165.695 247.626C167.444 246.798 172.276 234.108 173.975 242.467C174.479 244.944 176.42 254.111 178.61 248.977C179.985 245.752 181.18 235.48 181.751 238.939C182.167 241.458 188.291 253.82 190.885 250.201C193.221 246.941 194.659 243.3 196.098 239.589C196.314 239.033 198.529 232.601 198.882 233.48C199.642 235.371 203.644 250.437 204.843 250.374C209.998 250.101 207.023 233.381 210.145 231.854C210.711 231.577 213.618 243.709 215.026 241.264C217.527 236.917 217.615 231.504 219.304 226.86C219.701 225.767 225.07 237.545 225.774 239.335C230.577 251.549 229.928 236.512 230.482 230.819C231.716 218.144 231.501 227.973 234.383 232.884C235.208 234.289 235.268 236.972 236.61 237.933C237.425 238.518 238.137 226.637 240.072 231.248C240.841 233.079 244.197 247.129 245.069 246.985C247.941 246.511 248.954 234.671 248.958 232.568" stroke="#93227E" stroke-width="16" stroke-linecap="round" stroke-linejoin="round"/>
<path d="M723.607 142.634C725.001 144.061 731.82 150.624 730.558 150.506C728.888 150.352 722.019 148.116 722.499 151.422C722.776 153.337 733.491 161.679 725.001 160.852C722.485 160.606 713.152 159.773 717.418 163.373C720.098 165.633 729.567 169.789 726.093 169.32C723.562 168.979 709.948 171.207 712.647 174.748C715.078 177.938 718.138 180.381 721.263 182.845C721.731 183.215 727.23 187.219 726.286 187.299C724.255 187.471 708.679 186.877 708.387 188.042C707.136 193.05 723.993 195.111 724.537 198.543C724.636 199.165 712.185 198.386 714.11 200.449C717.532 204.115 722.68 205.787 726.625 208.764C727.553 209.465 714.719 211.142 712.801 211.29C699.715 212.299 714.281 216.09 719.561 218.29C731.316 223.187 721.982 220.098 716.443 221.413C714.857 221.789 712.274 221.06 710.962 222.06C710.164 222.668 721.313 226.834 716.337 227.332C714.361 227.529 699.945 226.617 699.827 227.492C699.438 230.377 710.46 234.819 712.469 235.439" stroke="#93227E" stroke-width="16" stroke-linecap="round" stroke-linejoin="round"/>
<rect x="25.5" y="133.5" width="701" height="116" rx="7.5" fill="#93227E" stroke="black" stroke-width="5"/>
<path d="M34 237C37.133 233.433 38.1394 229.765 38.1394 225.966C38.1394 223.277 36.8752 219.85 39.2126 217.383C42.4331 213.985 34 206.63 39.5192 203.42C39.5192 199.799 34 192.556 39.5192 192.556C39.5192 188.302 34 186.688 34 182.344C34 179.619 41.4004 172.422 38.8293 169.909C34.9793 166.145 38.1394 159.973 38.1394 155.775C38.1394 152.029 34.9556 147.956 36.8363 144.196C37.4675 142.934 96.1666 144.196 102.158 144.196C168.606 144.196 203.784 141.505 268.635 144.196C281.651 144.196 309.882 144.196 309.882 144.196C343.177 144.196 351.507 144.196 372 144.196C408.812 144.196 448.57 144.196 485.304 144.196C538.682 144.196 602.583 144.196 602.583 144.196C609.531 144.196 652.278 144.196 652.278 144.196L685.878 144.741C690.838 143.739 696.762 144.853 701.822 145.013C707.642 145.198 711.576 144.434 717 144.434" stroke="#721861" stroke-width="17" stroke-linecap="round" stroke-linejoin="round"/>
<g filter="url(#filter0_d)">
<rect x="68" y="167" width="50" height="50" fill="#ED8B00"/>
<rect x="69" y="168" width="48" height="48" stroke="black" stroke-width="2"/>
</g>
<path d="M74 174C72.272 185.839 73.3081 198.93 73.3081 211" stroke="#FFB200" stroke-width="7" stroke-linecap="round" stroke-linejoin="round"/>
<path d="M74 173C86.6773 173 99.5225 172 112 172" stroke="#FFB200" stroke-width="7" stroke-linecap="round" stroke-linejoin="round"/>
<g filter="url(#filter1_d)">
<rect x="320" y="168" width="50" height="50" fill="#DB5B93"/>
<rect x="321" y="169" width="48" height="48" stroke="black" stroke-width="2"/>
</g>
<path d="M326 175C324.272 186.839 325.308 199.93 325.308 212" stroke="#F187B6" stroke-width="7" stroke-linecap="round" stroke-linejoin="round"/>
<path d="M326 174C338.677 174 351.523 173 364 173" stroke="#F187B6" stroke-width="7" stroke-linecap="round" stroke-linejoin="round"/>
<g filter="url(#filter2_d)">
<rect x="150" y="168" width="50" height="50" fill="#008744"/>
<rect x="151" y="169" width="48" height="48" stroke="black" stroke-width="2"/>
</g>
<path d="M156 175C154.272 186.839 155.308 199.93 155.308 212" stroke="#229F61" stroke-width="7" stroke-linecap="round" stroke-linejoin="round"/>
<path d="M156 174C168.677 174 181.523 173 194 173" stroke="#229F61" stroke-width="7" stroke-linecap="round" stroke-linejoin="round"/>
<g filter="url(#filter3_d)">
<rect x="232" y="168" width="50" height="50" fill="#0761B4"/>
<rect x="233" y="169" width="48" height="48" stroke="black" stroke-width="2"/>
</g>
<path d="M238 175C236.272 186.839 237.308 199.93 237.308 212" stroke="#0084FF" stroke-width="7" stroke-linecap="round" stroke-linejoin="round"/>
<path d="M238 174C250.677 174 263.523 173 276 173" stroke="#0084FF" stroke-width="7" stroke-linecap="round" stroke-linejoin="round"/>
<path d="M73.4977 250C76.0627 253.386 86.3268 262.37 78.3082 262.37C74.6561 262.37 69.5455 267.525 68 270.616" stroke="white" stroke-width="2" stroke-linecap="round" stroke-linejoin="round"/>
<path d="M27.068 92.34C28.772 90.732 30.86 89.928 33.332 89.928C35.804 89.928 37.892 90.732 39.596 92.34C41.3 93.948 42.152 96.216 42.152 99.144C42.152 102.072 41.3 104.328 39.596 105.912C37.892 107.496 35.804 108.288 33.332 108.288C30.86 108.288 28.772 107.496 27.068 105.912C25.364 104.328 24.512 102.072 24.512 99.144C24.512 96.216 25.364 93.948 27.068 92.34ZM37.472 94.176C36.416 93 35.036 92.412 33.332 92.412C31.628 92.412 30.236 93 29.156 94.176C28.1 95.328 27.572 96.984 27.572 99.144C27.572 101.28 28.1 102.936 29.156 104.112C30.236 105.264 31.628 105.84 33.332 105.84C35.036 105.84 36.416 105.264 37.472 104.112C38.552 102.936 39.092 101.28 39.092 99.144C39.092 96.984 38.552 95.328 37.472 94.176ZM47.6679 90.252H47.8839C48.7959 90.252 49.2519 90.696 49.2519 91.584V93.528C49.6599 92.616 50.3079 91.8 51.1959 91.08C52.1079 90.36 53.0799 90 54.1119 90C55.1439 90 55.9239 90.204 56.4519 90.612C57.0039 91.02 57.2799 91.524 57.2799 92.124C57.2799 92.7 57.0279 93.156 56.5239 93.492C55.7799 92.868 54.9879 92.556 54.1479 92.556C52.6599 92.556 51.4839 93.168 50.6199 94.392C49.7559 95.592 49.3239 97.104 49.3239 98.928V106.632C49.3239 107.112 49.2159 107.46 48.9999 107.676C48.7839 107.892 48.4359 108 47.9559 108H47.6679C47.1879 108 46.8399 107.892 46.6239 107.676C46.4079 107.46 46.2999 107.112 46.2999 106.632V91.584C46.2999 90.696 46.7559 90.252 47.6679 90.252ZM74.4249 82.044H74.7129C75.6249 82.044 76.0809 82.476 76.0809 83.34V106.704C76.0809 107.568 75.6249 108 74.7129 108H74.4249C73.5129 108 73.0569 107.592 73.0569 106.776V105.012C72.5289 105.948 71.7729 106.728 70.7889 107.352C69.8049 107.952 68.6889 108.252 67.4409 108.252C65.3049 108.252 63.5409 107.52 62.1489 106.056C60.7569 104.592 60.0609 102.348 60.0609 99.324C60.0609 96.276 60.8289 93.948 62.3649 92.34C63.9009 90.708 65.8569 89.892 68.2329 89.892C70.1049 89.892 71.7129 90.444 73.0569 91.548V83.34C73.0569 82.476 73.5129 82.044 74.4249 82.044ZM73.0569 94.5C71.7849 93.18 70.2609 92.52 68.4849 92.52C66.7089 92.52 65.3529 93.096 64.4169 94.248C63.4809 95.376 63.0129 97.08 63.0129 99.36C63.0129 101.64 63.4929 103.284 64.4529 104.292C65.4129 105.3 66.6849 105.804 68.2689 105.804C69.8769 105.804 71.0769 105.204 71.8689 104.004C72.6609 102.804 73.0569 101.316 73.0569 99.54V94.5ZM80.3401 99.18C80.3401 96.18 81.1801 93.888 82.8601 92.304C84.5401 90.72 86.4721 89.928 88.6561 89.928C90.8401 89.928 92.5681 90.492 93.8401 91.62C95.1121 92.724 95.7481 94.104 95.7481 95.76C95.7481 97.416 95.0881 98.712 93.7681 99.648C92.4721 100.56 90.7921 101.016 88.7281 101.016C86.6641 101.016 84.8041 100.692 83.1481 100.044C83.1481 101.796 83.7481 103.212 84.9481 104.292C86.1481 105.348 87.6121 105.876 89.3401 105.876C92.0281 105.876 93.7081 105.048 94.3801 103.392C94.7881 103.392 95.1361 103.512 95.4241 103.752C95.7121 103.968 95.8561 104.292 95.8561 104.724C95.8561 105.564 95.2321 106.368 93.9841 107.136C92.7601 107.904 91.2001 108.288 89.3041 108.288C86.7601 108.288 84.6241 107.52 82.8961 105.984C81.1921 104.448 80.3401 102.18 80.3401 99.18ZM93.0121 95.652C93.0121 94.716 92.6041 93.924 91.7881 93.276C90.9961 92.628 89.8921 92.304 88.4761 92.304C87.0841 92.304 85.8601 92.868 84.8041 93.996C83.7481 95.124 83.2081 96.396 83.1841 97.812C84.9121 98.388 86.6281 98.676 88.3321 98.676C91.4521 98.676 93.0121 97.668 93.0121 95.652ZM101.351 90.252H101.567C102.479 90.252 102.935 90.696 102.935 91.584V93.528C103.343 92.616 103.991 91.8 104.879 91.08C105.791 90.36 106.763 90 107.795 90C108.827 90 109.607 90.204 110.135 90.612C110.687 91.02 110.963 91.524 110.963 92.124C110.963 92.7 110.711 93.156 110.207 93.492C109.463 92.868 108.671 92.556 107.831 92.556C106.343 92.556 105.167 93.168 104.303 94.392C103.439 95.592 103.007 97.104 103.007 98.928V106.632C103.007 107.112 102.899 107.46 102.683 107.676C102.467 107.892 102.119 108 101.639 108H101.351C100.871 108 100.523 107.892 100.307 107.676C100.091 107.46 99.9835 107.112 99.9835 106.632V91.584C99.9835 90.696 100.439 90.252 101.351 90.252Z" fill="black"/>
<path d="M88.82 187.04C89.9 185.84 91.2667 185.24 92.92 185.24C94.5733 185.24 95.9333 185.84 97 187.04C98.0667 188.227 98.6 189.933 98.6 192.16C98.6 194.373 98.06 196.093 96.98 197.32C95.9133 198.547 94.56 199.16 92.92 199.16C91.28 199.16 89.9133 198.547 88.82 197.32C87.74 196.093 87.2 194.373 87.2 192.16C87.2 189.947 87.74 188.24 88.82 187.04ZM96.72 192.22C96.72 190.513 96.3533 189.187 95.62 188.24C94.9 187.28 93.9933 186.8 92.9 186.8C91.8067 186.8 90.9 187.28 90.18 188.24C89.4733 189.187 89.12 190.513 89.12 192.22C89.12 193.913 89.4533 195.24 90.12 196.2C90.7867 197.147 91.7133 197.62 92.9 197.62C94.1 197.62 95.0333 197.147 95.7 196.2C96.38 195.24 96.72 193.913 96.72 192.22Z" fill="black"/>
<path d="M170.82 188.04C171.9 186.84 173.267 186.24 174.92 186.24C176.573 186.24 177.933 186.84 179 188.04C180.067 189.227 180.6 190.933 180.6 193.16C180.6 195.373 180.06 197.093 178.98 198.32C177.913 199.547 176.56 200.16 174.92 200.16C173.28 200.16 171.913 199.547 170.82 198.32C169.74 197.093 169.2 195.373 169.2 193.16C169.2 190.947 169.74 189.24 170.82 188.04ZM178.72 193.22C178.72 191.513 178.353 190.187 177.62 189.24C176.9 188.28 175.993 187.8 174.9 187.8C173.807 187.8 172.9 188.28 172.18 189.24C171.473 190.187 171.12 191.513 171.12 193.22C171.12 194.913 171.453 196.24 172.12 197.2C172.787 198.147 173.713 198.62 174.9 198.62C176.1 198.62 177.033 198.147 177.7 197.2C178.38 196.24 178.72 194.913 178.72 193.22Z" fill="black"/>
<path d="M255.82 187.04C256.9 185.84 258.267 185.24 259.92 185.24C261.573 185.24 262.933 185.84 264 187.04C265.067 188.227 265.6 189.933 265.6 192.16C265.6 194.373 265.06 196.093 263.98 197.32C262.913 198.547 261.56 199.16 259.92 199.16C258.28 199.16 256.913 198.547 255.82 197.32C254.74 196.093 254.2 194.373 254.2 192.16C254.2 189.947 254.74 188.24 255.82 187.04ZM263.72 192.22C263.72 190.513 263.353 189.187 262.62 188.24C261.9 187.28 260.993 186.8 259.9 186.8C258.807 186.8 257.9 187.28 257.18 188.24C256.473 189.187 256.12 190.513 256.12 192.22C256.12 193.913 256.453 195.24 257.12 196.2C257.787 197.147 258.713 197.62 259.9 197.62C261.1 197.62 262.033 197.147 262.7 196.2C263.38 195.24 263.72 193.913 263.72 192.22Z" fill="black"/>
<path d="M340.82 188.04C341.9 186.84 343.267 186.24 344.92 186.24C346.573 186.24 347.933 186.84 349 188.04C350.067 189.227 350.6 190.933 350.6 193.16C350.6 195.373 350.06 197.093 348.98 198.32C347.913 199.547 346.56 200.16 344.92 200.16C343.28 200.16 341.913 199.547 340.82 198.32C339.74 197.093 339.2 195.373 339.2 193.16C339.2 190.947 339.74 189.24 340.82 188.04ZM348.72 193.22C348.72 191.513 348.353 190.187 347.62 189.24C346.9 188.28 345.993 187.8 344.9 187.8C343.807 187.8 342.9 188.28 342.18 189.24C341.473 190.187 341.12 191.513 341.12 193.22C341.12 194.913 341.453 196.24 342.12 197.2C342.787 198.147 343.713 198.62 344.9 198.62C346.1 198.62 347.033 198.147 347.7 197.2C348.38 196.24 348.72 194.913 348.72 193.22Z" fill="black"/>
<path d="M624 447.085C625.228 445.513 630.819 437.878 630.872 439.144C630.942 440.82 629.645 447.927 632.857 447.009C634.718 446.477 641.552 434.743 641.868 443.267C641.961 445.793 642.383 455.154 645.38 450.445C647.262 447.487 650.114 437.547 650.114 441.053C650.114 443.606 654.143 456.8 657.292 453.652C660.128 450.816 662.139 447.457 664.164 444.031C664.468 443.517 667.7 437.532 667.905 438.457C668.347 440.446 669.842 455.963 671.036 456.095C676.166 456.665 675.954 439.684 679.282 438.686C679.886 438.505 680.779 450.949 682.566 448.765C685.742 444.883 686.71 439.557 689.133 435.25C689.702 434.237 693.082 446.731 693.485 448.612C696.235 461.445 698.043 446.504 699.517 440.977C702.798 428.672 700.986 438.335 703.03 443.649C703.614 445.17 703.237 447.827 704.404 448.994C705.113 449.703 707.751 438.097 708.909 442.962C709.369 444.894 710.393 459.302 711.276 459.302C714.188 459.302 717.115 447.785 717.461 445.711" stroke="#93227E" stroke-width="16" stroke-linecap="round" stroke-linejoin="round"/>
<path d="M35.968 454.143C36.9235 452.393 41.1969 443.948 41.4552 445.189C41.797 446.831 41.6746 454.054 44.6947 452.626C46.444 451.798 51.2756 439.108 52.9753 447.467C53.479 449.944 55.4197 459.111 57.6097 453.977C58.9851 450.752 60.1803 440.48 60.7512 443.939C61.167 446.458 67.2908 458.82 69.8846 455.201C72.221 451.941 73.6587 448.3 75.0983 444.589C75.3143 444.033 77.5288 437.601 77.8822 438.48C78.6424 440.371 82.6439 455.437 83.8433 455.374C88.9976 455.101 86.0229 438.381 89.1448 436.854C89.7106 436.577 92.6184 448.709 94.0256 446.264C96.5269 441.917 96.6146 436.504 98.3038 431.86C98.7011 430.767 104.07 442.545 104.774 444.335C109.577 456.549 108.928 441.512 109.482 435.819C110.716 423.144 110.501 432.973 113.383 437.884C114.208 439.289 114.268 441.972 115.61 442.933C116.425 443.518 117.137 431.637 119.072 436.248C119.841 438.079 123.197 452.129 124.069 451.985C126.941 451.511 127.954 439.671 127.958 437.568" stroke="#93227E" stroke-width="16" stroke-linecap="round" stroke-linejoin="round"/>
<path d="M156.968 454.143C157.924 452.393 162.197 443.948 162.455 445.189C162.797 446.831 162.675 454.054 165.695 452.626C167.444 451.798 172.276 439.108 173.975 447.467C174.479 449.944 176.42 459.111 178.61 453.977C179.985 450.752 181.18 440.48 181.751 443.939C182.167 446.458 188.291 458.82 190.885 455.201C193.221 451.941 194.659 448.3 196.098 444.589C196.314 444.033 198.529 437.601 198.882 438.48C199.642 440.371 203.644 455.437 204.843 455.374C209.998 455.101 207.023 438.381 210.145 436.854C210.711 436.577 213.618 448.709 215.026 446.264C217.527 441.917 217.615 436.504 219.304 431.86C219.701 430.767 225.07 442.545 225.774 444.335C230.577 456.549 229.928 441.512 230.482 435.819C231.716 423.144 231.501 432.973 234.383 437.884C235.208 439.289 235.268 441.972 236.61 442.933C237.425 443.518 238.137 431.637 240.072 436.248C240.841 438.079 244.197 452.129 245.069 451.985C247.941 451.511 248.954 439.671 248.958 437.568" stroke="#93227E" stroke-width="16" stroke-linecap="round" stroke-linejoin="round"/>
<path d="M723.607 347.634C725.001 349.061 731.82 355.624 730.558 355.506C728.888 355.352 722.019 353.116 722.499 356.422C722.776 358.337 733.491 366.679 725.001 365.852C722.485 365.606 713.152 364.773 717.418 368.373C720.098 370.633 729.567 374.789 726.093 374.32C723.562 373.979 709.948 376.207 712.647 379.748C715.078 382.938 718.138 385.381 721.263 387.845C721.731 388.215 727.23 392.219 726.286 392.299C724.255 392.471 708.679 391.877 708.387 393.042C707.136 398.05 723.993 400.111 724.537 403.543C724.636 404.165 712.185 403.386 714.11 405.449C717.532 409.115 722.68 410.787 726.625 413.764C727.553 414.465 714.719 416.142 712.801 416.29C699.715 417.299 714.281 421.09 719.561 423.29C731.316 428.187 721.982 425.098 716.443 426.413C714.857 426.789 712.274 426.06 710.962 427.06C710.164 427.668 721.313 431.834 716.337 432.332C714.361 432.529 699.945 431.617 699.827 432.492C699.438 435.377 710.46 439.819 712.469 440.439" stroke="#93227E" stroke-width="16" stroke-linecap="round" stroke-linejoin="round"/>
<rect x="25.5" y="338.5" width="701" height="116" rx="7.5" fill="#93227E" stroke="black" stroke-width="5"/>
<path d="M34 442C37.133 438.433 38.1394 434.765 38.1394 430.966C38.1394 428.277 36.8752 424.85 39.2126 422.383C42.4331 418.985 34 411.63 39.5192 408.42C39.5192 404.799 34 397.556 39.5192 397.556C39.5192 393.302 34 391.688 34 387.344C34 384.619 41.4004 377.422 38.8293 374.909C34.9793 371.145 38.1394 364.973 38.1394 360.775C38.1394 357.029 34.9556 352.956 36.8363 349.196C37.4675 347.934 96.1666 349.196 102.158 349.196C168.606 349.196 203.784 346.505 268.635 349.196C281.651 349.196 309.882 349.196 309.882 349.196C343.177 349.196 351.507 349.196 372 349.196C408.812 349.196 448.57 349.196 485.304 349.196C538.682 349.196 602.583 349.196 602.583 349.196C609.531 349.196 652.278 349.196 652.278 349.196L685.878 349.741C690.838 348.739 696.762 349.853 701.822 350.013C707.642 350.198 711.576 349.434 717 349.434" stroke="#721861" stroke-width="17" stroke-linecap="round" stroke-linejoin="round"/>
<g filter="url(#filter4_d)">
<rect x="235" y="374" width="50" height="50" fill="#ED8B00"/>
<rect x="236" y="375" width="48" height="48" stroke="black" stroke-width="2"/>
</g>
<path d="M241 381C239.272 392.839 240.308 405.93 240.308 418" stroke="#FFB200" stroke-width="7" stroke-linecap="round" stroke-linejoin="round"/>
<path d="M241 380C253.677 380 266.523 379 279 379" stroke="#FFB200" stroke-width="7" stroke-linecap="round" stroke-linejoin="round"/>
<g filter="url(#filter5_d)">
<rect x="320" y="373" width="50" height="50" fill="#DB5B93"/>
<rect x="321" y="374" width="48" height="48" stroke="black" stroke-width="2"/>
</g>
<path d="M326 380C324.272 391.839 325.308 404.93 325.308 417" stroke="#F187B6" stroke-width="7" stroke-linecap="round" stroke-linejoin="round"/>
<path d="M326 379C338.677 379 351.523 378 364 378" stroke="#F187B6" stroke-width="7" stroke-linecap="round" stroke-linejoin="round"/>
<g filter="url(#filter6_d)">
<rect x="150" y="373" width="50" height="50" fill="#008744"/>
<rect x="151" y="374" width="48" height="48" stroke="black" stroke-width="2"/>
</g>
<path d="M156 380C154.272 391.839 155.308 404.93 155.308 417" stroke="#229F61" stroke-width="7" stroke-linecap="round" stroke-linejoin="round"/>
<path d="M156 379C168.677 379 181.523 378 194 378" stroke="#229F61" stroke-width="7" stroke-linecap="round" stroke-linejoin="round"/>
<g filter="url(#filter7_d)">
<rect x="68" y="373" width="50" height="50" fill="#0761B4"/>
<rect x="69" y="374" width="48" height="48" stroke="black" stroke-width="2"/>
</g>
<path d="M74 380C72.272 391.839 73.3081 404.93 73.3081 417" stroke="#0084FF" stroke-width="7" stroke-linecap="round" stroke-linejoin="round"/>
<path d="M74 379C86.6773 379 99.5225 378 112 378" stroke="#0084FF" stroke-width="7" stroke-linecap="round" stroke-linejoin="round"/>
<path d="M73.4977 455C76.0627 458.386 86.3268 467.37 78.3082 467.37C74.6561 467.37 69.5455 472.525 68 475.616" stroke="white" stroke-width="2" stroke-linecap="round" stroke-linejoin="round"/>
<path d="M87.28 393.3C87.28 392.487 87.66 391.773 88.42 391.16C89.18 390.547 90.2267 390.24 91.56 390.24C92.8933 390.24 93.9267 390.593 94.66 391.3C95.3933 391.993 95.76 392.853 95.76 393.88C95.76 394.907 95.42 395.86 94.74 396.74C94.06 397.607 92.54 399.187 90.18 401.48C89.7267 401.92 89.38 402.26 89.14 402.5H95.24C95.8 402.5 96.08 402.753 96.08 403.26C96.08 403.753 95.8 404 95.24 404H87.82C87.2733 404 87 403.713 87 403.14C87 402.66 87.2133 402.26 87.64 401.94C90.28 399.433 92.02 397.693 92.86 396.72C93.7 395.733 94.12 394.88 94.12 394.16C94.12 393.427 93.8667 392.847 93.36 392.42C92.8667 391.98 92.18 391.76 91.3 391.76C90.4333 391.76 89.7533 392.027 89.26 392.56C88.7667 393.093 88.48 393.66 88.4 394.26C87.6533 394.26 87.28 393.94 87.28 393.3Z" fill="black"/>
<path d="M170.22 391.42H172.28C172.84 391.42 173.12 391.66 173.12 392.14V404.24C173.12 404.747 172.84 405 172.28 405H172.14C171.58 405 171.3 404.747 171.3 404.24V392.92H170.22C169.673 392.92 169.4 392.673 169.4 392.18C169.4 391.673 169.673 391.42 170.22 391.42Z" fill="black"/>
<path d="M255.82 392.04C256.9 390.84 258.267 390.24 259.92 390.24C261.573 390.24 262.933 390.84 264 392.04C265.067 393.227 265.6 394.933 265.6 397.16C265.6 399.373 265.06 401.093 263.98 402.32C262.913 403.547 261.56 404.16 259.92 404.16C258.28 404.16 256.913 403.547 255.82 402.32C254.74 401.093 254.2 399.373 254.2 397.16C254.2 394.947 254.74 393.24 255.82 392.04ZM263.72 397.22C263.72 395.513 263.353 394.187 262.62 393.24C261.9 392.28 260.993 391.8 259.9 391.8C258.807 391.8 257.9 392.28 257.18 393.24C256.473 394.187 256.12 395.513 256.12 397.22C256.12 398.913 256.453 400.24 257.12 401.2C257.787 402.147 258.713 402.62 259.9 402.62C261.1 402.62 262.033 402.147 262.7 401.2C263.38 400.24 263.72 398.913 263.72 397.22Z" fill="black"/>
<path d="M340.82 393.04C341.9 391.84 343.267 391.24 344.92 391.24C346.573 391.24 347.933 391.84 349 393.04C350.067 394.227 350.6 395.933 350.6 398.16C350.6 400.373 350.06 402.093 348.98 403.32C347.913 404.547 346.56 405.16 344.92 405.16C343.28 405.16 341.913 404.547 340.82 403.32C339.74 402.093 339.2 400.373 339.2 398.16C339.2 395.947 339.74 394.24 340.82 393.04ZM348.72 398.22C348.72 396.513 348.353 395.187 347.62 394.24C346.9 393.28 345.993 392.8 344.9 392.8C343.807 392.8 342.9 393.28 342.18 394.24C341.473 395.187 341.12 396.513 341.12 398.22C341.12 399.913 341.453 401.24 342.12 402.2C342.787 403.147 343.713 403.62 344.9 403.62C346.1 403.62 347.033 403.147 347.7 402.2C348.38 401.24 348.72 399.913 348.72 398.22Z" fill="black"/>
<defs>
<filter id="filter0_d" x="64" y="167" width="58" height="58" filterUnits="userSpaceOnUse" color-interpolation-filters="sRGB">
<feFlood flood-opacity="0" result="BackgroundImageFix"/>
<feColorMatrix in="SourceAlpha" type="matrix" values="0 0 0 0 0 0 0 0 0 0 0 0 0 0 0 0 0 0 127 0"/>
<feOffset dy="4"/>
<feGaussianBlur stdDeviation="2"/>
<feColorMatrix type="matrix" values="0 0 0 0 0 0 0 0 0 0 0 0 0 0 0 0 0 0 0.25 0"/>
<feBlend mode="normal" in2="BackgroundImageFix" result="effect1_dropShadow"/>
<feBlend mode="normal" in="SourceGraphic" in2="effect1_dropShadow" result="shape"/>
</filter>
<filter id="filter1_d" x="316" y="168" width="58" height="58" filterUnits="userSpaceOnUse" color-interpolation-filters="sRGB">
<feFlood flood-opacity="0" result="BackgroundImageFix"/>
<feColorMatrix in="SourceAlpha" type="matrix" values="0 0 0 0 0 0 0 0 0 0 0 0 0 0 0 0 0 0 127 0"/>
<feOffset dy="4"/>
<feGaussianBlur stdDeviation="2"/>
<feColorMatrix type="matrix" values="0 0 0 0 0 0 0 0 0 0 0 0 0 0 0 0 0 0 0.25 0"/>
<feBlend mode="normal" in2="BackgroundImageFix" result="effect1_dropShadow"/>
<feBlend mode="normal" in="SourceGraphic" in2="effect1_dropShadow" result="shape"/>
</filter>
<filter id="filter2_d" x="146" y="168" width="58" height="58" filterUnits="userSpaceOnUse" color-interpolation-filters="sRGB">
<feFlood flood-opacity="0" result="BackgroundImageFix"/>
<feColorMatrix in="SourceAlpha" type="matrix" values="0 0 0 0 0 0 0 0 0 0 0 0 0 0 0 0 0 0 127 0"/>
<feOffset dy="4"/>
<feGaussianBlur stdDeviation="2"/>
<feColorMatrix type="matrix" values="0 0 0 0 0 0 0 0 0 0 0 0 0 0 0 0 0 0 0.25 0"/>
<feBlend mode="normal" in2="BackgroundImageFix" result="effect1_dropShadow"/>
<feBlend mode="normal" in="SourceGraphic" in2="effect1_dropShadow" result="shape"/>
</filter>
<filter id="filter3_d" x="228" y="168" width="58" height="58" filterUnits="userSpaceOnUse" color-interpolation-filters="sRGB">
<feFlood flood-opacity="0" result="BackgroundImageFix"/>
<feColorMatrix in="SourceAlpha" type="matrix" values="0 0 0 0 0 0 0 0 0 0 0 0 0 0 0 0 0 0 127 0"/>
<feOffset dy="4"/>
<feGaussianBlur stdDeviation="2"/>
<feColorMatrix type="matrix" values="0 0 0 0 0 0 0 0 0 0 0 0 0 0 0 0 0 0 0.25 0"/>
<feBlend mode="normal" in2="BackgroundImageFix" result="effect1_dropShadow"/>
<feBlend mode="normal" in="SourceGraphic" in2="effect1_dropShadow" result="shape"/>
</filter>
<filter id="filter4_d" x="231" y="374" width="58" height="58" filterUnits="userSpaceOnUse" color-interpolation-filters="sRGB">
<feFlood flood-opacity="0" result="BackgroundImageFix"/>
<feColorMatrix in="SourceAlpha" type="matrix" values="0 0 0 0 0 0 0 0 0 0 0 0 0 0 0 0 0 0 127 0"/>
<feOffset dy="4"/>
<feGaussianBlur stdDeviation="2"/>
<feColorMatrix type="matrix" values="0 0 0 0 0 0 0 0 0 0 0 0 0 0 0 0 0 0 0.25 0"/>
<feBlend mode="normal" in2="BackgroundImageFix" result="effect1_dropShadow"/>
<feBlend mode="normal" in="SourceGraphic" in2="effect1_dropShadow" result="shape"/>
</filter>
<filter id="filter5_d" x="316" y="373" width="58" height="58" filterUnits="userSpaceOnUse" color-interpolation-filters="sRGB">
<feFlood flood-opacity="0" result="BackgroundImageFix"/>
<feColorMatrix in="SourceAlpha" type="matrix" values="0 0 0 0 0 0 0 0 0 0 0 0 0 0 0 0 0 0 127 0"/>
<feOffset dy="4"/>
<feGaussianBlur stdDeviation="2"/>
<feColorMatrix type="matrix" values="0 0 0 0 0 0 0 0 0 0 0 0 0 0 0 0 0 0 0.25 0"/>
<feBlend mode="normal" in2="BackgroundImageFix" result="effect1_dropShadow"/>
<feBlend mode="normal" in="SourceGraphic" in2="effect1_dropShadow" result="shape"/>
</filter>
<filter id="filter6_d" x="146" y="373" width="58" height="58" filterUnits="userSpaceOnUse" color-interpolation-filters="sRGB">
<feFlood flood-opacity="0" result="BackgroundImageFix"/>
<feColorMatrix in="SourceAlpha" type="matrix" values="0 0 0 0 0 0 0 0 0 0 0 0 0 0 0 0 0 0 127 0"/>
<feOffset dy="4"/>
<feGaussianBlur stdDeviation="2"/>
<feColorMatrix type="matrix" values="0 0 0 0 0 0 0 0 0 0 0 0 0 0 0 0 0 0 0.25 0"/>
<feBlend mode="normal" in2="BackgroundImageFix" result="effect1_dropShadow"/>
<feBlend mode="normal" in="SourceGraphic" in2="effect1_dropShadow" result="shape"/>
</filter>
<filter id="filter7_d" x="64" y="373" width="58" height="58" filterUnits="userSpaceOnUse" color-interpolation-filters="sRGB">
<feFlood flood-opacity="0" result="BackgroundImageFix"/>
<feColorMatrix in="SourceAlpha" type="matrix" values="0 0 0 0 0 0 0 0 0 0 0 0 0 0 0 0 0 0 127 0"/>
<feOffset dy="4"/>
<feGaussianBlur stdDeviation="2"/>
<feColorMatrix type="matrix" values="0 0 0 0 0 0 0 0 0 0 0 0 0 0 0 0 0 0 0.25 0"/>
<feBlend mode="normal" in2="BackgroundImageFix" result="effect1_dropShadow"/>
<feBlend mode="normal" in="SourceGraphic" in2="effect1_dropShadow" result="shape"/>
</filter>
</defs>
</svg>
