<svg width="865" height="457" viewBox="0 0 865 457" fill="none" xmlns="http://www.w3.org/2000/svg">
<rect width="865" height="457" fill="white"/>
<path d="M634 245.085C635.228 243.513 640.819 235.878 640.872 237.144C640.942 238.82 639.645 245.927 642.857 245.009C644.718 244.477 651.552 232.743 651.868 241.267C651.961 243.793 652.383 253.154 655.38 248.445C657.262 245.487 660.114 235.547 660.114 239.053C660.114 241.606 664.143 254.8 667.292 251.652C670.128 248.816 672.139 245.457 674.164 242.031C674.468 241.517 677.7 235.532 677.905 236.457C678.347 238.446 679.842 253.963 681.036 254.095C686.166 254.665 685.954 237.684 689.282 236.686C689.886 236.505 690.779 248.949 692.566 246.765C695.742 242.883 696.71 237.557 699.133 233.25C699.702 232.237 703.082 244.731 703.485 246.612C706.235 259.445 708.043 244.504 709.517 238.977C712.798 226.672 710.986 236.335 713.03 241.649C713.614 243.17 713.237 245.827 714.404 246.994C715.113 247.703 717.751 236.097 718.909 240.962C719.369 242.894 720.393 257.302 721.276 257.302C724.188 257.302 727.115 245.785 727.461 243.711" stroke="#93227E" stroke-width="16" stroke-linecap="round" stroke-linejoin="round"/>
<path d="M45.968 252.143C46.9235 250.393 51.1969 241.948 51.4552 243.189C51.797 244.831 51.6746 252.054 54.6947 250.626C56.444 249.798 61.2756 237.108 62.9753 245.467C63.479 247.944 65.4197 257.111 67.6097 251.977C68.9851 248.752 70.1803 238.48 70.7512 241.939C71.167 244.458 77.2908 256.82 79.8846 253.201C82.221 249.941 83.6587 246.3 85.0983 242.589C85.3143 242.033 87.5288 235.601 87.8822 236.48C88.6424 238.371 92.6439 253.437 93.8433 253.374C98.9976 253.101 96.0229 236.381 99.1448 234.854C99.7106 234.577 102.618 246.709 104.026 244.264C106.527 239.917 106.615 234.504 108.304 229.86C108.701 228.767 114.07 240.545 114.774 242.335C119.577 254.549 118.928 239.512 119.482 233.819C120.716 221.144 120.501 230.973 123.383 235.884C124.208 237.289 124.268 239.972 125.61 240.933C126.425 241.518 127.137 229.637 129.072 234.248C129.841 236.079 133.197 250.129 134.069 249.985C136.941 249.511 137.954 237.671 137.958 235.568" stroke="#93227E" stroke-width="16" stroke-linecap="round" stroke-linejoin="round"/>
<path d="M166.968 252.143C167.924 250.393 172.197 241.948 172.455 243.189C172.797 244.831 172.675 252.054 175.695 250.626C177.444 249.798 182.276 237.108 183.975 245.467C184.479 247.944 186.42 257.111 188.61 251.977C189.985 248.752 191.18 238.48 191.751 241.939C192.167 244.458 198.291 256.82 200.885 253.201C203.221 249.941 204.659 246.3 206.098 242.589C206.314 242.033 208.529 235.601 208.882 236.48C209.642 238.371 213.644 253.437 214.843 253.374C219.998 253.101 217.023 236.381 220.145 234.854C220.711 234.577 223.618 246.709 225.026 244.264C227.527 239.917 227.615 234.504 229.304 229.86C229.701 228.767 235.07 240.545 235.774 242.335C240.577 254.549 239.928 239.512 240.482 233.819C241.716 221.144 241.501 230.973 244.383 235.884C245.208 237.289 245.268 239.972 246.61 240.933C247.425 241.518 248.137 229.637 250.072 234.248C250.841 236.079 254.197 250.129 255.069 249.985C257.941 249.511 258.954 237.671 258.958 235.568" stroke="#93227E" stroke-width="16" stroke-linecap="round" stroke-linejoin="round"/>
<path d="M733.607 145.634C735.001 147.061 741.82 153.624 740.558 153.506C738.888 153.352 732.019 151.116 732.499 154.422C732.776 156.337 743.491 164.679 735.001 163.852C732.485 163.606 723.152 162.773 727.418 166.373C730.098 168.633 739.567 172.789 736.093 172.32C733.562 171.979 719.948 174.207 722.647 177.748C725.078 180.938 728.138 183.381 731.263 185.845C731.731 186.215 737.23 190.219 736.286 190.299C734.255 190.471 718.679 189.877 718.387 191.042C717.136 196.05 733.993 198.111 734.537 201.543C734.636 202.165 722.185 201.386 724.11 203.449C727.532 207.115 732.68 208.787 736.625 211.764C737.553 212.465 724.719 214.142 722.801 214.29C709.715 215.299 724.281 219.09 729.561 221.29C741.316 226.187 731.982 223.098 726.443 224.413C724.857 224.789 722.274 224.06 720.962 225.06C720.164 225.668 731.313 229.834 726.337 230.332C724.361 230.529 709.945 229.617 709.827 230.492C709.438 233.377 720.46 237.819 722.469 238.439" stroke="#93227E" stroke-width="16" stroke-linecap="round" stroke-linejoin="round"/>
<rect x="35.5" y="136.5" width="795" height="116" rx="7.5" fill="#93227E" stroke="black" stroke-width="5"/>
<path d="M44 240C47.5642 236.433 48.7091 232.765 48.7091 228.966C48.7091 226.277 47.2709 222.85 49.93 220.383C53.5938 216.985 44 209.63 50.2788 206.42C50.2788 202.799 44 195.556 50.2788 195.556C50.2788 191.302 44 189.688 44 185.344C44 182.619 52.4189 175.422 49.4939 172.909C45.1141 169.145 48.7091 162.973 48.7091 158.775C48.7091 155.029 45.0872 150.956 47.2266 147.196C47.9447 145.934 114.722 147.196 121.538 147.196C197.131 147.196 237.151 144.505 310.927 147.196C325.735 147.196 357.851 147.196 357.851 147.196C395.728 147.196 405.204 147.196 428.518 147.196C470.397 147.196 515.626 147.196 557.416 147.196C618.141 147.196 690.836 147.196 690.836 147.196C698.74 147.196 747.37 147.196 747.37 147.196L785.595 147.741C791.237 146.739 797.976 147.853 803.733 148.013C810.354 148.198 814.829 147.434 821 147.434" stroke="#721861" stroke-width="17" stroke-linecap="round" stroke-linejoin="round"/>
<g filter="url(#filter0_d)">
<rect x="135" y="173" width="50" height="50" fill="#ED8B00"/>
<rect x="136" y="174" width="48" height="48" stroke="black" stroke-width="2"/>
</g>
<path d="M141 180C139.272 191.839 140.308 204.93 140.308 217" stroke="#FFB200" stroke-width="7" stroke-linecap="round" stroke-linejoin="round"/>
<path d="M141 179C153.677 179 166.523 178 179 178" stroke="#FFB200" stroke-width="7" stroke-linecap="round" stroke-linejoin="round"/>
<g filter="url(#filter1_d)">
<rect x="185" y="173" width="50" height="50" fill="#DB5B93"/>
<rect x="186" y="174" width="48" height="48" stroke="black" stroke-width="2"/>
</g>
<path d="M191 180C189.272 191.839 190.308 204.93 190.308 217" stroke="#F187B6" stroke-width="7" stroke-linecap="round" stroke-linejoin="round"/>
<path d="M191 179C203.677 179 216.523 178 229 178" stroke="#F187B6" stroke-width="7" stroke-linecap="round" stroke-linejoin="round"/>
<g filter="url(#filter2_d)">
<rect x="92" y="367" width="700" height="50" fill="#FED631"/>
<rect x="93" y="368" width="698" height="48" stroke="black" stroke-width="2"/>
</g>
<g filter="url(#filter3_d)">
<rect x="85" y="173" width="50" height="50" fill="#008744"/>
<rect x="86" y="174" width="48" height="48" stroke="black" stroke-width="2"/>
</g>
<path d="M91 180C89.272 191.839 90.3081 204.93 90.3081 217" stroke="#229F61" stroke-width="7" stroke-linecap="round" stroke-linejoin="round"/>
<path d="M91.0001 179C103.677 179 116.523 178 129 178" stroke="#229F61" stroke-width="7" stroke-linecap="round" stroke-linejoin="round"/>
<g filter="url(#filter4_d)">
<rect x="35" y="173" width="50" height="50" fill="#0761B4"/>
<rect x="36" y="174" width="48" height="48" stroke="black" stroke-width="2"/>
</g>
<path d="M41 180C39.272 191.839 40.3081 204.93 40.3081 217" stroke="#0084FF" stroke-width="7" stroke-linecap="round" stroke-linejoin="round"/>
<path d="M41 179C53.6773 179 66.5225 178 79 178" stroke="#0084FF" stroke-width="7" stroke-linecap="round" stroke-linejoin="round"/>
<path d="M83.4977 253C86.0627 256.386 96.3268 265.37 88.3082 265.37C84.6561 265.37 79.5455 270.525 78 273.616" stroke="white" stroke-width="2" stroke-linecap="round" stroke-linejoin="round"/>
<line x1="236.5" y1="72" x2="236.5" y2="313" stroke="black" stroke-width="3" stroke-dasharray="10 4"/>
<line x1="834.5" y1="56" x2="834.5" y2="297" stroke="black" stroke-width="3" stroke-dasharray="10 4"/>
<path d="M833.707 94.7071C834.098 94.3166 834.098 93.6834 833.707 93.2929L827.343 86.9289C826.953 86.5384 826.319 86.5384 825.929 86.9289C825.538 87.3195 825.538 87.9526 825.929 88.3431L831.586 94L825.929 99.6569C825.538 100.047 825.538 100.681 825.929 101.071C826.319 101.462 826.953 101.462 827.343 101.071L833.707 94.7071ZM604 95H609.112V93H604V95ZM613.201 95H623.424V93H613.201V95ZM627.513 95L637.737 95V93L627.513 93V95ZM641.826 95H652.049V93H641.826V95ZM656.138 95H666.362V93H656.138V95ZM670.451 95H680.674V93H670.451V95ZM684.763 95L694.987 95V93L684.763 93V95ZM699.076 95H709.299V93H699.076V95ZM713.388 95H723.612V93H713.388V95ZM727.701 95H737.924V93H727.701V95ZM742.013 95L752.237 95V93L742.013 93V95ZM756.326 95H766.549V93H756.326V95ZM770.638 95H780.862V93H770.638V95ZM784.951 95H795.174V93H784.951V95ZM799.263 95L809.487 95V93L799.263 93V95ZM813.576 95H823.799V93H813.576V95ZM827.888 95H833V93H827.888V95ZM834.414 95.4142C835.195 94.6332 835.195 93.3668 834.414 92.5858L821.686 79.8579C820.905 79.0768 819.639 79.0768 818.858 79.8579C818.077 80.6389 818.077 81.9052 818.858 82.6863L830.172 94L818.858 105.314C818.077 106.095 818.077 107.361 818.858 108.142C819.639 108.923 820.905 108.923 821.686 108.142L834.414 95.4142ZM604 96H609.112V92H604V96ZM613.201 96H623.424V92H613.201V96ZM627.513 96L637.737 96V92L627.513 92V96ZM641.826 96H652.049V92H641.826V96ZM656.138 96H666.362V92H656.138V96ZM670.451 96H680.674V92H670.451V96ZM684.763 96L694.987 96V92L684.763 92V96ZM699.076 96H709.299V92H699.076V96ZM713.388 96H723.612V92H713.388V96ZM727.701 96H737.924V92H727.701V96ZM742.013 96L752.237 96V92L742.013 92V96ZM756.326 96H766.549V92H756.326V96ZM770.638 96H780.862V92H770.638V96ZM784.951 96H795.174V92H784.951V96ZM799.263 96L809.487 96V92L799.263 92V96ZM813.576 96H823.799V92H813.576V96ZM827.888 96H833V92H827.888V96Z" fill="black"/>
<path d="M235.292 93.409C234.902 93.7998 234.902 94.4329 235.293 94.8233L241.66 101.184C242.051 101.574 242.684 101.574 243.075 101.183C243.465 100.793 243.465 100.159 243.074 99.769L237.414 94.1151L243.068 88.4553C243.458 88.0646 243.458 87.4314 243.067 87.0411C242.677 86.6508 242.043 86.6511 241.653 87.0418L235.292 93.409ZM462.999 93L457.933 93.0026L457.934 95.0026L463.001 95L462.999 93ZM453.879 93.0047L443.745 93.0098L443.746 95.0098L453.88 95.0047L453.879 93.0047ZM439.691 93.0119L429.558 93.0171L429.559 95.0171L439.692 95.0119L439.691 93.0119ZM425.504 93.0191L415.37 93.0243L415.371 95.0243L425.505 95.0191L425.504 93.0191ZM411.316 93.0264L401.182 93.0315L401.184 95.0315L411.317 95.0264L411.316 93.0264ZM397.129 93.0336L386.995 93.0388L386.996 95.0388L397.13 95.0336L397.129 93.0336ZM382.941 93.0408L372.807 93.046L372.809 95.046L382.942 95.0408L382.941 93.0408ZM368.754 93.0481L358.62 93.0532L358.621 95.0532L368.755 95.0481L368.754 93.0481ZM354.566 93.0553L344.432 93.0605L344.433 95.0605L354.567 95.0553L354.566 93.0553ZM340.379 93.0625L330.245 93.0677L330.246 95.0677L340.38 95.0625L340.379 93.0625ZM326.191 93.0698L316.057 93.0749L316.058 95.0749L326.192 95.0698L326.191 93.0698ZM312.004 93.077L301.87 93.0822L301.871 95.0822L312.005 95.077L312.004 93.077ZM297.816 93.0843L287.682 93.0894L287.683 95.0894L297.817 95.0843L297.816 93.0843ZM283.629 93.0915L273.495 93.0967L273.496 95.0967L283.63 95.0915L283.629 93.0915ZM269.441 93.0987L259.307 93.1039L259.308 95.1039L269.442 95.0987L269.441 93.0987ZM255.254 93.106L245.12 93.1111L245.121 95.1111L255.255 95.106L255.254 93.106ZM241.066 93.1132L235.999 93.1158L236 95.1158L241.067 95.1132L241.066 93.1132ZM234.585 92.7023C233.804 93.4837 233.805 94.7501 234.586 95.5307L247.321 108.252C248.102 109.033 249.369 109.032 250.149 108.251C250.93 107.469 250.929 106.203 250.148 105.422L238.828 94.1143L250.136 82.7949C250.917 82.0134 250.916 80.7471 250.135 79.9664C249.353 79.1858 248.087 79.1864 247.306 79.9679L234.585 92.7023ZM462.999 92L457.932 92.0026L457.934 96.0026L463.001 96L462.999 92ZM453.878 92.0047L443.745 92.0098L443.747 96.0098L453.88 96.0047L453.878 92.0047ZM439.691 92.0119L429.557 92.0171L429.559 96.0171L439.693 96.0119L439.691 92.0119ZM425.503 92.0191L415.369 92.0243L415.372 96.0243L425.505 96.0191L425.503 92.0191ZM411.316 92.0264L401.182 92.0315L401.184 96.0315L411.318 96.0264L411.316 92.0264ZM397.128 92.0336L386.994 92.0388L386.997 96.0388L397.13 96.0336L397.128 92.0336ZM382.941 92.0408L372.807 92.046L372.809 96.046L382.943 96.0408L382.941 92.0408ZM368.753 92.0481L358.619 92.0532L358.622 96.0532L368.755 96.0481L368.753 92.0481ZM354.566 92.0553L344.432 92.0605L344.434 96.0605L354.568 96.0553L354.566 92.0553ZM340.378 92.0625L330.244 92.0677L330.246 96.0677L340.38 96.0625L340.378 92.0625ZM326.191 92.0698L316.057 92.0749L316.059 96.0749L326.193 96.0698L326.191 92.0698ZM312.003 92.077L301.869 92.0822L301.871 96.0822L312.005 96.077L312.003 92.077ZM297.816 92.0843L287.682 92.0894L287.684 96.0894L297.818 96.0843L297.816 92.0843ZM283.628 92.0915L273.494 92.0967L273.496 96.0967L283.63 96.0915L283.628 92.0915ZM269.441 92.0987L259.307 92.1039L259.309 96.1039L269.443 96.0987L269.441 92.0987ZM255.253 92.106L245.119 92.1111L245.121 96.1111L255.255 96.106L255.253 92.106ZM241.066 92.1132L235.999 92.1158L236.001 96.1158L241.068 96.1132L241.066 92.1132Z" fill="black"/>
<path d="M482.84 95.1C482.84 93.4333 483.307 92.16 484.24 91.28C485.173 90.4 486.247 89.96 487.46 89.96C488.673 89.96 489.633 90.2733 490.34 90.9C491.047 91.5133 491.4 92.28 491.4 93.2C491.4 94.12 491.033 94.84 490.3 95.36C489.58 95.8667 488.647 96.12 487.5 96.12C486.353 96.12 485.32 95.94 484.4 95.58C484.4 96.5533 484.733 97.34 485.4 97.94C486.067 98.5267 486.88 98.82 487.84 98.82C489.333 98.82 490.267 98.36 490.64 97.44C490.867 97.44 491.06 97.5067 491.22 97.64C491.38 97.76 491.46 97.94 491.46 98.18C491.46 98.6467 491.113 99.0933 490.42 99.52C489.74 99.9467 488.873 100.16 487.82 100.16C486.407 100.16 485.22 99.7333 484.26 98.88C483.313 98.0267 482.84 96.7667 482.84 95.1ZM489.88 93.14C489.88 92.62 489.653 92.18 489.2 91.82C488.76 91.46 488.147 91.28 487.36 91.28C486.587 91.28 485.907 91.5933 485.32 92.22C484.733 92.8467 484.433 93.5533 484.42 94.34C485.38 94.66 486.333 94.82 487.28 94.82C489.013 94.82 489.88 94.26 489.88 93.14ZM493.953 90.14H494.573C494.906 90.14 495.18 90.3 495.393 90.62L497.653 94.08C498.226 93.3733 498.993 92.22 499.953 90.62C500.153 90.3 500.413 90.14 500.733 90.14H501.093C501.48 90.14 501.673 90.2933 501.673 90.6C501.673 90.7067 501.646 90.8067 501.593 90.9C500.833 92.1933 499.82 93.58 498.553 95.06L501.693 99.24C501.8 99.3867 501.853 99.52 501.853 99.64C501.853 99.88 501.713 100 501.433 100H500.653C500.32 100 500.02 99.8133 499.753 99.44L497.493 96.18C497.28 96.3933 497.033 96.7067 496.753 97.12C496.473 97.5333 496.266 97.8333 496.133 98.02C495.733 98.62 495.413 99.12 495.173 99.52C494.96 99.84 494.686 100 494.353 100H493.993C493.833 100 493.7 99.9467 493.593 99.84C493.486 99.7333 493.433 99.62 493.433 99.5C493.433 99.3667 493.473 99.24 493.553 99.12C494.46 97.7867 495.493 96.4733 496.653 95.18L493.533 90.9C493.453 90.8067 493.413 90.7 493.413 90.58C493.413 90.46 493.46 90.36 493.553 90.28C493.66 90.1867 493.793 90.14 493.953 90.14ZM505.939 87.48H506.079C506.586 87.48 506.839 87.7267 506.839 88.22V90.2H509.599C510.119 90.2 510.379 90.4267 510.379 90.88C510.379 91.3333 510.119 91.56 509.599 91.56H506.839V96.6C506.839 97.44 506.999 98.0333 507.319 98.38C507.653 98.7133 508.133 98.88 508.759 98.88C509.399 98.88 509.873 98.7267 510.179 98.42C510.513 98.5267 510.679 98.74 510.679 99.06C510.679 99.38 510.459 99.6467 510.019 99.86C509.579 100.06 509.053 100.16 508.439 100.16C506.266 100.16 505.179 98.9733 505.179 96.6V91.56H504.199C503.906 91.56 503.693 91.5133 503.559 91.42C503.426 91.3267 503.359 91.1467 503.359 90.88C503.359 90.4267 503.639 90.2 504.199 90.2H505.179V88.22C505.179 87.7267 505.433 87.48 505.939 87.48ZM513.107 90.14H513.227C513.733 90.14 513.987 90.3867 513.987 90.88V91.96C514.213 91.4533 514.573 91 515.067 90.6C515.573 90.2 516.113 90 516.687 90C517.26 90 517.693 90.1133 517.987 90.34C518.293 90.5667 518.447 90.8467 518.447 91.18C518.447 91.5 518.307 91.7533 518.027 91.94C517.613 91.5933 517.173 91.42 516.707 91.42C515.88 91.42 515.227 91.76 514.747 92.44C514.267 93.1067 514.027 93.9467 514.027 94.96V99.24C514.027 99.5067 513.967 99.7 513.847 99.82C513.727 99.94 513.533 100 513.267 100H513.107C512.84 100 512.647 99.94 512.527 99.82C512.407 99.7 512.347 99.5067 512.347 99.24V90.88C512.347 90.3867 512.6 90.14 513.107 90.14ZM523.679 89.98C526.505 89.98 527.919 91.2933 527.919 93.92V97.88C527.919 98.6133 528.199 99.08 528.759 99.28C528.559 99.7867 528.185 100.04 527.639 100.04C527.239 100.04 526.919 99.9 526.679 99.62C526.452 99.3267 526.339 98.9467 526.339 98.48C525.499 99.6 524.412 100.16 523.079 100.16C521.999 100.16 521.145 99.8867 520.519 99.34C519.905 98.78 519.599 98.0333 519.599 97.1C519.599 96.1533 519.959 95.3867 520.679 94.8C521.412 94.2133 522.399 93.92 523.639 93.92C524.385 93.92 525.012 94 525.519 94.16C525.932 94.3067 526.179 94.4 526.259 94.44V93.56C526.259 92.7467 526.052 92.1733 525.639 91.84C525.225 91.4933 524.599 91.32 523.759 91.32C522.572 91.32 521.652 91.7733 520.999 92.68C520.439 92.6 520.159 92.34 520.159 91.9C520.159 91.3933 520.505 90.9467 521.199 90.56C521.892 90.1733 522.719 89.98 523.679 89.98ZM526.259 95.72C525.419 95.3467 524.592 95.16 523.779 95.16C522.965 95.16 522.339 95.3333 521.899 95.68C521.459 96.0267 521.239 96.48 521.239 97.04C521.239 97.5867 521.425 98.0267 521.799 98.36C522.185 98.68 522.745 98.84 523.479 98.84C524.225 98.84 524.872 98.5733 525.419 98.04C525.979 97.5067 526.259 96.86 526.259 96.1V95.72ZM536.83 92.88C536.83 91.9733 537.216 91.26 537.99 90.74C538.776 90.2067 539.65 89.94 540.61 89.94C541.57 89.94 542.31 90.08 542.83 90.36C543.363 90.6267 543.63 90.9467 543.63 91.32C543.63 91.6933 543.37 91.9667 542.85 92.14C542.756 91.9267 542.496 91.7267 542.07 91.54C541.656 91.3533 541.143 91.26 540.53 91.26C539.916 91.26 539.41 91.38 539.01 91.62C538.623 91.8467 538.43 92.1733 538.43 92.6C538.43 93.0133 538.576 93.3333 538.87 93.56C539.163 93.7867 539.85 94.0267 540.93 94.28C542.023 94.52 542.856 94.8733 543.43 95.34C544.003 95.8067 544.29 96.46 544.29 97.3C544.29 98.14 543.903 98.8267 543.13 99.36C542.356 99.88 541.403 100.14 540.27 100.14C539.15 100.14 538.25 100 537.57 99.72C536.903 99.4267 536.57 99.0467 536.57 98.58C536.57 98.1133 536.79 97.7733 537.23 97.56C537.416 97.92 537.776 98.2267 538.31 98.48C538.843 98.7333 539.51 98.86 540.31 98.86C541.11 98.86 541.716 98.7133 542.13 98.42C542.556 98.1267 542.77 97.7667 542.77 97.34C542.77 96.9 542.576 96.56 542.19 96.32C541.816 96.0667 541.076 95.82 539.97 95.58C538.876 95.34 538.076 95 537.57 94.56C537.076 94.1067 536.83 93.5467 536.83 92.88ZM547.227 90.14H547.367C547.874 90.14 548.127 90.3733 548.127 90.84V91.62C548.407 91.1533 548.827 90.76 549.387 90.44C549.947 90.12 550.554 89.96 551.207 89.96C552.447 89.96 553.447 90.38 554.207 91.22C554.981 92.0467 555.367 93.3133 555.367 95.02C555.367 96.7133 554.914 97.9933 554.007 98.86C553.114 99.7267 552.014 100.16 550.707 100.16C549.814 100.16 548.954 99.9333 548.127 99.48V103.78C548.127 104.273 547.874 104.52 547.367 104.52H547.227C546.721 104.52 546.467 104.273 546.467 103.78V90.88C546.467 90.3867 546.721 90.14 547.227 90.14ZM553.707 95C553.707 93.7333 553.441 92.8133 552.907 92.24C552.374 91.6533 551.654 91.36 550.747 91.36C549.841 91.36 549.174 91.76 548.747 92.56C548.334 93.36 548.127 94.4 548.127 95.68V98.18C548.261 98.2733 548.587 98.4 549.107 98.56C549.641 98.7067 550.174 98.78 550.707 98.78C551.601 98.78 552.321 98.4667 552.867 97.84C553.427 97.2133 553.707 96.2667 553.707 95ZM561.394 89.98C564.22 89.98 565.634 91.2933 565.634 93.92V97.88C565.634 98.6133 565.914 99.08 566.474 99.28C566.274 99.7867 565.9 100.04 565.354 100.04C564.954 100.04 564.634 99.9 564.394 99.62C564.167 99.3267 564.054 98.9467 564.054 98.48C563.214 99.6 562.127 100.16 560.794 100.16C559.714 100.16 558.86 99.8867 558.234 99.34C557.62 98.78 557.314 98.0333 557.314 97.1C557.314 96.1533 557.674 95.3867 558.394 94.8C559.127 94.2133 560.114 93.92 561.354 93.92C562.1 93.92 562.727 94 563.234 94.16C563.647 94.3067 563.894 94.4 563.974 94.44V93.56C563.974 92.7467 563.767 92.1733 563.354 91.84C562.94 91.4933 562.314 91.32 561.474 91.32C560.287 91.32 559.367 91.7733 558.714 92.68C558.154 92.6 557.874 92.34 557.874 91.9C557.874 91.3933 558.22 90.9467 558.914 90.56C559.607 90.1733 560.434 89.98 561.394 89.98ZM563.974 95.72C563.134 95.3467 562.307 95.16 561.494 95.16C560.68 95.16 560.054 95.3333 559.614 95.68C559.174 96.0267 558.954 96.48 558.954 97.04C558.954 97.5867 559.14 98.0267 559.514 98.36C559.9 98.68 560.46 98.84 561.194 98.84C561.94 98.84 562.587 98.5733 563.134 98.04C563.694 97.5067 563.974 96.86 563.974 96.1V95.72ZM569.537 91.1C570.031 90.7133 570.557 90.4267 571.117 90.24C571.677 90.0533 572.357 89.96 573.157 89.96C573.957 89.96 574.657 90.14 575.257 90.5C575.871 90.86 576.177 91.2467 576.177 91.66C576.177 92.1667 575.891 92.4533 575.317 92.52C575.184 92.2267 574.884 91.96 574.417 91.72C573.951 91.4667 573.397 91.34 572.757 91.34C571.864 91.34 571.124 91.66 570.537 92.3C569.951 92.9267 569.657 93.8467 569.657 95.06C569.657 96.2733 569.957 97.2 570.557 97.84C571.157 98.48 571.877 98.8 572.717 98.8C574.051 98.8 574.951 98.3667 575.417 97.5C575.671 97.5 575.884 97.58 576.057 97.74C576.231 97.8867 576.317 98.08 576.317 98.32C576.317 98.7867 575.997 99.2133 575.357 99.6C574.717 99.9733 573.984 100.16 573.157 100.16C572.344 100.16 571.651 100.067 571.077 99.88C570.517 99.68 569.997 99.3867 569.517 99C569.037 98.6 568.657 98.0667 568.377 97.4C568.097 96.7333 567.957 95.96 567.957 95.08C567.957 94.1867 568.097 93.4 568.377 92.72C568.671 92.0267 569.057 91.4867 569.537 91.1ZM577.86 95.1C577.86 93.4333 578.326 92.16 579.26 91.28C580.193 90.4 581.266 89.96 582.48 89.96C583.693 89.96 584.653 90.2733 585.36 90.9C586.066 91.5133 586.42 92.28 586.42 93.2C586.42 94.12 586.053 94.84 585.32 95.36C584.6 95.8667 583.666 96.12 582.52 96.12C581.373 96.12 580.34 95.94 579.42 95.58C579.42 96.5533 579.753 97.34 580.42 97.94C581.086 98.5267 581.9 98.82 582.86 98.82C584.353 98.82 585.286 98.36 585.66 97.44C585.886 97.44 586.08 97.5067 586.24 97.64C586.4 97.76 586.48 97.94 586.48 98.18C586.48 98.6467 586.133 99.0933 585.44 99.52C584.76 99.9467 583.893 100.16 582.84 100.16C581.426 100.16 580.24 99.7333 579.28 98.88C578.333 98.0267 577.86 96.7667 577.86 95.1ZM584.9 93.14C584.9 92.62 584.673 92.18 584.22 91.82C583.78 91.46 583.166 91.28 582.38 91.28C581.606 91.28 580.926 91.5933 580.34 92.22C579.753 92.8467 579.453 93.5533 579.44 94.34C580.4 94.66 581.353 94.82 582.3 94.82C584.033 94.82 584.9 94.26 584.9 93.14Z" fill="black"/>
<path d="M429.48 63.98C429.48 62.9267 429.92 62.06 430.8 61.38C431.693 60.6867 432.787 60.34 434.08 60.34C435.387 60.34 436.467 60.6867 437.32 61.38C438.173 62.06 438.6 62.9267 438.6 63.98C438.6 65.3533 437.84 66.3133 436.32 66.86C437.093 67.1267 437.753 67.54 438.3 68.1C438.847 68.66 439.12 69.38 439.12 70.26C439.12 71.42 438.667 72.3667 437.76 73.1C436.853 73.82 435.627 74.18 434.08 74.18C432.547 74.18 431.313 73.82 430.38 73.1C429.46 72.3667 429 71.42 429 70.26C429 69.38 429.267 68.66 429.8 68.1C430.333 67.5267 430.98 67.1133 431.74 66.86C430.233 66.3 429.48 65.34 429.48 63.98ZM436.82 64.08C436.82 63.4 436.567 62.8467 436.06 62.42C435.553 61.98 434.9 61.76 434.1 61.76C433.313 61.76 432.653 61.98 432.12 62.42C431.587 62.8467 431.32 63.4067 431.32 64.1C431.32 64.78 431.553 65.32 432.02 65.72C432.5 66.12 433.187 66.32 434.08 66.32C434.973 66.32 435.653 66.12 436.12 65.72C436.587 65.3067 436.82 64.76 436.82 64.08ZM437.3 70.22C437.3 69.4333 437 68.8067 436.4 68.34C435.813 67.86 435.04 67.62 434.08 67.62C433.133 67.62 432.353 67.86 431.74 68.34C431.127 68.8067 430.82 69.4333 430.82 70.22C430.82 70.9933 431.12 71.6133 431.72 72.08C432.333 72.5467 433.12 72.78 434.08 72.78C435.04 72.78 435.813 72.5467 436.4 72.08C437 71.6133 437.3 70.9933 437.3 70.22ZM442.949 62.04C444.029 60.84 445.396 60.24 447.049 60.24C448.702 60.24 450.062 60.84 451.129 62.04C452.196 63.2267 452.729 64.9333 452.729 67.16C452.729 69.3733 452.189 71.0933 451.109 72.32C450.042 73.5467 448.689 74.16 447.049 74.16C445.409 74.16 444.042 73.5467 442.949 72.32C441.869 71.0933 441.329 69.3733 441.329 67.16C441.329 64.9467 441.869 63.24 442.949 62.04ZM450.849 67.22C450.849 65.5133 450.482 64.1867 449.749 63.24C449.029 62.28 448.122 61.8 447.029 61.8C445.936 61.8 445.029 62.28 444.309 63.24C443.602 64.1867 443.249 65.5133 443.249 67.22C443.249 68.9133 443.582 70.24 444.249 71.2C444.916 72.1467 445.842 72.62 447.029 72.62C448.229 72.62 449.162 72.1467 449.829 71.2C450.509 70.24 450.849 68.9133 450.849 67.22ZM456.758 62.04C457.838 60.84 459.204 60.24 460.858 60.24C462.511 60.24 463.871 60.84 464.938 62.04C466.004 63.2267 466.538 64.9333 466.538 67.16C466.538 69.3733 465.998 71.0933 464.918 72.32C463.851 73.5467 462.498 74.16 460.858 74.16C459.218 74.16 457.851 73.5467 456.758 72.32C455.678 71.0933 455.138 69.3733 455.138 67.16C455.138 64.9467 455.678 63.24 456.758 62.04ZM464.658 67.22C464.658 65.5133 464.291 64.1867 463.558 63.24C462.838 62.28 461.931 61.8 460.838 61.8C459.744 61.8 458.838 62.28 458.118 63.24C457.411 64.1867 457.058 65.5133 457.058 67.22C457.058 68.9133 457.391 70.24 458.058 71.2C458.724 72.1467 459.651 72.62 460.838 72.62C462.038 72.62 462.971 72.1467 463.638 71.2C464.318 70.24 464.658 68.9133 464.658 67.22ZM469.946 64.14H470.086C470.593 64.14 470.846 64.3733 470.846 64.84V65.62C471.126 65.1533 471.546 64.76 472.106 64.44C472.666 64.12 473.273 63.96 473.926 63.96C475.166 63.96 476.166 64.38 476.926 65.22C477.699 66.0467 478.086 67.3133 478.086 69.02C478.086 70.7133 477.633 71.9933 476.726 72.86C475.833 73.7267 474.733 74.16 473.426 74.16C472.533 74.16 471.673 73.9333 470.846 73.48V77.78C470.846 78.2733 470.593 78.52 470.086 78.52H469.946C469.439 78.52 469.186 78.2733 469.186 77.78V64.88C469.186 64.3867 469.439 64.14 469.946 64.14ZM476.426 69C476.426 67.7333 476.159 66.8133 475.626 66.24C475.093 65.6533 474.373 65.36 473.466 65.36C472.559 65.36 471.893 65.76 471.466 66.56C471.053 67.36 470.846 68.4 470.846 69.68V72.18C470.979 72.2733 471.306 72.4 471.826 72.56C472.359 72.7067 472.893 72.78 473.426 72.78C474.319 72.78 475.039 72.4667 475.586 71.84C476.146 71.2133 476.426 70.2667 476.426 69ZM480.812 64.14H481.432C481.766 64.14 482.039 64.3 482.252 64.62L484.512 68.08C485.086 67.3733 485.852 66.22 486.812 64.62C487.012 64.3 487.272 64.14 487.592 64.14H487.952C488.339 64.14 488.532 64.2933 488.532 64.6C488.532 64.7067 488.506 64.8067 488.452 64.9C487.692 66.1933 486.679 67.58 485.412 69.06L488.552 73.24C488.659 73.3867 488.712 73.52 488.712 73.64C488.712 73.88 488.572 74 488.292 74H487.512C487.179 74 486.879 73.8133 486.612 73.44L484.352 70.18C484.139 70.3933 483.892 70.7067 483.612 71.12C483.332 71.5333 483.126 71.8333 482.992 72.02C482.592 72.62 482.272 73.12 482.032 73.52C481.819 73.84 481.546 74 481.212 74H480.852C480.692 74 480.559 73.9467 480.452 73.84C480.346 73.7333 480.292 73.62 480.292 73.5C480.292 73.3667 480.332 73.24 480.412 73.12C481.319 71.7867 482.352 70.4733 483.512 69.18L480.392 64.9C480.312 64.8067 480.272 64.7 480.272 64.58C480.272 64.46 480.319 64.36 480.412 64.28C480.519 64.1867 480.652 64.14 480.812 64.14ZM497.826 67.46H503.146C503.639 67.46 503.886 67.68 503.886 68.12C503.886 68.56 503.639 68.78 503.146 68.78H497.826C497.333 68.78 497.086 68.56 497.086 68.12C497.086 67.68 497.333 67.46 497.826 67.46ZM517.282 77.1C517.455 77.2333 517.542 77.42 517.542 77.66C517.542 77.9133 517.462 78.12 517.302 78.28C517.142 78.44 516.942 78.52 516.702 78.52C516.462 78.52 516.148 78.3133 515.762 77.9C513.722 75.7933 512.702 73.08 512.702 69.76V68.72C512.702 66.92 513.002 65.2933 513.602 63.84C514.215 62.3733 515.055 61.1533 516.122 60.18C516.308 60.0333 516.508 59.96 516.722 59.96C516.948 59.96 517.142 60.04 517.302 60.2C517.462 60.36 517.542 60.56 517.542 60.8C517.542 61.0267 517.455 61.22 517.282 61.38C515.415 63.14 514.482 65.5867 514.482 68.72V69.76C514.482 72.8933 515.415 75.34 517.282 77.1ZM521.394 60.42H527.514C528.048 60.42 528.314 60.6733 528.314 61.18C528.314 61.6867 528.048 61.94 527.514 61.94H521.994L521.694 65.92C522.334 65.7333 523.134 65.64 524.094 65.64C525.428 65.64 526.521 65.98 527.374 66.66C528.228 67.34 528.654 68.34 528.654 69.66C528.654 70.98 528.154 72.06 527.154 72.9C526.154 73.74 524.941 74.16 523.514 74.16C522.101 74.16 521.014 73.9867 520.254 73.64C519.494 73.28 519.114 72.78 519.114 72.14C519.114 71.66 519.394 71.3267 519.954 71.14C520.128 71.66 520.541 72.0467 521.194 72.3C521.861 72.54 522.661 72.66 523.594 72.66C524.541 72.66 525.361 72.4 526.054 71.88C526.748 71.36 527.094 70.6533 527.094 69.76C527.094 68.8533 526.788 68.1867 526.174 67.76C525.574 67.3333 524.861 67.12 524.034 67.12C523.208 67.12 522.321 67.26 521.374 67.54C521.254 67.58 521.101 67.6 520.914 67.6C520.741 67.6 520.568 67.52 520.394 67.36C520.221 67.1867 520.134 66.9667 520.134 66.7L520.574 61.16C520.601 60.8933 520.668 60.7067 520.774 60.6C520.894 60.48 521.101 60.42 521.394 60.42ZM532.265 62.04C533.345 60.84 534.712 60.24 536.365 60.24C538.019 60.24 539.379 60.84 540.445 62.04C541.512 63.2267 542.045 64.9333 542.045 67.16C542.045 69.3733 541.505 71.0933 540.425 72.32C539.359 73.5467 538.005 74.16 536.365 74.16C534.725 74.16 533.359 73.5467 532.265 72.32C531.185 71.0933 530.645 69.3733 530.645 67.16C530.645 64.9467 531.185 63.24 532.265 62.04ZM540.165 67.22C540.165 65.5133 539.799 64.1867 539.065 63.24C538.345 62.28 537.439 61.8 536.345 61.8C535.252 61.8 534.345 62.28 533.625 63.24C532.919 64.1867 532.565 65.5133 532.565 67.22C532.565 68.9133 532.899 70.24 533.565 71.2C534.232 72.1467 535.159 72.62 536.345 72.62C537.545 72.62 538.479 72.1467 539.145 71.2C539.825 70.24 540.165 68.9133 540.165 67.22ZM544.914 64.14H545.534C545.867 64.14 546.141 64.3 546.354 64.62L548.614 68.08C549.187 67.3733 549.954 66.22 550.914 64.62C551.114 64.3 551.374 64.14 551.694 64.14H552.054C552.441 64.14 552.634 64.2933 552.634 64.6C552.634 64.7067 552.607 64.8067 552.554 64.9C551.794 66.1933 550.781 67.58 549.514 69.06L552.654 73.24C552.761 73.3867 552.814 73.52 552.814 73.64C552.814 73.88 552.674 74 552.394 74H551.614C551.281 74 550.981 73.8133 550.714 73.44L548.454 70.18C548.241 70.3933 547.994 70.7067 547.714 71.12C547.434 71.5333 547.227 71.8333 547.094 72.02C546.694 72.62 546.374 73.12 546.134 73.52C545.921 73.84 545.647 74 545.314 74H544.954C544.794 74 544.661 73.9467 544.554 73.84C544.447 73.7333 544.394 73.62 544.394 73.5C544.394 73.3667 544.434 73.24 544.514 73.12C545.421 71.7867 546.454 70.4733 547.614 69.18L544.494 64.9C544.414 64.8067 544.374 64.7 544.374 64.58C544.374 64.46 544.421 64.36 544.514 64.28C544.621 64.1867 544.754 64.14 544.914 64.14ZM562.98 60.36H563.02C563.514 60.36 563.76 60.6333 563.76 61.18V69.04H564.8C565.334 69.04 565.6 69.2933 565.6 69.8C565.6 70.2933 565.334 70.54 564.8 70.54H563.76V73.26C563.76 73.5267 563.694 73.72 563.56 73.84C563.44 73.9467 563.227 74 562.92 74H562.8C562.507 74 562.3 73.9467 562.18 73.84C562.074 73.72 562.02 73.5267 562.02 73.26V70.54H555.54C555.06 70.54 554.82 70.34 554.82 69.94C554.82 69.6733 554.92 69.4067 555.12 69.14C556.707 67.1533 558.78 64.66 561.34 61.66C561.394 61.5667 561.487 61.4467 561.62 61.3L561.96 60.92C562.294 60.5467 562.634 60.36 562.98 60.36ZM562.02 69.04V63C561.594 63.5067 560.794 64.4667 559.62 65.88C558.447 67.28 557.56 68.3333 556.96 69.04H562.02ZM570.334 69.76V68.72C570.334 65.56 569.4 63.1133 567.534 61.38C567.36 61.2067 567.274 61.0067 567.274 60.78C567.274 60.54 567.354 60.3467 567.514 60.2C567.674 60.04 567.834 59.96 567.994 59.96C568.154 59.96 568.267 59.9733 568.334 60C568.414 60.0133 568.487 60.0467 568.554 60.1C568.634 60.1533 568.687 60.1933 568.714 60.22C568.754 60.2467 568.814 60.3067 568.894 60.4C568.987 60.4933 569.047 60.5533 569.074 60.58C570.034 61.5533 570.78 62.7333 571.314 64.12C571.86 65.5067 572.134 67.04 572.134 68.72V69.76C572.134 73.08 571.114 75.7933 569.074 77.9C568.66 78.3133 568.334 78.52 568.094 78.52C567.867 78.52 567.674 78.44 567.514 78.28C567.354 78.12 567.274 77.92 567.274 77.68C567.274 77.44 567.36 77.2467 567.534 77.1C569.4 75.3667 570.334 72.92 570.334 69.76ZM575.766 64.14H575.906C576.413 64.14 576.666 64.3733 576.666 64.84V65.62C576.946 65.1533 577.366 64.76 577.926 64.44C578.486 64.12 579.093 63.96 579.746 63.96C580.986 63.96 581.986 64.38 582.746 65.22C583.52 66.0467 583.906 67.3133 583.906 69.02C583.906 70.7133 583.453 71.9933 582.546 72.86C581.653 73.7267 580.553 74.16 579.246 74.16C578.353 74.16 577.493 73.9333 576.666 73.48V77.78C576.666 78.2733 576.413 78.52 575.906 78.52H575.766C575.26 78.52 575.006 78.2733 575.006 77.78V64.88C575.006 64.3867 575.26 64.14 575.766 64.14ZM582.246 69C582.246 67.7333 581.98 66.8133 581.446 66.24C580.913 65.6533 580.193 65.36 579.286 65.36C578.38 65.36 577.713 65.76 577.286 66.56C576.873 67.36 576.666 68.4 576.666 69.68V72.18C576.8 72.2733 577.126 72.4 577.646 72.56C578.18 72.7067 578.713 72.78 579.246 72.78C580.14 72.78 580.86 72.4667 581.406 71.84C581.966 71.2133 582.246 70.2667 582.246 69ZM586.633 64.14H587.253C587.586 64.14 587.859 64.3 588.073 64.62L590.333 68.08C590.906 67.3733 591.673 66.22 592.633 64.62C592.833 64.3 593.093 64.14 593.413 64.14H593.773C594.159 64.14 594.353 64.2933 594.353 64.6C594.353 64.7067 594.326 64.8067 594.273 64.9C593.513 66.1933 592.499 67.58 591.233 69.06L594.373 73.24C594.479 73.3867 594.533 73.52 594.533 73.64C594.533 73.88 594.393 74 594.113 74H593.333C592.999 74 592.699 73.8133 592.433 73.44L590.173 70.18C589.959 70.3933 589.713 70.7067 589.433 71.12C589.153 71.5333 588.946 71.8333 588.813 72.02C588.413 72.62 588.093 73.12 587.853 73.52C587.639 73.84 587.366 74 587.033 74H586.673C586.513 74 586.379 73.9467 586.273 73.84C586.166 73.7333 586.113 73.62 586.113 73.5C586.113 73.3667 586.153 73.24 586.233 73.12C587.139 71.7867 588.173 70.4733 589.333 69.18L586.213 64.9C586.133 64.8067 586.093 64.7 586.093 64.58C586.093 64.46 586.139 64.36 586.233 64.28C586.339 64.1867 586.473 64.14 586.633 64.14ZM603.646 66.18H610.706C611.2 66.18 611.446 66.4 611.446 66.84C611.446 67.28 611.2 67.5 610.706 67.5H603.646C603.153 67.5 602.906 67.28 602.906 66.84C602.906 66.4 603.153 66.18 603.646 66.18ZM603.646 69.72H610.706C611.2 69.72 611.446 69.94 611.446 70.38C611.446 70.82 611.2 71.04 610.706 71.04H603.646C603.153 71.04 602.906 70.82 602.906 70.38C602.906 69.94 603.153 69.72 603.646 69.72ZM621.3 62.78C621.727 62.0067 622.34 61.3933 623.14 60.94C623.94 60.4733 624.894 60.24 626 60.24C627.107 60.24 627.987 60.4733 628.64 60.94C629.307 61.3933 629.64 61.8467 629.64 62.3C629.64 62.7533 629.354 63.0533 628.78 63.2C628.314 62.4667 627.754 62.0067 627.1 61.82C626.754 61.7267 626.287 61.68 625.7 61.68C625.114 61.68 624.534 61.8533 623.96 62.2C623.4 62.5467 622.96 63 622.64 63.56C622 64.68 621.68 65.9067 621.68 67.24C622.067 66.6933 622.62 66.24 623.34 65.88C624.074 65.52 624.847 65.34 625.66 65.34C627.22 65.34 628.36 65.7267 629.08 66.5C629.814 67.2733 630.18 68.2933 630.18 69.56C630.18 70.8133 629.76 71.8933 628.92 72.8C628.094 73.7067 626.84 74.16 625.16 74.16C623.48 74.16 622.2 73.6067 621.32 72.5C620.454 71.3933 620.02 69.8667 620.02 67.92C620.02 66 620.447 64.2867 621.3 62.78ZM625.24 66.76C624.28 66.76 623.474 67.02 622.82 67.54C622.18 68.06 621.86 68.68 621.86 69.4C621.86 70.1067 622.114 70.8067 622.62 71.5C622.874 71.8467 623.227 72.1333 623.68 72.36C624.147 72.5733 624.667 72.68 625.24 72.68C626.387 72.68 627.22 72.3933 627.74 71.82C628.26 71.2333 628.52 70.4867 628.52 69.58C628.52 67.7 627.427 66.76 625.24 66.76ZM634.199 62.04C635.279 60.84 636.646 60.24 638.299 60.24C639.952 60.24 641.312 60.84 642.379 62.04C643.446 63.2267 643.979 64.9333 643.979 67.16C643.979 69.3733 643.439 71.0933 642.359 72.32C641.292 73.5467 639.939 74.16 638.299 74.16C636.659 74.16 635.292 73.5467 634.199 72.32C633.119 71.0933 632.579 69.3733 632.579 67.16C632.579 64.9467 633.119 63.24 634.199 62.04ZM642.099 67.22C642.099 65.5133 641.732 64.1867 640.999 63.24C640.279 62.28 639.372 61.8 638.279 61.8C637.186 61.8 636.279 62.28 635.559 63.24C634.852 64.1867 634.499 65.5133 634.499 67.22C634.499 68.9133 634.832 70.24 635.499 71.2C636.166 72.1467 637.092 72.62 638.279 72.62C639.479 72.62 640.412 72.1467 641.079 71.2C641.759 70.24 642.099 68.9133 642.099 67.22ZM648.008 62.04C649.088 60.84 650.454 60.24 652.108 60.24C653.761 60.24 655.121 60.84 656.188 62.04C657.254 63.2267 657.788 64.9333 657.788 67.16C657.788 69.3733 657.248 71.0933 656.168 72.32C655.101 73.5467 653.748 74.16 652.108 74.16C650.468 74.16 649.101 73.5467 648.008 72.32C646.928 71.0933 646.388 69.3733 646.388 67.16C646.388 64.9467 646.928 63.24 648.008 62.04ZM655.908 67.22C655.908 65.5133 655.541 64.1867 654.808 63.24C654.088 62.28 653.181 61.8 652.088 61.8C650.994 61.8 650.088 62.28 649.368 63.24C648.661 64.1867 648.308 65.5133 648.308 67.22C648.308 68.9133 648.641 70.24 649.308 71.2C649.974 72.1467 650.901 72.62 652.088 72.62C653.288 72.62 654.221 72.1467 654.888 71.2C655.568 70.24 655.908 68.9133 655.908 67.22ZM661.196 64.14H661.336C661.843 64.14 662.096 64.3733 662.096 64.84V65.62C662.376 65.1533 662.796 64.76 663.356 64.44C663.916 64.12 664.523 63.96 665.176 63.96C666.416 63.96 667.416 64.38 668.176 65.22C668.949 66.0467 669.336 67.3133 669.336 69.02C669.336 70.7133 668.883 71.9933 667.976 72.86C667.083 73.7267 665.983 74.16 664.676 74.16C663.783 74.16 662.923 73.9333 662.096 73.48V77.78C662.096 78.2733 661.843 78.52 661.336 78.52H661.196C660.689 78.52 660.436 78.2733 660.436 77.78V64.88C660.436 64.3867 660.689 64.14 661.196 64.14ZM667.676 69C667.676 67.7333 667.409 66.8133 666.876 66.24C666.343 65.6533 665.623 65.36 664.716 65.36C663.809 65.36 663.143 65.76 662.716 66.56C662.303 67.36 662.096 68.4 662.096 69.68V72.18C662.229 72.2733 662.556 72.4 663.076 72.56C663.609 72.7067 664.143 72.78 664.676 72.78C665.569 72.78 666.289 72.4667 666.836 71.84C667.396 71.2133 667.676 70.2667 667.676 69ZM672.062 64.14H672.682C673.016 64.14 673.289 64.3 673.502 64.62L675.762 68.08C676.336 67.3733 677.102 66.22 678.062 64.62C678.262 64.3 678.522 64.14 678.842 64.14H679.202C679.589 64.14 679.782 64.2933 679.782 64.6C679.782 64.7067 679.756 64.8067 679.702 64.9C678.942 66.1933 677.929 67.58 676.662 69.06L679.802 73.24C679.909 73.3867 679.962 73.52 679.962 73.64C679.962 73.88 679.822 74 679.542 74H678.762C678.429 74 678.129 73.8133 677.862 73.44L675.602 70.18C675.389 70.3933 675.142 70.7067 674.862 71.12C674.582 71.5333 674.376 71.8333 674.242 72.02C673.842 72.62 673.522 73.12 673.282 73.52C673.069 73.84 672.796 74 672.462 74H672.102C671.942 74 671.809 73.9467 671.702 73.84C671.596 73.7333 671.542 73.62 671.542 73.5C671.542 73.3667 671.582 73.24 671.662 73.12C672.569 71.7867 673.602 70.4733 674.762 69.18L671.642 64.9C671.562 64.8067 671.522 64.7 671.522 64.58C671.522 64.46 671.569 64.36 671.662 64.28C671.769 64.1867 671.902 64.14 672.062 64.14Z" fill="black"/>
<path d="M398.6 347.42H406.56C407.107 347.42 407.38 347.68 407.38 348.2C407.38 348.427 407.14 349 406.66 349.92C404.687 353.813 402.92 357.313 401.36 360.42C401.16 360.807 400.82 361 400.34 361H400.04C399.613 361 399.4 360.847 399.4 360.54C399.4 360.3 399.48 360.047 399.64 359.78C399.96 359.247 401.833 355.64 405.26 348.96H398.6C398.067 348.96 397.8 348.707 397.8 348.2C397.8 347.68 398.067 347.42 398.6 347.42ZM410.992 349.04C412.072 347.84 413.439 347.24 415.092 347.24C416.745 347.24 418.105 347.84 419.172 349.04C420.239 350.227 420.772 351.933 420.772 354.16C420.772 356.373 420.232 358.093 419.152 359.32C418.085 360.547 416.732 361.16 415.092 361.16C413.452 361.16 412.085 360.547 410.992 359.32C409.912 358.093 409.372 356.373 409.372 354.16C409.372 351.947 409.912 350.24 410.992 349.04ZM418.892 354.22C418.892 352.513 418.525 351.187 417.792 350.24C417.072 349.28 416.165 348.8 415.072 348.8C413.979 348.8 413.072 349.28 412.352 350.24C411.645 351.187 411.292 352.513 411.292 354.22C411.292 355.913 411.625 357.24 412.292 358.2C412.959 359.147 413.885 359.62 415.072 359.62C416.272 359.62 417.205 359.147 417.872 358.2C418.552 357.24 418.892 355.913 418.892 354.22ZM424.8 349.04C425.88 347.84 427.247 347.24 428.9 347.24C430.554 347.24 431.914 347.84 432.98 349.04C434.047 350.227 434.58 351.933 434.58 354.16C434.58 356.373 434.04 358.093 432.96 359.32C431.894 360.547 430.54 361.16 428.9 361.16C427.26 361.16 425.894 360.547 424.8 359.32C423.72 358.093 423.18 356.373 423.18 354.16C423.18 351.947 423.72 350.24 424.8 349.04ZM432.7 354.22C432.7 352.513 432.334 351.187 431.6 350.24C430.88 349.28 429.974 348.8 428.88 348.8C427.787 348.8 426.88 349.28 426.16 350.24C425.454 351.187 425.1 352.513 425.1 354.22C425.1 355.913 425.434 357.24 426.1 358.2C426.767 359.147 427.694 359.62 428.88 359.62C430.08 359.62 431.014 359.147 431.68 358.2C432.36 357.24 432.7 355.913 432.7 354.22ZM437.989 351.14H438.129C438.636 351.14 438.889 351.373 438.889 351.84V352.62C439.169 352.153 439.589 351.76 440.149 351.44C440.709 351.12 441.316 350.96 441.969 350.96C443.209 350.96 444.209 351.38 444.969 352.22C445.742 353.047 446.129 354.313 446.129 356.02C446.129 357.713 445.676 358.993 444.769 359.86C443.876 360.727 442.776 361.16 441.469 361.16C440.576 361.16 439.716 360.933 438.889 360.48V364.78C438.889 365.273 438.636 365.52 438.129 365.52H437.989C437.482 365.52 437.229 365.273 437.229 364.78V351.88C437.229 351.387 437.482 351.14 437.989 351.14ZM444.469 356C444.469 354.733 444.202 353.813 443.669 353.24C443.136 352.653 442.416 352.36 441.509 352.36C440.602 352.36 439.936 352.76 439.509 353.56C439.096 354.36 438.889 355.4 438.889 356.68V359.18C439.022 359.273 439.349 359.4 439.869 359.56C440.402 359.707 440.936 359.78 441.469 359.78C442.362 359.78 443.082 359.467 443.629 358.84C444.189 358.213 444.469 357.267 444.469 356ZM448.855 351.14H449.475C449.809 351.14 450.082 351.3 450.295 351.62L452.555 355.08C453.129 354.373 453.895 353.22 454.855 351.62C455.055 351.3 455.315 351.14 455.635 351.14H455.995C456.382 351.14 456.575 351.293 456.575 351.6C456.575 351.707 456.549 351.807 456.495 351.9C455.735 353.193 454.722 354.58 453.455 356.06L456.595 360.24C456.702 360.387 456.755 360.52 456.755 360.64C456.755 360.88 456.615 361 456.335 361H455.555C455.222 361 454.922 360.813 454.655 360.44L452.395 357.18C452.182 357.393 451.935 357.707 451.655 358.12C451.375 358.533 451.169 358.833 451.035 359.02C450.635 359.62 450.315 360.12 450.075 360.52C449.862 360.84 449.589 361 449.255 361H448.895C448.735 361 448.602 360.947 448.495 360.84C448.389 360.733 448.335 360.62 448.335 360.5C448.335 360.367 448.375 360.24 448.455 360.12C449.362 358.787 450.395 357.473 451.555 356.18L448.435 351.9C448.355 351.807 448.315 351.7 448.315 351.58C448.315 351.46 448.362 351.36 448.455 351.28C448.562 351.187 448.695 351.14 448.855 351.14Z" fill="black"/>
<path d="M99.9909 373.614C328.845 375.206 560.764 371.819 786.009 373.386" stroke="#FCE070" stroke-width="7" stroke-linecap="round" stroke-linejoin="round"/>
<path d="M98.515 373.348C98.515 382.56 98.515 391.772 98.515 400.984C98.515 403.399 99.2328 405.03 99.2328 407.444C99.2328 408.027 98.6008 409.601 98.1561 409.957C97.627 410.38 97.7972 412.918 97.7972 412.11" stroke="#FCE070" stroke-width="7" stroke-linecap="round" stroke-linejoin="round"/>
<defs>
<filter id="filter0_d" x="131" y="173" width="58" height="58" filterUnits="userSpaceOnUse" color-interpolation-filters="sRGB">
<feFlood flood-opacity="0" result="BackgroundImageFix"/>
<feColorMatrix in="SourceAlpha" type="matrix" values="0 0 0 0 0 0 0 0 0 0 0 0 0 0 0 0 0 0 127 0"/>
<feOffset dy="4"/>
<feGaussianBlur stdDeviation="2"/>
<feColorMatrix type="matrix" values="0 0 0 0 0 0 0 0 0 0 0 0 0 0 0 0 0 0 0.25 0"/>
<feBlend mode="normal" in2="BackgroundImageFix" result="effect1_dropShadow"/>
<feBlend mode="normal" in="SourceGraphic" in2="effect1_dropShadow" result="shape"/>
</filter>
<filter id="filter1_d" x="181" y="173" width="58" height="58" filterUnits="userSpaceOnUse" color-interpolation-filters="sRGB">
<feFlood flood-opacity="0" result="BackgroundImageFix"/>
<feColorMatrix in="SourceAlpha" type="matrix" values="0 0 0 0 0 0 0 0 0 0 0 0 0 0 0 0 0 0 127 0"/>
<feOffset dy="4"/>
<feGaussianBlur stdDeviation="2"/>
<feColorMatrix type="matrix" values="0 0 0 0 0 0 0 0 0 0 0 0 0 0 0 0 0 0 0.25 0"/>
<feBlend mode="normal" in2="BackgroundImageFix" result="effect1_dropShadow"/>
<feBlend mode="normal" in="SourceGraphic" in2="effect1_dropShadow" result="shape"/>
</filter>
<filter id="filter2_d" x="88" y="367" width="708" height="58" filterUnits="userSpaceOnUse" color-interpolation-filters="sRGB">
<feFlood flood-opacity="0" result="BackgroundImageFix"/>
<feColorMatrix in="SourceAlpha" type="matrix" values="0 0 0 0 0 0 0 0 0 0 0 0 0 0 0 0 0 0 127 0"/>
<feOffset dy="4"/>
<feGaussianBlur stdDeviation="2"/>
<feColorMatrix type="matrix" values="0 0 0 0 0 0 0 0 0 0 0 0 0 0 0 0 0 0 0.25 0"/>
<feBlend mode="normal" in2="BackgroundImageFix" result="effect1_dropShadow"/>
<feBlend mode="normal" in="SourceGraphic" in2="effect1_dropShadow" result="shape"/>
</filter>
<filter id="filter3_d" x="81" y="173" width="58" height="58" filterUnits="userSpaceOnUse" color-interpolation-filters="sRGB">
<feFlood flood-opacity="0" result="BackgroundImageFix"/>
<feColorMatrix in="SourceAlpha" type="matrix" values="0 0 0 0 0 0 0 0 0 0 0 0 0 0 0 0 0 0 127 0"/>
<feOffset dy="4"/>
<feGaussianBlur stdDeviation="2"/>
<feColorMatrix type="matrix" values="0 0 0 0 0 0 0 0 0 0 0 0 0 0 0 0 0 0 0.25 0"/>
<feBlend mode="normal" in2="BackgroundImageFix" result="effect1_dropShadow"/>
<feBlend mode="normal" in="SourceGraphic" in2="effect1_dropShadow" result="shape"/>
</filter>
<filter id="filter4_d" x="31" y="173" width="58" height="58" filterUnits="userSpaceOnUse" color-interpolation-filters="sRGB">
<feFlood flood-opacity="0" result="BackgroundImageFix"/>
<feColorMatrix in="SourceAlpha" type="matrix" values="0 0 0 0 0 0 0 0 0 0 0 0 0 0 0 0 0 0 127 0"/>
<feOffset dy="4"/>
<feGaussianBlur stdDeviation="2"/>
<feColorMatrix type="matrix" values="0 0 0 0 0 0 0 0 0 0 0 0 0 0 0 0 0 0 0.25 0"/>
<feBlend mode="normal" in2="BackgroundImageFix" result="effect1_dropShadow"/>
<feBlend mode="normal" in="SourceGraphic" in2="effect1_dropShadow" result="shape"/>
</filter>
</defs>
</svg>
